<?xml version="1.0" encoding="utf-8" standalone="no"?>
<!DOCTYPE svg PUBLIC "-//W3C//DTD SVG 1.1//EN"
  "http://www.w3.org/Graphics/SVG/1.1/DTD/svg11.dtd">
<!-- Created with matplotlib (http://matplotlib.org/) -->
<svg height="288pt" version="1.1" viewBox="0 0 432 288" width="432pt" xmlns="http://www.w3.org/2000/svg" xmlns:xlink="http://www.w3.org/1999/xlink">
 <defs>
  <style type="text/css">
*{stroke-linecap:butt;stroke-linejoin:round;}
  </style>
 </defs>
 <g id="figure_1">
  <g id="patch_1">
   <path d="M 0 288 
L 432 288 
L 432 0 
L 0 0 
z
" style="fill:#ffffff;"/>
  </g>
  <g id="axes_1">
   <g id="patch_2">
    <path d="M 54 252 
L 388.8 252 
L 388.8 34.56 
L 54 34.56 
z
" style="fill:#ffffff;"/>
   </g>
   <g id="matplotlib.axis_1">
    <g id="xtick_1">
     <g id="line2d_1">
      <defs>
       <path d="M 0 0 
L 0 3.5 
" id="m8e98b26e17" style="stroke:#000000;stroke-width:0.8;"/>
      </defs>
      <g>
       <use style="stroke:#000000;stroke-width:0.8;" x="81.30029" xlink:href="#m8e98b26e17" y="252"/>
      </g>
     </g>
     <g id="text_1">
      <!-- 1986 -->
      <defs>
       <path d="M 12.40625 8.296875 
L 28.515625 8.296875 
L 28.515625 63.921875 
L 10.984375 60.40625 
L 10.984375 69.390625 
L 28.421875 72.90625 
L 38.28125 72.90625 
L 38.28125 8.296875 
L 54.390625 8.296875 
L 54.390625 0 
L 12.40625 0 
z
" id="DejaVuSans-31"/>
       <path d="M 10.984375 1.515625 
L 10.984375 10.5 
Q 14.703125 8.734375 18.5 7.8125 
Q 22.3125 6.890625 25.984375 6.890625 
Q 35.75 6.890625 40.890625 13.453125 
Q 46.046875 20.015625 46.78125 33.40625 
Q 43.953125 29.203125 39.59375 26.953125 
Q 35.25 24.703125 29.984375 24.703125 
Q 19.046875 24.703125 12.671875 31.3125 
Q 6.296875 37.9375 6.296875 49.421875 
Q 6.296875 60.640625 12.9375 67.421875 
Q 19.578125 74.21875 30.609375 74.21875 
Q 43.265625 74.21875 49.921875 64.515625 
Q 56.59375 54.828125 56.59375 36.375 
Q 56.59375 19.140625 48.40625 8.859375 
Q 40.234375 -1.421875 26.421875 -1.421875 
Q 22.703125 -1.421875 18.890625 -0.6875 
Q 15.09375 0.046875 10.984375 1.515625 
z
M 30.609375 32.421875 
Q 37.25 32.421875 41.125 36.953125 
Q 45.015625 41.5 45.015625 49.421875 
Q 45.015625 57.28125 41.125 61.84375 
Q 37.25 66.40625 30.609375 66.40625 
Q 23.96875 66.40625 20.09375 61.84375 
Q 16.21875 57.28125 16.21875 49.421875 
Q 16.21875 41.5 20.09375 36.953125 
Q 23.96875 32.421875 30.609375 32.421875 
z
" id="DejaVuSans-39"/>
       <path d="M 31.78125 34.625 
Q 24.75 34.625 20.71875 30.859375 
Q 16.703125 27.09375 16.703125 20.515625 
Q 16.703125 13.921875 20.71875 10.15625 
Q 24.75 6.390625 31.78125 6.390625 
Q 38.8125 6.390625 42.859375 10.171875 
Q 46.921875 13.96875 46.921875 20.515625 
Q 46.921875 27.09375 42.890625 30.859375 
Q 38.875 34.625 31.78125 34.625 
z
M 21.921875 38.8125 
Q 15.578125 40.375 12.03125 44.71875 
Q 8.5 49.078125 8.5 55.328125 
Q 8.5 64.0625 14.71875 69.140625 
Q 20.953125 74.21875 31.78125 74.21875 
Q 42.671875 74.21875 48.875 69.140625 
Q 55.078125 64.0625 55.078125 55.328125 
Q 55.078125 49.078125 51.53125 44.71875 
Q 48 40.375 41.703125 38.8125 
Q 48.828125 37.15625 52.796875 32.3125 
Q 56.78125 27.484375 56.78125 20.515625 
Q 56.78125 9.90625 50.3125 4.234375 
Q 43.84375 -1.421875 31.78125 -1.421875 
Q 19.734375 -1.421875 13.25 4.234375 
Q 6.78125 9.90625 6.78125 20.515625 
Q 6.78125 27.484375 10.78125 32.3125 
Q 14.796875 37.15625 21.921875 38.8125 
z
M 18.3125 54.390625 
Q 18.3125 48.734375 21.84375 45.5625 
Q 25.390625 42.390625 31.78125 42.390625 
Q 38.140625 42.390625 41.71875 45.5625 
Q 45.3125 48.734375 45.3125 54.390625 
Q 45.3125 60.0625 41.71875 63.234375 
Q 38.140625 66.40625 31.78125 66.40625 
Q 25.390625 66.40625 21.84375 63.234375 
Q 18.3125 60.0625 18.3125 54.390625 
z
" id="DejaVuSans-38"/>
       <path d="M 33.015625 40.375 
Q 26.375 40.375 22.484375 35.828125 
Q 18.609375 31.296875 18.609375 23.390625 
Q 18.609375 15.53125 22.484375 10.953125 
Q 26.375 6.390625 33.015625 6.390625 
Q 39.65625 6.390625 43.53125 10.953125 
Q 47.40625 15.53125 47.40625 23.390625 
Q 47.40625 31.296875 43.53125 35.828125 
Q 39.65625 40.375 33.015625 40.375 
z
M 52.59375 71.296875 
L 52.59375 62.3125 
Q 48.875 64.0625 45.09375 64.984375 
Q 41.3125 65.921875 37.59375 65.921875 
Q 27.828125 65.921875 22.671875 59.328125 
Q 17.53125 52.734375 16.796875 39.40625 
Q 19.671875 43.65625 24.015625 45.921875 
Q 28.375 48.1875 33.59375 48.1875 
Q 44.578125 48.1875 50.953125 41.515625 
Q 57.328125 34.859375 57.328125 23.390625 
Q 57.328125 12.15625 50.6875 5.359375 
Q 44.046875 -1.421875 33.015625 -1.421875 
Q 20.359375 -1.421875 13.671875 8.265625 
Q 6.984375 17.96875 6.984375 36.375 
Q 6.984375 53.65625 15.1875 63.9375 
Q 23.390625 74.21875 37.203125 74.21875 
Q 40.921875 74.21875 44.703125 73.484375 
Q 48.484375 72.75 52.59375 71.296875 
z
" id="DejaVuSans-36"/>
      </defs>
      <g transform="translate(68.57529 266.598437)scale(0.1 -0.1)">
       <use xlink:href="#DejaVuSans-31"/>
       <use x="63.623047" xlink:href="#DejaVuSans-39"/>
       <use x="127.246094" xlink:href="#DejaVuSans-38"/>
       <use x="190.869141" xlink:href="#DejaVuSans-36"/>
      </g>
     </g>
    </g>
    <g id="xtick_2">
     <g id="line2d_2">
      <g>
       <use style="stroke:#000000;stroke-width:0.8;" x="117.998753" xlink:href="#m8e98b26e17" y="252"/>
      </g>
     </g>
     <g id="text_2">
      <!-- 1990 -->
      <defs>
       <path d="M 31.78125 66.40625 
Q 24.171875 66.40625 20.328125 58.90625 
Q 16.5 51.421875 16.5 36.375 
Q 16.5 21.390625 20.328125 13.890625 
Q 24.171875 6.390625 31.78125 6.390625 
Q 39.453125 6.390625 43.28125 13.890625 
Q 47.125 21.390625 47.125 36.375 
Q 47.125 51.421875 43.28125 58.90625 
Q 39.453125 66.40625 31.78125 66.40625 
z
M 31.78125 74.21875 
Q 44.046875 74.21875 50.515625 64.515625 
Q 56.984375 54.828125 56.984375 36.375 
Q 56.984375 17.96875 50.515625 8.265625 
Q 44.046875 -1.421875 31.78125 -1.421875 
Q 19.53125 -1.421875 13.0625 8.265625 
Q 6.59375 17.96875 6.59375 36.375 
Q 6.59375 54.828125 13.0625 64.515625 
Q 19.53125 74.21875 31.78125 74.21875 
z
" id="DejaVuSans-30"/>
      </defs>
      <g transform="translate(105.273753 266.598437)scale(0.1 -0.1)">
       <use xlink:href="#DejaVuSans-31"/>
       <use x="63.623047" xlink:href="#DejaVuSans-39"/>
       <use x="127.246094" xlink:href="#DejaVuSans-39"/>
       <use x="190.869141" xlink:href="#DejaVuSans-30"/>
      </g>
     </g>
    </g>
    <g id="xtick_3">
     <g id="line2d_3">
      <g>
       <use style="stroke:#000000;stroke-width:0.8;" x="154.697216" xlink:href="#m8e98b26e17" y="252"/>
      </g>
     </g>
     <g id="text_3">
      <!-- 1994 -->
      <defs>
       <path d="M 37.796875 64.3125 
L 12.890625 25.390625 
L 37.796875 25.390625 
z
M 35.203125 72.90625 
L 47.609375 72.90625 
L 47.609375 25.390625 
L 58.015625 25.390625 
L 58.015625 17.1875 
L 47.609375 17.1875 
L 47.609375 0 
L 37.796875 0 
L 37.796875 17.1875 
L 4.890625 17.1875 
L 4.890625 26.703125 
z
" id="DejaVuSans-34"/>
      </defs>
      <g transform="translate(141.972216 266.598437)scale(0.1 -0.1)">
       <use xlink:href="#DejaVuSans-31"/>
       <use x="63.623047" xlink:href="#DejaVuSans-39"/>
       <use x="127.246094" xlink:href="#DejaVuSans-39"/>
       <use x="190.869141" xlink:href="#DejaVuSans-34"/>
      </g>
     </g>
    </g>
    <g id="xtick_4">
     <g id="line2d_4">
      <g>
       <use style="stroke:#000000;stroke-width:0.8;" x="191.395678" xlink:href="#m8e98b26e17" y="252"/>
      </g>
     </g>
     <g id="text_4">
      <!-- 1998 -->
      <g transform="translate(178.670678 266.598437)scale(0.1 -0.1)">
       <use xlink:href="#DejaVuSans-31"/>
       <use x="63.623047" xlink:href="#DejaVuSans-39"/>
       <use x="127.246094" xlink:href="#DejaVuSans-39"/>
       <use x="190.869141" xlink:href="#DejaVuSans-38"/>
      </g>
     </g>
    </g>
    <g id="xtick_5">
     <g id="line2d_5">
      <g>
       <use style="stroke:#000000;stroke-width:0.8;" x="228.094141" xlink:href="#m8e98b26e17" y="252"/>
      </g>
     </g>
     <g id="text_5">
      <!-- 2002 -->
      <defs>
       <path d="M 19.1875 8.296875 
L 53.609375 8.296875 
L 53.609375 0 
L 7.328125 0 
L 7.328125 8.296875 
Q 12.9375 14.109375 22.625 23.890625 
Q 32.328125 33.6875 34.8125 36.53125 
Q 39.546875 41.84375 41.421875 45.53125 
Q 43.3125 49.21875 43.3125 52.78125 
Q 43.3125 58.59375 39.234375 62.25 
Q 35.15625 65.921875 28.609375 65.921875 
Q 23.96875 65.921875 18.8125 64.3125 
Q 13.671875 62.703125 7.8125 59.421875 
L 7.8125 69.390625 
Q 13.765625 71.78125 18.9375 73 
Q 24.125 74.21875 28.421875 74.21875 
Q 39.75 74.21875 46.484375 68.546875 
Q 53.21875 62.890625 53.21875 53.421875 
Q 53.21875 48.921875 51.53125 44.890625 
Q 49.859375 40.875 45.40625 35.40625 
Q 44.1875 33.984375 37.640625 27.21875 
Q 31.109375 20.453125 19.1875 8.296875 
z
" id="DejaVuSans-32"/>
      </defs>
      <g transform="translate(215.369141 266.598437)scale(0.1 -0.1)">
       <use xlink:href="#DejaVuSans-32"/>
       <use x="63.623047" xlink:href="#DejaVuSans-30"/>
       <use x="127.246094" xlink:href="#DejaVuSans-30"/>
       <use x="190.869141" xlink:href="#DejaVuSans-32"/>
      </g>
     </g>
    </g>
    <g id="xtick_6">
     <g id="line2d_6">
      <g>
       <use style="stroke:#000000;stroke-width:0.8;" x="264.792604" xlink:href="#m8e98b26e17" y="252"/>
      </g>
     </g>
     <g id="text_6">
      <!-- 2006 -->
      <g transform="translate(252.067604 266.598437)scale(0.1 -0.1)">
       <use xlink:href="#DejaVuSans-32"/>
       <use x="63.623047" xlink:href="#DejaVuSans-30"/>
       <use x="127.246094" xlink:href="#DejaVuSans-30"/>
       <use x="190.869141" xlink:href="#DejaVuSans-36"/>
      </g>
     </g>
    </g>
    <g id="xtick_7">
     <g id="line2d_7">
      <g>
       <use style="stroke:#000000;stroke-width:0.8;" x="301.491067" xlink:href="#m8e98b26e17" y="252"/>
      </g>
     </g>
     <g id="text_7">
      <!-- 2010 -->
      <g transform="translate(288.766067 266.598437)scale(0.1 -0.1)">
       <use xlink:href="#DejaVuSans-32"/>
       <use x="63.623047" xlink:href="#DejaVuSans-30"/>
       <use x="127.246094" xlink:href="#DejaVuSans-31"/>
       <use x="190.869141" xlink:href="#DejaVuSans-30"/>
      </g>
     </g>
    </g>
    <g id="xtick_8">
     <g id="line2d_8">
      <g>
       <use style="stroke:#000000;stroke-width:0.8;" x="338.189529" xlink:href="#m8e98b26e17" y="252"/>
      </g>
     </g>
     <g id="text_8">
      <!-- 2014 -->
      <g transform="translate(325.464529 266.598437)scale(0.1 -0.1)">
       <use xlink:href="#DejaVuSans-32"/>
       <use x="63.623047" xlink:href="#DejaVuSans-30"/>
       <use x="127.246094" xlink:href="#DejaVuSans-31"/>
       <use x="190.869141" xlink:href="#DejaVuSans-34"/>
      </g>
     </g>
    </g>
    <g id="xtick_9">
     <g id="line2d_9">
      <g>
       <use style="stroke:#000000;stroke-width:0.8;" x="374.887992" xlink:href="#m8e98b26e17" y="252"/>
      </g>
     </g>
     <g id="text_9">
      <!-- 2018 -->
      <g transform="translate(362.162992 266.598437)scale(0.1 -0.1)">
       <use xlink:href="#DejaVuSans-32"/>
       <use x="63.623047" xlink:href="#DejaVuSans-30"/>
       <use x="127.246094" xlink:href="#DejaVuSans-31"/>
       <use x="190.869141" xlink:href="#DejaVuSans-38"/>
      </g>
     </g>
    </g>
    <g id="text_10">
     <!-- Date -->
     <defs>
      <path d="M 19.671875 64.796875 
L 19.671875 8.109375 
L 31.59375 8.109375 
Q 46.6875 8.109375 53.6875 14.9375 
Q 60.6875 21.78125 60.6875 36.53125 
Q 60.6875 51.171875 53.6875 57.984375 
Q 46.6875 64.796875 31.59375 64.796875 
z
M 9.8125 72.90625 
L 30.078125 72.90625 
Q 51.265625 72.90625 61.171875 64.09375 
Q 71.09375 55.28125 71.09375 36.53125 
Q 71.09375 17.671875 61.125 8.828125 
Q 51.171875 0 30.078125 0 
L 9.8125 0 
z
" id="DejaVuSans-44"/>
      <path d="M 34.28125 27.484375 
Q 23.390625 27.484375 19.1875 25 
Q 14.984375 22.515625 14.984375 16.5 
Q 14.984375 11.71875 18.140625 8.90625 
Q 21.296875 6.109375 26.703125 6.109375 
Q 34.1875 6.109375 38.703125 11.40625 
Q 43.21875 16.703125 43.21875 25.484375 
L 43.21875 27.484375 
z
M 52.203125 31.203125 
L 52.203125 0 
L 43.21875 0 
L 43.21875 8.296875 
Q 40.140625 3.328125 35.546875 0.953125 
Q 30.953125 -1.421875 24.3125 -1.421875 
Q 15.921875 -1.421875 10.953125 3.296875 
Q 6 8.015625 6 15.921875 
Q 6 25.140625 12.171875 29.828125 
Q 18.359375 34.515625 30.609375 34.515625 
L 43.21875 34.515625 
L 43.21875 35.40625 
Q 43.21875 41.609375 39.140625 45 
Q 35.0625 48.390625 27.6875 48.390625 
Q 23 48.390625 18.546875 47.265625 
Q 14.109375 46.140625 10.015625 43.890625 
L 10.015625 52.203125 
Q 14.9375 54.109375 19.578125 55.046875 
Q 24.21875 56 28.609375 56 
Q 40.484375 56 46.34375 49.84375 
Q 52.203125 43.703125 52.203125 31.203125 
z
" id="DejaVuSans-61"/>
      <path d="M 18.3125 70.21875 
L 18.3125 54.6875 
L 36.8125 54.6875 
L 36.8125 47.703125 
L 18.3125 47.703125 
L 18.3125 18.015625 
Q 18.3125 11.328125 20.140625 9.421875 
Q 21.96875 7.515625 27.59375 7.515625 
L 36.8125 7.515625 
L 36.8125 0 
L 27.59375 0 
Q 17.1875 0 13.234375 3.875 
Q 9.28125 7.765625 9.28125 18.015625 
L 9.28125 47.703125 
L 2.6875 47.703125 
L 2.6875 54.6875 
L 9.28125 54.6875 
L 9.28125 70.21875 
z
" id="DejaVuSans-74"/>
      <path d="M 56.203125 29.59375 
L 56.203125 25.203125 
L 14.890625 25.203125 
Q 15.484375 15.921875 20.484375 11.0625 
Q 25.484375 6.203125 34.421875 6.203125 
Q 39.59375 6.203125 44.453125 7.46875 
Q 49.3125 8.734375 54.109375 11.28125 
L 54.109375 2.78125 
Q 49.265625 0.734375 44.1875 -0.34375 
Q 39.109375 -1.421875 33.890625 -1.421875 
Q 20.796875 -1.421875 13.15625 6.1875 
Q 5.515625 13.8125 5.515625 26.8125 
Q 5.515625 40.234375 12.765625 48.109375 
Q 20.015625 56 32.328125 56 
Q 43.359375 56 49.78125 48.890625 
Q 56.203125 41.796875 56.203125 29.59375 
z
M 47.21875 32.234375 
Q 47.125 39.59375 43.09375 43.984375 
Q 39.0625 48.390625 32.421875 48.390625 
Q 24.90625 48.390625 20.390625 44.140625 
Q 15.875 39.890625 15.1875 32.171875 
z
" id="DejaVuSans-65"/>
     </defs>
     <g transform="translate(202.27875 284.835625)scale(0.16 -0.16)">
      <use xlink:href="#DejaVuSans-44"/>
      <use x="77.001953" xlink:href="#DejaVuSans-61"/>
      <use x="138.28125" xlink:href="#DejaVuSans-74"/>
      <use x="177.490234" xlink:href="#DejaVuSans-65"/>
     </g>
    </g>
   </g>
   <g id="matplotlib.axis_2">
    <g id="ytick_1">
     <g id="line2d_10">
      <defs>
       <path d="M 0 0 
L -3.5 0 
" id="m7dba719e9f" style="stroke:#000000;stroke-width:0.8;"/>
      </defs>
      <g>
       <use style="stroke:#000000;stroke-width:0.8;" x="54" xlink:href="#m7dba719e9f" y="242.376175"/>
      </g>
     </g>
     <g id="text_11">
      <!-- $0 -->
      <defs>
       <path d="M 33.796875 -14.703125 
L 28.90625 -14.703125 
L 28.859375 0 
Q 23.734375 0.09375 18.609375 1.1875 
Q 13.484375 2.296875 8.296875 4.5 
L 8.296875 13.28125 
Q 13.28125 10.15625 18.375 8.5625 
Q 23.484375 6.984375 28.90625 6.9375 
L 28.90625 29.203125 
Q 18.109375 30.953125 13.203125 35.15625 
Q 8.296875 39.359375 8.296875 46.6875 
Q 8.296875 54.640625 13.625 59.21875 
Q 18.953125 63.8125 28.90625 64.5 
L 28.90625 75.984375 
L 33.796875 75.984375 
L 33.796875 64.65625 
Q 38.328125 64.453125 42.578125 63.6875 
Q 46.828125 62.9375 50.875 61.625 
L 50.875 53.078125 
Q 46.828125 55.125 42.546875 56.25 
Q 38.28125 57.375 33.796875 57.5625 
L 33.796875 36.71875 
Q 44.875 35.015625 50.09375 30.609375 
Q 55.328125 26.21875 55.328125 18.609375 
Q 55.328125 10.359375 49.78125 5.59375 
Q 44.234375 0.828125 33.796875 0.09375 
z
M 28.90625 37.59375 
L 28.90625 57.625 
Q 23.25 56.984375 20.265625 54.390625 
Q 17.28125 51.8125 17.28125 47.515625 
Q 17.28125 43.3125 20.03125 40.96875 
Q 22.796875 38.625 28.90625 37.59375 
z
M 33.796875 28.21875 
L 33.796875 7.078125 
Q 39.984375 7.90625 43.140625 10.59375 
Q 46.296875 13.28125 46.296875 17.671875 
Q 46.296875 21.96875 43.28125 24.5 
Q 40.28125 27.046875 33.796875 28.21875 
z
" id="DejaVuSans-24"/>
      </defs>
      <g transform="translate(34.275 246.175393)scale(0.1 -0.1)">
       <use xlink:href="#DejaVuSans-24"/>
       <use x="63.623047" xlink:href="#DejaVuSans-30"/>
      </g>
     </g>
    </g>
    <g id="ytick_2">
     <g id="line2d_11">
      <g>
       <use style="stroke:#000000;stroke-width:0.8;" x="54" xlink:href="#m7dba719e9f" y="214.198318"/>
      </g>
     </g>
     <g id="text_12">
      <!-- $25 -->
      <defs>
       <path d="M 10.796875 72.90625 
L 49.515625 72.90625 
L 49.515625 64.59375 
L 19.828125 64.59375 
L 19.828125 46.734375 
Q 21.96875 47.46875 24.109375 47.828125 
Q 26.265625 48.1875 28.421875 48.1875 
Q 40.625 48.1875 47.75 41.5 
Q 54.890625 34.8125 54.890625 23.390625 
Q 54.890625 11.625 47.5625 5.09375 
Q 40.234375 -1.421875 26.90625 -1.421875 
Q 22.3125 -1.421875 17.546875 -0.640625 
Q 12.796875 0.140625 7.71875 1.703125 
L 7.71875 11.625 
Q 12.109375 9.234375 16.796875 8.0625 
Q 21.484375 6.890625 26.703125 6.890625 
Q 35.15625 6.890625 40.078125 11.328125 
Q 45.015625 15.765625 45.015625 23.390625 
Q 45.015625 31 40.078125 35.4375 
Q 35.15625 39.890625 26.703125 39.890625 
Q 22.75 39.890625 18.8125 39.015625 
Q 14.890625 38.140625 10.796875 36.28125 
z
" id="DejaVuSans-35"/>
      </defs>
      <g transform="translate(27.9125 217.997537)scale(0.1 -0.1)">
       <use xlink:href="#DejaVuSans-24"/>
       <use x="63.623047" xlink:href="#DejaVuSans-32"/>
       <use x="127.246094" xlink:href="#DejaVuSans-35"/>
      </g>
     </g>
    </g>
    <g id="ytick_3">
     <g id="line2d_12">
      <g>
       <use style="stroke:#000000;stroke-width:0.8;" x="54" xlink:href="#m7dba719e9f" y="186.020461"/>
      </g>
     </g>
     <g id="text_13">
      <!-- $50 -->
      <g transform="translate(27.9125 189.81968)scale(0.1 -0.1)">
       <use xlink:href="#DejaVuSans-24"/>
       <use x="63.623047" xlink:href="#DejaVuSans-35"/>
       <use x="127.246094" xlink:href="#DejaVuSans-30"/>
      </g>
     </g>
    </g>
    <g id="ytick_4">
     <g id="line2d_13">
      <g>
       <use style="stroke:#000000;stroke-width:0.8;" x="54" xlink:href="#m7dba719e9f" y="157.842604"/>
      </g>
     </g>
     <g id="text_14">
      <!-- $75 -->
      <defs>
       <path d="M 8.203125 72.90625 
L 55.078125 72.90625 
L 55.078125 68.703125 
L 28.609375 0 
L 18.3125 0 
L 43.21875 64.59375 
L 8.203125 64.59375 
z
" id="DejaVuSans-37"/>
      </defs>
      <g transform="translate(27.9125 161.641823)scale(0.1 -0.1)">
       <use xlink:href="#DejaVuSans-24"/>
       <use x="63.623047" xlink:href="#DejaVuSans-37"/>
       <use x="127.246094" xlink:href="#DejaVuSans-35"/>
      </g>
     </g>
    </g>
    <g id="ytick_5">
     <g id="line2d_14">
      <g>
       <use style="stroke:#000000;stroke-width:0.8;" x="54" xlink:href="#m7dba719e9f" y="129.664747"/>
      </g>
     </g>
     <g id="text_15">
      <!-- $100 -->
      <g transform="translate(21.55 133.463966)scale(0.1 -0.1)">
       <use xlink:href="#DejaVuSans-24"/>
       <use x="63.623047" xlink:href="#DejaVuSans-31"/>
       <use x="127.246094" xlink:href="#DejaVuSans-30"/>
       <use x="190.869141" xlink:href="#DejaVuSans-30"/>
      </g>
     </g>
    </g>
    <g id="ytick_6">
     <g id="line2d_15">
      <g>
       <use style="stroke:#000000;stroke-width:0.8;" x="54" xlink:href="#m7dba719e9f" y="101.48689"/>
      </g>
     </g>
     <g id="text_16">
      <!-- $125 -->
      <g transform="translate(21.55 105.286109)scale(0.1 -0.1)">
       <use xlink:href="#DejaVuSans-24"/>
       <use x="63.623047" xlink:href="#DejaVuSans-31"/>
       <use x="127.246094" xlink:href="#DejaVuSans-32"/>
       <use x="190.869141" xlink:href="#DejaVuSans-35"/>
      </g>
     </g>
    </g>
    <g id="ytick_7">
     <g id="line2d_16">
      <g>
       <use style="stroke:#000000;stroke-width:0.8;" x="54" xlink:href="#m7dba719e9f" y="73.309033"/>
      </g>
     </g>
     <g id="text_17">
      <!-- $150 -->
      <g transform="translate(21.55 77.108252)scale(0.1 -0.1)">
       <use xlink:href="#DejaVuSans-24"/>
       <use x="63.623047" xlink:href="#DejaVuSans-31"/>
       <use x="127.246094" xlink:href="#DejaVuSans-35"/>
       <use x="190.869141" xlink:href="#DejaVuSans-30"/>
      </g>
     </g>
    </g>
    <g id="ytick_8">
     <g id="line2d_17">
      <g>
       <use style="stroke:#000000;stroke-width:0.8;" x="54" xlink:href="#m7dba719e9f" y="45.131176"/>
      </g>
     </g>
     <g id="text_18">
      <!-- $175 -->
      <g transform="translate(21.55 48.930395)scale(0.1 -0.1)">
       <use xlink:href="#DejaVuSans-24"/>
       <use x="63.623047" xlink:href="#DejaVuSans-31"/>
       <use x="127.246094" xlink:href="#DejaVuSans-37"/>
       <use x="190.869141" xlink:href="#DejaVuSans-35"/>
      </g>
     </g>
    </g>
    <g id="text_19">
     <!-- Price -->
     <defs>
      <path d="M 19.671875 64.796875 
L 19.671875 37.40625 
L 32.078125 37.40625 
Q 38.96875 37.40625 42.71875 40.96875 
Q 46.484375 44.53125 46.484375 51.125 
Q 46.484375 57.671875 42.71875 61.234375 
Q 38.96875 64.796875 32.078125 64.796875 
z
M 9.8125 72.90625 
L 32.078125 72.90625 
Q 44.34375 72.90625 50.609375 67.359375 
Q 56.890625 61.8125 56.890625 51.125 
Q 56.890625 40.328125 50.609375 34.8125 
Q 44.34375 29.296875 32.078125 29.296875 
L 19.671875 29.296875 
L 19.671875 0 
L 9.8125 0 
z
" id="DejaVuSans-50"/>
      <path d="M 41.109375 46.296875 
Q 39.59375 47.171875 37.8125 47.578125 
Q 36.03125 48 33.890625 48 
Q 26.265625 48 22.1875 43.046875 
Q 18.109375 38.09375 18.109375 28.8125 
L 18.109375 0 
L 9.078125 0 
L 9.078125 54.6875 
L 18.109375 54.6875 
L 18.109375 46.1875 
Q 20.953125 51.171875 25.484375 53.578125 
Q 30.03125 56 36.53125 56 
Q 37.453125 56 38.578125 55.875 
Q 39.703125 55.765625 41.0625 55.515625 
z
" id="DejaVuSans-72"/>
      <path d="M 9.421875 54.6875 
L 18.40625 54.6875 
L 18.40625 0 
L 9.421875 0 
z
M 9.421875 75.984375 
L 18.40625 75.984375 
L 18.40625 64.59375 
L 9.421875 64.59375 
z
" id="DejaVuSans-69"/>
      <path d="M 48.78125 52.59375 
L 48.78125 44.1875 
Q 44.96875 46.296875 41.140625 47.34375 
Q 37.3125 48.390625 33.40625 48.390625 
Q 24.65625 48.390625 19.8125 42.84375 
Q 14.984375 37.3125 14.984375 27.296875 
Q 14.984375 17.28125 19.8125 11.734375 
Q 24.65625 6.203125 33.40625 6.203125 
Q 37.3125 6.203125 41.140625 7.25 
Q 44.96875 8.296875 48.78125 10.40625 
L 48.78125 2.09375 
Q 45.015625 0.34375 40.984375 -0.53125 
Q 36.96875 -1.421875 32.421875 -1.421875 
Q 20.0625 -1.421875 12.78125 6.34375 
Q 5.515625 14.109375 5.515625 27.296875 
Q 5.515625 40.671875 12.859375 48.328125 
Q 20.21875 56 33.015625 56 
Q 37.15625 56 41.109375 55.140625 
Q 45.0625 54.296875 48.78125 52.59375 
z
" id="DejaVuSans-63"/>
     </defs>
     <g transform="translate(14.2225 162.935)rotate(-90)scale(0.16 -0.16)">
      <use xlink:href="#DejaVuSans-50"/>
      <use x="60.287109" xlink:href="#DejaVuSans-72"/>
      <use x="101.400391" xlink:href="#DejaVuSans-69"/>
      <use x="129.183594" xlink:href="#DejaVuSans-63"/>
      <use x="184.164062" xlink:href="#DejaVuSans-65"/>
     </g>
    </g>
   </g>
   <g id="line2d_18">
    <path clip-path="url(#p2cc4709d8f)" d="M 69.218182 241.898414 
L 71.755173 241.889746 
L 71.855648 241.889746 
L 73.186941 241.84066 
L 73.387891 241.901276 
L 73.613959 241.928722 
L 74.141453 241.976354 
L 74.79454 241.969151 
L 75.146202 242.00088 
L 75.296914 242.015295 
L 76.552851 242.049977 
L 77.105463 242.065824 
L 77.75855 242.101914 
L 78.009737 242.110582 
L 80.044354 242.018203 
L 80.396016 242.026882 
L 80.647203 242.021055 
L 81.425884 241.976354 
L 81.70219 241.944614 
L 83.912638 241.883986 
L 84.239182 241.800107 
L 84.46525 241.810251 
L 84.6662 241.728084 
L 89.715064 241.629912 
L 89.916014 241.593732 
L 90.217439 241.618303 
L 90.79517 241.510213 
L 90.920763 241.420607 
L 90.945882 241.447996 
L 91.021238 241.472567 
L 91.171951 241.401897 
L 91.322663 241.386005 
L 91.473375 241.426356 
L 91.649207 241.180983 
L 91.799919 241.240269 
L 91.97575 241.162273 
L 92.076225 241.166668 
L 92.327412 241.202623 
L 92.427887 241.147733 
L 92.729312 241.175347 
L 92.779549 241.084276 
L 92.854906 241.117526 
L 92.95538 241.111778 
L 93.106093 241.090025 
L 93.382399 241.026568 
L 93.583349 240.931327 
L 94.110842 240.971903 
L 94.186198 240.95308 
L 94.613217 240.961308 
L 94.688573 240.880607 
L 94.713692 240.899204 
L 94.889523 240.917238 
L 95.165829 240.961308 
L 95.190947 241.033782 
L 95.241185 241.00628 
L 95.492372 240.870801 
L 95.718441 240.899204 
L 96.421765 240.499755 
L 97.099971 240.423111 
L 97.175327 240.300707 
L 97.250683 240.363938 
L 97.275802 240.410375 
L 97.300921 240.337789 
L 97.300921 240.337789 
L 97.426514 240.23849 
L 97.526989 240.423111 
L 97.677702 240.499755 
L 97.803295 241.132066 
L 97.878651 241.094533 
L 97.954008 241.365604 
L 98.004245 241.166668 
L 98.029364 240.950037 
L 98.129839 240.977764 
L 98.180076 241.077063 
L 98.230314 241.013606 
L 99.109469 241.149198 
L 99.436013 240.839016 
L 99.536487 240.924113 
L 99.561606 240.856148 
L 99.712319 240.761358 
L 99.787675 240.770826 
L 99.812793 240.932567 
L 99.913268 240.860544 
L 100.089099 240.833268 
L 100.164456 240.960294 
L 100.415643 240.869674 
L 100.591474 240.977764 
L 100.616593 240.941358 
L 100.691949 240.896725 
L 101.169205 240.761358 
L 101.294798 240.684489 
L 101.495748 240.752454 
L 101.520867 240.712103 
L 101.571104 240.761358 
L 102.098598 240.896725 
L 102.374904 240.924113 
L 102.525616 240.900895 
L 102.626091 240.896725 
L 103.605721 240.788634 
L 103.756434 240.752454 
L 104.03274 240.752454 
L 104.208571 240.698803 
L 104.384402 240.743437 
L 105.439389 240.905291 
L 105.61522 240.924113 
L 105.791051 240.941358 
L 105.966882 240.915547 
L 106.569731 240.843412 
L 106.7958 240.977764 
L 107.147462 240.960294 
L 107.474006 240.987457 
L 107.624718 240.973368 
L 107.725193 241.004815 
L 107.97638 241.059818 
L 108.604349 240.892442 
L 108.905773 240.860544 
L 109.207198 240.796862 
L 109.257435 240.941358 
L 109.307673 240.896725 
L 109.458385 240.869674 
L 109.55886 241.026568 
L 109.583979 241.013606 
L 109.634216 240.941358 
L 109.659335 240.960294 
L 110.287303 241.068609 
L 110.714322 241.117526 
L 111.34229 241.013606 
L 111.568359 240.905291 
L 111.769308 240.968973 
L 111.945139 240.877789 
L 112.949889 240.586543 
L 113.12572 240.843412 
L 113.251313 240.805879 
L 113.276432 240.839016 
L 113.477382 240.915547 
L 113.602976 240.915547 
L 113.70345 240.905291 
L 114.3063 240.796862 
L 114.406775 240.865053 
L 114.582606 240.851865 
L 115.110099 240.752454 
L 115.28593 240.752454 
L 115.461761 240.756962 
L 116.29068 240.698803 
L 116.416273 240.72484 
L 116.466511 240.712103 
L 116.491629 240.788634 
L 116.592104 240.816136 
L 116.617223 240.788634 
L 116.767935 240.698803 
L 116.86841 240.761358 
L 117.320547 240.752454 
L 117.546616 241.117526 
L 117.67221 241.11313 
L 117.747566 241.059818 
L 117.923397 241.104452 
L 118.199703 241.019467 
L 118.350415 241.140745 
L 118.45089 241.140745 
L 118.702077 241.176812 
L 118.877909 241.11313 
L 119.330046 241.176812 
L 120.334795 240.888158 
L 120.460388 240.892442 
L 120.812051 240.941358 
L 120.912526 240.964351 
L 121.867037 240.905291 
L 121.967512 240.996474 
L 122.922024 240.730813 
L 123.097855 240.877789 
L 123.273686 240.846117 
L 123.901654 241.094533 
L 124.077485 241.041108 
L 124.37891 241.149198 
L 125.258066 241.420607 
L 125.408778 241.257514 
L 125.584609 241.28062 
L 126.137221 241.072893 
L 126.514002 240.888158 
L 126.614477 240.869674 
L 126.714952 240.937075 
L 126.840546 240.865053 
L 126.890783 240.752454 
L 126.966139 240.788634 
L 127.368039 240.743437 
L 127.493633 240.707707 
L 128.247194 240.211101 
L 128.272313 240.314908 
L 128.297432 240.297551 
L 128.473263 240.21978 
L 128.649094 240.291915 
L 128.72445 240.268922 
L 128.799806 239.949949 
L 128.824925 240.03065 
L 128.9254 240.107181 
L 128.975638 240.022197 
L 129.101231 239.867556 
L 129.12635 239.9309 
L 129.176587 240.094219 
L 129.251944 240.049473 
L 129.277062 239.850199 
L 129.3273 239.922334 
L 129.427775 239.904864 
L 129.452893 239.751013 
L 129.52825 239.873417 
L 129.628724 239.895171 
L 129.653843 239.962685 
L 129.653843 239.962685 
L 129.653843 239.962685 
L 129.704081 239.786855 
L 129.879912 240.225753 
L 129.980387 240.15621 
L 130.005505 240.183712 
L 130.181337 240.671527 
L 130.231574 240.608071 
L 130.50788 240.444752 
L 130.532999 240.55442 
L 130.733949 240.74772 
L 131.010255 240.599166 
L 131.186086 240.716161 
L 131.361917 240.860544 
L 132.09036 240.796862 
L 132.115479 240.843412 
L 132.115479 240.843412 
L 132.115479 240.843412 
L 132.241072 240.716161 
L 132.341547 240.756962 
L 132.49226 240.603675 
L 132.668091 240.55442 
L 133.195584 240.4638 
L 133.547246 240.550362 
L 133.647721 240.671527 
L 133.67284 240.608071 
L 133.748196 240.550362 
L 133.999383 240.58936 
L 134.024502 240.544501 
L 134.049621 240.580456 
L 134.049621 240.580456 
L 134.175214 240.639517 
L 134.351045 240.576061 
L 134.45152 240.391214 
L 134.602233 240.495359 
L 134.752945 240.580456 
L 134.778064 240.516887 
L 134.803183 240.535823 
L 134.928776 240.643913 
L 134.953895 240.580456 
L 135.079489 240.410375 
L 135.506507 240.544501 
L 135.657219 240.572116 
L 135.782813 240.603675 
L 135.958644 240.55442 
L 135.983763 240.508546 
L 136.034 240.563437 
L 136.310306 240.340832 
L 136.360544 240.228233 
L 136.385663 240.247394 
L 136.511256 240.193743 
L 136.661969 240.049473 
L 136.712206 240.111464 
L 136.737325 240.039329 
L 137.063868 240.075284 
L 137.214581 239.990187 
L 137.365293 240.107181 
L 137.390412 240.022197 
L 137.440649 240.062435 
L 137.566243 240.138966 
L 137.61648 240.03065 
L 137.892786 239.981395 
L 138.043499 240.075284 
L 138.495636 240.174695 
L 138.671467 240.247394 
L 138.746823 240.183712 
L 138.847298 240.372729 
L 139.173841 240.319191 
L 139.299435 240.418828 
L 139.324554 240.319191 
L 139.450147 240.193743 
L 140.153472 240.300707 
L 140.354422 240.42762 
L 140.530253 240.599166 
L 140.680965 240.779956 
L 140.706084 240.743437 
L 140.907034 240.608071 
L 141.057746 240.779956 
L 141.233577 240.661496 
L 141.283815 240.616749 
L 141.38429 240.761358 
L 141.409408 240.72484 
L 141.434527 240.779956 
L 141.484764 240.720331 
L 141.987139 240.761358 
L 142.464395 240.698803 
L 142.489514 240.626781 
L 142.539751 240.671527 
L 142.966769 240.698803 
L 143.167719 240.756962 
L 143.368669 240.796862 
L 143.519381 240.738027 
L 143.9464 240.482623 
L 144.097112 240.391214 
L 144.272943 240.3237 
L 144.398537 240.382986 
L 144.448774 240.274557 
L 144.473893 240.300707 
L 144.72508 240.300707 
L 144.825555 240.3237 
L 145.076743 240.310625 
L 145.12698 240.391214 
L 145.177218 240.274557 
L 145.453524 240.225753 
L 145.604236 240.274557 
L 145.855423 240.03065 
L 145.955898 240.228233 
L 145.981017 240.21978 
L 146.332679 240.202422 
L 146.558748 240.386931 
L 146.684341 240.4638 
L 146.70946 240.432015 
L 146.835054 240.386931 
L 147.010885 240.455121 
L 147.211835 240.328208 
L 147.463022 240.436298 
L 148.417534 240.608071 
L 148.643602 240.410375 
L 148.819433 240.455121 
L 148.945027 240.363938 
L 148.995264 240.310625 
L 149.120858 240.297551 
L 149.221333 240.333844 
L 149.397164 240.395722 
L 149.748826 240.896725 
L 149.924657 240.932567 
L 150.200963 241.013606 
L 150.27632 241.049787 
L 150.401913 241.032542 
L 150.427032 241.085742 
L 150.527507 241.450814 
L 150.552626 241.406293 
L 150.728457 241.420607 
L 151.055 241.302486 
L 151.130356 241.420607 
L 151.155475 241.388597 
L 151.858799 241.429286 
L 152.185343 241.482599 
L 152.361174 241.533093 
L 152.537005 241.546281 
L 152.712836 241.518892 
L 152.813311 241.35298 
L 152.83843 241.374621 
L 153.014261 241.302486 
L 153.03938 241.230238 
L 153.089617 241.26608 
L 153.340804 241.26608 
L 153.441279 241.230238 
L 154.094366 241.225616 
L 154.245079 241.325592 
L 154.320435 241.310714 
L 154.62186 241.348585 
L 154.797691 241.158102 
L 154.822809 241.194283 
L 154.923284 241.163738 
L 154.948403 241.225616 
L 155.099115 241.28062 
L 155.149353 241.321196 
L 155.174472 241.29809 
L 155.274947 241.11313 
L 155.300065 241.153594 
L 155.551253 241.166668 
L 155.727084 241.041108 
L 156.756952 241.127558 
L 156.882545 241.194283 
L 157.108614 241.170839 
L 157.284445 241.238804 
L 157.435157 241.357376 
L 157.58587 241.248948 
L 157.761701 241.284903 
L 157.811938 241.189774 
L 157.837057 241.209837 
L 158.138482 241.270588 
L 158.1636 241.217276 
L 158.188719 241.256049 
L 159.243706 241.446756 
L 161.002017 241.085742 
L 161.705341 241.041108 
L 162.057003 240.839016 
L 163.463652 241.032542 
L 163.639483 240.973368 
L 164.066502 240.889511 
L 164.116739 240.688997 
L 164.166977 240.756962 
L 164.468401 240.898303 
L 164.593995 240.928509 
L 165.046132 240.843412 
L 165.397794 240.924113 
L 165.648982 241.000644 
L 165.749456 241.108735 
L 166.980274 240.973368 
L 167.407293 240.784351 
L 167.758955 240.805879 
L 167.959905 240.788634 
L 168.110617 240.773869 
L 168.160854 240.593644 
L 168.211092 240.616749 
L 168.562754 240.622272 
L 168.83906 240.639517 
L 168.914416 240.796862 
L 169.065129 240.686067 
L 169.090247 240.733744 
L 169.693097 240.784351 
L 169.768453 240.72484 
L 169.793572 240.761358 
L 169.969403 240.827407 
L 170.270828 240.846117 
L 170.446659 241.055422 
L 170.672727 241.032542 
L 170.848558 241.088559 
L 171.099746 241.072893 
L 171.149983 241.026568 
L 171.200221 241.108735 
L 171.627239 241.000644 
L 171.727714 240.941358 
L 171.903545 240.928509 
L 172.079376 240.926818 
L 173.109244 241.237226 
L 173.209719 241.127558 
L 173.234838 241.194283 
L 173.285075 241.11313 
L 173.310194 241.153594 
L 173.460906 241.222799 
L 173.561381 241.276337 
L 173.611619 241.212767 
L 173.661856 241.270588 
L 173.913043 241.321196 
L 174.013518 241.374621 
L 174.465655 241.342498 
L 174.666605 241.432217 
L 174.892674 241.442248 
L 175.36993 241.489812 
L 175.495523 241.497138 
L 175.595998 241.45521 
L 176.073254 241.497138 
L 176.123491 241.514383 
L 176.450035 241.35298 
L 176.650985 241.410576 
L 177.454784 241.631152 
L 177.53014 241.618303 
L 177.705971 241.671954 
L 178.13299 241.645917 
L 178.71072 241.554734 
L 178.836314 241.522949 
L 179.564757 241.546281 
L 179.71547 241.569386 
L 180.594625 241.492855 
L 180.669981 241.546281 
L 180.6951 241.501534 
L 181.750087 241.537714 
L 182.980904 241.775536 
L 183.332567 241.787483 
L 183.508398 241.785905 
L 184.889928 241.690664 
L 185.090878 241.743864 
L 186.22122 241.775536 
L 186.497526 241.814815 
L 187.150613 241.782975 
L 187.200851 241.75119 
L 187.477157 241.781509 
L 187.703225 241.324126 
L 187.8037 241.489812 
L 187.828819 241.580657 
L 187.904175 241.537714 
L 188.230719 241.582123 
L 188.532143 241.588209 
L 188.557262 241.547746 
L 188.6075 241.580657 
L 189.084755 241.599818 
L 189.310824 241.557664 
L 189.486655 241.6502 
L 189.838317 241.761334 
L 190.616998 241.735298 
L 190.717473 241.804502 
L 191.496153 241.80315 
L 191.521272 241.692242 
L 191.596628 241.720871 
L 192.777209 241.570964 
L 192.902802 241.554734 
L 193.354939 241.425116 
L 193.982908 241.403475 
L 194.208976 241.377439 
L 194.711351 241.277802 
L 195.188607 241.429286 
L 195.414675 241.364026 
L 195.766337 241.357376 
L 196.519899 241.12474 
L 196.821324 241.077063 
L 197.147867 240.840369 
L 197.198105 240.911152 
L 197.223224 240.824251 
L 197.373936 241.022172 
L 197.474411 241.251653 
L 197.49953 241.144915 
L 197.675361 240.996474 
L 197.826073 241.035134 
L 197.926548 241.049787 
L 198.27821 241.1102 
L 198.428923 241.263375 
L 198.554516 240.977764 
L 198.579635 241.026568 
L 198.730347 241.07447 
L 198.88106 241.025216 
L 198.906178 241.104452 
L 198.981535 241.036712 
L 199.232722 241.055422 
L 199.282959 241.165203 
L 199.333197 241.088559 
L 199.684859 241.1102 
L 199.760215 241.222799 
L 199.785334 241.144915 
L 199.810453 241.077063 
L 199.835571 241.160695 
L 199.835571 241.160695 
L 200.011402 241.221446 
L 200.136996 241.165203 
L 200.187234 241.169486 
L 200.212352 241.107269 
L 200.312827 241.004815 
L 200.46354 240.900895 
L 200.689608 240.869674 
L 200.815202 240.720331 
L 200.865439 240.698803 
L 200.915677 240.885115 
L 202.272088 241.201045 
L 202.397682 241.14638 
L 202.473038 241.094533 
L 202.498157 241.166668 
L 202.648869 241.155172 
L 202.749344 241.099042 
L 203.000531 241.045278 
L 203.352193 241.062523 
L 203.477787 240.72484 
L 203.502906 240.785817 
L 203.528024 240.824251 
L 203.528024 240.824251 
L 203.528024 240.824251 
L 203.628499 240.587895 
L 203.653618 240.698803 
L 203.678737 240.680093 
L 203.678737 240.680093 
L 203.678737 240.680093 
L 203.804331 240.743437 
L 203.980162 240.773869 
L 204.030399 240.746255 
L 204.030399 240.746255 
L 204.030399 240.746255 
L 204.155993 240.863475 
L 204.231349 240.805879 
L 204.583011 240.639517 
L 204.683486 240.736562 
L 204.708605 240.713568 
L 204.733723 240.646731 
L 204.783961 240.675923 
L 204.909555 240.79968 
L 205.035148 240.840369 
L 205.135623 240.704777 
L 205.261217 240.576061 
L 205.311454 240.369799 
L 205.38681 240.410375 
L 205.411929 240.439003 
L 205.411929 240.439003 
L 205.411929 240.439003 
L 205.437048 240.358189 
L 205.437048 240.358189 
L 205.437048 240.358189 
L 205.487285 240.460869 
L 205.562642 240.411615 
L 205.738473 240.53864 
L 205.838948 240.366868 
L 206.115254 240.37735 
L 206.19061 240.208058 
L 206.642747 240.022197 
L 206.818578 239.620718 
L 206.843697 239.688458 
L 206.868815 239.649685 
L 206.868815 239.649685 
L 206.994409 239.568984 
L 207.019528 239.656899 
L 207.069765 239.60043 
L 207.145121 239.522772 
L 207.220478 240.091514 
L 207.245596 240.03358 
L 207.37119 240.244576 
L 207.421427 240.148884 
L 207.697733 239.933605 
L 207.722852 240.065252 
L 207.722852 240.065252 
L 207.722852 240.065252 
L 207.77309 239.685753 
L 207.848446 239.733317 
L 207.873565 239.904864 
L 207.873565 239.904864 
L 207.873565 239.904864 
L 207.923802 239.62951 
L 207.948921 239.708746 
L 208.099633 239.565941 
L 208.375939 238.89914 
L 208.401058 239.141582 
L 208.476414 239.105402 
L 208.627126 239.141582 
L 208.777839 238.959666 
L 208.928551 238.844249 
L 209.104382 238.125489 
L 209.280213 238.952114 
L 209.456044 238.678113 
L 209.481163 238.770423 
L 209.481163 238.770423 
L 209.481163 238.770423 
L 209.506282 238.640467 
L 209.631876 238.832866 
L 209.682113 238.756222 
L 209.782588 238.337386 
L 209.832825 238.623448 
L 209.857944 238.947944 
L 209.958419 238.848194 
L 210.008657 239.229497 
L 210.033775 238.884713 
L 210.209606 238.279903 
L 210.234725 238.359027 
L 210.310081 238.542408 
L 210.360319 238.399716 
L 210.385437 238.406704 
L 210.511031 238.758814 
L 210.53615 238.811112 
L 210.53615 238.811112 
L 210.53615 238.811112 
L 210.686862 238.230648 
L 210.711981 238.311463 
L 210.7371 238.279903 
L 210.762218 238.451676 
L 210.862693 238.082207 
L 210.912931 238.230648 
L 210.938049 238.361957 
L 211.063643 238.181732 
L 211.088762 238.219265 
L 211.113881 238.393742 
L 211.189237 238.289935 
L 211.214355 238.239327 
L 211.239474 237.673741 
L 211.289712 237.75726 
L 211.540899 237.998463 
L 211.566018 238.253642 
L 211.591136 238.181732 
L 211.591136 238.181732 
L 211.766968 237.172626 
L 211.792086 237.276659 
L 211.967917 237.838075 
L 211.993036 237.47582 
L 212.068392 237.565426 
L 212.143748 237.858363 
L 212.168867 237.621443 
L 212.269342 238.06609 
L 212.294461 238.434093 
L 212.344698 238.338851 
L 212.445173 237.797724 
L 212.495411 238.086603 
L 212.595886 238.028557 
L 212.621004 237.745764 
L 212.69636 237.898939 
L 212.771717 237.890034 
L 212.847073 238.382358 
L 212.872192 238.29433 
L 212.972667 238.571262 
L 212.997785 238.792177 
L 213.022904 238.666616 
L 213.022904 238.666616 
L 213.048023 238.492026 
L 213.048023 238.492026 
L 213.048023 238.492026 
L 213.399685 239.259929 
L 213.50016 239.216423 
L 213.525279 239.345252 
L 213.525279 239.345252 
L 213.525279 239.345252 
L 213.675991 239.024475 
L 213.70111 238.891814 
L 213.751347 238.920668 
L 213.876941 239.112615 
L 213.927178 239.085452 
L 214.027653 238.722972 
L 214.052772 238.361957 
L 214.103009 238.646441 
L 214.228603 238.447167 
L 214.253722 238.678113 
L 214.27884 238.595946 
L 214.354197 238.527981 
L 214.404434 238.650499 
L 214.429553 238.63641 
L 214.580265 238.127067 
L 214.605384 238.298613 
L 214.630503 238.213404 
L 214.705859 238.167079 
L 214.730978 238.244963 
L 214.88169 238.863072 
L 214.957046 238.623448 
L 214.957046 238.623448 
L 214.957046 238.623448 
L 214.982165 238.88877 
L 215.08264 238.816861 
L 215.107758 238.967105 
L 215.157996 238.956623 
L 215.333827 238.935095 
L 215.434302 239.007343 
L 215.685489 238.27562 
L 215.836202 237.978288 
L 215.86132 237.797724 
L 215.961795 237.869972 
L 215.986914 238.1584 
L 216.037151 238.127067 
L 216.187864 238.272464 
L 216.212983 238.390924 
L 216.338576 237.970961 
L 216.514407 238.844249 
L 216.539526 238.515019 
L 216.66512 240.76643 
L 216.690238 240.671527 
L 216.690238 240.671527 
L 216.690238 240.671527 
L 216.866069 240.960294 
L 216.991663 240.824251 
L 217.041901 240.924113 
L 217.067019 241.009211 
L 217.092138 240.968973 
L 217.167494 240.905291 
L 217.192613 241.013606 
L 217.267969 241.036712 
L 217.393563 240.896725 
L 217.4438 240.770826 
L 217.519156 240.828647 
L 217.594513 240.918478 
L 217.694988 240.977764 
L 217.720106 240.915547 
L 217.770344 241.004815 
L 217.921056 241.041108 
L 218.04665 241.026568 
L 218.222481 241.170839 
L 218.2476 241.149198 
L 218.297837 241.342498 
L 218.322956 241.289186 
L 219.151874 241.180983 
L 219.176993 241.077063 
L 219.202111 241.134771 
L 219.327705 241.163738 
L 219.478417 240.896725 
L 220.081267 241.004815 
L 220.257098 241.019467 
L 220.583641 240.874859 
L 220.60876 240.915547 
L 220.684116 241.032542 
L 220.709235 240.964351 
L 220.734354 240.900895 
L 220.784591 240.960294 
L 221.111135 240.749298 
L 221.136253 240.782886 
L 221.236728 240.915547 
L 221.261847 240.968973 
L 221.261847 240.968973 
L 221.261847 240.968973 
L 221.412559 240.785817 
L 221.58839 240.9036 
L 221.638628 240.519818 
L 221.739103 240.626781 
L 221.814459 240.593644 
L 221.940053 240.505616 
L 221.965171 240.457826 
L 221.965171 240.457826 
L 221.965171 240.457826 
L 222.090765 240.574595 
L 222.291715 240.703086 
L 222.316834 240.636925 
L 222.367071 240.677275 
L 222.542902 240.733744 
L 222.844327 240.879142 
L 222.869446 240.813318 
L 222.894564 240.837664 
L 223.045277 240.941358 
L 223.070395 240.900895 
L 223.195989 240.811853 
L 223.321583 240.645491 
L 223.346701 240.661496 
L 223.422058 240.698803 
L 223.57277 240.701734 
L 223.698364 240.8504 
L 223.874195 240.564677 
L 223.949551 240.934257 
L 224.250976 241.000644 
L 224.276094 240.945754 
L 224.301213 240.968973 
L 224.803588 241.091377 
L 224.904063 241.010676 
L 224.929181 241.048209 
L 224.979419 241.090025 
L 225.004538 241.036712 
L 226.009287 241.162273 
L 226.159999 241.075598 
L 226.185118 241.150663 
L 226.235355 241.055422 
L 226.386068 240.9905 
L 226.411186 241.027921 
L 226.53678 241.108735 
L 226.561899 241.035134 
L 227.114511 240.944176 
L 227.290342 240.839016 
L 227.390817 240.759893 
L 227.415936 240.661496 
L 227.466173 240.749298 
L 227.591767 240.825716 
L 227.71736 240.888158 
L 227.742479 240.859079 
L 227.767598 240.816136 
L 227.817835 240.860544 
L 228.269972 240.74479 
L 228.420685 240.8504 
L 228.496041 240.754032 
L 228.52116 240.775447 
L 228.671872 240.700269 
L 228.847703 240.592291 
L 229.023534 240.622272 
L 229.149128 240.592291 
L 229.174247 240.570763 
L 229.224484 240.651464 
L 229.375196 240.824251 
L 229.400315 240.735322 
L 229.50079 240.667244 
L 229.551027 240.810162 
L 229.576146 240.684489 
L 229.852452 240.592291 
L 230.028283 240.582034 
L 230.10364 240.638165 
L 230.254352 240.667244 
L 230.530658 240.603675 
L 230.555777 240.636925 
L 230.631133 240.56772 
L 230.957676 240.635572 
L 230.982795 240.715034 
L 231.058151 240.646731 
L 231.158626 240.678741 
L 231.259101 240.755497 
L 231.28422 240.616749 
L 231.334457 240.693168 
L 231.585645 240.590826 
L 231.610763 240.683024 
L 231.635882 240.620807 
L 231.635882 240.620807 
L 231.661001 240.559041 
L 231.686119 240.634332 
L 232.012663 240.776912 
L 232.188494 240.965929 
L 232.288969 240.893907 
L 232.314088 240.922648 
L 232.389444 241.159342 
L 232.816462 241.075598 
L 232.916937 241.111778 
L 233.017412 241.087094 
L 233.092768 241.296737 
L 233.896568 241.227194 
L 234.04728 241.256049 
L 234.147755 241.310714 
L 234.474298 241.355911 
L 235.730235 241.195635 
L 235.855828 241.133419 
L 235.880947 241.221446 
L 236.207491 241.256049 
L 236.333084 241.222799 
L 236.433559 241.257514 
L 237.061527 241.33968 
L 238.970551 241.33968 
L 239.171501 241.293694 
L 240.201368 241.375861 
L 240.3772 241.215811 
L 240.477674 241.055422 
L 240.929812 241.013606 
L 241.105643 241.127558 
L 241.15588 241.103212 
L 241.180999 241.13928 
L 241.35683 241.119104 
L 241.683373 240.984527 
L 241.808967 240.999179 
L 242.135511 240.939893 
L 242.185748 240.941358 
L 242.210867 240.867983 
L 243.064904 240.859079 
L 243.090022 240.811853 
L 243.115141 240.869674 
L 243.265853 240.773869 
L 243.441684 240.729348 
L 243.592397 240.775447 
L 243.617516 240.74772 
L 243.642634 240.709173 
L 243.717991 240.772404 
L 243.91894 240.758315 
L 243.969178 240.902473 
L 243.994297 240.882185 
L 244.471552 240.584965 
L 244.496671 240.698803 
L 244.647383 240.733744 
L 244.823215 240.665779 
L 244.848333 240.710525 
L 245.149758 240.821321 
L 245.174877 240.765078 
L 245.225114 240.827407 
L 245.576776 240.866518 
L 245.752608 240.870801 
L 246.028914 240.924113 
L 246.204745 240.947332 
L 246.380576 240.840369 
L 247.0839 240.710525 
L 247.234613 240.765078 
L 247.435562 240.717401 
L 247.4858 240.662848 
L 247.510919 240.716161 
L 248.013293 240.560506 
L 248.164005 240.378816 
L 248.364955 240.522973 
L 248.842211 240.368333 
L 248.86733 240.406092 
L 248.892449 240.388509 
L 248.992924 240.352892 
L 249.018042 240.433481 
L 249.043161 240.453543 
L 249.06828 240.261483 
L 249.168755 240.329673 
L 249.344586 240.418828 
L 249.696248 240.479354 
L 249.796723 240.423111 
L 249.972554 240.420068 
L 250.399572 240.225753 
L 250.474929 240.157788 
L 250.600522 240.160606 
L 250.675878 240.001796 
L 250.751235 240.043612 
L 250.776353 239.994582 
L 250.851709 239.944313 
L 251.278728 240.273205 
L 251.328965 240.241308 
L 251.354084 240.000443 
L 251.454559 240.069874 
L 251.529915 240.089823 
L 251.555034 240.160606 
L 251.63039 240.120143 
L 251.705746 240.020619 
L 251.730865 240.042147 
L 251.982052 240.18946 
L 252.007171 240.101433 
L 252.082527 240.150237 
L 252.358833 240.071339 
L 252.409071 239.87477 
L 252.509546 239.913881 
L 252.735614 239.752365 
L 252.760733 239.799592 
L 253.438939 239.443198 
L 253.489176 239.557149 
L 253.589651 239.613392 
L 253.61477 239.506655 
L 253.740363 238.929234 
L 253.840838 238.955383 
L 253.941313 238.915032 
L 254.092025 238.589972 
L 254.142263 238.383711 
L 254.1925 238.426992 
L 254.368331 238.370974 
L 254.544163 238.393742 
L 254.79535 237.436935 
L 254.895825 237.852502 
L 254.971181 237.628769 
L 255.021418 237.80922 
L 255.222368 237.569596 
L 255.322843 237.849684 
L 255.373081 237.774731 
L 255.599149 237.728406 
L 255.674505 237.80922 
L 255.724743 237.721193 
L 255.749862 237.718488 
L 255.77498 237.379001 
L 255.850336 237.399176 
L 255.875455 237.71691 
L 255.900574 237.651875 
L 255.900574 237.651875 
L 255.950811 237.309683 
L 256.277355 237.133741 
L 256.428067 236.630146 
L 256.478305 236.685938 
L 256.553661 236.679288 
L 256.57878 236.537385 
L 256.57878 236.537385 
L 256.57878 236.537385 
L 256.629017 236.720992 
L 256.629017 236.720992 
L 256.629017 236.720992 
L 256.779729 235.872162 
L 256.804848 236.038411 
L 256.930442 236.219989 
L 257.005798 235.954441 
L 257.081154 235.901016 
L 257.106273 235.953089 
L 257.131392 236.008092 
L 257.15651 236.344085 
L 257.256985 236.205675 
L 257.307223 236.696533 
L 257.35746 236.563308 
L 257.457935 236.464122 
L 257.508173 236.27781 
L 257.608648 236.068505 
L 257.633766 236.194066 
L 257.809597 236.350058 
L 257.834716 236.198461 
L 257.834716 236.198461 
L 257.834716 236.198461 
L 257.884954 236.473928 
L 257.96031 236.445187 
L 258.060785 236.06287 
L 258.186378 236.452513 
L 258.236616 237.273616 
L 258.311972 237.234843 
L 258.337091 237.02272 
L 258.337091 237.02272 
L 258.337091 237.02272 
L 258.362209 237.25051 
L 258.362209 237.25051 
L 258.362209 237.25051 
L 258.387328 237.00942 
L 258.487803 237.038387 
L 258.563159 237.24634 
L 258.588278 237.171499 
L 258.839465 237.039965 
L 258.914821 237.449784 
L 259.015296 237.244874 
L 259.040415 237.272376 
L 259.065534 237.202833 
L 259.191127 236.637134 
L 259.216246 236.6457 
L 259.241365 236.634316 
L 259.266484 236.495681 
L 259.291602 236.521718 
L 259.54279 236.902682 
L 259.643265 237.207454 
L 259.743739 237.179953 
L 259.819096 236.846552 
L 259.894452 236.947429 
L 259.919571 236.911474 
L 259.969808 236.762808 
L 259.994927 236.926014 
L 260.170758 237.107817 
L 260.346589 236.855118 
L 260.472183 236.840804 
L 260.622895 236.142331 
L 260.773607 236.052726 
L 261.024795 236.211423 
L 261.225744 235.722143 
L 261.301101 235.494128 
L 261.351338 235.570546 
L 261.50205 235.77399 
L 261.677882 235.654291 
L 261.703 235.607966 
L 261.703 235.607966 
L 261.703 235.607966 
L 261.753238 235.704673 
L 262.004425 234.95717 
L 262.029544 235.040577 
L 262.054662 235.215167 
L 262.079781 235.177972 
L 262.079781 235.177972 
L 262.205375 234.69861 
L 262.230494 234.854603 
L 262.255612 234.885148 
L 262.356087 234.604947 
L 262.381206 234.662655 
L 262.406325 235.003382 
L 262.431443 234.82124 
L 262.431443 234.82124 
L 262.531918 234.51861 
L 262.557037 234.617684 
L 262.707749 235.105837 
L 262.732868 234.929782 
L 262.732868 234.929782 
L 262.732868 234.929782 
L 262.757987 235.267465 
L 262.757987 235.267465 
L 262.757987 235.267465 
L 262.808224 234.582067 
L 262.883581 234.662655 
L 262.908699 234.840289 
L 262.908699 234.840289 
L 262.908699 234.840289 
L 263.059412 234.178898 
L 263.08453 234.27831 
L 263.08453 234.27831 
L 263.08453 234.27831 
L 263.109649 234.144408 
L 263.109649 234.144408 
L 263.109649 234.144408 
L 263.159887 234.513989 
L 263.310599 233.448641 
L 263.411074 233.682517 
L 263.436193 233.730194 
L 263.461311 233.699987 
L 263.637142 233.001289 
L 263.662261 233.063168 
L 263.762736 232.999711 
L 263.938567 232.321188 
L 263.988805 232.586849 
L 263.988805 232.586849 
L 263.988805 232.586849 
L 264.139517 231.685609 
L 264.214873 231.650555 
L 264.315348 231.554751 
L 264.390704 232.112334 
L 264.491179 231.967838 
L 264.541417 231.68899 
L 264.566535 231.789078 
L 264.66701 231.661826 
L 264.692129 231.755602 
L 264.717248 232.063079 
L 264.742366 231.99951 
L 265.018672 230.703779 
L 265.094029 230.024129 
L 265.194504 230.149239 
L 265.445691 231.980011 
L 265.546166 231.474725 
L 265.571285 231.488251 
L 265.696878 232.662028 
L 265.721997 232.618859 
L 265.747116 232.444269 
L 265.747116 232.444269 
L 265.747116 232.444269 
L 265.872709 233.035779 
L 265.948065 232.190556 
L 265.973184 232.230681 
L 266.073659 232.405046 
L 266.123897 232.018445 
L 266.149015 232.060825 
L 266.224371 232.130706 
L 266.324846 232.601614 
L 266.500677 233.255453 
L 266.601152 232.659097 
L 266.626271 232.816442 
L 266.776984 233.454614 
L 266.802102 233.47479 
L 266.952815 233.901741 
L 267.003052 233.318797 
L 267.028171 233.323193 
L 267.103527 233.333337 
L 267.128646 233.547038 
L 267.178883 232.092948 
L 267.204002 232.303042 
L 267.455189 233.021464 
L 267.505427 232.900187 
L 267.530545 232.614351 
L 267.555664 232.699673 
L 267.63102 232.88576 
L 267.656139 232.825121 
L 267.83197 232.037832 
L 267.882208 232.110305 
L 267.882208 232.110305 
L 267.882208 232.110305 
L 267.982682 231.99951 
L 268.23387 233.256806 
L 268.334345 233.227726 
L 268.359463 233.261089 
L 268.384582 233.233925 
L 268.409701 233.090782 
L 268.43482 233.204733 
L 268.736244 233.923719 
L 268.761363 233.605986 
L 268.786482 233.825435 
L 268.861838 234.148691 
L 268.912075 234.060776 
L 268.937194 233.80526 
L 268.937194 233.80526 
L 268.937194 233.80526 
L 269.037669 234.120063 
L 269.062788 234.081065 
L 269.113025 233.776406 
L 269.2135 233.861503 
L 269.263738 234.29037 
L 269.313975 234.110031 
L 269.389331 234.011634 
L 269.665637 235.062556 
L 269.766112 234.740652 
L 270.168012 232.33167 
L 270.193131 232.51787 
L 270.268487 232.674989 
L 270.318724 233.197632 
L 270.368962 233.188954 
L 270.444318 233.147025 
L 270.494555 232.563969 
L 270.544793 232.574338 
L 270.620149 232.768878 
L 270.670386 232.660562 
L 270.720624 232.452835 
L 270.821099 232.780375 
L 270.871336 232.582453 
L 271.222998 231.669829 
L 271.248117 231.679973 
L 271.348592 231.726297 
L 271.373711 231.513047 
L 271.39883 231.603216 
L 271.39883 231.603216 
L 271.423948 231.838896 
L 271.524423 231.174913 
L 271.599779 231.265082 
L 271.775611 231.664081 
L 271.850967 231.605471 
L 271.876085 231.720774 
L 271.901204 231.806999 
L 271.901204 231.806999 
L 271.901204 231.806999 
L 272.026798 231.491632 
L 272.051917 231.653937 
L 272.077035 231.620123 
L 272.202629 230.616991 
L 272.227748 230.676729 
L 272.227748 230.676729 
L 272.227748 230.676729 
L 272.277985 230.513297 
L 272.277985 230.513297 
L 272.277985 230.513297 
L 272.428697 230.947236 
L 272.478935 231.076854 
L 272.931072 229.589063 
L 273.006428 229.148362 
L 273.081784 229.452682 
L 273.106903 229.124692 
L 273.282734 229.20359 
L 273.458565 229.942977 
L 273.483684 229.521436 
L 273.533922 229.713046 
L 273.860465 230.702652 
L 273.885584 230.131205 
L 274.011177 230.281111 
L 274.187008 228.377415 
L 274.237246 228.718931 
L 274.337721 228.362763 
L 274.36284 228.669338 
L 274.488433 229.847172 
L 274.588908 230.05118 
L 274.714502 230.002714 
L 274.840095 230.259696 
L 274.865214 230.229264 
L 274.915452 229.937342 
L 274.915452 229.937342 
L 274.915452 229.937342 
L 274.94057 230.356628 
L 275.015927 230.124443 
L 275.041045 230.151493 
L 275.041045 230.151493 
L 275.041045 230.151493 
L 275.066164 230.063578 
L 275.116401 230.132332 
L 275.216876 229.977918 
L 275.267114 229.456064 
L 275.292233 229.519182 
L 275.367589 229.581173 
L 275.392707 230.26195 
L 275.468064 230.047799 
L 275.54342 229.918181 
L 275.568539 229.647673 
L 275.643895 229.676978 
L 275.769488 229.385056 
L 275.819726 229.444793 
L 276.070913 228.541974 
L 276.096032 228.599457 
L 276.171388 228.964642 
L 276.3221 228.709914 
L 276.497932 229.069464 
L 276.52305 229.352369 
L 276.623525 229.335463 
L 276.698881 229.244166 
L 277.301731 226.588685 
L 277.351968 226.881735 
L 277.351968 226.881735 
L 277.351968 226.881735 
L 277.502681 225.987933 
L 277.527799 226.079229 
L 277.552918 226.39933 
L 277.552918 226.39933 
L 277.552918 226.39933 
L 277.728749 224.884488 
L 277.753868 225.286868 
L 277.753868 225.286868 
L 277.753868 225.286868 
L 277.929699 224.405465 
L 278.055293 225.415359 
L 278.10553 224.983674 
L 278.180886 224.323185 
L 278.256243 224.49338 
L 278.381836 225.10653 
L 278.432074 224.974657 
L 278.607905 223.216359 
L 278.733498 223.271588 
L 278.758617 223.265952 
L 278.984686 221.627128 
L 279.060042 221.636145 
L 279.085161 222.909784 
L 279.110279 222.56376 
L 279.110279 222.56376 
L 279.135398 221.303646 
L 279.160517 221.613603 
L 279.235873 221.961881 
L 279.260992 223.358376 
L 279.336348 223.345977 
L 279.411704 222.851174 
L 279.461942 223.034894 
L 279.512179 224.335584 
L 279.587535 223.929822 
L 279.662891 225.481859 
L 279.68801 224.759379 
L 279.763366 224.737963 
L 279.863841 222.845539 
L 279.964316 224.071839 
L 279.989435 223.023623 
L 280.140147 221.567391 
L 280.215503 223.356121 
L 280.391334 222.340591 
L 280.466691 222.400328 
L 280.717878 220.073965 
L 280.742997 220.224998 
L 280.918828 219.073087 
L 280.994184 218.138709 
L 281.044421 218.303268 
L 281.06954 218.959249 
L 281.06954 218.959249 
L 281.06954 218.959249 
L 281.220253 217.438771 
L 281.245371 217.33395 
L 281.27049 217.778033 
L 281.27049 217.778033 
L 281.27049 217.778033 
L 281.345846 217.207713 
L 281.370965 215.50577 
L 281.446321 215.716541 
L 281.521677 215.660185 
L 281.571915 214.956866 
L 281.622152 215.258932 
L 281.697508 215.502389 
L 281.722627 214.694248 
L 281.747746 215.486609 
L 281.873339 220.182167 
L 281.898458 217.844532 
L 281.973814 218.358497 
L 282.049171 218.711283 
L 282.149646 217.616855 
L 282.225002 217.470331 
L 282.300358 215.776278 
L 282.400833 216.556241 
L 282.425952 216.422114 
L 282.501308 214.33019 
L 282.576664 214.341461 
L 282.601783 215.162001 
L 282.677139 214.896002 
L 282.777614 215.964506 
L 282.827851 215.354737 
L 282.978564 213.659557 
L 283.003682 213.714786 
L 283.003682 213.714786 
L 283.003682 213.714786 
L 283.028801 213.532193 
L 283.028801 213.532193 
L 283.028801 213.532193 
L 283.154395 214.253546 
L 283.179513 214.238894 
L 283.305107 217.656304 
L 283.330226 216.482978 
L 283.380463 217.448915 
L 283.455819 216.567512 
L 283.506057 219.334578 
L 283.556294 219.085485 
L 283.656769 219.912787 
L 283.732125 223.609722 
L 283.807482 223.609722 
L 283.882838 222.835395 
L 283.907957 223.069834 
L 284.008431 223.705527 
L 284.058669 224.876598 
L 284.083788 224.263448 
L 284.159144 223.692001 
L 284.259619 224.385177 
L 284.535925 225.178665 
L 284.586162 223.625502 
L 284.611281 224.332202 
L 284.686637 224.803336 
L 284.711756 224.386304 
L 284.736875 224.407719 
L 284.862468 225.099767 
L 284.937824 223.908407 
L 284.962943 224.102271 
L 285.038299 224.08311 
L 285.113655 223.140842 
L 285.264368 221.435519 
L 285.314605 221.733077 
L 285.389962 221.663196 
L 285.490436 220.281354 
L 285.565793 219.874465 
L 285.565793 219.874465 
L 285.565793 219.874465 
L 285.666268 221.13796 
L 285.741624 221.046664 
L 285.766742 220.957622 
L 285.917455 218.104896 
L 285.942574 219.253425 
L 285.967692 218.864571 
L 285.967692 218.864571 
L 286.118405 217.108527 
L 286.143523 217.269704 
L 286.294236 215.432508 
L 286.369592 215.899133 
L 286.470067 214.954611 
L 286.545423 215.293873 
L 286.696135 216.821113 
L 286.721254 216.224869 
L 286.897085 215.132696 
L 287.022679 215.644405 
L 287.047798 215.034637 
L 287.072916 215.58016 
L 287.248747 217.496254 
L 287.324104 216.850418 
L 287.349222 216.189929 
L 287.39946 216.264318 
L 287.39946 216.264318 
L 287.499935 217.383543 
L 287.525053 217.36889 
L 287.550172 216.772647 
L 287.550172 216.772647 
L 287.550172 216.772647 
L 287.675766 218.206336 
L 287.700885 217.162628 
L 287.751122 217.82199 
L 287.876716 216.460436 
L 287.926953 216.879723 
L 288.052547 217.891871 
L 288.077665 217.429754 
L 288.102784 217.577406 
L 288.102784 217.577406 
L 288.228378 218.989681 
L 288.253497 218.379912 
L 288.253497 218.379912 
L 288.253497 218.379912 
L 288.37909 220.089744 
L 288.429328 219.300764 
L 288.479565 219.764008 
L 288.554921 220.259938 
L 288.730752 217.323806 
L 288.806109 216.49425 
L 288.831227 217.011595 
L 288.906584 217.060061 
L 288.931702 217.329441 
L 288.931702 217.329441 
L 288.931702 217.329441 
L 289.007058 216.85718 
L 289.283364 218.388929 
L 289.308483 218.279599 
L 289.484314 220.493251 
L 289.509433 220.342218 
L 289.660145 223.926441 
L 289.685264 223.021368 
L 289.710383 222.03627 
L 290.212757 229.568775 
L 290.313232 226.463575 
L 290.338351 227.351741 
L 290.413707 228.317678 
L 290.489063 228.168899 
L 290.514182 229.169777 
L 290.589538 228.463076 
L 290.664895 229.084116 
L 290.740251 226.346355 
L 290.765369 226.84454 
L 290.840726 226.936963 
L 290.865844 226.354245 
L 290.865844 226.354245 
L 290.865844 226.354245 
L 291.016557 228.537466 
L 291.066794 229.368149 
L 291.066794 229.368149 
L 291.066794 229.368149 
L 291.091913 228.454059 
L 291.117032 229.352369 
L 291.242625 229.921562 
L 291.267744 230.759008 
L 291.292863 230.455814 
L 291.418456 228.662575 
L 291.468694 229.00071 
L 291.54405 229.53947 
L 291.569169 229.030015 
L 291.594288 228.534084 
L 291.594288 228.534084 
L 291.594288 228.534084 
L 291.619406 229.182175 
L 291.644525 228.8091 
L 291.745 227.933332 
L 291.770119 228.201586 
L 291.795237 228.662575 
L 291.795237 228.662575 
L 291.795237 228.662575 
L 291.820356 228.192569 
L 291.820356 228.192569 
L 291.820356 228.192569 
L 292.121781 230.099646 
L 292.172018 229.991443 
L 292.247374 229.87535 
L 292.272493 229.921562 
L 292.297612 230.055689 
L 292.423206 228.724567 
L 292.448324 228.949989 
L 292.674393 230.339721 
L 292.799986 231.089252 
L 292.975818 229.280234 
L 293.000936 228.779795 
L 293.026055 228.952244 
L 293.026055 228.952244 
L 293.051174 229.365895 
L 293.12653 229.167523 
L 293.302361 227.580546 
L 293.32748 228.253433 
L 293.352599 228.403339 
L 293.352599 228.403339 
L 293.352599 228.403339 
L 293.377717 228.047171 
L 293.402836 228.062951 
L 293.654023 229.826884 
L 293.679142 229.351242 
L 293.704261 229.218243 
L 293.704261 229.218243 
L 293.704261 229.218243 
L 293.829854 229.68036 
L 293.854973 229.622877 
L 293.880092 229.215988 
L 293.905211 229.552996 
L 293.905211 229.552996 
L 294.005685 230.381425 
L 294.081042 228.467585 
L 294.10616 228.529576 
L 294.181517 228.603965 
L 294.357348 226.833269 
L 294.407585 227.005717 
L 294.432704 226.518804 
L 294.457823 226.954997 
L 294.533179 227.296513 
L 294.558298 227.201835 
L 294.70901 225.278978 
L 294.734129 225.776036 
L 294.884841 225.021996 
L 294.935078 225.396198 
L 294.935078 225.396198 
L 294.935078 225.396198 
L 294.985316 224.559879 
L 295.060672 224.983674 
L 295.136028 224.275847 
L 295.236503 224.371651 
L 295.261622 224.49338 
L 295.261622 224.49338 
L 295.261622 224.49338 
L 295.437453 223.223122 
L 295.462572 223.252427 
L 295.638403 225.130199 
L 295.789115 223.979416 
L 295.864471 224.695133 
L 296.216134 221.495256 
L 296.316609 221.772526 
L 296.467321 222.732827 
L 296.49244 222.697887 
L 296.49244 222.697887 
L 296.49244 222.697887 
L 296.517558 222.80609 
L 296.542677 222.764386 
L 296.567796 222.240278 
L 296.643152 222.54798 
L 296.668271 223.034894 
L 296.693389 222.71592 
L 296.693389 222.71592 
L 296.844102 221.81761 
L 296.869221 221.759 
L 297.019933 222.829759 
L 297.346476 220.302769 
L 297.371595 220.507904 
L 297.522308 219.266951 
L 297.572545 219.278222 
L 297.698139 218.352861 
L 297.723257 218.480225 
L 297.899088 218.873588 
L 297.949326 218.068828 
L 297.974445 218.304395 
L 298.049801 219.342467 
L 298.100038 218.61886 
L 298.250751 217.92343 
L 298.275869 218.209718 
L 298.275869 218.209718 
L 298.275869 218.209718 
L 298.326107 217.832134 
L 298.4517 218.535454 
L 298.476819 218.339336 
L 298.602413 217.415102 
L 298.627532 217.670957 
L 298.677769 217.527813 
L 298.778244 217.092747 
L 298.8536 215.671456 
L 298.928956 215.813473 
L 298.954075 215.7481 
L 298.979194 215.601575 
L 298.979194 215.601575 
L 298.979194 215.601575 
L 299.029431 216.050167 
L 299.104787 215.506897 
L 299.155025 215.62299 
L 299.180144 216.271081 
L 299.205262 215.687236 
L 299.280619 215.526058 
L 299.381093 214.883603 
L 299.506687 214.765256 
L 299.531806 214.871205 
L 299.556925 215.231882 
L 299.632281 214.971518 
L 299.707637 212.755612 
L 299.732756 212.939331 
L 299.808112 213.148974 
L 299.908587 215.167636 
L 300.03418 214.83401 
L 300.210011 213.041899 
L 300.23513 213.22111 
L 300.23513 213.22111 
L 300.23513 213.22111 
L 300.360724 212.497502 
L 300.385843 212.649663 
L 300.43608 213.520922 
L 300.511436 212.660934 
L 300.561674 212.903263 
L 300.863098 215.103391 
L 300.888217 214.969264 
L 300.913336 213.825243 
L 300.963573 214.27947 
L 301.03893 213.944717 
L 301.114286 214.682977 
L 301.139404 214.166759 
L 301.264998 213.20533 
L 301.390592 211.832505 
L 301.41571 212.193181 
L 301.41571 212.193181 
L 301.41571 212.193181 
L 301.566423 211.486481 
L 301.591542 211.432379 
L 301.641779 211.980157 
L 301.666898 211.778403 
L 301.842729 212.654171 
L 301.943204 211.336575 
L 301.968322 211.815598 
L 302.01856 213.83426 
L 302.119035 212.653044 
L 302.144154 212.372393 
L 302.194391 214.654799 
L 302.269747 214.269326 
L 302.319985 213.620108 
L 302.345103 214.655926 
L 302.445578 214.356114 
L 302.646528 213.017102 
L 302.822359 213.931192 
L 302.973072 212.208961 
L 302.99819 212.228122 
L 303.048428 211.960996 
L 303.19914 209.922046 
L 303.249378 209.668446 
L 303.425209 210.295121 
L 303.676396 208.834381 
L 303.751752 208.315908 
L 304.078296 206.912651 
L 304.103414 206.44828 
L 304.128533 206.668067 
L 304.203889 206.714279 
L 304.229008 207.070447 
L 304.304364 203.285597 
L 304.37972 203.474953 
L 304.480195 204.688855 
L 304.555552 203.931434 
L 304.656026 208.330561 
L 304.78162 204.545711 
L 304.831858 205.741579 
L 304.907214 205.682969 
L 304.957451 206.529432 
L 304.98257 208.057799 
L 305.007689 207.399564 
L 305.309113 204.276331 
L 305.334232 204.395805 
L 305.484945 207.273328 
L 305.685894 203.134564 
L 305.711013 202.816718 
L 305.886844 203.879587 
L 305.9622 203.648528 
L 306.062675 206.73344 
L 306.16315 206.486602 
L 306.238506 204.903006 
L 306.313863 205.237759 
L 306.414337 206.304009 
L 306.489694 206.929558 
L 306.590169 204.856795 
L 306.665525 204.951472 
L 306.690643 204.25717 
L 306.715762 204.709143 
L 306.715762 204.709143 
L 306.766 205.244522 
L 306.891593 204.418347 
L 306.916712 204.603194 
L 307.193018 206.630873 
L 307.243256 205.848655 
L 307.293493 206.343458 
L 307.393968 207.744461 
L 307.54468 207.372514 
L 307.569799 207.286853 
L 307.645155 205.024735 
L 307.74563 205.16337 
L 307.896342 203.831121 
L 307.94658 203.372385 
L 308.122411 200.842014 
L 308.172648 200.183779 
L 308.248005 200.350592 
L 308.423836 202.155102 
L 308.524311 199.927924 
L 308.599667 199.743077 
L 308.775498 196.474446 
L 308.825735 197.554221 
L 309.051804 198.932682 
L 309.152279 197.723288 
L 309.302991 196.387658 
L 309.52906 199.001436 
L 309.654653 197.143952 
L 309.679772 197.813458 
L 309.679772 197.813458 
L 309.679772 197.813458 
L 309.755128 196.909512 
L 309.830485 196.641259 
L 309.855603 197.462925 
L 309.880722 196.706631 
L 309.880722 196.706631 
L 310.006316 196.166744 
L 310.031434 196.444014 
L 310.031434 196.444014 
L 310.031434 196.444014 
L 310.056553 196.03938 
L 310.106791 196.108134 
L 310.182147 195.946956 
L 310.207266 196.145328 
L 310.257503 196.00782 
L 310.282622 196.100244 
L 310.558928 195.398052 
L 310.584046 195.423975 
L 310.634284 195.818465 
L 310.985946 192.076446 
L 311.161777 195.217713 
L 311.237133 193.666804 
L 311.287371 192.747079 
L 311.31249 192.836121 
L 311.31249 192.836121 
L 311.337608 193.862922 
L 311.412965 193.397424 
L 311.513439 192.362733 
L 311.814864 189.963107 
L 311.965577 193.501118 
L 312.015814 192.884587 
L 312.191645 190.477071 
L 312.216764 190.412825 
L 312.367476 192.339063 
L 312.392595 191.568117 
L 312.467951 191.342694 
L 312.518189 194.743198 
L 312.568426 194.647394 
L 312.744257 191.634617 
L 312.844732 191.718024 
L 313.171276 194.627105 
L 313.221513 193.858414 
L 313.246632 194.39492 
L 313.27175 195.10951 
L 313.347107 194.476072 
L 313.522938 191.421592 
L 313.698769 192.392038 
L 313.749006 191.919777 
L 313.799244 192.341318 
L 313.899719 191.935557 
L 313.924837 192.257911 
L 313.949956 192.352589 
L 314.050431 194.268683 
L 314.07555 193.856159 
L 314.125787 193.223848 
L 314.125787 193.223848 
L 314.125787 193.223848 
L 314.251381 194.427606 
L 314.427212 192.168869 
L 314.678399 195.33606 
L 314.753755 195.232366 
L 314.778874 194.391539 
L 314.803993 195.214332 
L 314.803993 195.214332 
L 314.929587 196.862173 
L 315.004943 194.566241 
L 315.030061 195.270688 
L 315.65803 187.982767 
L 315.833861 184.150578 
L 315.909217 186.013698 
L 315.984573 185.109753 
L 316.160404 191.394542 
L 316.260879 187.961352 
L 316.336235 187.034864 
L 316.386473 187.464294 
L 316.43671 190.988781 
L 316.512066 190.929044 
L 316.612541 187.00894 
L 316.713016 186.086961 
L 316.738135 186.829729 
L 316.788372 188.386274 
L 316.939085 186.930042 
L 316.964204 187.890343 
L 317.03956 187.535302 
L 317.24051 182.698855 
L 317.265628 182.88821 
L 317.290747 184.379382 
L 317.391222 184.182137 
L 317.667528 189.000551 
L 317.943834 181.42747 
L 318.01919 185.669928 
L 318.094546 183.806808 
L 318.195021 183.926283 
L 318.270377 183.948825 
L 318.295496 185.14582 
L 318.370852 184.604805 
L 318.446209 184.680322 
L 318.471327 183.740309 
L 318.471327 183.740309 
L 318.471327 183.740309 
L 318.62204 187.632234 
L 318.647158 186.250392 
L 318.672277 186.838746 
L 318.672277 186.838746 
L 318.797871 189.111008 
L 318.822989 188.030106 
L 318.822989 188.030106 
L 318.822989 188.030106 
L 318.898346 189.897734 
L 319.149533 185.650767 
L 319.19977 186.214324 
L 319.224889 185.988902 
L 319.224889 185.988902 
L 319.250008 185.561725 
L 319.325364 185.818707 
L 319.40072 187.677319 
L 319.501195 187.207312 
L 319.60167 184.161849 
L 319.702145 183.696351 
L 319.727264 184.2554 
L 319.777501 183.918393 
L 320.053807 181.286581 
L 320.104045 181.553707 
L 320.129163 181.77913 
L 320.254757 180.440118 
L 320.279876 180.635109 
L 320.304994 181.710376 
L 320.405469 181.694596 
L 320.480826 177.815069 
L 320.78225 173.571484 
L 320.932963 168.840985 
L 320.958081 170.5418 
L 321.008319 169.899345 
L 321.359981 163.68331 
L 321.460456 165.83948 
L 321.485575 165.775234 
L 321.661406 157.276793 
L 321.711643 157.855002 
L 321.812118 154.91098 
L 321.862356 155.866773 
L 321.887474 156.339033 
L 322.013068 153.227071 
L 322.038187 154.349677 
L 322.063305 155.837468 
L 322.314493 150.542285 
L 322.490324 158.640601 
L 322.515443 154.371092 
L 322.56568 157.583368 
L 322.56568 157.583368 
L 322.691274 161.505725 
L 322.716392 154.330516 
L 322.76663 155.34041 
L 322.942461 160.790008 
L 323.093173 160.029206 
L 323.269004 165.858641 
L 323.294123 165.820319 
L 323.419717 160.022443 
L 323.469954 161.213803 
L 323.595548 158.778109 
L 323.620667 158.986625 
L 323.645785 161.399777 
L 323.74626 161.133778 
L 323.821617 158.612423 
L 323.896973 159.933401 
L 323.972329 159.879299 
L 324.097923 157.587876 
L 324.123041 157.830206 
L 324.248635 159.992011 
L 324.273754 159.809418 
L 324.298872 159.45325 
L 324.298872 159.45325 
L 324.298872 159.45325 
L 324.323991 160.24223 
L 324.323991 160.24223 
L 324.323991 160.24223 
L 324.499822 154.338406 
L 324.524941 154.922251 
L 324.600297 153.768086 
L 324.625416 154.588625 
L 324.675653 155.929891 
L 324.700772 155.054123 
L 324.801247 154.767836 
L 324.826366 154.870404 
L 324.851484 153.702713 
L 324.851484 153.702713 
L 324.851484 153.702713 
L 325.027315 159.398022 
L 325.228265 153.505468 
L 325.579928 148.427818 
L 325.705521 145.416169 
L 325.755759 146.236708 
L 325.831115 144.426563 
L 325.881352 144.750044 
L 325.906471 146.143158 
L 325.93159 145.941404 
L 326.107421 143.74015 
L 326.207896 146.614291 
L 326.233014 145.284297 
L 326.383727 140.625933 
L 326.408846 140.601137 
L 326.71027 146.788994 
L 326.735389 146.515105 
L 326.760508 145.043094 
L 326.785627 145.715981 
L 326.785627 145.715981 
L 326.961458 151.325629 
L 327.061933 150.360819 
L 327.087051 148.182107 
L 327.11217 148.93502 
L 327.11217 148.93502 
L 327.162407 153.972093 
L 327.262882 153.463765 
L 327.288001 152.962199 
L 327.288001 152.962199 
L 327.288001 152.962199 
L 327.463832 156.07867 
L 327.488951 155.901713 
L 327.664782 164.067656 
L 327.689901 162.713992 
L 327.765257 163.326015 
L 327.790376 163.316998 
L 327.840613 165.833844 
L 327.865732 165.532905 
L 328.041563 159.153438 
L 328.116919 156.528389 
L 328.192275 156.552058 
L 328.317869 158.517745 
L 328.393225 164.723637 
L 328.468581 165.222948 
L 328.4937 163.536785 
L 328.518819 163.885064 
L 328.518819 163.885064 
L 328.569056 168.142174 
L 328.644412 166.82345 
L 328.669531 164.630086 
L 328.744887 166.749061 
L 328.820244 166.629587 
L 328.920718 168.168098 
L 329.046312 162.424323 
L 329.071431 163.434218 
L 329.222143 167.075924 
L 329.247262 166.142673 
L 329.272381 166.609299 
L 329.372856 171.614813 
L 329.448212 169.563465 
L 329.548687 168.87029 
L 329.573805 167.523388 
L 329.624043 178.317762 
L 329.699399 176.868293 
L 329.724518 175.641993 
L 329.799874 176.319388 
L 329.87523 177.963848 
L 330.051061 172.079184 
L 330.151536 174.976995 
L 330.252011 175.001792 
L 330.302249 177.041869 
L 330.327367 176.345312 
L 330.578555 180.852642 
L 330.628792 180.030976 
L 330.754386 178.243372 
L 330.804623 179.634231 
L 330.829742 179.02559 
L 330.930217 175.62734 
L 330.980454 176.158211 
L 331.005573 176.06466 
L 331.106048 174.475429 
L 331.131167 174.832725 
L 331.281879 179.550825 
L 331.306998 179.424588 
L 331.332116 179.102233 
L 331.332116 179.102233 
L 331.332116 179.102233 
L 331.382354 180.390525 
L 331.45771 179.946442 
L 331.482829 179.834858 
L 331.507948 178.557837 
L 331.558185 179.422334 
L 331.683779 183.376251 
L 331.734016 185.176252 
L 331.909847 181.268547 
L 332.211272 174.437107 
L 332.236391 175.02997 
L 332.387103 179.147318 
L 332.43734 178.4981 
L 332.613172 176.740929 
L 332.713646 177.293215 
L 332.763884 175.79528 
L 332.864359 175.921517 
L 332.914596 176.747692 
L 332.939715 177.730535 
L 333.04019 177.665163 
L 333.266259 180.008433 
L 333.467208 184.317391 
L 333.617921 180.333042 
L 333.668158 180.832354 
L 333.743514 181.179505 
L 333.818871 179.376122 
L 333.843989 179.492215 
L 333.919345 179.35358 
L 333.994702 178.719015 
L 334.120295 180.600168 
L 334.195651 177.352952 
L 334.446839 173.160087 
L 334.522195 173.954702 
L 334.547314 174.928529 
L 334.647789 169.71788 
L 334.798501 167.020695 
L 334.898976 168.015937 
L 334.974332 167.727396 
L 334.999451 169.865532 
L 335.074807 169.644617 
L 335.175282 169.866659 
L 335.325994 167.255135 
L 335.501825 175.572111 
L 335.526944 174.801165 
L 335.677656 169.556703 
L 335.702775 169.785507 
L 335.727894 170.90924 
L 335.778131 170.730029 
L 335.853488 171.205671 
L 335.903725 169.719007 
L 335.953963 170.689452 
L 336.029319 169.988387 
L 336.054437 170.998282 
L 336.079556 170.157454 
L 336.079556 170.157454 
L 336.456337 163.433091 
L 336.481456 164.315621 
L 336.556812 163.73403 
L 336.581931 165.694082 
L 336.657287 165.193643 
L 336.732643 164.198401 
L 336.782881 164.615434 
L 336.807999 165.872166 
L 336.833118 164.667281 
L 336.908474 164.893831 
L 336.933593 164.745052 
L 336.958712 164.657137 
L 336.98383 163.530023 
L 337.008949 164.005665 
L 337.134543 165.493456 
L 337.159661 164.58162 
L 337.18478 164.776611 
L 337.260136 164.192766 
L 337.461086 157.835841 
L 337.486205 158.031959 
L 337.486205 158.031959 
L 337.486205 158.031959 
L 337.511324 157.599147 
L 337.511324 157.599147 
L 337.511324 157.599147 
L 337.536442 158.774727 
L 337.611799 157.821189 
L 337.687155 158.699211 
L 337.862986 161.098837 
L 337.963461 157.273411 
L 338.038817 158.197645 
L 338.239767 161.619564 
L 338.315123 161.177735 
L 338.415598 162.819941 
L 338.490954 162.404035 
L 338.541192 159.173726 
L 338.591429 161.664648 
L 338.742141 159.349556 
L 338.76726 160.858762 
L 338.842616 160.197146 
L 338.917972 167.766845 
L 338.943091 167.647371 
L 339.018447 167.507609 
L 339.269635 160.616432 
L 339.294753 160.681805 
L 339.395228 160.381992 
L 339.571059 163.975233 
L 339.596178 164.68306 
L 339.596178 164.68306 
L 339.596178 164.68306 
L 339.721772 163.119753 
L 339.772009 162.428832 
L 339.822247 162.7185 
L 339.897603 162.646365 
L 339.94784 161.793139 
L 339.94784 161.793139 
L 339.94784 161.793139 
L 339.998078 163.58187 
L 340.073434 163.271913 
L 340.274384 160.534153 
L 340.425096 161.772851 
L 340.475334 160.897084 
L 340.500452 161.464022 
L 340.626046 163.770098 
L 340.651165 162.736534 
L 340.676284 163.763335 
L 340.676284 163.763335 
L 340.801877 164.592891 
L 340.826996 164.436222 
L 340.977708 162.529145 
L 341.002827 163.571726 
L 341.128421 153.160571 
L 341.178658 153.761323 
L 341.228896 153.388248 
L 341.304252 152.130389 
L 341.32937 153.110978 
L 341.404727 153.949551 
L 341.53032 152.692819 
L 341.555439 153.457002 
L 341.555439 153.457002 
L 341.555439 153.457002 
L 341.706151 150.815046 
L 341.73127 150.669649 
L 341.907101 146.424936 
L 341.93222 146.782231 
L 342.007576 147.441593 
L 342.183407 143.326499 
L 342.208526 142.746035 
L 342.233645 143.156305 
L 342.283882 145.886176 
L 342.359238 144.911222 
L 342.434595 145.274153 
L 342.560188 146.942282 
L 342.585307 146.857748 
L 342.886732 140.929127 
L 342.91185 141.581726 
L 342.936969 141.542277 
L 342.962088 141.908589 
L 342.987207 141.720361 
L 343.062563 140.419671 
L 343.087681 141.613285 
L 343.137919 143.971208 
L 343.238394 143.074026 
L 343.414225 137.702199 
L 343.464462 138.623051 
L 343.590056 141.328125 
L 343.665412 142.006648 
L 343.690531 141.730505 
L 344.218024 133.482283 
L 344.318499 132.64371 
L 344.368737 138.138392 
L 344.393855 137.234446 
L 344.49433 138.277027 
L 344.569686 134.382847 
L 344.645043 134.412152 
L 344.670161 135.232691 
L 344.69528 134.466254 
L 344.69528 134.466254 
L 344.720399 134.243085 
L 344.745518 135.133505 
L 344.820874 135.02643 
L 344.845992 133.327868 
L 344.871111 134.28817 
L 344.89623 138.406645 
L 344.921349 135.337513 
L 345.046942 137.011278 
L 345.09718 136.543525 
L 345.172536 136.543525 
L 345.197655 137.470013 
L 345.197655 137.470013 
L 345.197655 137.470013 
L 345.247892 135.071514 
L 345.273011 135.35442 
L 345.373486 137.470013 
L 345.423723 140.114223 
L 345.448842 138.617416 
L 345.976335 126.080524 
L 346.051691 126.272133 
L 346.403354 115.801241 
L 346.428472 116.905813 
L 346.428472 116.905813 
L 346.428472 116.905813 
L 346.453591 115.39548 
L 346.503829 115.463107 
L 346.604303 120.073004 
L 346.67966 119.667243 
L 346.955966 128.481277 
L 347.106678 121.865116 
L 347.156916 122.856977 
L 347.207153 120.749273 
L 347.282509 120.828171 
L 347.45834 129.011021 
L 347.483459 128.99975 
L 347.558815 122.856977 
L 347.65929 124.7618 
L 347.684409 125.212646 
L 347.734646 129.30407 
L 347.985834 121.70732 
L 348.010952 125.933999 
L 348.010952 125.933999 
L 348.010952 125.933999 
L 348.06119 115.49692 
L 348.086308 117.36793 
L 348.362615 111.676003 
L 348.437971 106.254583 
L 348.563564 104.518827 
L 348.588683 104.789335 
L 348.689158 99.90893 
L 348.714277 100.79935 
L 348.789633 104.778064 
L 348.890108 103.808745 
L 349.091058 111.45058 
L 349.141295 109.97406 
L 349.24177 106.299668 
L 349.266889 104.766793 
L 349.292007 105.803738 
L 349.292007 105.803738 
L 349.317126 107.494409 
L 349.392482 106.11933 
L 349.417601 106.671616 
L 349.492957 110.346008 
L 349.568313 107.00975 
L 349.64367 108.136864 
L 349.744145 105.972805 
L 349.769263 107.392969 
L 349.794382 107.832543 
L 349.794382 107.832543 
L 349.794382 107.832543 
L 349.84462 106.243312 
L 349.919976 106.51382 
L 350.020451 108.756777 
L 350.271638 100.292149 
L 350.346994 108.317203 
L 350.372113 104.259591 
L 350.447469 104.530099 
L 350.497706 108.474999 
L 350.547944 105.104927 
L 350.648419 106.987208 
L 350.673538 106.829412 
L 350.799131 102.354768 
L 350.849369 102.501293 
L 350.899606 99.80749 
L 351.000081 102.929596 
L 351.0252 100.348505 
L 351.050318 100.641554 
L 351.175912 102.614004 
L 351.201031 102.433666 
L 351.351743 105.307807 
L 351.376862 103.741119 
L 351.401981 104.067982 
L 351.401981 104.067982 
L 351.502456 105.860093 
L 351.527574 105.116198 
L 351.552693 105.443061 
L 351.552693 105.443061 
L 351.552693 105.443061 
L 351.577812 104.834419 
L 351.577812 104.834419 
L 351.577812 104.834419 
L 351.602931 106.209499 
L 351.703405 105.736111 
L 351.728524 104.586454 
L 351.753643 105.217638 
L 351.753643 105.217638 
L 351.854118 108.429914 
L 351.879237 107.460596 
L 351.904355 106.209499 
L 351.929474 106.378566 
L 352.055068 107.178817 
L 352.105305 113.22015 
L 352.130424 109.77118 
L 352.381611 100.325962 
L 352.40673 101.734855 
L 352.482086 108.463727 
L 352.733273 114.989719 
L 352.758392 119.058602 
L 352.833748 117.55954 
L 352.909104 113.005998 
L 352.934223 119.746141 
L 353.009579 117.086152 
L 353.084936 115.778699 
L 353.110054 116.500052 
L 353.260767 130.955293 
L 353.311004 123.860108 
L 353.361242 119.971564 
L 353.436598 120.546392 
L 353.461716 125.990354 
L 353.537073 124.322225 
L 353.838497 116.601492 
L 353.888735 119.791226 
L 353.964091 117.897674 
L 353.964091 117.897674 
L 353.964091 117.897674 
L 353.98921 119.847582 
L 354.064566 118.438689 
L 354.165041 124.536377 
L 354.240397 123.104942 
L 354.340872 122.10181 
L 354.365991 122.676638 
L 354.391109 124.07426 
L 354.391109 124.07426 
L 354.391109 124.07426 
L 354.416228 121.222661 
L 354.516703 121.594609 
L 354.541822 123.28528 
L 354.541822 123.28528 
L 354.541822 123.28528 
L 354.692534 119.430549 
L 354.717653 119.44182 
L 354.76789 113.704809 
L 354.843247 117.818776 
L 354.868365 118.607756 
L 354.918603 112.149391 
L 354.943721 113.253963 
L 355.044196 109.928976 
L 355.119553 110.999734 
L 355.194909 111.55202 
L 355.295384 120.478766 
L 355.420977 115.113702 
L 355.471215 112.915829 
L 355.546571 114.617771 
L 355.647046 114.550144 
L 355.722402 113.997858 
L 355.797758 117.36793 
L 355.822877 113.208878 
L 355.923352 114.076756 
L 356.099183 122.485029 
L 356.124302 121.560795 
L 356.124302 121.560795 
L 356.124302 121.560795 
L 356.174539 127.309078 
L 356.275014 126.024168 
L 356.300133 124.525106 
L 356.325252 125.145019 
L 356.425726 126.475014 
L 356.450845 124.389852 
L 356.475964 125.922728 
L 356.475964 125.922728 
L 356.676914 137.715724 
L 356.702032 137.161184 
L 356.802507 133.904951 
L 356.852745 134.382847 
L 356.978338 137.488047 
L 357.003457 137.347158 
L 357.028576 137.879156 
L 357.053695 132.32361 
L 357.15417 133.873392 
L 357.179288 141.002389 
L 357.229526 136.74866 
L 357.304882 137.736012 
L 357.330001 139.852733 
L 357.355119 137.823927 
L 357.355119 137.823927 
L 357.380238 136.984227 
L 357.380238 136.984227 
L 357.380238 136.984227 
L 357.405357 139.798631 
L 357.505832 138.740271 
L 357.556069 140.14691 
L 357.581188 139.831318 
L 357.706782 135.323988 
L 357.757019 137.593996 
L 357.832375 136.677652 
L 357.857494 139.066007 
L 357.907731 136.810651 
L 357.907731 136.810651 
L 357.93285 136.643839 
L 357.93285 136.643839 
L 357.93285 136.643839 
L 358.008206 136.885041 
L 358.108681 129.969068 
L 358.209156 132.14778 
L 358.259394 131.992238 
L 358.410106 126.768063 
L 358.460343 126.813148 
L 358.5357 126.824419 
L 358.560818 125.94527 
L 358.585937 126.587725 
L 358.585937 126.587725 
L 358.711531 127.613399 
L 358.812006 122.383589 
L 358.887362 121.143763 
L 358.962718 123.961549 
L 358.987837 123.826295 
L 359.063193 123.431805 
L 359.138549 120.084276 
L 359.163668 122.518842 
L 359.465093 135.663249 
L 359.590686 140.213409 
L 359.615805 138.532882 
L 359.666042 140.02969 
L 359.666042 140.02969 
L 359.691161 140.602264 
L 359.766517 140.523366 
L 359.791636 139.832445 
L 359.791636 139.832445 
L 359.791636 139.832445 
L 359.841874 143.213788 
L 359.866992 143.016543 
L 360.042823 137.856614 
L 360.143298 134.914845 
L 360.193536 132.159051 
L 360.218654 132.224423 
L 360.319129 132.763184 
L 360.369367 135.11209 
L 360.394486 134.89343 
L 360.545198 132.994243 
L 360.570317 133.882409 
L 360.821504 137.987359 
L 360.89686 136.890677 
L 360.997335 141.347286 
L 361.022454 139.645344 
L 361.09781 137.121735 
L 361.198285 138.054986 
L 361.223404 137.516225 
L 361.575066 132.654981 
L 361.725778 136.265128 
L 361.776016 127.850093 
L 361.801134 127.985347 
L 362.07744 122.29342 
L 362.127678 123.262738 
L 362.152797 122.980959 
L 362.228153 121.560795 
L 362.328628 121.684778 
L 362.604934 125.404255 
L 362.655171 124.592733 
L 362.805884 122.78935 
L 362.856121 128.560175 
L 362.931477 126.012897 
L 363.006833 114.843194 
L 363.107308 117.029796 
L 363.157546 117.063609 
L 363.182664 115.880139 
L 363.182664 115.880139 
L 363.182664 115.880139 
L 363.207783 117.987843 
L 363.308258 117.582082 
L 363.333377 116.612764 
L 363.333377 116.612764 
L 363.333377 116.612764 
L 363.358496 118.562671 
L 363.45897 118.190724 
L 363.735277 112.555152 
L 363.835751 112.724219 
L 363.911108 113.693538 
L 364.011583 111.878884 
L 364.162295 117.07488 
L 364.26277 121.650964 
L 364.363245 119.171313 
L 364.388363 119.374194 
L 364.513957 125.111205 
L 364.714907 118.359791 
L 364.740026 118.990975 
L 364.790263 118.371062 
L 364.890738 118.731738 
L 365.04145 121.346644 
L 365.317756 113.727351 
L 365.44335 112.521339 
L 365.468469 113.377946 
L 365.493588 113.118709 
L 365.594062 112.295916 
L 365.619181 112.848202 
L 365.6443 112.882015 
L 365.669419 113.896418 
L 365.769894 113.535742 
L 365.795012 113.670995 
L 365.970843 109.534486 
L 366.021081 110.323466 
L 366.196912 109.263978 
L 366.272268 109.162538 
L 366.297387 109.297792 
L 366.372743 107.099919 
L 366.473218 107.764917 
L 366.548574 99.198848 
L 366.799761 93.878869 
L 366.900236 91.173794 
L 367.02583 89.618377 
L 367.076067 90.125578 
L 367.176542 89.75363 
L 367.201661 86.631524 
L 367.251899 86.642795 
L 367.402611 87.87135 
L 367.42773 87.352877 
L 367.503086 87.28525 
L 367.528205 87.521944 
L 367.678917 84.771785 
L 367.704036 86.575168 
L 367.779392 85.696019 
L 367.854748 85.425512 
L 367.904985 81.807475 
L 367.955223 82.325947 
L 368.030579 82.280863 
L 368.055698 81.086122 
L 368.080817 81.920186 
L 368.080817 81.920186 
L 368.281766 85.233902 
L 368.382241 84.354753 
L 368.40736 85.064835 
L 368.432479 85.650934 
L 368.432479 85.650934 
L 368.432479 85.650934 
L 368.583191 81.345358 
L 368.658547 82.337218 
L 369.01021 67.75236 
L 369.085566 68.203205 
L 369.110684 68.45117 
L 369.135803 74.300894 
L 369.186041 71.156245 
L 369.261397 70.108028 
L 369.336753 70.243282 
L 369.487465 71.494379 
L 369.512584 71.020991 
L 369.537703 68.473713 
L 369.613059 70.175655 
L 369.663296 68.563882 
L 369.688415 68.992185 
L 369.839128 79.992821 
L 369.889365 83.227639 
L 369.964721 78.662826 
L 370.065196 78.730453 
L 370.140552 79.248925 
L 370.165671 81.582052 
L 370.165671 81.582052 
L 370.165671 81.582052 
L 370.19079 79.237654 
L 370.19079 79.237654 
L 370.19079 79.237654 
L 370.316383 81.841288 
L 370.366621 81.176291 
L 370.39174 82.709166 
L 370.39174 82.709166 
L 370.39174 82.709166 
L 370.592689 75.64216 
L 370.693164 74.492503 
L 370.868995 71.50565 
L 370.894114 70.705399 
L 371.019708 75.991565 
L 371.245776 62.195686 
L 371.270895 67.943969 
L 371.296014 65.509402 
L 371.396489 60.888234 
L 371.421608 61.620858 
L 371.547201 65.813723 
L 371.597439 62.702888 
L 371.647676 62.838141 
L 371.823507 58.138075 
L 371.999338 64.224492 
L 372.074694 61.000945 
L 372.124932 63.074835 
L 372.150051 64.618982 
L 372.150051 64.618982 
L 372.150051 64.618982 
L 372.175169 62.815599 
L 372.250526 64.179407 
L 372.275644 64.111781 
L 372.426357 73.297762 
L 372.476594 69.161252 
L 372.526832 69.285235 
L 372.602188 69.63464 
L 372.627306 68.890745 
L 372.627306 68.890745 
L 372.627306 68.890745 
L 372.652425 70.006588 
L 372.652425 70.006588 
L 372.652425 70.006588 
L 372.778019 67.35787 
L 372.803138 67.290243 
L 372.978969 62.150602 
L 373.004087 62.950853 
L 373.029206 67.200074 
L 373.129681 66.985922 
L 373.305512 55.139951 
L 373.481343 46.675323 
L 373.531581 44.443636 
L 373.581818 45.503124 
" style="fill:none;stroke:#1f77b4;stroke-linecap:square;stroke-width:1.5;"/>
   </g>
   <g id="patch_3">
    <path d="M 54 252 
L 54 34.56 
" style="fill:none;stroke:#000000;stroke-linecap:square;stroke-linejoin:miter;stroke-width:0.8;"/>
   </g>
   <g id="patch_4">
    <path d="M 388.8 252 
L 388.8 34.56 
" style="fill:none;stroke:#000000;stroke-linecap:square;stroke-linejoin:miter;stroke-width:0.8;"/>
   </g>
   <g id="patch_5">
    <path d="M 54 252 
L 388.8 252 
" style="fill:none;stroke:#000000;stroke-linecap:square;stroke-linejoin:miter;stroke-width:0.8;"/>
   </g>
   <g id="patch_6">
    <path d="M 54 34.56 
L 388.8 34.56 
" style="fill:none;stroke:#000000;stroke-linecap:square;stroke-linejoin:miter;stroke-width:0.8;"/>
   </g>
   <g id="text_20">
    <!-- Apple (AAPL) Stock Price -->
    <defs>
     <path d="M 34.1875 63.1875 
L 20.796875 26.90625 
L 47.609375 26.90625 
z
M 28.609375 72.90625 
L 39.796875 72.90625 
L 67.578125 0 
L 57.328125 0 
L 50.6875 18.703125 
L 17.828125 18.703125 
L 11.1875 0 
L 0.78125 0 
z
" id="DejaVuSans-41"/>
     <path d="M 18.109375 8.203125 
L 18.109375 -20.796875 
L 9.078125 -20.796875 
L 9.078125 54.6875 
L 18.109375 54.6875 
L 18.109375 46.390625 
Q 20.953125 51.265625 25.265625 53.625 
Q 29.59375 56 35.59375 56 
Q 45.5625 56 51.78125 48.09375 
Q 58.015625 40.1875 58.015625 27.296875 
Q 58.015625 14.40625 51.78125 6.484375 
Q 45.5625 -1.421875 35.59375 -1.421875 
Q 29.59375 -1.421875 25.265625 0.953125 
Q 20.953125 3.328125 18.109375 8.203125 
z
M 48.6875 27.296875 
Q 48.6875 37.203125 44.609375 42.84375 
Q 40.53125 48.484375 33.40625 48.484375 
Q 26.265625 48.484375 22.1875 42.84375 
Q 18.109375 37.203125 18.109375 27.296875 
Q 18.109375 17.390625 22.1875 11.75 
Q 26.265625 6.109375 33.40625 6.109375 
Q 40.53125 6.109375 44.609375 11.75 
Q 48.6875 17.390625 48.6875 27.296875 
z
" id="DejaVuSans-70"/>
     <path d="M 9.421875 75.984375 
L 18.40625 75.984375 
L 18.40625 0 
L 9.421875 0 
z
" id="DejaVuSans-6c"/>
     <path id="DejaVuSans-20"/>
     <path d="M 31 75.875 
Q 24.46875 64.65625 21.28125 53.65625 
Q 18.109375 42.671875 18.109375 31.390625 
Q 18.109375 20.125 21.3125 9.0625 
Q 24.515625 -2 31 -13.1875 
L 23.1875 -13.1875 
Q 15.875 -1.703125 12.234375 9.375 
Q 8.59375 20.453125 8.59375 31.390625 
Q 8.59375 42.28125 12.203125 53.3125 
Q 15.828125 64.359375 23.1875 75.875 
z
" id="DejaVuSans-28"/>
     <path d="M 9.8125 72.90625 
L 19.671875 72.90625 
L 19.671875 8.296875 
L 55.171875 8.296875 
L 55.171875 0 
L 9.8125 0 
z
" id="DejaVuSans-4c"/>
     <path d="M 8.015625 75.875 
L 15.828125 75.875 
Q 23.140625 64.359375 26.78125 53.3125 
Q 30.421875 42.28125 30.421875 31.390625 
Q 30.421875 20.453125 26.78125 9.375 
Q 23.140625 -1.703125 15.828125 -13.1875 
L 8.015625 -13.1875 
Q 14.5 -2 17.703125 9.0625 
Q 20.90625 20.125 20.90625 31.390625 
Q 20.90625 42.671875 17.703125 53.65625 
Q 14.5 64.65625 8.015625 75.875 
z
" id="DejaVuSans-29"/>
     <path d="M 53.515625 70.515625 
L 53.515625 60.890625 
Q 47.90625 63.578125 42.921875 64.890625 
Q 37.9375 66.21875 33.296875 66.21875 
Q 25.25 66.21875 20.875 63.09375 
Q 16.5 59.96875 16.5 54.203125 
Q 16.5 49.359375 19.40625 46.890625 
Q 22.3125 44.4375 30.421875 42.921875 
L 36.375 41.703125 
Q 47.40625 39.59375 52.65625 34.296875 
Q 57.90625 29 57.90625 20.125 
Q 57.90625 9.515625 50.796875 4.046875 
Q 43.703125 -1.421875 29.984375 -1.421875 
Q 24.8125 -1.421875 18.96875 -0.25 
Q 13.140625 0.921875 6.890625 3.21875 
L 6.890625 13.375 
Q 12.890625 10.015625 18.65625 8.296875 
Q 24.421875 6.59375 29.984375 6.59375 
Q 38.421875 6.59375 43.015625 9.90625 
Q 47.609375 13.234375 47.609375 19.390625 
Q 47.609375 24.75 44.3125 27.78125 
Q 41.015625 30.8125 33.5 32.328125 
L 27.484375 33.5 
Q 16.453125 35.6875 11.515625 40.375 
Q 6.59375 45.0625 6.59375 53.421875 
Q 6.59375 63.09375 13.40625 68.65625 
Q 20.21875 74.21875 32.171875 74.21875 
Q 37.3125 74.21875 42.625 73.28125 
Q 47.953125 72.359375 53.515625 70.515625 
z
" id="DejaVuSans-53"/>
     <path d="M 30.609375 48.390625 
Q 23.390625 48.390625 19.1875 42.75 
Q 14.984375 37.109375 14.984375 27.296875 
Q 14.984375 17.484375 19.15625 11.84375 
Q 23.34375 6.203125 30.609375 6.203125 
Q 37.796875 6.203125 41.984375 11.859375 
Q 46.1875 17.53125 46.1875 27.296875 
Q 46.1875 37.015625 41.984375 42.703125 
Q 37.796875 48.390625 30.609375 48.390625 
z
M 30.609375 56 
Q 42.328125 56 49.015625 48.375 
Q 55.71875 40.765625 55.71875 27.296875 
Q 55.71875 13.875 49.015625 6.21875 
Q 42.328125 -1.421875 30.609375 -1.421875 
Q 18.84375 -1.421875 12.171875 6.21875 
Q 5.515625 13.875 5.515625 27.296875 
Q 5.515625 40.765625 12.171875 48.375 
Q 18.84375 56 30.609375 56 
z
" id="DejaVuSans-6f"/>
     <path d="M 9.078125 75.984375 
L 18.109375 75.984375 
L 18.109375 31.109375 
L 44.921875 54.6875 
L 56.390625 54.6875 
L 27.390625 29.109375 
L 57.625 0 
L 45.90625 0 
L 18.109375 26.703125 
L 18.109375 0 
L 9.078125 0 
z
" id="DejaVuSans-6b"/>
    </defs>
    <g transform="translate(73.395 28.56)scale(0.24 -0.24)">
     <use xlink:href="#DejaVuSans-41"/>
     <use x="68.408203" xlink:href="#DejaVuSans-70"/>
     <use x="131.884766" xlink:href="#DejaVuSans-70"/>
     <use x="195.361328" xlink:href="#DejaVuSans-6c"/>
     <use x="223.144531" xlink:href="#DejaVuSans-65"/>
     <use x="284.667969" xlink:href="#DejaVuSans-20"/>
     <use x="316.455078" xlink:href="#DejaVuSans-28"/>
     <use x="355.46875" xlink:href="#DejaVuSans-41"/>
     <use x="423.908203" xlink:href="#DejaVuSans-41"/>
     <use x="492.316406" xlink:href="#DejaVuSans-50"/>
     <use x="552.619141" xlink:href="#DejaVuSans-4c"/>
     <use x="608.332031" xlink:href="#DejaVuSans-29"/>
     <use x="647.345703" xlink:href="#DejaVuSans-20"/>
     <use x="679.132812" xlink:href="#DejaVuSans-53"/>
     <use x="742.609375" xlink:href="#DejaVuSans-74"/>
     <use x="781.818359" xlink:href="#DejaVuSans-6f"/>
     <use x="843" xlink:href="#DejaVuSans-63"/>
     <use x="897.980469" xlink:href="#DejaVuSans-6b"/>
     <use x="955.890625" xlink:href="#DejaVuSans-20"/>
     <use x="987.677734" xlink:href="#DejaVuSans-50"/>
     <use x="1047.964844" xlink:href="#DejaVuSans-72"/>
     <use x="1089.078125" xlink:href="#DejaVuSans-69"/>
     <use x="1116.861328" xlink:href="#DejaVuSans-63"/>
     <use x="1171.841797" xlink:href="#DejaVuSans-65"/>
    </g>
   </g>
   <g id="legend_1">
    <g id="patch_7">
     <path d="M 61 57.238125 
L 118.285938 57.238125 
Q 120.285938 57.238125 120.285938 55.238125 
L 120.285938 41.56 
Q 120.285938 39.56 118.285938 39.56 
L 61 39.56 
Q 59 39.56 59 41.56 
L 59 55.238125 
Q 59 57.238125 61 57.238125 
z
" style="fill:#ffffff;opacity:0.8;stroke:#cccccc;stroke-linejoin:miter;"/>
    </g>
    <g id="line2d_19">
     <path d="M 63 47.658437 
L 83 47.658437 
" style="fill:none;stroke:#1f77b4;stroke-linecap:square;stroke-width:1.5;"/>
    </g>
    <g id="line2d_20"/>
    <g id="text_21">
     <!-- AAPL -->
     <g transform="translate(91 51.158437)scale(0.1 -0.1)">
      <use xlink:href="#DejaVuSans-41"/>
      <use x="68.439453" xlink:href="#DejaVuSans-41"/>
      <use x="136.847656" xlink:href="#DejaVuSans-50"/>
      <use x="197.150391" xlink:href="#DejaVuSans-4c"/>
     </g>
    </g>
   </g>
  </g>
 </g>
 <defs>
  <clipPath id="p2cc4709d8f">
   <rect height="217.44" width="334.8" x="54" y="34.56"/>
  </clipPath>
 </defs>
</svg>
