<?xml version="1.0" encoding="UTF-8" standalone="no"?>
<svg width="642px" height="241px" viewBox="0 0 642 241" version="1.1" xmlns="http://www.w3.org/2000/svg" xmlns:xlink="http://www.w3.org/1999/xlink">
    <!-- Generator: Sketch 50.2 (55047) - http://www.bohemiancoding.com/sketch -->
    <title>Group</title>
    <desc>Created with Sketch.</desc>
    <defs></defs>
    <g id="Page-1" stroke="none" stroke-width="1" fill="none" fill-rule="evenodd">
        <g id="Group" transform="translate(-1.000000, 0.000000)">
            <path d="M212,1 L212,44 L255,44 L255,1 L212,1 Z" id="Rectangle" stroke="#000000" stroke-width="2" fill="#FFFFFF"></path>
            <text id="0" font-family="Helvetica" font-size="36" font-weight="normal" fill="#000000">
                <tspan x="223.489258" y="35">0</tspan>
            </text>
            <path d="M255,1 L255,44 L298,44 L298,1 L255,1 Z" id="Rectangle" stroke="#000000" stroke-width="2" fill="#FFFFFF"></path>
            <text id="1" font-family="Helvetica" font-size="36" font-weight="normal" fill="#000000">
                <tspan x="266.489258" y="35">1</tspan>
            </text>
            <path d="M298,1 L298,44 L341,44 L341,1 L298,1 Z" id="Rectangle" stroke="#000000" stroke-width="2" fill="#FFFFFF"></path>
            <text id="2" font-family="Helvetica" font-size="36" font-weight="normal" fill="#000000">
                <tspan x="309.489258" y="35">2</tspan>
            </text>
            <path d="M341,1 L341,44 L384,44 L384,1 L341,1 Z" id="Rectangle" stroke="#000000" stroke-width="2" fill="#FFFFFF"></path>
            <text id="3" font-family="Helvetica" font-size="36" font-weight="normal" fill="#000000">
                <tspan x="352.489258" y="35">3</tspan>
            </text>
            <path d="M384,1 L384,44 L427,44 L427,1 L384,1 Z" id="Rectangle" stroke="#000000" stroke-width="2" fill="#FFFFFF"></path>
            <text id="4" font-family="Helvetica" font-size="36" font-weight="normal" fill="#000000">
                <tspan x="395.489258" y="35">4</tspan>
            </text>
            <path d="M427,1 L427,44 L470,44 L470,1 L427,1 Z" id="Rectangle" stroke="#000000" stroke-width="2" fill="#FFFFFF"></path>
            <text id="5" font-family="Helvetica" font-size="36" font-weight="normal" fill="#000000">
                <tspan x="438.489258" y="35">5</tspan>
            </text>
            <path d="M470,1 L470,44 L513,44 L513,1 L470,1 Z" id="Rectangle" stroke="#000000" stroke-width="2" fill="#FFFFFF"></path>
            <text id="6" font-family="Helvetica" font-size="36" font-weight="normal" fill="#000000">
                <tspan x="481.489258" y="35">6</tspan>
            </text>
            <path d="M513,1 L513,44 L556,44 L556,1 L513,1 Z" id="Rectangle" stroke="#000000" stroke-width="2" fill="#FFFFFF"></path>
            <text id="7" font-family="Helvetica" font-size="36" font-weight="normal" fill="#000000">
                <tspan x="524.489258" y="35">7</tspan>
            </text>
            <path d="M556,1 L556,44 L599,44 L599,1 L556,1 Z" id="Rectangle" stroke="#000000" stroke-width="2" fill="#FFFFFF"></path>
            <text id="8" font-family="Helvetica" font-size="36" font-weight="normal" fill="#000000">
                <tspan x="567.489258" y="35">8</tspan>
            </text>
            <path d="M599,1 L599,44 L642,44 L642,1 L599,1 Z" id="Rectangle" stroke="#000000" stroke-width="2" fill="#FFFFFF"></path>
            <text id="9" font-family="Helvetica" font-size="36" font-weight="normal" fill="#000000">
                <tspan x="610.489258" y="35">9</tspan>
            </text>
            <path d="M212,197 L212,240 L255,240 L255,197 L212,197 Z" id="Rectangle" stroke="#000000" stroke-width="2" fill="#FFFFFF"></path>
            <text id="1" font-family="Helvetica" font-size="36" font-weight="normal" fill="#000000">
                <tspan x="223.489258" y="231">1</tspan>
            </text>
            <path d="M255,197 L255,240 L298,240 L298,197 L255,197 Z" id="Rectangle" stroke="#000000" stroke-width="2" fill="#FFFFFF"></path>
            <text id="2" font-family="Helvetica" font-size="36" font-weight="normal" fill="#000000">
                <tspan x="266.489258" y="231">2</tspan>
            </text>
            <path d="M298,197 L298,240 L341,240 L341,197 L298,197 Z" id="Rectangle" stroke="#000000" stroke-width="2" fill="#FFFFFF"></path>
            <text id="3" font-family="Helvetica" font-size="36" font-weight="normal" fill="#000000">
                <tspan x="309.489258" y="231">3</tspan>
            </text>
            <path d="M341,197 L341,240 L384,240 L384,197 L341,197 Z" id="Rectangle" stroke="#000000" stroke-width="2" fill="#FFFFFF"></path>
            <text id="4" font-family="Helvetica" font-size="36" font-weight="normal" fill="#000000">
                <tspan x="352.489258" y="231">4</tspan>
            </text>
            <path d="M384,197 L384,240 L427,240 L427,197 L384,197 Z" id="Rectangle" stroke="#000000" stroke-width="2" fill="#FFFFFF"></path>
            <text id="5" font-family="Helvetica" font-size="36" font-weight="normal" fill="#000000">
                <tspan x="395.489258" y="231">5</tspan>
            </text>
            <path d="M427,197 L427,240 L470,240 L470,197 L427,197 Z" id="Rectangle" stroke="#000000" stroke-width="2" fill="#FFFFFF"></path>
            <text id="6" font-family="Helvetica" font-size="36" font-weight="normal" fill="#000000">
                <tspan x="438.489258" y="231">6</tspan>
            </text>
            <path d="M470,197 L470,240 L513,240 L513,197 L470,197 Z" id="Rectangle" stroke="#000000" stroke-width="2" fill="#FFFFFF"></path>
            <text id="7" font-family="Helvetica" font-size="36" font-weight="normal" fill="#000000">
                <tspan x="481.489258" y="231">7</tspan>
            </text>
            <path d="M513,197 L513,240 L556,240 L556,197 L513,197 Z" id="Rectangle" stroke="#000000" stroke-width="2" fill="#FFFFFF"></path>
            <text id="8" font-family="Helvetica" font-size="36" font-weight="normal" fill="#000000">
                <tspan x="524.489258" y="231">8</tspan>
            </text>
            <path d="M556,197 L556,240 L599,240 L599,197 L556,197 Z" id="Rectangle" stroke="#000000" stroke-width="2" fill="#FFFFFF"></path>
            <text id="9" font-family="Helvetica" font-size="36" font-weight="normal" fill="#000000">
                <tspan x="567.489258" y="231">9</tspan>
            </text>
            <path d="M599,197 L599,240 L642,240 L642,197 L599,197 Z" id="Rectangle" stroke="#000000" stroke-width="2" fill="#FFFFFF"></path>
            <text id="10" font-family="Helvetica" font-size="36" font-weight="normal" fill="#000000">
                <tspan x="600.478516" y="231">10</tspan>
            </text>
            <path d="M212,101 L212,144 L255,144 L255,101 L212,101 Z" id="Rectangle" stroke="#000000" stroke-width="2" fill="#FFFFFF"></path>
            <text id="1" font-family="Helvetica" font-size="36" font-weight="normal" fill="#000000">
                <tspan x="223.489258" y="135">1</tspan>
            </text>
            <path d="M255,101 L255,144 L298,144 L298,101 L255,101 Z" id="Rectangle" stroke="#000000" stroke-width="2" fill="#FFFFFF"></path>
            <text id="1" font-family="Helvetica" font-size="36" font-weight="normal" fill="#000000">
                <tspan x="266.489258" y="135">1</tspan>
            </text>
            <path d="M298,101 L298,144 L341,144 L341,101 L298,101 Z" id="Rectangle" stroke="#000000" stroke-width="2" fill="#FFFFFF"></path>
            <text id="1" font-family="Helvetica" font-size="36" font-weight="normal" fill="#000000">
                <tspan x="309.489258" y="135">1</tspan>
            </text>
            <path d="M341,101 L341,144 L384,144 L384,101 L341,101 Z" id="Rectangle" stroke="#000000" stroke-width="2" fill="#FFFFFF"></path>
            <text id="1" font-family="Helvetica" font-size="36" font-weight="normal" fill="#000000">
                <tspan x="352.489258" y="135">1</tspan>
            </text>
            <path d="M384,101 L384,144 L427,144 L427,101 L384,101 Z" id="Rectangle" stroke="#000000" stroke-width="2" fill="#FFFFFF"></path>
            <text id="1" font-family="Helvetica" font-size="36" font-weight="normal" fill="#000000">
                <tspan x="395.489258" y="135">1</tspan>
            </text>
            <path d="M427,101 L427,144 L470,144 L470,101 L427,101 Z" id="Rectangle" stroke="#000000" stroke-width="2" fill="#FFFFFF"></path>
            <text id="1" font-family="Helvetica" font-size="36" font-weight="normal" fill="#000000">
                <tspan x="438.489258" y="135">1</tspan>
            </text>
            <path d="M470,101 L470,144 L513,144 L513,101 L470,101 Z" id="Rectangle" stroke="#000000" stroke-width="2" fill="#FFFFFF"></path>
            <text id="1" font-family="Helvetica" font-size="36" font-weight="normal" fill="#000000">
                <tspan x="481.489258" y="135">1</tspan>
            </text>
            <path d="M513,101 L513,144 L556,144 L556,101 L513,101 Z" id="Rectangle" stroke="#000000" stroke-width="2" fill="#FFFFFF"></path>
            <text id="1" font-family="Helvetica" font-size="36" font-weight="normal" fill="#000000">
                <tspan x="524.489258" y="135">1</tspan>
            </text>
            <path d="M556,101 L556,144 L599,144 L599,101 L556,101 Z" id="Rectangle" stroke="#000000" stroke-width="2" fill="#FFFFFF"></path>
            <text id="1" font-family="Helvetica" font-size="36" font-weight="normal" fill="#000000">
                <tspan x="567.489258" y="135">1</tspan>
            </text>
            <path d="M599,101 L599,144 L642,144 L642,101 L599,101 Z" id="Rectangle" stroke="#000000" stroke-width="2" fill="#FFFFFF"></path>
            <text id="1" font-family="Helvetica" font-size="36" font-weight="normal" fill="#000000">
                <tspan x="610.489258" y="135">1</tspan>
            </text>
            <text id="+" font-family="Helvetica-Bold, Helvetica" font-size="36" font-weight="bold" fill="#000000">
                <tspan x="222.488281" y="83">+</tspan>
            </text>
            <text id="+" font-family="Helvetica-Bold, Helvetica" font-size="36" font-weight="bold" fill="#000000">
                <tspan x="266.488281" y="83">+</tspan>
            </text>
            <text id="+" font-family="Helvetica-Bold, Helvetica" font-size="36" font-weight="bold" fill="#000000">
                <tspan x="307.488281" y="83">+</tspan>
            </text>
            <text id="+" font-family="Helvetica-Bold, Helvetica" font-size="36" font-weight="bold" fill="#000000">
                <tspan x="351.488281" y="83">+</tspan>
            </text>
            <text id="+" font-family="Helvetica-Bold, Helvetica" font-size="36" font-weight="bold" fill="#000000">
                <tspan x="396.488281" y="83">+</tspan>
            </text>
            <text id="+" font-family="Helvetica-Bold, Helvetica" font-size="36" font-weight="bold" fill="#000000">
                <tspan x="440.488281" y="83">+</tspan>
            </text>
            <text id="+" font-family="Helvetica-Bold, Helvetica" font-size="36" font-weight="bold" fill="#000000">
                <tspan x="481.488281" y="83">+</tspan>
            </text>
            <text id="+" font-family="Helvetica-Bold, Helvetica" font-size="36" font-weight="bold" fill="#000000">
                <tspan x="525.488281" y="83">+</tspan>
            </text>
            <text id="+" font-family="Helvetica-Bold, Helvetica" font-size="36" font-weight="bold" fill="#000000">
                <tspan x="566.488281" y="83">+</tspan>
            </text>
            <text id="+" font-family="Helvetica-Bold, Helvetica" font-size="36" font-weight="bold" fill="#000000">
                <tspan x="610.488281" y="83">+</tspan>
            </text>
            <text id="=" font-family="Helvetica-Bold, Helvetica" font-size="36" font-weight="bold" fill="#000000">
                <tspan x="222.488281" y="180">=</tspan>
            </text>
            <text id="=" font-family="Helvetica-Bold, Helvetica" font-size="36" font-weight="bold" fill="#000000">
                <tspan x="266.488281" y="180">=</tspan>
            </text>
            <text id="=" font-family="Helvetica-Bold, Helvetica" font-size="36" font-weight="bold" fill="#000000">
                <tspan x="307.488281" y="180">=</tspan>
            </text>
            <text id="=" font-family="Helvetica-Bold, Helvetica" font-size="36" font-weight="bold" fill="#000000">
                <tspan x="351.488281" y="180">=</tspan>
            </text>
            <text id="=" font-family="Helvetica-Bold, Helvetica" font-size="36" font-weight="bold" fill="#000000">
                <tspan x="396.488281" y="180">=</tspan>
            </text>
            <text id="=" font-family="Helvetica-Bold, Helvetica" font-size="36" font-weight="bold" fill="#000000">
                <tspan x="440.488281" y="180">=</tspan>
            </text>
            <text id="=" font-family="Helvetica-Bold, Helvetica" font-size="36" font-weight="bold" fill="#000000">
                <tspan x="481.488281" y="180">=</tspan>
            </text>
            <text id="=" font-family="Helvetica-Bold, Helvetica" font-size="36" font-weight="bold" fill="#000000">
                <tspan x="525.488281" y="180">=</tspan>
            </text>
            <text id="=" font-family="Helvetica-Bold, Helvetica" font-size="36" font-weight="bold" fill="#000000">
                <tspan x="566.488281" y="180">=</tspan>
            </text>
            <text id="=" font-family="Helvetica-Bold, Helvetica" font-size="36" font-weight="bold" fill="#000000">
                <tspan x="610.488281" y="180">=</tspan>
            </text>
            <text id="array-to-modify" font-family="Helvetica" font-size="30" font-weight="normal" fill="#000000">
                <tspan x="0.30078125" y="30">array to modify</tspan>
            </text>
            <text id="all-ones" font-family="Helvetica" font-size="30" font-weight="normal" fill="#000000">
                <tspan x="95.7983398" y="129">all ones</tspan>
            </text>
            <text id="output-array" font-family="Helvetica" font-size="30" font-weight="normal" fill="#000000">
                <tspan x="35.4536133" y="227">output array</tspan>
            </text>
        </g>
    </g>
</svg>