<?xml version="1.0" encoding="UTF-8"?>
<svg width="19px" height="15px" viewBox="0 0 19 15" version="1.1" xmlns="http://www.w3.org/2000/svg" xmlns:xlink="http://www.w3.org/1999/xlink">
    <!-- Generator: Sketch 50.2 (55047) - http://www.bohemiancoding.com/sketch -->
    <title>Group</title>
    <desc>Created with Sketch.</desc>
    <defs></defs>
    <g id="Page-1" stroke="none" stroke-width="1" fill="none" fill-rule="evenodd">
        <g id="Group" fill="#FFFFFF" fill-rule="nonzero">
            <path d="M2.245,8.496 L0.272,8.496 C0.122,8.496 0,8.62 0,8.77 L0,14.487 C0,14.637 0.122,14.759 0.272,14.759 L2.245,14.759 C2.395,14.759 2.517,14.637 2.517,14.487 L2.517,8.77 C2.518,8.62 2.396,8.496 2.245,8.496 Z" id="Shape"></path>
            <path d="M18.504,8.496 L16.531,8.496 C16.381,8.496 16.26,8.62 16.26,8.77 L16.26,14.487 C16.26,14.637 16.381,14.759 16.531,14.759 L18.504,14.759 C18.656,14.759 18.777,14.637 18.777,14.487 L18.777,8.77 C18.777,8.62 18.656,8.496 18.504,8.496 Z" id="Shape"></path>
            <path d="M5.907,5.228 L3.934,5.228 C3.784,5.228 3.661,5.35 3.661,5.501 L3.661,14.485 C3.661,14.635 3.784,14.757 3.934,14.757 L5.907,14.757 C6.058,14.757 6.18,14.635 6.18,14.485 L6.18,5.501 C6.18,5.349 6.058,5.228 5.907,5.228 Z" id="Shape"></path>
            <path d="M14.271,5.228 L12.298,5.228 C12.148,5.228 12.027,5.35 12.027,5.501 L12.027,14.485 C12.027,14.635 12.148,14.757 12.298,14.757 L14.271,14.757 C14.423,14.757 14.544,14.635 14.544,14.485 L14.544,5.501 C14.545,5.349 14.424,5.228 14.271,5.228 Z" id="Shape"></path>
            <path d="M10.01,7.218 L8.036,7.218 C7.886,7.218 7.764,7.341 7.764,7.49 L7.764,14.484 C7.764,14.634 7.886,14.756 8.036,14.756 L10.01,14.756 C10.162,14.756 10.283,14.634 10.283,14.484 L10.283,7.49 C10.283,7.341 10.162,7.218 10.01,7.218 Z" id="Shape"></path>
            <path d="M1.259,4.947 C1.84,4.947 2.31,4.477 2.31,3.896 C2.31,3.795 2.291,3.7 2.264,3.608 L4.475,2.017 C4.611,2.081 4.761,2.119 4.921,2.119 C5.23,2.119 5.504,1.984 5.697,1.772 L7.784,2.98 C7.772,3.042 7.764,3.106 7.764,3.17 C7.764,3.75 8.235,4.221 8.815,4.221 C9.374,4.221 9.827,3.783 9.859,3.232 L12.673,2.409 C12.864,2.671 13.171,2.844 13.521,2.844 C13.753,2.844 13.964,2.767 14.138,2.639 L16.503,4.243 C16.483,4.326 16.466,4.413 16.466,4.503 C16.466,5.084 16.937,5.555 17.517,5.555 C18.097,5.555 18.57,5.084 18.57,4.503 C18.57,3.922 18.097,3.452 17.517,3.452 C17.285,3.452 17.074,3.529 16.9,3.656 L14.537,2.055 C14.557,1.971 14.572,1.885 14.572,1.795 C14.572,1.214 14.103,0.744 13.521,0.744 C12.962,0.744 12.509,1.182 12.476,1.733 L9.663,2.555 C9.472,2.292 9.164,2.12 8.815,2.12 C8.556,2.12 8.323,2.216 8.14,2.371 L5.968,1.112 C5.968,1.097 5.972,1.084 5.972,1.07 C5.972,0.489 5.502,0.018 4.921,0.018 C4.34,0.018 3.87,0.488 3.87,1.069 C3.87,1.227 3.908,1.375 3.97,1.51 L1.855,3.032 C1.686,2.914 1.481,2.845 1.259,2.845 C0.678,2.845 0.208,3.316 0.208,3.896 C0.208,4.477 0.678,4.947 1.259,4.947 Z" id="Shape"></path>
        </g>
    </g>
</svg>