<?xml version="1.0" encoding="UTF-8"?>
<svg width="1014px" height="753px" viewBox="0 0 1014 753" version="1.1" xmlns="http://www.w3.org/2000/svg" xmlns:xlink="http://www.w3.org/1999/xlink">
    <!-- Generator: Sketch 50.2 (55047) - http://www.bohemiancoding.com/sketch -->
    <title>Group 2</title>
    <desc>Created with Sketch.</desc>
    <defs></defs>
    <g id="Page-1" stroke="none" stroke-width="1" fill="none" fill-rule="evenodd">
        <g id="Group-2">
            <g id="Group" transform="translate(0.000000, 240.000000)">
                <rect id="Rectangle-path" fill="#000000" fill-rule="nonzero" x="0.47" y="0.95" width="8.03" height="82.08"></rect>
                <rect id="Rectangle-path" fill="#000000" fill-rule="nonzero" transform="translate(65.005000, 83.025000) rotate(-90.000000) translate(-65.005000, -83.025000) " x="60.99" y="18.5" width="8.03" height="129.05"></rect>
                <circle id="Oval" fill="#000000" fill-rule="nonzero" cx="25.29" cy="64.1" r="3.72"></circle>
                <circle id="Oval" fill="#000000" fill-rule="nonzero" cx="42.34" cy="23.26" r="3.72"></circle>
                <circle id="Oval" fill="#000000" fill-rule="nonzero" cx="55.88" cy="62.79" r="3.72"></circle>
                <circle id="Oval" fill="#000000" fill-rule="nonzero" cx="66.67" cy="38.75" r="3.72"></circle>
                <circle id="Oval" fill="#000000" fill-rule="nonzero" cx="79.85" cy="57.95" r="3.72"></circle>
                <circle id="Oval" fill="#000000" fill-rule="nonzero" cx="107.33" cy="16.8" r="3.72"></circle>
                <polyline id="Shape" stroke="#000000" stroke-width="3.8" stroke-linejoin="round" points="25.29 64.1 42.34 23.26 55.88 62.79 66.67 38.75 79.83 57.95 107.33 16.8"></polyline>
            </g>
            <g id="Group" transform="translate(203.000000, 240.000000)">
                <rect id="Rectangle-path" fill="#000000" fill-rule="nonzero" x="0.47" y="0.95" width="8.03" height="82.08"></rect>
                <rect id="Rectangle-path" fill="#000000" fill-rule="nonzero" transform="translate(65.005000, 83.025000) rotate(-90.000000) translate(-65.005000, -83.025000) " x="60.99" y="18.5" width="8.03" height="129.05"></rect>
                <circle id="Oval" fill="#000000" fill-rule="nonzero" cx="25.29" cy="64.1" r="3.72"></circle>
                <circle id="Oval" fill="#000000" fill-rule="nonzero" cx="42.34" cy="23.26" r="3.72"></circle>
                <circle id="Oval" fill="#000000" fill-rule="nonzero" cx="55.88" cy="62.79" r="3.72"></circle>
                <circle id="Oval" fill="#000000" fill-rule="nonzero" cx="66.67" cy="38.75" r="3.72"></circle>
                <circle id="Oval" fill="#000000" fill-rule="nonzero" cx="79.85" cy="57.95" r="3.72"></circle>
                <circle id="Oval" fill="#000000" fill-rule="nonzero" cx="107.33" cy="16.8" r="3.72"></circle>
                <polyline id="Shape" stroke="#000000" stroke-width="3.8" stroke-linejoin="round" points="25.29 64.1 42.34 23.26 55.88 62.79 66.67 38.75 79.83 57.95 107.33 16.8"></polyline>
            </g>
            <g id="Group" transform="translate(406.000000, 240.000000)">
                <rect id="Rectangle-path" fill="#000000" fill-rule="nonzero" x="0.47" y="0.95" width="8.03" height="82.08"></rect>
                <rect id="Rectangle-path" fill="#000000" fill-rule="nonzero" transform="translate(65.005000, 83.025000) rotate(-90.000000) translate(-65.005000, -83.025000) " x="60.99" y="18.5" width="8.03" height="129.05"></rect>
                <circle id="Oval" fill="#000000" fill-rule="nonzero" cx="25.29" cy="64.1" r="3.72"></circle>
                <circle id="Oval" fill="#000000" fill-rule="nonzero" cx="42.34" cy="23.26" r="3.72"></circle>
                <circle id="Oval" fill="#000000" fill-rule="nonzero" cx="55.88" cy="62.79" r="3.72"></circle>
                <circle id="Oval" fill="#000000" fill-rule="nonzero" cx="66.67" cy="38.75" r="3.72"></circle>
                <circle id="Oval" fill="#000000" fill-rule="nonzero" cx="79.85" cy="57.95" r="3.72"></circle>
                <circle id="Oval" fill="#000000" fill-rule="nonzero" cx="107.33" cy="16.8" r="3.72"></circle>
                <polyline id="Shape" stroke="#000000" stroke-width="3.8" stroke-linejoin="round" points="25.29 64.1 42.34 23.26 55.88 62.79 66.67 38.75 79.83 57.95 107.33 16.8"></polyline>
            </g>
            <g id="Group" transform="translate(0.000000, 240.000000)">
                <rect id="Rectangle-path" fill="#000000" fill-rule="nonzero" x="0.47" y="0.95" width="8.03" height="82.08"></rect>
                <rect id="Rectangle-path" fill="#000000" fill-rule="nonzero" transform="translate(65.005000, 83.025000) rotate(-90.000000) translate(-65.005000, -83.025000) " x="60.99" y="18.5" width="8.03" height="129.05"></rect>
                <circle id="Oval" fill="#000000" fill-rule="nonzero" cx="25.29" cy="64.1" r="3.72"></circle>
                <circle id="Oval" fill="#000000" fill-rule="nonzero" cx="42.34" cy="23.26" r="3.72"></circle>
                <circle id="Oval" fill="#000000" fill-rule="nonzero" cx="55.88" cy="62.79" r="3.72"></circle>
                <circle id="Oval" fill="#000000" fill-rule="nonzero" cx="66.67" cy="38.75" r="3.72"></circle>
                <circle id="Oval" fill="#000000" fill-rule="nonzero" cx="79.85" cy="57.95" r="3.72"></circle>
                <circle id="Oval" fill="#000000" fill-rule="nonzero" cx="107.33" cy="16.8" r="3.72"></circle>
                <polyline id="Shape" stroke="#000000" stroke-width="3.8" stroke-linejoin="round" points="25.29 64.1 42.34 23.26 55.88 62.79 66.67 38.75 79.83 57.95 107.33 16.8"></polyline>
            </g>
            <g id="text-file-interface-symbol-with-lines-and-down-right-corner-folded" transform="translate(208.000000, 0.000000)" fill="#000000" fill-rule="nonzero">
                <path d="M110.50035,0 L8.49987273,0 C3.80583338,0 0,3.82955556 0,8.5623738 L0,128.437626 C0,133.170444 3.80583338,137 8.49987273,137 L84.9996182,137 L119,102.749383 L119,8.5623738 C119.000223,3.82955556 115.198398,0 110.50035,0 Z M83.7708739,124.892331 L83.7708739,101.511379 L106.980934,101.511379 L83.7708739,124.892331 Z M109.419492,92.5705145 L83.3947004,92.5705145 C78.7957623,92.5705145 75.0750079,96.3197502 75.0750079,100.951608 L75.0750079,127.167539 L9.58073119,127.167539 L9.58073119,9.83358253 L109.418378,9.83358253 L109.418378,92.5705145 L109.419492,92.5705145 Z" id="Shape"></path>
                <path d="M22.2498998,32 L98.7501002,32 C101.099327,32 103,29.7636033 103,27 C103,24.2363967 101.099327,22 98.7501002,22 L22.2498998,22 C19.9008958,22 18,24.2363967 18,27 C18,29.7636033 19.9006731,32 22.2498998,32 Z" id="Shape"></path>
                <path d="M22.2498998,56 L98.7501002,56 C101.099327,56 103,53.7636033 103,51 C103,48.2363967 101.099327,46 98.7501002,46 L22.2498998,46 C19.9008958,46 18,48.2363967 18,51 C18,53.7636033 19.9006731,56 22.2498998,56 Z" id="Shape"></path>
                <path d="M22.2498998,77 L98.7501002,77 C101.099327,77 103,74.7636033 103,72 C103,69.2363967 101.099327,67 98.7501002,67 L22.2498998,67 C19.9008958,67 18,69.2363967 18,72 C18,74.7636033 19.9006731,77 22.2498998,77 Z" id="Shape"></path>
                <path d="M22.2726255,101 L60.7273745,101 C63.0891633,101 65,98.7637925 65,96.0004231 C65,93.2370536 63.0891633,91 60.7273745,91 L22.2726255,91 C19.9110606,91 18,93.2362075 18,95.9993654 C18,98.7627348 19.9108367,101 22.2726255,101 Z" id="Shape"></path>
            </g>
            <g id="text-file-interface-symbol-with-lines-and-down-right-corner-folded" transform="translate(208.000000, 616.000000)" fill="#000000" fill-rule="nonzero">
                <path d="M110.50035,0 L8.49987273,0 C3.80583338,0 0,3.82955556 0,8.5623738 L0,128.437626 C0,133.170444 3.80583338,137 8.49987273,137 L84.9996182,137 L119,102.749383 L119,8.5623738 C119.000223,3.82955556 115.198398,0 110.50035,0 Z M83.7708739,124.892331 L83.7708739,101.511379 L106.980934,101.511379 L83.7708739,124.892331 Z M109.419492,92.5705145 L83.3947004,92.5705145 C78.7957623,92.5705145 75.0750079,96.3197502 75.0750079,100.951608 L75.0750079,127.167539 L9.58073119,127.167539 L9.58073119,9.83358253 L109.418378,9.83358253 L109.418378,92.5705145 L109.419492,92.5705145 Z" id="Shape"></path>
                <path d="M22.2498998,32 L98.7501002,32 C101.099327,32 103,29.7636033 103,27 C103,24.2363967 101.099327,22 98.7501002,22 L22.2498998,22 C19.9008958,22 18,24.2363967 18,27 C18,29.7636033 19.9006731,32 22.2498998,32 Z" id="Shape"></path>
                <path d="M22.2498998,56 L98.7501002,56 C101.099327,56 103,53.7636033 103,51 C103,48.2363967 101.099327,46 98.7501002,46 L22.2498998,46 C19.9008958,46 18,48.2363967 18,51 C18,53.7636033 19.9006731,56 22.2498998,56 Z" id="Shape"></path>
                <path d="M22.2498998,77 L98.7501002,77 C101.099327,77 103,74.7636033 103,72 C103,69.2363967 101.099327,67 98.7501002,67 L22.2498998,67 C19.9008958,67 18,69.2363967 18,72 C18,74.7636033 19.9006731,77 22.2498998,77 Z" id="Shape"></path>
                <path d="M22.2726255,101 L60.7273745,101 C63.0891633,101 65,98.7637925 65,96.0004231 C65,93.2370536 63.0891633,91 60.7273745,91 L22.2726255,91 C19.9110606,91 18,93.2362075 18,95.9993654 C18,98.7627348 19.9108367,101 22.2726255,101 Z" id="Shape"></path>
            </g>
            <text id="input-file-(contains" font-family="Helvetica-Bold, Helvetica" font-size="50" font-weight="bold" fill="#000000">
                <tspan x="693" y="69">input file</tspan>
                <tspan x="693" y="129" font-size="32">(contains all data)</tspan>
            </text>
            <text id="output-file-(contain" font-family="Helvetica-Bold, Helvetica" font-size="50" font-weight="bold" fill="#000000">
                <tspan x="693" y="685">output file</tspan>
                <tspan x="693" y="745" font-size="32">(contains all outliers)</tspan>
            </text>
            <text id="per-station-time-ser" font-family="Helvetica-Bold, Helvetica" font-size="40" font-weight="bold" fill="#000000">
                <tspan x="693" y="275">per-station</tspan>
                <tspan x="693" y="323">time series</tspan>
            </text>
            <text id="per-station-outliers" font-family="Helvetica-Bold, Helvetica" font-size="40" font-weight="bold" fill="#000000">
                <tspan x="693" y="461">per-station</tspan>
                <tspan x="693" y="509">outliers</tspan>
            </text>
            <g id="Show-Property-595b40b65ba036ed117d4b50" transform="translate(20.000000, 425.000000)" fill="#000000" fill-rule="nonzero">
                <path d="M10.3846154,0 C4.65230769,0 0,4.65444043 0,10.3971119 L0,72.7797834 C0,78.5189892 4.65230769,83.1768953 10.3846154,83.1768953 L39.5913462,83.1768953 C37.6390385,80.7820939 36.1825962,78.3838267 35.3725962,76.2454874 L10.3846154,76.2454874 C8.47730769,76.2454874 6.92307692,74.6893863 6.92307692,72.7797834 L6.92307692,13.8628159 L76.1538462,13.8628159 L76.1538462,50.6859206 C78.5976923,51.6597834 80.9273077,52.9230325 83.0769231,54.368231 L83.0769231,10.3971119 C83.0769231,4.65444043 78.4246154,0 72.6923077,0 L10.3846154,0 Z M17.3076923,27.7256318 L17.3076923,34.6570397 L24.2307692,34.6570397 L24.2307692,27.7256318 L17.3076923,27.7256318 Z M31.1538462,27.7256318 L31.1538462,34.6570397 L65.7692308,34.6570397 L65.7692308,27.7256318 L31.1538462,27.7256318 Z M17.3076923,41.5884477 L17.3076923,48.5198556 L24.2307692,48.5198556 L24.2307692,41.5884477 L17.3076923,41.5884477 Z M31.1538462,41.5884477 L31.1538462,48.5198556 L65.7692308,48.5198556 L65.7692308,41.5884477 L31.1538462,41.5884477 Z M17.3076923,55.4512635 L17.3076923,62.3826715 L24.2307692,62.3826715 L24.2307692,55.4512635 L17.3076923,55.4512635 Z M31.1538462,55.4512635 L31.1538462,62.3826715 L39.5913462,62.3826715 C41.5609615,59.9636101 43.9970192,57.565343 46.8389423,55.4512635 L31.1538462,55.4512635 Z M65.7692308,55.5595668 C52.3869231,55.5595668 41.5384615,69.6051986 41.5384615,72.7797834 C41.5384615,75.9543682 52.3869231,90 65.7692308,90 C79.1515385,90 90,75.746426 90,72.7797834 C90,69.8131408 79.1515385,55.5595668 65.7692308,55.5595668 Z M65.7692308,62.4909747 L65.7692308,69.3140794 C65.7692308,71.2167509 67.3165385,72.7797834 69.2307692,72.7797834 L76.1538462,72.7797834 C76.1538462,78.4808664 71.505,83.0685921 65.7692308,83.0685921 C60.0334615,83.0685921 55.3846154,78.4808664 55.3846154,72.7797834 C55.3846154,67.0787004 60.0334615,62.4909747 65.7692308,62.4909747 Z" id="Shape"></path>
            </g>
            <g id="Show-Property-595b40b65ba036ed117d4b50" transform="translate(223.000000, 425.000000)" fill="#000000" fill-rule="nonzero">
                <path d="M10.3846154,0 C4.65230769,0 0,4.65444043 0,10.3971119 L0,72.7797834 C0,78.5189892 4.65230769,83.1768953 10.3846154,83.1768953 L39.5913462,83.1768953 C37.6390385,80.7820939 36.1825962,78.3838267 35.3725962,76.2454874 L10.3846154,76.2454874 C8.47730769,76.2454874 6.92307692,74.6893863 6.92307692,72.7797834 L6.92307692,13.8628159 L76.1538462,13.8628159 L76.1538462,50.6859206 C78.5976923,51.6597834 80.9273077,52.9230325 83.0769231,54.368231 L83.0769231,10.3971119 C83.0769231,4.65444043 78.4246154,0 72.6923077,0 L10.3846154,0 Z M17.3076923,27.7256318 L17.3076923,34.6570397 L24.2307692,34.6570397 L24.2307692,27.7256318 L17.3076923,27.7256318 Z M31.1538462,27.7256318 L31.1538462,34.6570397 L65.7692308,34.6570397 L65.7692308,27.7256318 L31.1538462,27.7256318 Z M17.3076923,41.5884477 L17.3076923,48.5198556 L24.2307692,48.5198556 L24.2307692,41.5884477 L17.3076923,41.5884477 Z M31.1538462,41.5884477 L31.1538462,48.5198556 L65.7692308,48.5198556 L65.7692308,41.5884477 L31.1538462,41.5884477 Z M17.3076923,55.4512635 L17.3076923,62.3826715 L24.2307692,62.3826715 L24.2307692,55.4512635 L17.3076923,55.4512635 Z M31.1538462,55.4512635 L31.1538462,62.3826715 L39.5913462,62.3826715 C41.5609615,59.9636101 43.9970192,57.565343 46.8389423,55.4512635 L31.1538462,55.4512635 Z M65.7692308,55.5595668 C52.3869231,55.5595668 41.5384615,69.6051986 41.5384615,72.7797834 C41.5384615,75.9543682 52.3869231,90 65.7692308,90 C79.1515385,90 90,75.746426 90,72.7797834 C90,69.8131408 79.1515385,55.5595668 65.7692308,55.5595668 Z M65.7692308,62.4909747 L65.7692308,69.3140794 C65.7692308,71.2167509 67.3165385,72.7797834 69.2307692,72.7797834 L76.1538462,72.7797834 C76.1538462,78.4808664 71.505,83.0685921 65.7692308,83.0685921 C60.0334615,83.0685921 55.3846154,78.4808664 55.3846154,72.7797834 C55.3846154,67.0787004 60.0334615,62.4909747 65.7692308,62.4909747 Z" id="Shape"></path>
            </g>
            <g id="Show-Property-595b40b65ba036ed117d4b50" transform="translate(426.000000, 425.000000)" fill="#000000" fill-rule="nonzero">
                <path d="M10.3846154,0 C4.65230769,0 0,4.65444043 0,10.3971119 L0,72.7797834 C0,78.5189892 4.65230769,83.1768953 10.3846154,83.1768953 L39.5913462,83.1768953 C37.6390385,80.7820939 36.1825962,78.3838267 35.3725962,76.2454874 L10.3846154,76.2454874 C8.47730769,76.2454874 6.92307692,74.6893863 6.92307692,72.7797834 L6.92307692,13.8628159 L76.1538462,13.8628159 L76.1538462,50.6859206 C78.5976923,51.6597834 80.9273077,52.9230325 83.0769231,54.368231 L83.0769231,10.3971119 C83.0769231,4.65444043 78.4246154,0 72.6923077,0 L10.3846154,0 Z M17.3076923,27.7256318 L17.3076923,34.6570397 L24.2307692,34.6570397 L24.2307692,27.7256318 L17.3076923,27.7256318 Z M31.1538462,27.7256318 L31.1538462,34.6570397 L65.7692308,34.6570397 L65.7692308,27.7256318 L31.1538462,27.7256318 Z M17.3076923,41.5884477 L17.3076923,48.5198556 L24.2307692,48.5198556 L24.2307692,41.5884477 L17.3076923,41.5884477 Z M31.1538462,41.5884477 L31.1538462,48.5198556 L65.7692308,48.5198556 L65.7692308,41.5884477 L31.1538462,41.5884477 Z M17.3076923,55.4512635 L17.3076923,62.3826715 L24.2307692,62.3826715 L24.2307692,55.4512635 L17.3076923,55.4512635 Z M31.1538462,55.4512635 L31.1538462,62.3826715 L39.5913462,62.3826715 C41.5609615,59.9636101 43.9970192,57.565343 46.8389423,55.4512635 L31.1538462,55.4512635 Z M65.7692308,55.5595668 C52.3869231,55.5595668 41.5384615,69.6051986 41.5384615,72.7797834 C41.5384615,75.9543682 52.3869231,90 65.7692308,90 C79.1515385,90 90,75.746426 90,72.7797834 C90,69.8131408 79.1515385,55.5595668 65.7692308,55.5595668 Z M65.7692308,62.4909747 L65.7692308,69.3140794 C65.7692308,71.2167509 67.3165385,72.7797834 69.2307692,72.7797834 L76.1538462,72.7797834 C76.1538462,78.4808664 71.505,83.0685921 65.7692308,83.0685921 C60.0334615,83.0685921 55.3846154,78.4808664 55.3846154,72.7797834 C55.3846154,67.0787004 60.0334615,62.4909747 65.7692308,62.4909747 Z" id="Shape"></path>
            </g>
            <g id="Arrow" transform="translate(86.000000, 131.000000)">
                <path d="M181.5,0.5 L18,92" id="Line" stroke="#000000" stroke-width="4" stroke-linecap="square"></path>
                <polygon id="Arrowhead" fill="#000000" transform="translate(18.000000, 92.000000) rotate(-29.232817) translate(-18.000000, -92.000000) " points="30.5 104.5 5.5 92 30.5 79.5"></polygon>
            </g>
            <g id="Line-2" transform="translate(254.000000, 132.000000)">
                <path d="M12.5,0.5 L12.5,98.032046" stroke="#000000" stroke-width="4" stroke-linecap="square"></path>
                <polygon id="Arrowhead" fill="#000000" transform="translate(12.500000, 98.032046) rotate(-90.000000) translate(-12.500000, -98.032046) " points="25 110.532046 7.10542736e-15 98.032046 25 85.532046"></polygon>
            </g>
            <g id="Line-3" transform="translate(268.000000, 132.000000)">
                <path d="M0.5,0.5 L189,95" stroke="#000000" stroke-width="4" stroke-linecap="square"></path>
                <polygon id="Arrowhead" fill="#000000" transform="translate(189.000000, 95.000000) rotate(-153.374190) translate(-189.000000, -95.000000) " points="201.5 107.5 176.5 95 201.5 82.5"></polygon>
            </g>
            <g id="Line-4" transform="translate(255.000000, 337.000000)">
                <path d="M12.5,0.997901284 L12.5,67" stroke="#000000" stroke-width="4" stroke-linecap="square"></path>
                <polygon id="Arrowhead" fill="#000000" transform="translate(12.500000, 67.000000) rotate(-90.000000) translate(-12.500000, -67.000000) " points="25 79.5 7.10542736e-15 67 25 54.5"></polygon>
            </g>
            <g id="Line-4" transform="translate(458.000000, 337.000000)">
                <path d="M12.5,0.997901284 L12.5,67" stroke="#000000" stroke-width="4" stroke-linecap="square"></path>
                <polygon id="Arrowhead" fill="#000000" transform="translate(12.500000, 67.000000) rotate(-90.000000) translate(-12.500000, -67.000000) " points="25 79.5 7.10542736e-15 67 25 54.5"></polygon>
            </g>
            <g id="Line-4" transform="translate(51.000000, 337.000000)">
                <path d="M12.5,0.997901284 L12.5,67" stroke="#000000" stroke-width="4" stroke-linecap="square"></path>
                <polygon id="Arrowhead" fill="#000000" transform="translate(12.500000, 67.000000) rotate(-90.000000) translate(-12.500000, -67.000000) " points="25 79.5 7.10542736e-15 67 25 54.5"></polygon>
            </g>
            <g id="Line-6" transform="translate(255.000000, 516.000000)">
                <path d="M12.5,0.5 L12.5,82.5" stroke="#000000" stroke-width="4" stroke-linecap="square"></path>
                <polygon id="Arrowhead" fill="#000000" transform="translate(12.500000, 82.500000) rotate(-90.000000) translate(-12.500000, -82.500000) " points="25 95 0 82.5 25 70"></polygon>
            </g>
            <g id="Line-7" transform="translate(321.000000, 516.000000)">
                <path d="M148.5,0.5 L18,96" stroke="#000000" stroke-width="4" stroke-linecap="square"></path>
                <polygon id="Arrowhead" fill="#000000" transform="translate(18.000000, 96.000000) rotate(-36.196694) translate(-18.000000, -96.000000) " points="30.5 108.5 5.5 96 30.5 83.5"></polygon>
            </g>
            <g id="Line-5" transform="translate(65.000000, 516.000000)">
                <path d="M0,0 L130,95" stroke="#000000" stroke-width="4" stroke-linecap="square"></path>
                <polygon id="Arrowhead" fill="#000000" transform="translate(130.000000, 95.000000) rotate(-143.841815) translate(-130.000000, -95.000000) " points="142.5 107.5 117.5 95 142.5 82.5"></polygon>
            </g>
        </g>
    </g>
</svg>