<?xml version="1.0" encoding="UTF-8"?>
<svg width="207px" height="197px" viewBox="0 0 207 197" version="1.1" xmlns="http://www.w3.org/2000/svg" xmlns:xlink="http://www.w3.org/1999/xlink">
    <!-- Generator: Sketch 45.2 (43514) - http://www.bohemiancoding.com/sketch -->
    <title>Group</title>
    <desc>Created with Sketch.</desc>
    <defs></defs>
    <g id="Page-1" stroke="none" stroke-width="1" fill="none" fill-rule="evenodd">
        <g id="Group" fill-rule="nonzero" fill="#000000">
            <path d="M109.173253,35.7911163 C104.093837,35.81472 99.2431111,36.2479191 94.9749718,37.0031644 C82.4015684,39.2244721 80.1187257,43.8738589 80.1187246,52.4481207 L80.1187246,63.7721133 L109.831222,63.7721133 L109.831222,67.5467775 L80.1187246,67.5467775 L68.9678817,67.5467775 C60.3326036,67.5467775 52.771307,72.7370774 50.4062302,82.6108044 C47.6781439,93.9283875 47.5571385,100.99074 50.4062302,112.808118 C52.5183001,121.604512 57.56221,127.872145 66.1974859,127.872145 L76.4133203,127.872145 L76.4133203,114.297206 C76.4133203,104.490116 84.8986479,95.8394464 94.9749718,95.8394441 L124.65284,95.8394441 C132.914104,95.8394441 139.509087,89.0373868 139.509087,80.7407873 L139.509087,52.4481207 C139.509087,44.3958668 132.716099,38.3470523 124.65284,37.0031644 C119.548674,36.1535117 114.252663,35.7675147 109.173253,35.7911163 L109.173253,35.7911163 Z M93.1049547,44.8987923 C96.1740511,44.8987923 98.6803761,47.4460559 98.6803761,50.5781036 C98.6803739,53.6990497 96.1740511,56.2227849 93.1049547,56.2227849 C90.0248553,56.2227838 87.5295332,53.6990486 87.5295332,50.5781036 C87.5295321,47.446057 90.0248553,44.8987923 93.1049547,44.8987923 Z" id="path1948"></path>
            <path d="M143.214491,67.5467775 L143.214491,80.7407873 C143.214491,90.9699251 134.542155,99.5794784 124.65284,99.5794784 L94.9749718,99.5794784 C86.8457076,99.5794784 80.1187257,106.537028 80.1187246,114.678135 L80.1187246,142.970802 C80.1187246,151.023057 87.1207203,155.759303 94.9749718,158.069459 C104.380278,160.83499 113.39947,161.334791 124.65284,158.069459 C132.133074,155.903685 139.509087,151.545055 139.509087,142.970802 L139.509087,131.646809 L109.831222,131.646809 L109.831222,127.872145 L139.509087,127.872145 L154.365334,127.872145 C163.000613,127.872145 166.218472,121.84885 169.22157,112.808118 C172.323671,103.500818 172.191678,94.5503502 169.22157,82.6108044 C167.087501,74.0143318 163.011595,67.5467775 154.365334,67.5467775 L143.214491,67.5467775 Z M126.522857,139.196138 C129.602961,139.196138 132.098278,141.71988 132.098278,144.840819 C132.098267,147.972862 129.602949,150.52013 126.522857,150.52013 C123.453757,150.52013 120.947435,147.972862 120.947435,144.840819 C120.947435,141.71988 123.453746,139.196138 126.522857,139.196138 Z" id="path1950"></path>
            <path d="M107.59375,0 C74.969981,0 48.572931,9.593118 28.500001,28.6875 C9.501691,46.686855 0,68.782099 0,95.0625 C0,123.01969 8.76385,146.29393 26.343751,164.875 C45.728931,185.68034 72.590451,196.125 107.0625,196.125 C141.83548,196.125 169.08349,185.68034 188.8125,164.875 C194.09346,159.40038 198.58486,153.5073 202.3125,147.21875 L162.125,147.21875 C151.71554,166.51393 133.62633,176.24301 107.84375,176.40625 C84.805061,176.71421 67.519391,167.60046 56.000001,149.15625 C46.973681,134.68149 42.500001,116.6549 42.500001,95.0625 C42.500001,47.976767 63.993921,23.391001 107.0625,21.40625 C130.35913,22.261743 147.59803,30.518031 158.6875,46.156251 C160.79864,49.060699 162.64625,52.154303 164.28125,55.406251 L207.0625,55.406251 C202.36242,45.663815 195.74812,36.768402 187.21875,28.6875 C166.75895,9.593117 140.21761,0 107.59375,0 Z" id="path2196"></path>
        </g>
    </g>
</svg>