<?xml version="1.0" encoding="utf-8"?>
<!-- Svg Vector Icons : http://www.onlinewebfonts.com/icon -->
<!DOCTYPE svg PUBLIC "-//W3C//DTD SVG 1.1//EN" "http://www.w3.org/Graphics/SVG/1.1/DTD/svg11.dtd">
<svg version="1.1" xmlns="http://www.w3.org/2000/svg" xmlns:xlink="http://www.w3.org/1999/xlink" x="0px" y="0px" viewBox="0 0 1000 1000" enable-background="new 0 0 1000 1000" xml:space="preserve">
<metadata> Svg Vector Icons : http://www.onlinewebfonts.com/icon </metadata>
<g><g transform="translate(0.000000,511.000000) scale(0.100000,-0.100000)"><path d="M992.2,4974.1c-112.4-52.6-189-131.6-224.8-227.2c-19.1-47.8-26.3-1507-26.3-4803.1V-4790l425.8,4.8l423.4,7.2l7.2,1478.2c2.4,810.9,12,1475.9,19.1,1475.9c9.6,0,114.8-38.3,234.4-88.5c456.9-181.8,949.6-303.8,1408.9-344.4c633.9-55,1440,122,2238.9,490.4c796.5,370.8,1490.2,523.8,2102.5,468.8c444.9-43,990.3-196.1,1480.6-421l177-78.9l-7.2,217.7l-7.2,215.3L9015-1261.8c-260.7,119.6-674.6,260.7-885.1,303.8l-141.1,28.7v626.7v626.7l-854,212.9l-856.3,212.9l-7.2,1066.8l-4.8,1066.8l861.1-215.3l861.1-215.3v-1062v-1062h633.9h633.9l-4.8,853.9l-7.2,851.5l-621.9,208.1l-621.9,208.1l-7.2,1042.9l-4.8,1042.9l-138.8,19.1c-74.2,9.6-308.6,19.1-519.1,16.7c-368.4-2.4-621.9-31.1-932.9-112.4l-119.6-31.1l-12-775l-12-775L5477.2,2685c-428.2-107.6-806.1-203.3-842-210.5l-67-16.7l-4.8-1069.2l-7.2-1066.8l-837.2-210.5C3259.8-3.6,2879.5-99.3,2874.7-101.7c-2.4,0-2.4,480.8,0,1069.2l7.2,1069.2l777.4,193.8c428.2,107.6,806.1,203.3,844.4,210.5l64.6,16.8v667.4c0,514.3,7.2,672.2,31.1,679.3c40.7,14.4-23.9,2.4-366-71.8c-382.7-81.3-983.1-90.9-1325.2-23.9c-114.8,23.9-215.3,38.3-222.5,33.5c-4.8-7.2,33.5-19.1,86.1-28.7l98.1-16.7v-832.4V2032l-626.7,208.1l-629.1,210.5l-12,1121.8c-12,1040.5-14.4,1129-57.4,1212.7C1451.5,4976.5,1186,5065,992.2,4974.1z M6266.6-147.1v-882.7l-160.3-52.6c-90.9-31.1-313.3-124.4-497.5-208.1c-320.5-150.7-911.3-366-997.5-366c-40.7,0-43,62.2-43,990.3v990.3l808.5,203.3c442.5,112.4,825.2,205.7,849.2,205.7C6264.2,735.5,6266.6,678.1,6266.6-147.1z M2865.2-934.1c2.4-464.1,0-842-7.2-842c-7.2,0-114.8,21.5-236.8,47.8c-193.8,43.1-456.9,129.2-904.2,301.4l-114.8,43v854v853.9L2231.3,116L2858-94.5L2865.2-934.1z"/><path d="M2506.4,3780.5c16.7-7.2,38.3-4.8,45.5,2.4c9.6,7.2-4.8,14.4-31.1,12C2494.4,3794.8,2487.2,3787.7,2506.4,3780.5z"/><path d="M2602,3756.6c16.8-7.2,38.3-4.8,45.5,2.4c9.6,7.2-4.8,14.4-31.1,12C2590.1,3770.9,2582.9,3763.8,2602,3756.6z"/></g></g>
</svg>