<svg xmlns="http://www.w3.org/2000/svg" xmlns:xlink="http://www.w3.org/1999/xlink" viewBox="0 0 511.11 447.48"><defs><clipPath id="a"><rect width="511.11" height="447.48" style="fill:none"/></clipPath></defs><title>Artboard 1</title><g style="clip-path:url(#a)"><path d="M511.11,274.81c-1.33,8.51-2.35,17.08-4,25.51a183.17,183.17,0,0,1-149,144.49c-98.27,16.75-191.16-47.07-211.15-145.06-19.5-95.57,41.1-191.14,135.9-214.33C386.83,60,489.36,127,508.06,232.71c1.18,6.67,2,13.4,3,20.11Zm-183.73-149c-75.85-.13-138,61.8-138.25,137.83-.27,75.85,61.82,137.78,138.45,138.08C402.21,402,465,339.43,465,264.7c0-76.51-61.65-138.74-137.66-138.87" style="fill:#231f20"/><path d="M149.15,160.32l-20.27,47.29H56.71c-7.33,0-14.67.1-22-.1-1.58,0-3.79-.74-4.58-1.91C20.21,191,10.49,176.26.73,161.54c-.15-.22,0-.61-.08-1.23Z" style="fill:#231f20"/><path d="M0,320H26.51c33,0,66,.06,99-.07,3.39,0,4.67,1,5.92,4.24,5.52,14.4,11.54,28.62,17.45,43.09a18.64,18.64,0,0,1-2.75.29c-36.83,0-73.66,0-110.48.1A7.09,7.09,0,0,1,28.8,364c-8.72-13.4-17.68-26.64-26.54-40C1.56,323,1,321.83,0,320" style="fill:#231f20"/><path d="M303.22,62.58V48.05c-12.84-1.67-15.88-5.2-15.88-18,0-5.5-.08-11,0-16.49C287.5,5.38,292.65.12,300.83.07q26.24-.15,52.48,0c8.22,0,13.38,5.24,13.55,13.43.11,5.66,0,11.33,0,17,0,12.35-3.23,16-16,17.49V62.58Z" style="fill:#231f20"/><path d="M122.55,240.43v47.15h-8.2c-15.65,0-31.3.05-46.95-.08-1.77,0-4.35-.52-5.18-1.73C52.1,271,42.22,256,31.88,240.43Z" style="fill:#231f20"/><path d="M473.29,123.69,436.61,93.35c6-8.28,12.13-17.34,18.9-25.89,3.45-4.35,9.26-4.72,14.1-1.53,7.08,4.68,14.07,9.54,20.8,14.7,5,3.85,6,10,2.58,15.18-5.83,8.72-12,17.19-18.08,25.76-.56.8-1.19,1.55-1.62,2.11" style="fill:#231f20"/><path d="M295.25,264c.62-12.89,6.11-22.89,17.77-28.6s22.79-4.17,33.47,3.2A33.32,33.32,0,0,0,358,243.77c24.51,5.35,49.1,10.34,73.67,15.45a6.58,6.58,0,0,1,2.38.69c1.64,1.14,3.16,2.47,4.72,3.72-1.61,1.38-3,3.62-4.87,4-26.46,5.79-53,11.26-79.44,17a21.53,21.53,0,0,0-7.73,4c-10.46,7.74-21.73,9.23-33.36,3.63S296,276.84,295.25,264" style="fill:#231f20"/></g></svg>