<?xml version="1.0" encoding="UTF-8"?>
<svg width="1480px" height="964px" viewBox="0 0 1480 964" version="1.1" xmlns="http://www.w3.org/2000/svg" xmlns:xlink="http://www.w3.org/1999/xlink">
    <!-- Generator: Sketch 50.2 (55047) - http://www.bohemiancoding.com/sketch -->
    <title>Group 39</title>
    <desc>Created with Sketch.</desc>
    <defs></defs>
    <g id="Page-1" stroke="none" stroke-width="1" fill="none" fill-rule="evenodd">
        <g id="Group-39" transform="translate(0.000000, -13.000000)">
            <g id="Group-35" transform="translate(564.000000, 0.000000)">
                <rect id="Rectangle-2" stroke="#000000" stroke-width="5" x="2.5" y="54.5" width="434" height="390"></rect>
                <rect id="Rectangle-2" stroke="#000000" stroke-width="3" x="72.5" y="100.5" width="205" height="121"></rect>
                <rect id="Rectangle-2" stroke="#000000" stroke-width="3" x="94.5" y="305.5" width="150" height="42"></rect>
                <rect id="Rectangle-2" stroke="#000000" stroke-width="3" x="72.5" y="264.5" width="205" height="121"></rect>
                <text id="numpy/c/native-code" font-family="Helvetica-Bold, Helvetica" font-size="26" font-weight="bold" fill="#000000">
                    <tspan x="16.4091797" y="419">numpy/c/native code</tspan>
                </text>
                <rect id="Rectangle-2" stroke="#000000" stroke-width="3" x="339.5" y="100.5" width="74" height="326"></rect>
                <text id="memory" font-family="Helvetica-Bold, Helvetica" font-size="26" font-weight="bold" fill="#000000">
                    <tspan x="312.421875" y="86">memory</tspan>
                </text>
                <text id="python" font-family="Helvetica-Bold, Helvetica" font-size="26" font-weight="bold" fill="#000000">
                    <tspan x="45.1772461" y="86">python</tspan>
                </text>
                <g id="Group-33" transform="translate(339.000000, 279.000000)">
                    <path d="M74.5,88.5 L0.493243552,88.5" id="Line-9" stroke="#000000" stroke-width="3" stroke-linecap="square"></path>
                    <path d="M74.5,1.5 L0.493243552,1.5" id="Line-9" stroke="#000000" stroke-width="3" stroke-linecap="square"></path>
                    <text id="virtual" font-family="Helvetica-Bold, Helvetica" font-size="20" font-weight="bold" fill="#000000">
                        <tspan x="7.49023438" y="52">virtual</tspan>
                    </text>
                </g>
                <g id="Line-14" transform="translate(246.000000, 317.000000)">
                    <path d="M0.639344262,10.5 L77.3606557,10.5" stroke="#000000" stroke-width="3" stroke-linecap="square"></path>
                    <polygon id="Arrowhead" fill="#000000" transform="translate(78.000000, 11.000000) rotate(180.000000) translate(-78.000000, -11.000000) " points="92 22 64 11 92 0"></polygon>
                </g>
                <text id="np.memmap" font-family="AndaleMono, Andale Mono" font-size="26" font-weight="normal" fill="#000000">
                    <tspan x="98.2885742" y="335">np.memmap</tspan>
                </text>
                <g id="Line-20" transform="translate(166.000000, 163.000000)">
                    <path d="M10.5,0.467857143 L10.5,130.535509" stroke="#000000" stroke-width="3" stroke-linecap="square"></path>
                    <polygon id="Arrowhead" fill="#000000" transform="translate(11.000000, 130.500000) rotate(-90.000000) translate(-11.000000, -130.500000) " points="22 141 0 130.5 22 120"></polygon>
                </g>
                <text id="process" font-family="Helvetica-Bold, Helvetica" font-size="32" font-weight="bold" fill="#000000">
                    <tspan x="10.1328125" y="31">process</tspan>
                </text>
            </g>
            <g id="Group-37" transform="translate(564.000000, 530.000000)">
                <rect id="Rectangle-2" stroke="#000000" stroke-width="5" x="2.5" y="54.5" width="434" height="390"></rect>
                <rect id="Rectangle-2" stroke="#000000" stroke-width="3" x="72.5" y="100.5" width="205" height="121"></rect>
                <rect id="Rectangle-2" stroke="#000000" stroke-width="3" x="94.5" y="305.5" width="150" height="42"></rect>
                <rect id="Rectangle-2" stroke="#000000" stroke-width="3" x="72.5" y="264.5" width="205" height="121"></rect>
                <text id="numpy/c/native-code" font-family="Helvetica-Bold, Helvetica" font-size="26" font-weight="bold" fill="#000000">
                    <tspan x="16.4091797" y="419">numpy/c/native code</tspan>
                </text>
                <rect id="Rectangle-2" stroke="#000000" stroke-width="3" x="339.5" y="100.5" width="74" height="326"></rect>
                <text id="memory" font-family="Helvetica-Bold, Helvetica" font-size="26" font-weight="bold" fill="#000000">
                    <tspan x="312.421875" y="86">memory</tspan>
                </text>
                <text id="python" font-family="Helvetica-Bold, Helvetica" font-size="26" font-weight="bold" fill="#000000">
                    <tspan x="45.1772461" y="86">python</tspan>
                </text>
                <g id="Group-33" transform="translate(339.000000, 279.000000)">
                    <path d="M74.5,88.5 L0.493243552,88.5" id="Line-9" stroke="#000000" stroke-width="3" stroke-linecap="square"></path>
                    <path d="M74.5,1.5 L0.493243552,1.5" id="Line-9" stroke="#000000" stroke-width="3" stroke-linecap="square"></path>
                    <text id="virtual" font-family="Helvetica-Bold, Helvetica" font-size="20" font-weight="bold" fill="#000000">
                        <tspan x="7.49023438" y="52">virtual</tspan>
                    </text>
                </g>
                <g id="Line-14" transform="translate(246.000000, 317.000000)">
                    <path d="M0.639344262,10.5 L77.3606557,10.5" stroke="#000000" stroke-width="3" stroke-linecap="square"></path>
                    <polygon id="Arrowhead" fill="#000000" transform="translate(78.000000, 11.000000) rotate(180.000000) translate(-78.000000, -11.000000) " points="92 22 64 11 92 0"></polygon>
                </g>
                <text id="np.memmap" font-family="AndaleMono, Andale Mono" font-size="26" font-weight="normal" fill="#000000">
                    <tspan x="98.2885742" y="335">np.memmap</tspan>
                </text>
                <g id="Line-20" transform="translate(166.000000, 163.000000)">
                    <path d="M10.5,0.467857143 L10.5,130.535509" stroke="#000000" stroke-width="3" stroke-linecap="square"></path>
                    <polygon id="Arrowhead" fill="#000000" transform="translate(11.000000, 130.500000) rotate(-90.000000) translate(-11.000000, -130.500000) " points="22 141 0 130.5 22 120"></polygon>
                </g>
                <text id="process" font-family="Helvetica-Bold, Helvetica" font-size="32" font-weight="bold" fill="#000000">
                    <tspan x="10.1328125" y="31">process</tspan>
                </text>
            </g>
            <g id="Group-38" transform="translate(1125.000000, 407.000000)" fill="#000000">
                <g id="file" fill-rule="nonzero">
                    <path d="M125.200521,33.7165179 C126.792535,35.3727679 128.157118,37.6205357 129.294271,40.4598214 C130.431424,43.2991071 131,45.9017857 131,48.2678571 L131,150.482143 C131,152.848214 130.203993,154.859375 128.611979,156.515625 C127.019965,158.171875 125.086806,159 122.8125,159 L8.1875,159 C5.91319444,159 3.98003472,158.171875 2.38802083,156.515625 C0.796006944,154.859375 0,152.848214 0,150.482143 L0,8.51785714 C0,6.15178571 0.796006944,4.140625 2.38802083,2.484375 C3.98003472,0.828125 5.91319444,0 8.1875,0 L84.6041667,0 C86.8784722,0 89.3802083,0.591517857 92.109375,1.77455357 C94.8385417,2.95758929 96.9991319,4.37723214 98.5911458,6.03348214 L125.200521,33.7165179 Z M87.3333333,12.0669643 L87.3333333,45.4285714 L119.401042,45.4285714 C118.832465,43.7131696 118.207031,42.500558 117.52474,41.7907366 L90.8300781,14.0189732 C90.1477865,13.3091518 88.9822049,12.6584821 87.3333333,12.0669643 Z M120.083333,147.642857 L120.083333,56.7857143 L84.6041667,56.7857143 C82.3298611,56.7857143 80.3967014,55.9575893 78.8046875,54.3013393 C77.2126736,52.6450893 76.4166667,50.6339286 76.4166667,48.2678571 L76.4166667,11.3571429 L10.9166667,11.3571429 L10.9166667,147.642857 L120.083333,147.642857 Z" id="Shape"></path>
                </g>
                <text id="file-on-disk" font-family="Helvetica-Bold, Helvetica" font-size="40" font-weight="bold">
                    <tspan x="145.537109" y="97">file on disk</tspan>
                </text>
            </g>
            <g id="Group-36" transform="translate(0.000000, 375.000000)">
                <g id="Group-34">
                    <rect id="Rectangle-2" stroke="#000000" stroke-width="3" x="57.5" y="108.5" width="255" height="61"></rect>
                    <text id="python" font-family="Helvetica-Bold, Helvetica" font-size="26" font-weight="bold" fill="#000000">
                        <tspan x="24.1772461" y="94">python</tspan>
                    </text>
                    <rect id="Rectangle-2" stroke="#000000" stroke-width="5" x="2.5" y="55.5" width="339" height="137"></rect>
                    <text id="process" font-family="Helvetica-Bold, Helvetica" font-size="32" font-weight="bold" fill="#000000">
                        <tspan x="9.1328125" y="31">process</tspan>
                    </text>
                    <text id="joblib.Parallel" font-family="AndaleMono, Andale Mono" font-size="26" font-weight="normal" fill="#000000">
                        <tspan x="67.480957" y="148">joblib.Parallel</tspan>
                    </text>
                </g>
            </g>
            <g id="Line-21" transform="translate(314.000000, 145.000000)">
                <path d="M0.489096573,366.5125 L313.510903,16.4875" stroke="#000000" stroke-width="3" stroke-linecap="square"></path>
                <polygon id="Arrowhead" fill="#000000" transform="translate(314.000000, 15.500000) rotate(131.712691) translate(-314.000000, -15.500000) " points="325 26 303 15.5 325 5"></polygon>
            </g>
            <g id="Line-22" transform="translate(313.000000, 514.000000)">
                <path d="M0.487616099,0.497237569 L314.512384,179.502762" stroke="#000000" stroke-width="3" stroke-linecap="square"></path>
                <polygon id="Arrowhead" fill="#000000" transform="translate(314.500000, 180.000000) rotate(-150.794538) translate(-314.500000, -180.000000) " points="325 191 304 180 325 169"></polygon>
            </g>
            <g id="Line-24" transform="translate(978.000000, 559.000000)">
                <path d="M0.517482517,294.501779 L147.482517,15.4982206" stroke="#000000" stroke-width="3" stroke-linecap="square"></path>
                <polygon id="Arrowhead" fill="#000000" transform="translate(147.500000, 16.000000) rotate(116.891519) translate(-147.500000, -16.000000) " points="159 27 136 16 159 5"></polygon>
            </g>
            <g id="Line-23" transform="translate(977.000000, 322.000000)">
                <path d="M0.5,0.5 L141.5,82.5" stroke="#000000" stroke-width="3" stroke-linecap="square"></path>
                <polygon id="Arrowhead" fill="#000000" transform="translate(141.500000, 82.500000) rotate(-149.819418) translate(-141.500000, -82.500000) " points="152.5 93.5 130.5 82.5 152.5 71.5"></polygon>
            </g>
        </g>
    </g>
</svg>