<?xml version="1.0" encoding="UTF-8"?>
<svg width="232px" height="232px" viewBox="0 0 232 232" version="1.1" xmlns="http://www.w3.org/2000/svg" xmlns:xlink="http://www.w3.org/1999/xlink">
    <!-- Generator: Sketch 50.2 (55047) - http://www.bohemiancoding.com/sketch -->
    <title>Shape</title>
    <desc>Created with Sketch.</desc>
    <defs></defs>
    <g id="Page-1" stroke="none" stroke-width="1" fill="none" fill-rule="evenodd">
        <path d="M230.505,102.78 C230.14,99.53 226.349,97.085 223.071,97.085 C212.477,97.085 203.075,90.867 199.132,81.243 C195.107,71.388 197.704,59.897 205.597,52.656 C208.083,50.383 208.386,46.577 206.302,43.935 C200.878,37.049 194.716,30.828 187.986,25.437 C185.353,23.325 181.484,23.619 179.199,26.148 C172.308,33.78 159.929,36.616 150.363,32.625 C140.412,28.438 134.131,18.351 134.748,7.524 C134.951,4.121 132.463,1.164 129.072,0.769 C120.435,-0.231 111.722,-0.26 103.06,0.701 C99.712,1.071 97.226,3.958 97.337,7.318 C97.712,18.039 91.36,27.948 81.505,31.985 C72.054,35.846 59.761,33.031 52.884,25.466 C50.611,22.974 46.81,22.668 44.159,24.735 C37.231,30.172 30.93,36.397 25.456,43.227 C23.323,45.882 23.638,49.73 26.145,52.011 C34.194,59.3 36.789,70.89 32.61,80.86 C28.62,90.365 18.751,96.488 7.454,96.488 C3.788,96.37 1.179,98.833 0.774,102.167 C-0.242,110.85 -0.253,119.702 0.725,128.456 C1.09,131.72 4.993,134.144 8.307,134.144 C18.377,133.888 28.039,140.118 32.098,149.985 C36.137,159.84 33.537,171.326 25.631,178.577 C23.158,180.85 22.842,184.647 24.93,187.286 C30.299,194.129 36.467,200.354 43.217,205.791 C45.867,207.925 49.721,207.626 52.018,205.094 C58.936,197.444 71.313,194.613 80.84,198.612 C90.82,202.788 97.098,212.874 96.485,223.704 C96.284,227.107 98.778,230.073 102.157,230.459 C106.577,230.976 111.02,231.232 115.477,231.232 C119.707,231.232 123.938,231.001 128.169,230.53 C131.521,230.16 134.003,227.27 133.89,223.909 C133.503,213.193 139.869,203.283 149.712,199.254 C159.226,195.368 171.464,198.212 178.345,205.766 C180.63,208.253 184.408,208.555 187.07,206.496 C193.986,201.073 200.275,194.851 205.773,188.003 C207.908,185.353 207.605,181.5 205.084,179.215 C197.037,171.931 194.428,160.336 198.607,150.376 C202.535,140.999 212.037,134.703 222.257,134.703 L223.687,134.741 C227.005,135.01 230.054,132.455 230.455,129.07 C231.476,120.379 231.487,111.537 230.505,102.78 Z M115.616,182.27 C78.803,182.27 48.962,152.429 48.962,115.617 C48.962,78.805 78.804,48.964 115.616,48.964 C152.428,48.964 182.27,78.805 182.27,115.617 C182.27,128.112 178.825,139.799 172.842,149.793 L143.656,120.606 C145.769,115.624 146.885,110.223 146.884,104.649 C146.884,93.734 142.633,83.473 134.914,75.756 C127.197,68.039 116.936,63.789 106.023,63.789 C102.381,63.789 98.756,64.273 95.249,65.228 C93.713,65.647 92.457,66.913 92.048,68.452 C91.63,70.026 92.101,71.639 93.331,72.87 C93.331,72.87 107.74,87.39 112.561,92.21 C113.066,92.715 113.065,93.92 112.994,94.354 L112.949,94.671 C112.463,99.971 111.526,106.333 110.753,108.778 C110.649,108.881 110.551,108.968 110.445,109.074 C110.334,109.185 110.232,109.292 110.125,109.402 C107.648,110.197 101.188,111.145 95.804,111.627 L95.805,111.598 L95.563,111.659 C95.52,111.664 95.44,111.67 95.334,111.67 C94.752,111.67 93.896,111.507 93.118,110.73 C88.1,105.712 74.256,91.967 74.256,91.967 C73.014,90.729 71.74,90.469 70.891,90.469 C68.912,90.469 67.14,91.899 66.582,93.95 C62.771,108.053 66.811,123.223 77.128,133.541 C84.847,141.259 95.109,145.509 106.024,145.509 C111.598,145.509 116.999,144.394 121.98,142.281 L151.483,171.784 C141.125,178.412 128.825,182.27 115.616,182.27 Z" id="Shape" fill="#FFFFFF" fill-rule="nonzero"></path>
    </g>
</svg>