<?xml version="1.0" encoding="UTF-8" standalone="no"?>
<svg width="1315px" height="1235px" viewBox="0 0 1315 1235" version="1.1" xmlns="http://www.w3.org/2000/svg" xmlns:xlink="http://www.w3.org/1999/xlink">
    <!-- Generator: Sketch 50.2 (55047) - http://www.bohemiancoding.com/sketch -->
    <title>Group 9</title>
    <desc>Created with Sketch.</desc>
    <defs></defs>
    <g id="Page-1" stroke="none" stroke-width="1" fill="none" fill-rule="evenodd">
        <g id="Group-9" transform="translate(-3.000000, -8.000000)">
            <text id="station_ranges(stati" font-family="AndaleMono, Andale Mono" font-size="28" font-weight="normal" fill="#0000DD">
                <tspan x="0.163085938" y="449">station_ranges(station_ids)</tspan>
            </text>
            <g id="Group-3" transform="translate(77.000000, 321.000000)">
                <path d="M1,1 L1,44 L44,44 L44,1 L1,1 Z" id="Rectangle" stroke="#000000" stroke-width="2" fill="#FFFFFF"></path>
                <text id="123" font-family="Helvetica" font-size="25" font-weight="normal" fill="#000000">
                    <tspan x="2.14428711" y="32">123</tspan>
                </text>
                <path d="M44,1 L44,44 L87,44 L87,1 L44,1 Z" id="Rectangle" stroke="#000000" stroke-width="2" fill="#FFFFFF"></path>
                <text id="123" font-family="Helvetica" font-size="25" font-weight="normal" fill="#000000">
                    <tspan x="45.1442871" y="32">123</tspan>
                </text>
                <path d="M87,1 L87,44 L130,44 L130,1 L87,1 Z" id="Rectangle" stroke="#000000" stroke-width="2" fill="#FFFFFF"></path>
                <text id="123" font-family="Helvetica" font-size="25" font-weight="normal" fill="#000000">
                    <tspan x="88.1442871" y="32">123</tspan>
                </text>
                <path d="M130,1 L130,44 L173,44 L173,1 L130,1 Z" id="Rectangle" stroke="#000000" stroke-width="2" fill="#FFFFFF"></path>
                <text id="123" font-family="Helvetica" font-size="25" font-weight="normal" fill="#000000">
                    <tspan x="131.144287" y="32">123</tspan>
                </text>
                <path d="M173,1 L173,44 L216,44 L216,1 L173,1 Z" id="Rectangle" stroke="#000000" stroke-width="2" fill="#FFFFFF"></path>
                <text id="245" font-family="Helvetica" font-size="25" font-weight="normal" fill="#000000">
                    <tspan x="174.144287" y="32">245</tspan>
                </text>
                <path d="M216,1 L216,44 L259,44 L259,1 L216,1 Z" id="Rectangle" stroke="#000000" stroke-width="2" fill="#FFFFFF"></path>
                <text id="245" font-family="Helvetica" font-size="25" font-weight="normal" fill="#000000">
                    <tspan x="217.144287" y="32">245</tspan>
                </text>
                <path d="M259,1 L259,44 L302,44 L302,1 L259,1 Z" id="Rectangle" stroke="#000000" stroke-width="2" fill="#FFFFFF"></path>
                <text id="999" font-family="Helvetica" font-size="25" font-weight="normal" fill="#000000">
                    <tspan x="260.144287" y="32">999</tspan>
                </text>
            </g>
            <text id="station_ids" font-family="AndaleMono, Andale Mono" font-size="36" font-weight="normal" fill="#0000DD">
                <tspan x="105.180664" y="298">station_ids</tspan>
            </text>
            <g id="Group-5" transform="translate(534.000000, 321.000000)">
                <path d="M1,1 L1,44 L44,44 L44,1 L1,1 Z" id="Rectangle" stroke="#000000" stroke-width="2" fill="#FFFFFF"></path>
                <text id="5" font-family="Helvetica" font-size="25" font-weight="normal" fill="#000000">
                    <tspan x="16.0480957" y="31">5</tspan>
                </text>
                <path d="M44,1 L44,44 L87,44 L87,1 L44,1 Z" id="Rectangle" stroke="#000000" stroke-width="2" fill="#FFFFFF"></path>
                <text id="nan" font-family="Helvetica" font-size="25" font-weight="normal" fill="#000000">
                    <tspan x="45.1442871" y="31">nan</tspan>
                </text>
                <path d="M87,1 L87,44 L130,44 L130,1 L87,1 Z" id="Rectangle" stroke="#000000" stroke-width="2" fill="#FFFFFF"></path>
                <text id="150" font-family="Helvetica" font-size="25" font-weight="normal" fill="#000000">
                    <tspan x="88.1442871" y="31">150</tspan>
                </text>
                <path d="M130,1 L130,44 L173,44 L173,1 L130,1 Z" id="Rectangle" stroke="#000000" stroke-width="2" fill="#FFFFFF"></path>
                <text id="175" font-family="Helvetica" font-size="25" font-weight="normal" fill="#000000">
                    <tspan x="131.144287" y="31">175</tspan>
                </text>
                <path d="M173,1 L173,44 L216,44 L216,1 L173,1 Z" id="Rectangle" stroke="#000000" stroke-width="2" fill="#FFFFFF"></path>
                <text id="5" font-family="Helvetica" font-size="25" font-weight="normal" fill="#000000">
                    <tspan x="188.048096" y="31">5</tspan>
                </text>
                <path d="M216,1 L216,44 L259,44 L259,1 L216,1 Z" id="Rectangle" stroke="#000000" stroke-width="2" fill="#FFFFFF"></path>
                <text id="20" font-family="Helvetica" font-size="25" font-weight="normal" fill="#000000">
                    <tspan x="224.096191" y="31">20</tspan>
                </text>
                <path d="M259,1 L259,44 L302,44 L302,1 L259,1 Z" id="Rectangle" stroke="#000000" stroke-width="2" fill="#FFFFFF"></path>
                <text id="20" font-family="Helvetica" font-size="25" font-weight="normal" fill="#000000">
                    <tspan x="267.096191" y="31">20</tspan>
                </text>
            </g>
            <text id="wind_speeds" font-family="AndaleMono, Andale Mono" font-size="35" font-weight="normal" fill="#0000DD">
                <tspan x="565.481201" y="298">wind_speeds</tspan>
            </text>
            <text id="fill_forward(data)" font-family="AndaleMono, Andale Mono" font-size="24" font-weight="normal" fill="#0000DD">
                <tspan x="436.378906" y="781">fill_forward(data)</tspan>
            </text>
            <g id="Group-4" transform="translate(254.000000, 941.000000)" fill="#0000DD" font-family="AndaleMono, Andale Mono" font-size="24" font-weight="normal">
                <text id="rolling_average(data">
                    <tspan x="0.275390625" y="22">rolling_average(data)</tspan>
                </text>
                <text id="rolling_std(data)">
                    <tspan x="378.080078" y="22">rolling_std(data)</tspan>
                </text>
            </g>
            <text id="find_outliers(data," font-family="AndaleMono, Andale Mono" font-size="24" font-weight="normal" fill="#0000DD">
                <tspan x="342.263672" y="1047">find_outliers(data, avgs, stds)</tspan>
            </text>
            <g id="Group-6" transform="translate(480.000000, 655.000000)">
                <path d="M1,1 L1,44 L44,44 L44,1 L1,1 Z" id="Rectangle" stroke="#000000" stroke-width="2" fill="#FFFFFF"></path>
                <text id="5" font-family="Helvetica" font-size="25" font-weight="normal" fill="#000000">
                    <tspan x="15.5480957" y="32">5</tspan>
                </text>
                <path d="M44,1 L44,44 L87,44 L87,1 L44,1 Z" id="Rectangle" stroke="#000000" stroke-width="2" fill="#FFFFFF"></path>
                <text id="nan" font-family="Helvetica" font-size="25" font-weight="normal" fill="#000000">
                    <tspan x="44.6442871" y="32">nan</tspan>
                </text>
                <path d="M87,1 L87,44 L130,44 L130,1 L87,1 Z" id="Rectangle" stroke="#000000" stroke-width="2" fill="#FFFFFF"></path>
                <text id="150" font-family="Helvetica" font-size="25" font-weight="normal" fill="#000000">
                    <tspan x="87.6442871" y="32">150</tspan>
                </text>
                <path d="M130,1 L130,44 L173,44 L173,1 L130,1 Z" id="Rectangle" stroke="#000000" stroke-width="2" fill="#FFFFFF"></path>
                <text id="175" font-family="Helvetica" font-size="25" font-weight="normal" fill="#000000">
                    <tspan x="130.644287" y="32">175</tspan>
                </text>
            </g>
            <g id="Group-6" transform="translate(480.000000, 655.000000)">
                <path d="M1,1 L1,44 L44,44 L44,1 L1,1 Z" id="Rectangle" stroke="#000000" stroke-width="2" fill="#FFFFFF"></path>
                <text id="5" font-family="Helvetica" font-size="25" font-weight="normal" fill="#000000">
                    <tspan x="15.5480957" y="32">5</tspan>
                </text>
                <path d="M44,1 L44,44 L87,44 L87,1 L44,1 Z" id="Rectangle" stroke="#000000" stroke-width="2" fill="#FFFFFF"></path>
                <text id="nan" font-family="Helvetica" font-size="25" font-weight="normal" fill="#000000">
                    <tspan x="44.6442871" y="32">nan</tspan>
                </text>
                <path d="M87,1 L87,44 L130,44 L130,1 L87,1 Z" id="Rectangle" stroke="#000000" stroke-width="2" fill="#FFFFFF"></path>
                <text id="150" font-family="Helvetica" font-size="25" font-weight="normal" fill="#000000">
                    <tspan x="87.6442871" y="32">150</tspan>
                </text>
                <path d="M130,1 L130,44 L173,44 L173,1 L130,1 Z" id="Rectangle" stroke="#000000" stroke-width="2" fill="#FFFFFF"></path>
                <text id="175" font-family="Helvetica" font-size="25" font-weight="normal" fill="#000000">
                    <tspan x="130.644287" y="32">175</tspan>
                </text>
            </g>
            <path d="M185,558 L185,601 L228,601 L228,558 L185,558 Z" id="Rectangle" stroke="#000000" stroke-width="2" fill="#FFFFFF"></path>
            <text id="4" font-family="Helvetica" font-size="25" font-weight="normal" fill="#000000">
                <tspan x="200.048096" y="589">4</tspan>
            </text>
            <path d="M185,601 L185,644 L228,644 L228,601 L185,601 Z" id="Rectangle" stroke="#000000" stroke-width="2" fill="#FFFFFF"></path>
            <text id="6" font-family="Helvetica" font-size="25" font-weight="normal" fill="#000000">
                <tspan x="200.048096" y="632">6</tspan>
            </text>
            <path d="M185,515 L185,558 L228,558 L228,515 L185,515 Z" id="Rectangle" stroke="#000000" stroke-width="2" fill="#BCBCBC"></path>
            <text id="0" font-family="Helvetica-Bold, Helvetica" font-size="25" font-weight="bold" fill="#000000">
                <tspan x="200.048096" y="546">0</tspan>
            </text>
            <path d="M228,558 L228,601 L271,601 L271,558 L228,558 Z" id="Rectangle" stroke="#000000" stroke-width="2" fill="#FFFFFF"></path>
            <text id="6" font-family="Helvetica" font-size="25" font-weight="normal" fill="#000000">
                <tspan x="243.048096" y="589">6</tspan>
            </text>
            <path d="M228,601 L228,644 L271,644 L271,601 L228,601 Z" id="Rectangle" stroke="#000000" stroke-width="2" fill="#FFFFFF"></path>
            <text id="7" font-family="Helvetica" font-size="25" font-weight="normal" fill="#000000">
                <tspan x="243.048096" y="632">7</tspan>
            </text>
            <path d="M228,515 L228,558 L271,558 L271,515 L228,515 Z" id="Rectangle" stroke="#000000" stroke-width="2" fill="#BCBCBC"></path>
            <text id="4" font-family="Helvetica-Bold, Helvetica" font-size="25" font-weight="bold" fill="#000000">
                <tspan x="243.048096" y="546">4</tspan>
            </text>
            <g id="text-file-interface-symbol-with-lines-and-down-right-corner-folded" transform="translate(395.000000, 59.000000)" fill="#000000" fill-rule="nonzero">
                <path d="M110.50035,0 L8.49987273,0 C3.80583338,0 0,3.82955556 0,8.5623738 L0,128.437626 C0,133.170444 3.80583338,137 8.49987273,137 L84.9996182,137 L119,102.749383 L119,8.5623738 C119.000223,3.82955556 115.198398,0 110.50035,0 Z M83.7708739,124.892331 L83.7708739,101.511379 L106.980934,101.511379 L83.7708739,124.892331 Z M109.419492,92.5705145 L83.3947004,92.5705145 C78.7957623,92.5705145 75.0750079,96.3197502 75.0750079,100.951608 L75.0750079,127.167539 L9.58073119,127.167539 L9.58073119,9.83358253 L109.418378,9.83358253 L109.418378,92.5705145 L109.419492,92.5705145 Z" id="Shape"></path>
                <path d="M22.2498998,32 L98.7501002,32 C101.099327,32 103,29.7636033 103,27 C103,24.2363967 101.099327,22 98.7501002,22 L22.2498998,22 C19.9008958,22 18,24.2363967 18,27 C18,29.7636033 19.9006731,32 22.2498998,32 Z" id="Shape"></path>
                <path d="M22.2498998,56 L98.7501002,56 C101.099327,56 103,53.7636033 103,51 C103,48.2363967 101.099327,46 98.7501002,46 L22.2498998,46 C19.9008958,46 18,48.2363967 18,51 C18,53.7636033 19.9006731,56 22.2498998,56 Z" id="Shape"></path>
                <path d="M22.2498998,77 L98.7501002,77 C101.099327,77 103,74.7636033 103,72 C103,69.2363967 101.099327,67 98.7501002,67 L22.2498998,67 C19.9008958,67 18,69.2363967 18,72 C18,74.7636033 19.9006731,77 22.2498998,77 Z" id="Shape"></path>
                <path d="M22.2726255,101 L60.7273745,101 C63.0891633,101 65,98.7637925 65,96.0004231 C65,93.2370536 63.0891633,91 60.7273745,91 L22.2726255,91 C19.9110606,91 18,93.2362075 18,95.9993654 C18,98.7627348 19.9108367,101 22.2726255,101 Z" id="Shape"></path>
            </g>
            <text id="input-HDF5-file" font-family="Helvetica-Bold, Helvetica" font-size="36" font-weight="bold" fill="#000000">
                <tspan x="327.006836" y="35">input HDF5 file</tspan>
            </text>
            <g id="Line-8" transform="translate(225.000000, 124.000000)">
                <path d="M171.5,0.5 L18.5,134.5" stroke="#000000" stroke-width="4" stroke-linecap="square"></path>
                <polygon id="Arrowhead" fill="#000000" transform="translate(18.500000, 134.500000) rotate(-41.212426) translate(-18.500000, -134.500000) " points="31 147 6 134.5 31 122"></polygon>
            </g>
            <g id="Line-8" transform="translate(595.000000, 199.500000) scale(-1, 1) translate(-595.000000, -199.500000) translate(509.000000, 123.000000)">
                <path d="M171.5,0.5 L18.5,134.5" stroke="#000000" stroke-width="4" stroke-linecap="square"></path>
                <polygon id="Arrowhead" fill="#000000" transform="translate(18.500000, 134.500000) rotate(-41.212426) translate(-18.500000, -134.500000) " points="31 147 6 134.5 31 122"></polygon>
            </g>
            <g id="Line-9" transform="translate(216.000000, 366.000000)">
                <path d="M12.5,0.5 L12.5,46.5" stroke="#000000" stroke-width="4" stroke-linecap="square"></path>
                <polygon id="Arrowhead" fill="#000000" transform="translate(12.500000, 46.500000) rotate(-90.000000) translate(-12.500000, -46.500000) " points="25 59 0 46.5 25 34"></polygon>
            </g>
            <g id="Line-9" transform="translate(216.000000, 456.000000)">
                <path d="M12.5,0.5 L12.5,46.5" stroke="#000000" stroke-width="4" stroke-linecap="square"></path>
                <polygon id="Arrowhead" fill="#000000" transform="translate(12.500000, 46.500000) rotate(-90.000000) translate(-12.500000, -46.500000) " points="25 59 0 46.5 25 34"></polygon>
            </g>
            <g id="Line-9" transform="translate(555.000000, 596.000000)">
                <path d="M12.5,0.5 L12.5,46.5" stroke="#000000" stroke-width="4" stroke-linecap="square"></path>
                <polygon id="Arrowhead" fill="#000000" transform="translate(12.500000, 46.500000) rotate(-90.000000) translate(-12.500000, -46.500000) " points="25 59 0 46.5 25 34"></polygon>
            </g>
            <g id="Line-9" transform="translate(555.000000, 700.000000)">
                <path d="M12.5,0.5 L12.5,46.5" stroke="#000000" stroke-width="4" stroke-linecap="square"></path>
                <polygon id="Arrowhead" fill="#000000" transform="translate(12.500000, 46.500000) rotate(-90.000000) translate(-12.500000, -46.500000) " points="25 59 0 46.5 25 34"></polygon>
            </g>
            <g id="Line-9" transform="translate(555.000000, 789.000000)">
                <path d="M12.5,0.5 L12.5,46.5" stroke="#000000" stroke-width="4" stroke-linecap="square"></path>
                <polygon id="Arrowhead" fill="#000000" transform="translate(12.500000, 46.500000) rotate(-90.000000) translate(-12.500000, -46.500000) " points="25 59 0 46.5 25 34"></polygon>
            </g>
            <g id="Line-9" transform="translate(555.000000, 1058.000000)">
                <path d="M12.5,0.5 L12.5,46.5" stroke="#000000" stroke-width="4" stroke-linecap="square"></path>
                <polygon id="Arrowhead" fill="#000000" transform="translate(12.500000, 46.500000) rotate(-90.000000) translate(-12.500000, -46.500000) " points="25 59 0 46.5 25 34"></polygon>
            </g>
            <text id="wind_speeds[0:4]" font-family="AndaleMono, Andale Mono" font-size="30" font-weight="normal" fill="#0000DD">
                <tspan x="436.476562" y="587">wind_speeds[0:4]</tspan>
            </text>
            <g id="Line-10" transform="translate(271.000000, 535.000000)">
                <path d="M0.5,0.5 L150,39" stroke="#000000" stroke-width="4" stroke-linecap="square"></path>
                <polygon id="Arrowhead" fill="#000000" transform="translate(150.000000, 39.000000) rotate(-165.558687) translate(-150.000000, -39.000000) " points="162.5 51.5 137.5 39 162.5 26.5"></polygon>
            </g>
            <g id="Line-11" transform="translate(642.000000, 367.000000)">
                <path d="M42.5,0.5 L16.5,175.5" stroke="#000000" stroke-width="5" stroke-linecap="square"></path>
                <polygon id="Arrowhead" fill="#000000" transform="translate(16.500000, 175.500000) rotate(-81.549301) translate(-16.500000, -175.500000) " points="30.5 189.5 2.5 175.5 30.5 161.5"></polygon>
            </g>
            <g id="Line-12" transform="translate(406.000000, 871.000000)">
                <path d="M74.5,0.5 L18,64" stroke="#000000" stroke-width="4" stroke-linecap="square"></path>
                <polygon id="Arrowhead" fill="#000000" transform="translate(18.000000, 64.000000) rotate(-48.338471) translate(-18.000000, -64.000000) " points="30.5 76.5 5.5 64 30.5 51.5"></polygon>
            </g>
            <g id="Line-12" transform="translate(690.500000, 911.000000) scale(-1, 1) translate(-690.500000, -911.000000) translate(653.000000, 870.000000)">
                <path d="M74.5,0.5 L18,64" stroke="#000000" stroke-width="4" stroke-linecap="square"></path>
                <polygon id="Arrowhead" fill="#000000" transform="translate(18.000000, 64.000000) rotate(-48.338471) translate(-18.000000, -64.000000) " points="30.5 76.5 5.5 64 30.5 51.5"></polygon>
            </g>
            <g id="Line-13" transform="translate(421.000000, 972.000000)">
                <path d="M2.5,0.5 L16.5,42.5" stroke="#000000" stroke-width="4" stroke-linecap="square"></path>
                <polygon id="Arrowhead" fill="#000000" transform="translate(16.500000, 42.500000) rotate(-108.434949) translate(-16.500000, -42.500000) " points="29 55 4 42.5 29 30"></polygon>
            </g>
            <g id="Line-14" transform="translate(673.000000, 971.000000)">
                <path d="M40.5,0.5 L17,47" stroke="#000000" stroke-width="4" stroke-linecap="square"></path>
                <polygon id="Arrowhead" fill="#000000" transform="translate(17.000000, 47.000000) rotate(-63.189046) translate(-17.000000, -47.000000) " points="29.5 59.5 4.5 47 29.5 34.5"></polygon>
            </g>
            <g id="Group-6" transform="translate(480.000000, 847.000000)">
                <path d="M1,1 L1,44 L44,44 L44,1 L1,1 Z" id="Rectangle" stroke="#000000" stroke-width="2" fill="#FFFFFF"></path>
                <text id="5" font-family="Helvetica" font-size="25" font-weight="normal" fill="#000000">
                    <tspan x="15.5480957" y="32">5</tspan>
                </text>
                <path d="M44,1 L44,44 L87,44 L87,1 L44,1 Z" id="Rectangle" stroke="#000000" stroke-width="2" fill="#FFFFFF"></path>
                <text id="5" font-family="Helvetica-Bold, Helvetica" font-size="25" font-weight="bold" fill="#FF0000">
                    <tspan x="58.5480957" y="32">5</tspan>
                </text>
                <path d="M87,1 L87,44 L130,44 L130,1 L87,1 Z" id="Rectangle" stroke="#000000" stroke-width="2" fill="#FFFFFF"></path>
                <text id="150" font-family="Helvetica" font-size="25" font-weight="normal" fill="#000000">
                    <tspan x="87.6442871" y="32">150</tspan>
                </text>
                <path d="M130,1 L130,44 L173,44 L173,1 L130,1 Z" id="Rectangle" stroke="#000000" stroke-width="2" fill="#FFFFFF"></path>
                <text id="175" font-family="Helvetica" font-size="25" font-weight="normal" fill="#000000">
                    <tspan x="130.644287" y="32">175</tspan>
                </text>
            </g>
            <g id="Group-8" transform="translate(524.000000, 1120.000000)">
                <g id="Group-7" transform="translate(0.000000, 8.000000)">
                    <path d="M1,1 L1,44 L44,44 L44,1 L1,1 Z" id="Rectangle" stroke="#000000" stroke-width="2" fill="#FFFFFF"></path>
                    <text id="2" font-family="Helvetica" font-size="25" font-weight="normal" fill="#000000">
                        <tspan x="16.0480957" y="32">2</tspan>
                    </text>
                    <path d="M44,1 L44,44 L87,44 L87,1 L44,1 Z" id="Rectangle" stroke="#000000" stroke-width="2" fill="#FFFFFF"></path>
                    <text id="3" font-family="Helvetica" font-size="25" font-weight="normal" fill="#000000">
                        <tspan x="59.0480957" y="32">3</tspan>
                    </text>
                </g>
                <text id="indices-of-outliers" font-family="Helvetica-Oblique, Helvetica" font-size="25" font-style="italic" font-weight="normal" fill="#000000">
                    <tspan x="139" y="24">indices of outliers</tspan>
                    <tspan x="139" y="54">for station ID 123</tspan>
                </text>
            </g>
            <rect id="Rectangle-2" stroke="#FFFFFF" stroke-width="4" x="5" y="482" width="1048" height="759"></rect>
            <text id="run-for-each-weather" font-family="Helvetica-BoldOblique, Helvetica" font-size="40" font-style="italic" font-weight="bold" fill="#FFFFFF">
                <tspan x="781" y="464">run for each weather station</tspan>
            </text>
        </g>
    </g>
</svg>