<?xml version="1.0" encoding="UTF-8"?>
<svg width="141px" height="40px" viewBox="0 0 141 40" version="1.1" xmlns="http://www.w3.org/2000/svg" xmlns:xlink="http://www.w3.org/1999/xlink">
    <!-- Generator: Sketch 50.2 (55047) - http://www.bohemiancoding.com/sketch -->
    <title>Group</title>
    <desc>Created with Sketch.</desc>
    <defs></defs>
    <g id="Page-1" stroke="none" stroke-width="1" fill="none" fill-rule="evenodd">
        <g id="Group" fill="#FFFFFF" fill-rule="nonzero">
            <path d="M3.84375,20.2 L3.84375,8.6 L0.23125,8.6 L0.23125,38.79375 L3.84375,38.79375 L3.84375,35.475 C4.60208333,36.775 5.55625,37.7395833 6.70625,38.36875 C7.86041667,39.0020833 9.2375,39.31875 10.8375,39.31875 C13.4958333,39.31875 15.6541667,38.2645833 17.3125,36.15625 C18.975,34.0479167 19.80625,31.275 19.80625,27.8375 C19.80625,24.4 18.975,21.625 17.3125,19.5125 C15.6541667,17.4041667 13.4958333,16.35 10.8375,16.35 C9.2375,16.35 7.86041667,16.6666667 6.70625,17.3 C5.55625,17.9333333 4.60208333,18.9 3.84375,20.2 M16.075,27.8375 C16.075,30.4791667 15.53125,32.5520833 14.44375,34.05625 C13.35625,35.5604167 11.8625,36.3125 9.9625,36.3125 C8.05833333,36.3125 6.5625,35.5604167 5.475,34.05625 C4.3875,32.5520833 3.84375,30.4791667 3.84375,27.8375 C3.84375,25.1958333 4.3875,23.1229167 5.475,21.61875 C6.5625,20.1145833 8.05833333,19.3625 9.9625,19.3625 C11.8625,19.3625 13.35625,20.1145833 14.44375,21.61875 C15.53125,23.1229167 16.075,25.1958333 16.075,27.8375" id="DejaVuSans-70" transform="translate(10.018750, 23.959375) scale(-1, 1) rotate(-180.000000) translate(-10.018750, -23.959375) "></path>
            <path d="M35.7031248,20.1625 C32.7989581,20.1625 30.7864581,19.83125 29.6656248,19.16875 C28.5447915,18.50625 27.9843748,17.3729167 27.9843748,15.76875 C27.9843748,14.49375 28.4052081,13.48125 29.2468748,12.73125 C30.0885415,11.9854167 31.2302081,11.6125 32.6718748,11.6125 C34.6677081,11.6125 36.2677081,12.31875 37.4718748,13.73125 C38.6760415,15.14375 39.2781248,17.0208333 39.2781248,19.3625 L39.2781248,20.1625 L35.7031248,20.1625 Z M42.8718748,21.65 L42.8718748,9.16875 L39.2781248,9.16875 L39.2781248,12.4875 C38.4572915,11.1625 37.4343748,10.1833333 36.2093748,9.55 C34.9843748,8.91666667 33.4864581,8.6 31.7156248,8.6 C29.4781248,8.6 27.6968748,9.22916667 26.3718748,10.4875 C25.0510415,11.7458333 24.3906248,13.4291667 24.3906248,15.5375 C24.3906248,17.9958333 25.2135415,19.85 26.8593748,21.1 C28.5093748,22.35 30.9677081,22.975 34.2343748,22.975 L39.2781248,22.975 L39.2781248,23.33125 C39.2781248,24.9854167 38.7343748,26.2645833 37.6468748,27.16875 C36.5593748,28.0729167 35.0322915,28.525 33.0656248,28.525 C31.8156248,28.525 30.5968748,28.375 29.4093748,28.075 C28.2260415,27.775 27.0885415,27.325 25.9968748,26.725 L25.9968748,30.05 C27.3093748,30.5583333 28.5843748,30.9375 29.8218748,31.1875 C31.0593748,31.4416667 32.2635415,31.56875 33.4343748,31.56875 C36.6010415,31.56875 38.9656248,30.7479167 40.5281248,29.10625 C42.0906248,27.46875 42.8718748,24.9833333 42.8718748,21.65 Z" id="DejaVuSans-61" transform="translate(33.631250, 20.084375) scale(-1, 1) rotate(-180.000000) translate(-33.631250, -20.084375) "></path>
            <path d="M68.4585936,21.80625 L68.4585936,8.6 L64.8648436,8.6 L64.8648436,21.6875 C64.8648436,23.7583333 64.4606769,25.30625 63.6523436,26.33125 C62.8440103,27.3604167 61.6335936,27.875 60.0210936,27.875 C58.0794269,27.875 56.5481769,27.25625 55.4273436,26.01875 C54.3065103,24.7854167 53.7460936,23.1 53.7460936,20.9625 L53.7460936,8.6 L50.1335936,8.6 L50.1335936,30.475 L53.7460936,30.475 L53.7460936,27.075 C54.6085936,28.3916667 55.6210936,29.375 56.7835936,30.025 C57.9502603,30.675 59.2960936,31 60.8210936,31 C63.3335936,31 65.2335936,30.2229167 66.5210936,28.66875 C67.8127603,27.1145833 68.4585936,24.8270833 68.4585936,21.80625" id="DejaVuSans-6e" transform="translate(59.296094, 19.800000) scale(-1, 1) rotate(-180.000000) translate(-59.296094, -19.800000) "></path>
            <path d="M90.0164064,19.73125 L90.0164064,31.56875 L93.6101564,31.56875 L93.6101564,1.175 L90.0164064,1.175 L90.0164064,4.45625 C89.2622397,3.15625 88.3080731,2.18958333 87.1539064,1.55625 C86.0039064,0.922916667 84.6205731,0.60625 83.0039064,0.60625 C80.3622397,0.60625 78.2101564,1.66041667 76.5476564,3.76875 C74.8893231,5.88125 74.0601564,8.65625 74.0601564,12.09375 C74.0601564,15.53125 74.8893231,18.3041667 76.5476564,20.4125 C78.2101564,22.5208333 80.3622397,23.575 83.0039064,23.575 C84.6205731,23.575 86.0039064,23.2583333 87.1539064,22.625 C88.3080731,21.9958333 89.2622397,21.03125 90.0164064,19.73125 M77.7726564,12.09375 C77.7726564,9.45208333 78.3164064,7.37916667 79.4039064,5.875 C80.4914064,4.37083333 81.9851564,3.61875 83.8851564,3.61875 C85.7851564,3.61875 87.2809897,4.37083333 88.3726564,5.875 C89.4684897,7.37916667 90.0164064,9.45208333 90.0164064,12.09375 C90.0164064,14.7354167 89.4684897,16.8083333 88.3726564,18.3125 C87.2809897,19.8166667 85.7851564,20.56875 83.8851564,20.56875 C81.9851564,20.56875 80.4914064,19.8166667 79.4039064,18.3125 C78.3164064,16.8083333 77.7726564,14.7354167 77.7726564,12.09375" id="DejaVuSans-64" transform="translate(83.835156, 16.087500) scale(-1, 1) rotate(-180.000000) translate(-83.835156, -16.087500) "></path>
            <path d="M110.957031,20.1625 C108.052865,20.1625 106.040365,19.83125 104.919531,19.16875 C103.798698,18.50625 103.238281,17.3729167 103.238281,15.76875 C103.238281,14.49375 103.659115,13.48125 104.500781,12.73125 C105.342448,11.9854167 106.484115,11.6125 107.925781,11.6125 C109.921615,11.6125 111.521615,12.31875 112.725781,13.73125 C113.929948,15.14375 114.532031,17.0208333 114.532031,19.3625 L114.532031,20.1625 L110.957031,20.1625 Z M118.125781,21.65 L118.125781,9.16875 L114.532031,9.16875 L114.532031,12.4875 C113.711198,11.1625 112.688281,10.1833333 111.463281,9.55 C110.238281,8.91666667 108.740365,8.6 106.969531,8.6 C104.732031,8.6 102.950781,9.22916667 101.625781,10.4875 C100.304948,11.7458333 99.6445312,13.4291667 99.6445312,15.5375 C99.6445312,17.9958333 100.467448,19.85 102.113281,21.1 C103.763281,22.35 106.221615,22.975 109.488281,22.975 L114.532031,22.975 L114.532031,23.33125 C114.532031,24.9854167 113.988281,26.2645833 112.900781,27.16875 C111.813281,28.0729167 110.286198,28.525 108.319531,28.525 C107.069531,28.525 105.850781,28.375 104.663281,28.075 C103.479948,27.775 102.342448,27.325 101.250781,26.725 L101.250781,30.05 C102.563281,30.5583333 103.838281,30.9375 105.075781,31.1875 C106.313281,31.4416667 107.517448,31.56875 108.688281,31.56875 C111.854948,31.56875 114.219531,30.7479167 115.782031,29.10625 C117.344531,27.46875 118.125781,24.9833333 118.125781,21.65 Z" id="DejaVuSans-61" transform="translate(108.885156, 20.084375) scale(-1, 1) rotate(-180.000000) translate(-108.885156, -20.084375) "></path>
            <path d="M139.46875,30.4 L139.46875,27 C138.45625,27.5208333 137.402083,27.9104167 136.30625,28.16875 C135.214583,28.43125 134.08125,28.5625 132.90625,28.5625 C131.122917,28.5625 129.785417,28.2895833 128.89375,27.74375 C128.002083,27.1979167 127.55625,26.3770833 127.55625,25.28125 C127.55625,24.4479167 127.875,23.79375 128.5125,23.31875 C129.15,22.84375 130.433333,22.3916667 132.3625,21.9625 L133.59375,21.6875 C136.14375,21.1416667 137.95625,20.3708333 139.03125,19.375 C140.10625,18.3791667 140.64375,16.9895833 140.64375,15.20625 C140.64375,13.1729167 139.839583,11.5625 138.23125,10.375 C136.622917,9.19166667 134.4125,8.6 131.6,8.6 C130.429167,8.6 129.208333,8.71458333 127.9375,8.94375 C126.666667,9.17291667 125.329167,9.51458333 123.925,9.96875 L123.925,13.68125 C125.254167,12.9895833 126.5625,12.4708333 127.85,12.125 C129.1375,11.7833333 130.414583,11.6125 131.68125,11.6125 C133.372917,11.6125 134.672917,11.9020833 135.58125,12.48125 C136.49375,13.0604167 136.95,13.8770833 136.95,14.93125 C136.95,15.90625 136.620833,16.6541667 135.9625,17.175 C135.308333,17.6958333 133.866667,18.1979167 131.6375,18.68125 L130.3875,18.975 C128.1625,19.4416667 126.554167,20.1604167 125.5625,21.13125 C124.575,22.1020833 124.08125,23.4333333 124.08125,25.125 C124.08125,27.1833333 124.810417,28.7708333 126.26875,29.8875 C127.727083,31.0083333 129.797917,31.56875 132.48125,31.56875 C133.80625,31.56875 135.054167,31.4708333 136.225,31.275 C137.4,31.0833333 138.48125,30.7916667 139.46875,30.4" id="DejaVuSans-73" transform="translate(132.284375, 20.084375) scale(-1, 1) rotate(-180.000000) translate(-132.284375, -20.084375) "></path>
        </g>
    </g>
</svg>