<?xml version="1.0" encoding="UTF-8"?>
<svg width="362px" height="266px" viewBox="0 0 362 266" version="1.1" xmlns="http://www.w3.org/2000/svg" xmlns:xlink="http://www.w3.org/1999/xlink">
    <!-- Generator: Sketch 52.2 (67145) - http://www.bohemiancoding.com/sketch -->
    <title>Group 2</title>
    <desc>Created with Sketch.</desc>
    <g id="Page-1" stroke="none" stroke-width="1" fill="none" fill-rule="evenodd">
        <g id="Group-2">
            <g id="patch_2" transform="translate(26.000000, 0.000000)" fill="#FFFFFF">
                <polygon id="Path" points="0 218 334.8 218 334.8 0.56 0 0.56"></polygon>
            </g>
            <g id="matplotlib.axis_1" transform="translate(37.000000, 218.000000)" fill="#000000">
                <g id="xtick_1">
                    <g id="line2d_1" transform="translate(3.000000, 0.000000)" stroke="#000000" stroke-width="0.8">
                        <g id="m556baf7d2b-link" transform="translate(0.218182, 0.000000)">
                            <path d="M1,0 L1,3.5" id="m556baf7d2b"></path>
                        </g>
                    </g>
                    <g id="text_1" transform="translate(0.000000, 7.000000)">
                        <g id="Group" transform="translate(4.328182, 6.317500) scale(-1, 1) rotate(-180.000000) translate(-4.328182, -6.317500) translate(0.728182, 0.477500)">
                            <g id="DejaVuSans-31-link">
                                <polygon id="DejaVuSans-31" points="0.385 1.3275 2.9625 1.3275 2.9625 10.2275 0.1575 9.665 0.1575 11.1025 2.9475 11.665 4.525 11.665 4.525 1.3275 7.1025 1.3275 7.1025 0 0.385 0"></polygon>
                            </g>
                        </g>
                    </g>
                </g>
                <g id="xtick_2" transform="translate(30.000000, 0.000000)">
                    <g id="line2d_2" transform="translate(3.000000, 0.000000)" stroke="#000000" stroke-width="0.8">
                        <g id="m556baf7d2b-link" transform="translate(0.961983, 0.000000)">
                            <path d="M1,0 L1,3.5" id="m556baf7d2b"></path>
                        </g>
                    </g>
                    <g id="text_2" transform="translate(0.000000, 7.000000)">
                        <g id="Group" transform="translate(4.751983, 6.157500) scale(-1, 1) rotate(-180.000000) translate(-4.751983, -6.157500) translate(0.991983, 0.157500)">
                            <g id="DejaVuSans-32-link">
                                <path d="M1.95,1.3275 L7.4575,1.3275 L7.4575,0 L0.0525,0 L0.0525,1.3275 C0.650833333,1.9475 1.46666667,2.77916667 2.5,3.8225 C3.535,4.8675 4.185,5.54166667 4.45,5.845 C4.955,6.41166667 5.3075,6.89166667 5.5075,7.285 C5.70916667,7.67833333 5.81,8.065 5.81,8.445 C5.81,9.065 5.5925,9.57 5.1575,9.96 C4.7225,10.3516667 4.15583333,10.5475 3.4575,10.5475 C2.9625,10.5475 2.44,10.4616667 1.89,10.29 C1.34166667,10.1183333 0.755,9.8575 0.13,9.5075 L0.13,11.1025 C0.765,11.3575 1.35833333,11.55 1.91,11.68 C2.46333333,11.81 2.96916667,11.875 3.4275,11.875 C4.63583333,11.875 5.59916667,11.5725 6.3175,10.9675 C7.03583333,10.3641667 7.395,9.5575 7.395,8.5475 C7.395,8.0675 7.305,7.6125 7.125,7.1825 C6.94666667,6.75416667 6.62,6.24833333 6.145,5.665 C6.015,5.51333333 5.60083333,5.07666667 4.9025,4.355 C4.20583333,3.63333333 3.22166667,2.62416667 1.95,1.3275 Z" id="DejaVuSans-32"></path>
                            </g>
                        </g>
                    </g>
                </g>
                <g id="xtick_3" transform="translate(61.000000, 0.000000)">
                    <g id="line2d_3" transform="translate(3.000000, 0.000000)" stroke="#000000" stroke-width="0.8">
                        <g id="m556baf7d2b-link" transform="translate(0.705785, 0.000000)">
                            <path d="M1,0 L1,3.5" id="m556baf7d2b"></path>
                        </g>
                    </g>
                    <g id="text_3" transform="translate(0.000000, 7.000000)">
                        <g id="Group" transform="translate(4.655785, 6.317500) scale(-1, 1) rotate(-180.000000) translate(-4.655785, -6.317500) translate(0.735785, 0.157500)">
                            <g id="DejaVuSans-33-link">
                                <path d="M5.3725,6.61 C6.1275,6.44833333 6.71666667,6.11166667 7.14,5.6 C7.565,5.09 7.7775,4.46 7.7775,3.71 C7.7775,2.56 7.38166667,1.66916667 6.59,1.0375 C5.79833333,0.4075 4.67333333,0.0925 3.215,0.0925 C2.72666667,0.0925 2.22333333,0.140833333 1.705,0.2375 C1.18666667,0.334166667 0.651666667,0.479166667 0.1,0.6725 L0.1,2.195 C0.536666667,1.94 1.015,1.7475 1.535,1.6175 C2.05666667,1.4875 2.60166667,1.4225 3.17,1.4225 C4.15833333,1.4225 4.91166667,1.6175 5.43,2.0075 C5.94833333,2.3975 6.2075,2.965 6.2075,3.71 C6.2075,4.39833333 5.96666667,4.93583333 5.485,5.3225 C5.00333333,5.71083333 4.33333333,5.905 3.475,5.905 L2.115,5.905 L2.115,7.2025 L3.5375,7.2025 C4.3125,7.2025 4.90583333,7.3575 5.3175,7.6675 C5.72916667,7.9775 5.935,8.42416667 5.935,9.0075 C5.935,9.60583333 5.7225,10.065 5.2975,10.385 C4.87416667,10.7066667 4.26666667,10.8675 3.475,10.8675 C3.04166667,10.8675 2.5775,10.82 2.0825,10.725 C1.5875,10.6316667 1.04333333,10.4866667 0.45,10.29 L0.45,11.695 C1.05,11.8616667 1.61166667,11.9866667 2.135,12.07 C2.65833333,12.1533333 3.15166667,12.195 3.615,12.195 C4.81333333,12.195 5.76083333,11.9225 6.4575,11.3775 C7.15583333,10.8341667 7.505,10.0991667 7.505,9.1725 C7.505,8.52583333 7.32,7.98 6.95,7.535 C6.58,7.09 6.05416667,6.78166667 5.3725,6.61 Z" id="DejaVuSans-33"></path>
                            </g>
                        </g>
                    </g>
                </g>
                <g id="xtick_4" transform="translate(92.000000, 0.000000)">
                    <g id="line2d_4" transform="translate(3.000000, 0.000000)" stroke="#000000" stroke-width="0.8">
                        <g id="m556baf7d2b-link" transform="translate(0.449587, 0.000000)">
                            <path d="M1,0 L1,3.5" id="m556baf7d2b"></path>
                        </g>
                    </g>
                    <g id="text_4" transform="translate(0.000000, 7.000000)" fill-rule="nonzero">
                        <g id="Group" transform="translate(4.399587, 6.317500) scale(-1, 1) rotate(-180.000000) translate(-4.399587, -6.317500) translate(-0.000413, 0.477500)">
                            <g id="DejaVuSans-34-link">
                                <path d="M5.4075,10.29 L1.4225,4.0625 L5.4075,4.0625 L5.4075,10.29 Z M4.9925,11.665 L6.9775,11.665 L6.9775,4.0625 L8.6425,4.0625 L8.6425,2.75 L6.9775,2.75 L6.9775,0 L5.4075,0 L5.4075,2.75 L0.1425,2.75 L0.1425,4.2725 L4.9925,11.665 Z" id="DejaVuSans-34"></path>
                            </g>
                        </g>
                    </g>
                </g>
                <g id="xtick_5" transform="translate(123.000000, 0.000000)">
                    <g id="line2d_5" transform="translate(3.000000, 0.000000)" stroke="#000000" stroke-width="0.8">
                        <g id="m556baf7d2b-link" transform="translate(0.193388, 0.000000)">
                            <path d="M1,0 L1,3.5" id="m556baf7d2b"></path>
                        </g>
                    </g>
                    <g id="text_5" transform="translate(0.000000, 7.000000)">
                        <g id="Group" transform="translate(4.063388, 6.477500) scale(-1, 1) rotate(-180.000000) translate(-4.063388, -6.477500) translate(0.223388, 0.477500)">
                            <g id="DejaVuSans-35-link">
                                <path d="M0.6075,11.985 L6.8025,11.985 L6.8025,10.655 L2.0525,10.655 L2.0525,7.7975 C2.28083333,7.87583333 2.50916667,7.93416667 2.7375,7.9725 C2.9675,8.01083333 3.1975,8.03 3.4275,8.03 C4.72916667,8.03 5.76,7.67333333 6.52,6.96 C7.28166667,6.24666667 7.6625,5.28083333 7.6625,4.0625 C7.6625,2.8075 7.27166667,1.83166667 6.49,1.135 C5.70833333,0.44 4.60666667,0.0925 3.185,0.0925 C2.695,0.0925 2.19583333,0.134166667 1.6875,0.2175 C1.18083333,0.300833333 0.656666667,0.425833333 0.115,0.5925 L0.115,2.18 C0.583333333,1.925 1.0675,1.735 1.5675,1.61 C2.0675,1.485 2.59583333,1.4225 3.1525,1.4225 C4.05416667,1.4225 4.7675,1.65916667 5.2925,2.1325 C5.81916667,2.60583333 6.0825,3.24916667 6.0825,4.0625 C6.0825,4.87416667 5.81916667,5.51666667 5.2925,5.99 C4.7675,6.465 4.05416667,6.7025 3.1525,6.7025 C2.73083333,6.7025 2.31,6.65583333 1.89,6.5625 C1.47166667,6.46916667 1.04416667,6.32333333 0.6075,6.125 L0.6075,11.985 Z" id="DejaVuSans-35"></path>
                            </g>
                        </g>
                    </g>
                </g>
                <g id="xtick_6" transform="translate(153.000000, 0.000000)">
                    <g id="line2d_6" transform="translate(3.000000, 0.000000)" stroke="#000000" stroke-width="0.8">
                        <g id="m556baf7d2b-link" transform="translate(0.937190, 0.000000)">
                            <path d="M1,0 L1,3.5" id="m556baf7d2b"></path>
                        </g>
                    </g>
                    <g id="text_6" transform="translate(0.000000, 7.000000)" fill-rule="nonzero">
                        <g id="Group" transform="translate(4.967190, 6.317500) scale(-1, 1) rotate(-180.000000) translate(-4.967190, -6.317500) translate(0.807190, 0.157500)">
                            <g id="DejaVuSans-36-link">
                                <path d="M4.3225,6.78 C3.61416667,6.78 3.0525,6.5375 2.6375,6.0525 C2.22416667,5.56916667 2.0175,4.90583333 2.0175,4.0625 C2.0175,3.22416667 2.22416667,2.56083333 2.6375,2.0725 C3.0525,1.58583333 3.61416667,1.3425 4.3225,1.3425 C5.03083333,1.3425 5.59166667,1.58583333 6.005,2.0725 C6.41833333,2.56083333 6.625,3.22416667 6.625,4.0625 C6.625,4.90583333 6.41833333,5.56916667 6.005,6.0525 C5.59166667,6.5375 5.03083333,6.78 4.3225,6.78 Z M7.455,11.7275 L7.455,10.29 C7.05833333,10.4766667 6.65833333,10.6191667 6.255,10.7175 C5.85166667,10.8175 5.45166667,10.8675 5.055,10.8675 C4.01333333,10.8675 3.2175,10.5158333 2.6675,9.8125 C2.11916667,9.10916667 1.80583333,8.04666667 1.7275,6.625 C2.03416667,7.07833333 2.41916667,7.42583333 2.8825,7.6675 C3.3475,7.90916667 3.85833333,8.03 4.415,8.03 C5.58666667,8.03 6.5125,7.67416667 7.1925,6.9625 C7.8725,6.2525 8.2125,5.28583333 8.2125,4.0625 C8.2125,2.86416667 7.85833333,1.9025 7.15,1.1775 C6.44166667,0.454166667 5.49916667,0.0925 4.3225,0.0925 C2.9725,0.0925 1.94083333,0.609166667 1.2275,1.6425 C0.514166667,2.6775 0.1575,4.17666667 0.1575,6.14 C0.1575,7.98333333 0.595,9.45333333 1.47,10.55 C2.345,11.6466667 3.51916667,12.195 4.9925,12.195 C5.38916667,12.195 5.78916667,12.1558333 6.1925,12.0775 C6.59583333,11.9991667 7.01666667,11.8825 7.455,11.7275 Z" id="DejaVuSans-36"></path>
                            </g>
                        </g>
                    </g>
                </g>
                <g id="xtick_7" transform="translate(184.000000, 0.000000)">
                    <g id="line2d_7" transform="translate(3.000000, 0.000000)" stroke="#000000" stroke-width="0.8">
                        <g id="m556baf7d2b-link" transform="translate(0.680992, 0.000000)">
                            <path d="M1,0 L1,3.5" id="m556baf7d2b"></path>
                        </g>
                    </g>
                    <g id="text_7" transform="translate(0.000000, 7.000000)">
                        <g id="Group" transform="translate(4.710992, 6.317500) scale(-1, 1) rotate(-180.000000) translate(-4.710992, -6.317500) translate(0.870992, 0.477500)">
                            <g id="DejaVuSans-37-link">
                                <polygon id="DejaVuSans-37" points="0.0325 11.665 7.5325 11.665 7.5325 10.9925 3.2975 0 1.65 0 5.635 10.335 0.0325 10.335"></polygon>
                            </g>
                        </g>
                    </g>
                </g>
                <g id="xtick_8" transform="translate(215.000000, 0.000000)">
                    <g id="line2d_8" transform="translate(3.000000, 0.000000)" stroke="#000000" stroke-width="0.8">
                        <g id="m556baf7d2b-link" transform="translate(0.424793, 0.000000)">
                            <path d="M1,0 L1,3.5" id="m556baf7d2b"></path>
                        </g>
                    </g>
                    <g id="text_8" transform="translate(0.000000, 7.000000)" fill-rule="nonzero">
                        <g id="Group" transform="translate(4.374793, 6.317500) scale(-1, 1) rotate(-180.000000) translate(-4.374793, -6.317500) translate(0.294793, 0.157500)">
                            <g id="DejaVuSans-38-link">
                                <path d="M4.125,5.86 C3.375,5.86 2.785,5.65916667 2.355,5.2575 C1.92666667,4.85583333 1.7125,4.30416667 1.7125,3.6025 C1.7125,2.89916667 1.92666667,2.34666667 2.355,1.945 C2.785,1.54333333 3.375,1.3425 4.125,1.3425 C4.875,1.3425 5.46583333,1.54416667 5.8975,1.9475 C6.33083333,2.3525 6.5475,2.90416667 6.5475,3.6025 C6.5475,4.30416667 6.3325,4.85583333 5.9025,5.2575 C5.47416667,5.65916667 4.88166667,5.86 4.125,5.86 Z M2.5475,6.53 C1.87083333,6.69666667 1.34333333,7.01166667 0.965,7.475 C0.588333333,7.94 0.4,8.50583333 0.4,9.1725 C0.4,10.1041667 0.731666667,10.8408333 1.395,11.3825 C2.06,11.9241667 2.97,12.195 4.125,12.195 C5.28666667,12.195 6.19833333,11.9241667 6.86,11.3825 C7.52166667,10.8408333 7.8525,10.1041667 7.8525,9.1725 C7.8525,8.50583333 7.66333333,7.94 7.285,7.475 C6.90833333,7.01166667 6.38416667,6.69666667 5.7125,6.53 C6.4725,6.35333333 7.06416667,6.00666667 7.4875,5.49 C7.9125,4.975 8.125,4.34583333 8.125,3.6025 C8.125,2.47083333 7.78,1.6025 7.09,0.9975 C6.4,0.394166667 5.41166667,0.0925 4.125,0.0925 C2.84,0.0925 1.85166667,0.394166667 1.16,0.9975 C0.47,1.6025 0.125,2.47083333 0.125,3.6025 C0.125,4.34583333 0.338333333,4.975 0.765,5.49 C1.19333333,6.00666667 1.7875,6.35333333 2.5475,6.53 Z M1.97,9.0225 C1.97,8.41916667 2.15833333,7.94833333 2.535,7.61 C2.91333333,7.27166667 3.44333333,7.1025 4.125,7.1025 C4.80333333,7.1025 5.33333333,7.27166667 5.715,7.61 C6.09833333,7.94833333 6.29,8.41916667 6.29,9.0225 C6.29,9.6275 6.09833333,10.0991667 5.715,10.4375 C5.33333333,10.7758333 4.80333333,10.945 4.125,10.945 C3.44333333,10.945 2.91333333,10.7758333 2.535,10.4375 C2.15833333,10.0991667 1.97,9.6275 1.97,9.0225 Z" id="DejaVuSans-38"></path>
                            </g>
                        </g>
                    </g>
                </g>
                <g id="xtick_9" transform="translate(246.000000, 0.000000)">
                    <g id="line2d_9" transform="translate(3.000000, 0.000000)" stroke="#000000" stroke-width="0.8">
                        <g id="m556baf7d2b-link" transform="translate(0.168595, 0.000000)">
                            <path d="M1,0 L1,3.5" id="m556baf7d2b"></path>
                        </g>
                    </g>
                    <g id="text_9" transform="translate(0.000000, 7.000000)" fill-rule="nonzero">
                        <g id="Group" transform="translate(4.118595, 6.317500) scale(-1, 1) rotate(-180.000000) translate(-4.118595, -6.317500) translate(0.038595, 0.157500)">
                            <g id="DejaVuSans-39-link">
                                <path d="M0.7975,0.5625 L0.7975,2 C1.19416667,1.81166667 1.595,1.66833333 2,1.57 C2.40666667,1.47166667 2.80583333,1.4225 3.1975,1.4225 C4.23916667,1.4225 5.03416667,1.7725 5.5825,2.4725 C6.1325,3.1725 6.44666667,4.23666667 6.525,5.665 C6.22333333,5.21666667 5.84,4.8725 5.375,4.6325 C4.91166667,4.3925 4.39916667,4.2725 3.8375,4.2725 C2.67083333,4.2725 1.7475,4.625 1.0675,5.33 C0.3875,6.03666667 0.0475,7.0025 0.0475,8.2275 C0.0475,9.42416667 0.401666667,10.3841667 1.11,11.1075 C1.81833333,11.8325 2.76083333,12.195 3.9375,12.195 C5.2875,12.195 6.3175,11.6775 7.0275,10.6425 C7.73916667,9.60916667 8.095,8.10833333 8.095,6.14 C8.095,4.30166667 7.65833333,2.83416667 6.785,1.7375 C5.91333333,0.640833333 4.74083333,0.0925 3.2675,0.0925 C2.87083333,0.0925 2.46916667,0.131666667 2.0625,0.21 C1.6575,0.288333333 1.23583333,0.405833333 0.7975,0.5625 Z M3.9375,5.5075 C4.64583333,5.5075 5.20666667,5.74916667 5.62,6.2325 C6.035,6.7175 6.2425,7.3825 6.2425,8.2275 C6.2425,9.06583333 6.035,9.72833333 5.62,10.215 C5.20666667,10.7016667 4.64583333,10.945 3.9375,10.945 C3.22916667,10.945 2.66833333,10.7016667 2.255,10.215 C1.84166667,9.72833333 1.635,9.06583333 1.635,8.2275 C1.635,7.3825 1.84166667,6.7175 2.255,6.2325 C2.66833333,5.74916667 3.22916667,5.5075 3.9375,5.5075 Z" id="DejaVuSans-39"></path>
                            </g>
                        </g>
                    </g>
                </g>
                <g id="xtick_10" transform="translate(272.000000, 0.000000)">
                    <g id="line2d_10" transform="translate(7.000000, 0.000000)" stroke="#000000" stroke-width="0.8">
                        <g id="m556baf7d2b-link" transform="translate(0.912397, 0.000000)">
                            <path d="M1,0 L1,3.5" id="m556baf7d2b"></path>
                        </g>
                    </g>
                    <g id="text_10" transform="translate(0.000000, 7.000000)">
                        <g id="Group" transform="translate(9.212397, 6.317500) scale(-1, 1) rotate(-180.000000) translate(-9.212397, -6.317500) translate(0.332397, 0.157500)">
                            <g id="DejaVuSans-31-link" transform="translate(0.000000, 0.320000)">
                                <polygon id="DejaVuSans-31" points="0.385 1.3275 2.9625 1.3275 2.9625 10.2275 0.1575 9.665 0.1575 11.1025 2.9475 11.665 4.525 11.665 4.525 1.3275 7.1025 1.3275 7.1025 0 0.385 0"></polygon>
                            </g>
                            <g id="DejaVuSans-30-link" transform="translate(9.539688, 0.000000)" fill-rule="nonzero">
                                <path d="M4.125,10.945 C3.31333333,10.945 2.7025,10.545 2.2925,9.745 C1.88416667,8.94666667 1.68,7.745 1.68,6.14 C1.68,4.54166667 1.88416667,3.3425 2.2925,2.5425 C2.7025,1.7425 3.31333333,1.3425 4.125,1.3425 C4.94333333,1.3425 5.55666667,1.7425 5.965,2.5425 C6.375,3.3425 6.58,4.54166667 6.58,6.14 C6.58,7.745 6.375,8.94666667 5.965,9.745 C5.55666667,10.545 4.94333333,10.945 4.125,10.945 Z M4.125,12.195 C5.43333333,12.195 6.4325,11.6775 7.1225,10.6425 C7.8125,9.60916667 8.1575,8.10833333 8.1575,6.14 C8.1575,4.17666667 7.8125,2.6775 7.1225,1.6425 C6.4325,0.609166667 5.43333333,0.0925 4.125,0.0925 C2.81833333,0.0925 1.82,0.609166667 1.13,1.6425 C0.44,2.6775 0.095,4.17666667 0.095,6.14 C0.095,8.10833333 0.44,9.60916667 1.13,10.6425 C1.82,11.6775 2.81833333,12.195 4.125,12.195 Z" id="DejaVuSans-30"></path>
                            </g>
                        </g>
                    </g>
                </g>
                <g id="xtick_11" transform="translate(303.000000, 0.000000)">
                    <g id="line2d_11" transform="translate(7.000000, 0.000000)" stroke="#000000" stroke-width="0.8">
                        <g id="m556baf7d2b-link" transform="translate(0.656198, 0.000000)">
                            <path d="M1,0 L1,3.5" id="m556baf7d2b"></path>
                        </g>
                    </g>
                    <g id="text_11" transform="translate(0.000000, 7.000000)">
                        <g id="Group" transform="translate(8.796198, 6.317500) scale(-1, 1) rotate(-180.000000) translate(-8.796198, -6.317500) translate(0.076198, 0.477500)">
                            <g id="DejaVuSans-31-link">
                                <polygon id="DejaVuSans-31" points="0.385 1.3275 2.9625 1.3275 2.9625 10.2275 0.1575 9.665 0.1575 11.1025 2.9475 11.665 4.525 11.665 4.525 1.3275 7.1025 1.3275 7.1025 0 0.385 0"></polygon>
                            </g>
                            <g id="DejaVuSans-31-link" transform="translate(10.179688, 0.000000)">
                                <polygon id="DejaVuSans-31" points="0.385 1.3275 2.9625 1.3275 2.9625 10.2275 0.1575 9.665 0.1575 11.1025 2.9475 11.665 4.525 11.665 4.525 1.3275 7.1025 1.3275 7.1025 0 0.385 0"></polygon>
                            </g>
                        </g>
                    </g>
                </g>
                <g id="text_12" transform="translate(136.000000, 27.000000)">
                    <g id="Group" transform="translate(21.228438, 10.481563) scale(-1, 1) rotate(-180.000000) translate(-21.228438, -10.481563) translate(0.658438, 0.141563)">
                        <g id="DejaVuSans-44-link" transform="translate(0.000000, 4.620000)" fill-rule="nonzero">
                            <path d="M2.3478125,14.2553125 L2.3478125,1.7840625 L4.970625,1.7840625 C7.184375,1.7840625 8.80458333,2.28479167 9.83125,3.28625 C10.8579167,4.29 11.37125,5.87354167 11.37125,8.036875 C11.37125,10.1841667 10.8579167,11.7573958 9.83125,12.7565625 C8.80458333,13.7557292 7.184375,14.2553125 4.970625,14.2553125 L2.3478125,14.2553125 Z M0.17875,16.039375 L4.6371875,16.039375 C7.7446875,16.039375 10.0248958,15.393125 11.4778125,14.100625 C12.9330208,12.808125 13.660625,10.786875 13.660625,8.036875 C13.660625,5.27083333 12.9295833,3.23927083 11.4675,1.9421875 C10.0077083,0.647395833 7.7309375,0 4.6371875,0 L0.17875,0 L0.17875,16.039375 Z" id="DejaVuSans-44"></path>
                        </g>
                        <g id="DejaVuSans-61-link" transform="translate(16.280430, 4.180000)" fill-rule="nonzero">
                            <path d="M6.221875,6.4865625 C4.62458333,6.4865625 3.51770833,6.304375 2.90125,5.94 C2.28479167,5.575625 1.9765625,4.95229167 1.9765625,4.07 C1.9765625,3.36875 2.20802083,2.811875 2.6709375,2.399375 C3.13385417,1.98916667 3.76177083,1.7840625 4.5546875,1.7840625 C5.65239583,1.7840625 6.53239583,2.1725 7.1946875,2.949375 C7.85697917,3.72625 8.188125,4.75864583 8.188125,6.0465625 L8.188125,6.4865625 L6.221875,6.4865625 Z M10.1646875,7.3046875 L10.1646875,0.44 L8.188125,0.44 L8.188125,2.2653125 C7.73666667,1.5365625 7.1740625,0.998020833 6.5003125,0.6496875 C5.8265625,0.301354167 5.00270833,0.1271875 4.02875,0.1271875 C2.798125,0.1271875 1.8184375,0.473229167 1.0896875,1.1653125 C0.363229167,1.85739583 0,2.78322917 0,3.9428125 C0,5.29489583 0.452604167,6.3146875 1.3578125,7.0021875 C2.2653125,7.6896875 3.61739583,8.0334375 5.4140625,8.0334375 L8.188125,8.0334375 L8.188125,8.229375 C8.188125,9.13916667 7.8890625,9.84270833 7.2909375,10.34 C6.6928125,10.8372917 5.85291667,11.0859375 4.77125,11.0859375 C4.08375,11.0859375 3.4134375,11.0034375 2.7603125,10.8384375 C2.10947917,10.6734375 1.48385417,10.4259375 0.8834375,10.0959375 L0.8834375,11.9246875 C1.6053125,12.2042708 2.3065625,12.4128125 2.9871875,12.5503125 C3.6678125,12.6901042 4.33010417,12.76 4.9740625,12.76 C6.71572917,12.76 8.01625,12.3085417 8.875625,11.405625 C9.735,10.505 10.1646875,9.13802083 10.1646875,7.3046875 Z" id="DejaVuSans-61"></path>
                        </g>
                        <g id="DejaVuSans-79-link" transform="translate(28.881875, 0.000000)">
                            <path d="M6.6378125,3.5028125 C6.0809375,2.07052083 5.53666667,1.13666667 5.005,0.70125 C4.475625,0.263541667 3.7675,0.0446875 2.880625,0.0446875 L1.299375,0.0446875 L1.299375,1.698125 L2.46125,1.698125 C3.004375,1.698125 3.42604167,1.82760417 3.72625,2.0865625 C4.02875,2.34322917 4.3621875,2.95166667 4.7265625,3.911875 L5.080625,4.8125 L0.2165625,16.65125 L2.31,16.65125 L6.070625,7.2428125 L9.83125,16.65125 L11.9246875,16.65125 L6.6378125,3.5028125 Z" id="DejaVuSans-79"></path>
                        </g>
                    </g>
                </g>
            </g>
            <g id="matplotlib.axis_2" transform="translate(0.000000, 83.000000)" fill="#000000">
                <g id="text_13">
                    <g id="Group" transform="translate(9.284688, 25.695625) scale(-1, 1) rotate(-90.000000) translate(-9.284688, -25.695625) translate(-16.345312, 17.115625)">
                        <g id="DejaVuSans-50-link" transform="translate(0.000000, 0.440000)" fill-rule="nonzero">
                            <path d="M2.3478125,14.2553125 L2.3478125,8.229375 L5.0771875,8.229375 C6.0878125,8.229375 6.868125,8.490625 7.418125,9.013125 C7.97041667,9.535625 8.2465625,10.2804167 8.2465625,11.2475 C8.2465625,12.2077083 7.97041667,12.9490625 7.418125,13.4715625 C6.868125,13.9940625 6.0878125,14.2553125 5.0771875,14.2553125 L2.3478125,14.2553125 Z M0.17875,16.039375 L5.0771875,16.039375 C6.87614583,16.039375 8.23510417,15.6326042 9.1540625,14.8190625 C10.0753125,14.0055208 10.5359375,12.815 10.5359375,11.2475 C10.5359375,9.66395833 10.0753125,8.46770833 9.1540625,7.65875 C8.23510417,6.84979167 6.87614583,6.4453125 5.0771875,6.4453125 L2.3478125,6.4453125 L2.3478125,0 L0.17875,0 L0.17875,16.039375 Z" id="DejaVuSans-50"></path>
                        </g>
                        <g id="DejaVuSans-72-link" transform="translate(13.263164, 0.440000)">
                            <path d="M7.0640625,10.1853125 C6.84177083,10.3136458 6.6,10.4076042 6.33875,10.4671875 C6.0775,10.5290625 5.78989583,10.56 5.4759375,10.56 C4.35760417,10.56 3.499375,10.1967708 2.90125,9.4703125 C2.303125,8.74385417 2.0040625,7.7 2.0040625,6.33875 L2.0040625,0 L0.0171875,0 L0.0171875,12.03125 L2.0040625,12.03125 L2.0040625,10.16125 C2.42114583,10.8922917 2.96197917,11.4342708 3.6265625,11.7871875 C4.2934375,12.1423958 5.10354167,12.32 6.056875,12.32 C6.19208333,12.32 6.3421875,12.3108333 6.5071875,12.2925 C6.6721875,12.2764583 6.854375,12.2501042 7.05375,12.2134375 L7.0640625,10.1853125 Z" id="DejaVuSans-72"></path>
                        </g>
                        <g id="DejaVuSans-69-link" transform="translate(22.308086, 0.440000)" fill-rule="nonzero">
                            <path d="M0.0928125,12.03125 L2.069375,12.03125 L2.069375,0 L0.0928125,0 L0.0928125,12.03125 Z M0.0928125,16.7165625 L2.069375,16.7165625 L2.069375,14.210625 L0.0928125,14.210625 L0.0928125,16.7165625 Z" id="DejaVuSans-69"></path>
                        </g>
                        <g id="DejaVuSans-63-link" transform="translate(27.540391, 0.000000)">
                            <path d="M9.631875,12.010625 L9.631875,10.16125 C9.07270833,10.470625 8.51239583,10.7020833 7.9509375,10.855625 C7.38947917,11.0091667 6.82229167,11.0859375 6.249375,11.0859375 C4.96604167,11.0859375 3.96916667,10.6791667 3.25875,9.865625 C2.550625,9.054375 2.1965625,7.91427083 2.1965625,6.4453125 C2.1965625,4.97635417 2.550625,3.83510417 3.25875,3.0215625 C3.96916667,2.2103125 4.96604167,1.8046875 6.249375,1.8046875 C6.82229167,1.8046875 7.38947917,1.88145833 7.9509375,2.035 C8.51239583,2.18854167 9.07270833,2.42 9.631875,2.729375 L9.631875,0.900625 C9.07958333,0.643958333 8.5078125,0.451458333 7.9165625,0.323125 C7.32760417,0.1925 6.6996875,0.1271875 6.0328125,0.1271875 C4.22010417,0.1271875 2.77979167,0.696666667 1.711875,1.835625 C0.64625,2.97458333 0.1134375,4.51114583 0.1134375,6.4453125 C0.1134375,8.40697917 0.651979167,9.94927083 1.7290625,11.0721875 C2.8084375,12.1973958 4.2865625,12.76 6.1634375,12.76 C6.77072917,12.76 7.36427083,12.6969792 7.9440625,12.5709375 C8.52385417,12.4471875 9.08645833,12.2604167 9.631875,12.010625 Z" id="DejaVuSans-63"></path>
                        </g>
                        <g id="DejaVuSans-65-link" transform="translate(39.636094, 0.000000)" fill-rule="nonzero">
                            <path d="M11.2646875,6.950625 L11.2646875,5.9846875 L2.1759375,5.9846875 C2.26302083,4.6234375 2.67322917,3.58645833 3.4065625,2.87375 C4.13989583,2.16104167 5.16197917,1.8046875 6.4728125,1.8046875 C7.23135417,1.8046875 7.96697917,1.8975 8.6796875,2.083125 C9.39239583,2.26875 10.1005208,2.54833333 10.8040625,2.921875 L10.8040625,1.051875 C10.0936458,0.751666667 9.36604167,0.5225 8.62125,0.364375 C7.87645833,0.20625 7.12135417,0.1271875 6.3559375,0.1271875 C4.43552083,0.1271875 2.915,0.685208333 1.794375,1.80125 C0.67375,2.91958333 0.1134375,4.43208333 0.1134375,6.33875 C0.1134375,8.30729167 0.645104167,9.8690625 1.7084375,11.0240625 C2.77177083,12.1813542 4.20635417,12.76 6.0121875,12.76 C7.63010417,12.76 8.91,12.2386458 9.851875,11.1959375 C10.79375,10.1555208 11.2646875,8.74041667 11.2646875,6.950625 Z M9.288125,7.5315625 C9.274375,8.6109375 8.971875,9.47260417 8.380625,10.1165625 C7.789375,10.7628125 7.00677083,11.0859375 6.0328125,11.0859375 C4.93052083,11.0859375 4.04822917,10.7742708 3.3859375,10.1509375 C2.72364583,9.52760417 2.34208333,8.64989583 2.24125,7.5178125 L9.288125,7.5315625 Z" id="DejaVuSans-65"></path>
                        </g>
                    </g>
                </g>
            </g>
            <g id="line2d_12" transform="translate(41.000000, 10.000000)" stroke="#1F77B4" stroke-linecap="square" stroke-width="5">
                <polyline id="Path" points="0.218182 198.116364 3.292562 198.116364 6.366942 198.116363 9.441322 198.116359 12.515702 198.116342 15.590083 198.116299 18.664463 198.116202 21.738843 198.116014 24.813223 198.115683 27.887603 198.115136 30.961983 198.114285 34.036364 198.113016 37.110744 198.111191 40.185124 198.108646 43.259504 198.105184 46.333884 198.100579 49.408264 198.094568 52.482645 198.08685 55.557025 198.077087 58.631405 198.064895 61.705785 198.049848 64.780165 198.031472 67.854545 198.00924 70.928926 197.982578 74.003306 197.950853 77.077686 197.913375 80.152066 197.869397 83.226446 197.818107 86.300826 197.758629 89.375207 197.690019 92.449587 197.611264 95.523967 197.521278 98.598347 197.418901 101.672727 197.302896 104.747107 197.171943 107.821488 197.024644 110.895868 196.859514 113.970248 196.674981 117.044628 196.469382 120.119008 196.240964 123.193388 195.987878 126.267769 195.708177 129.342149 195.399817 132.416529 195.060647 135.490909 194.688416 138.565289 194.280763 141.639669 193.835219 144.71405 193.3492 147.78843 192.82001 150.86281 192.244835 153.93719 191.620741 157.01157 190.944671 160.08595 190.213445 163.160331 189.423755 166.234711 188.572163 169.309091 187.655098 172.383471 186.668857 175.457851 185.609597 178.532231 184.473336 181.606612 183.255952 184.680992 181.953175 187.755372 180.560591 190.829752 179.073633 193.904132 177.487584 196.978512 175.797573 200.052893 173.998571 203.127273 172.085387 206.201653 170.052672 209.276033 167.89491 212.350413 165.606419 215.424793 163.181345 218.499174 160.613665 221.573554 157.897179 224.647934 155.025512 227.722314 151.992107 230.796694 148.790227 233.871074 145.41295 236.945455 141.853167 240.019835 138.103577 243.094215 134.15669 246.168595 130.004821 249.242975 125.640087 252.317355 121.054405 255.391736 116.239492 258.466116 111.186858 261.540496 105.887807 264.614876 100.333436 267.689256 94.514625 270.763636 88.422043 273.838017 82.046142 276.912397 75.377152 279.986777 68.405084 283.061157 61.119723 286.135537 53.510626 289.209917 45.567123 292.284298 37.27831 295.358678 28.63305 298.433058 19.619967 301.507438 10.227448 304.581818 0.443636"></polyline>
            </g>
            <g id="patch_3" transform="translate(25.000000, 0.000000)" stroke="#000000" stroke-linecap="square" stroke-width="0.8">
                <path d="M1,218 L1,0.56" id="Path"></path>
            </g>
            <g id="patch_4" transform="translate(360.000000, 0.000000)" stroke="#000000" stroke-linecap="square" stroke-width="0.8">
                <path d="M0.8,218 L0.8,0.56" id="Path"></path>
            </g>
            <g id="patch_5" transform="translate(26.000000, 217.000000)" stroke="#000000" stroke-linecap="square" stroke-width="0.8">
                <path d="M0,1 L334.8,1" id="Path"></path>
            </g>
            <g id="patch_6" transform="translate(26.000000, 0.000000)" stroke="#000000" stroke-linecap="square" stroke-width="0.8">
                <path d="M0,0.56 L334.8,0.56" id="Path"></path>
            </g>
        </g>
    </g>
</svg>