<?xml version="1.0" encoding="UTF-8"?>
<svg width="389px" height="45px" viewBox="0 0 389 45" version="1.1" xmlns="http://www.w3.org/2000/svg" xmlns:xlink="http://www.w3.org/1999/xlink">
    <!-- Generator: Sketch 50.2 (55047) - http://www.bohemiancoding.com/sketch -->
    <title>Group</title>
    <desc>Created with Sketch.</desc>
    <defs></defs>
    <g id="Page-1" stroke="none" stroke-width="1" fill="none" fill-rule="evenodd">
        <g id="Group">
            <path d="M1,1 L1,44 L44,44 L44,1 L1,1 Z" id="Rectangle" stroke="#000000" stroke-width="2" fill="#FFFFFF"></path>
            <text id="0" font-family="Helvetica" font-size="36" font-weight="normal" fill="#000000">
                <tspan x="12.4892578" y="35">0</tspan>
            </text>
            <path d="M44,1 L44,44 L87,44 L87,1 L44,1 Z" id="Rectangle" stroke="#000000" stroke-width="2" fill="#FFFFFF"></path>
            <text id="1" font-family="Helvetica" font-size="36" font-weight="normal" fill="#000000">
                <tspan x="55.4892578" y="35">1</tspan>
            </text>
            <path d="M87,1 L87,44 L130,44 L130,1 L87,1 Z" id="Rectangle" stroke="#000000" stroke-width="2" fill="#FFFFFF"></path>
            <text id="2" font-family="Helvetica" font-size="36" font-weight="normal" fill="#000000">
                <tspan x="98.4892578" y="35">2</tspan>
            </text>
            <path d="M130,1 L130,44 L173,44 L173,1 L130,1 Z" id="Rectangle" stroke="#000000" stroke-width="2" fill="#FFFFFF"></path>
            <text id="3" font-family="Helvetica" font-size="36" font-weight="normal" fill="#000000">
                <tspan x="141.489258" y="35">3</tspan>
            </text>
            <path d="M173,1 L173,44 L216,44 L216,1 L173,1 Z" id="Rectangle" stroke="#000000" stroke-width="2" fill="#FFFFFF"></path>
            <text id="4" font-family="Helvetica" font-size="36" font-weight="normal" fill="#000000">
                <tspan x="184.489258" y="35">4</tspan>
            </text>
            <path d="M216,1 L216,44 L259,44 L259,1 L216,1 Z" id="Rectangle" stroke="#000000" stroke-width="2" fill="#FFFFFF"></path>
            <text id="5" font-family="Helvetica" font-size="36" font-weight="normal" fill="#000000">
                <tspan x="227.489258" y="35">5</tspan>
            </text>
            <path d="M259,1 L259,44 L302,44 L302,1 L259,1 Z" id="Rectangle" stroke="#000000" stroke-width="2" fill="#FFFFFF"></path>
            <text id="6" font-family="Helvetica" font-size="36" font-weight="normal" fill="#000000">
                <tspan x="270.489258" y="35">6</tspan>
            </text>
            <path d="M302,1 L302,44 L345,44 L345,1 L302,1 Z" id="Rectangle" stroke="#000000" stroke-width="2" fill="#FFFFFF"></path>
            <text id="7" font-family="Helvetica" font-size="36" font-weight="normal" fill="#000000">
                <tspan x="313.489258" y="35">7</tspan>
            </text>
            <path d="M345,1 L345,44 L388,44 L388,1 L345,1 Z" id="Rectangle" stroke="#000000" stroke-width="2" fill="#FFFFFF"></path>
            <text id="8" font-family="Helvetica" font-size="36" font-weight="normal" fill="#000000">
                <tspan x="356.489258" y="35">8</tspan>
            </text>
        </g>
    </g>
</svg>