<?xml version="1.0" encoding="UTF-8"?>
<svg width="225px" height="214px" viewBox="0 0 225 214" version="1.1" xmlns="http://www.w3.org/2000/svg" xmlns:xlink="http://www.w3.org/1999/xlink">
    <!-- Generator: Sketch 50.2 (55047) - http://www.bohemiancoding.com/sketch -->
    <title>Shape</title>
    <desc>Created with Sketch.</desc>
    <defs></defs>
    <g id="Page-1" stroke="none" stroke-width="1" fill="none" fill-rule="evenodd">
        <path d="M187.744,114.241 C188.414,82.283 162.963,55.738 131.013,55.062 C99.057,54.387 72.507,79.835 71.831,111.789 C71.821,112.327 71.872,112.824 71.877,113.363 L71.872,113.363 C71.872,113.525 71.892,113.687 71.892,113.86 C71.913,115.495 71.981,117.14 72.143,118.745 C72.219,119.599 72.361,120.441 72.476,121.284 C72.61,122.228 72.725,123.163 72.908,124.077 C72.969,124.407 72.994,124.737 73.058,125.057 C73.083,125.057 73.109,125.057 73.141,125.057 C73.822,128.256 74.71,131.373 75.896,134.36 C75.86,134.36 75.817,134.36 75.782,134.36 C77.409,138.524 79.532,142.439 82.028,146.07 C82.111,146.07 82.188,146.07 82.277,146.07 C87.82,154.007 95.287,160.496 104.039,164.853 C103.816,164.853 103.587,164.853 103.364,164.853 C110.326,168.438 118.095,170.652 126.352,171.139 C126.363,171.037 126.352,170.906 126.352,170.799 C127.093,170.845 127.815,170.942 128.566,170.961 C135.523,171.099 142.185,169.961 148.421,167.828 L148.421,168.174 C153.438,166.468 158.16,164.112 162.456,161.155 L162.456,160.79 C177.353,150.604 187.327,133.644 187.744,114.241 Z M128.859,156.414 C108.42,155.987 91.584,141.403 87.402,122.26 C87.267,121.61 87.108,120.97 87.003,120.32 C86.889,119.62 86.81,118.909 86.727,118.208 C86.562,116.695 86.425,115.172 86.419,113.607 C86.414,113.099 86.363,112.612 86.374,112.094 C86.415,110.073 86.643,108.092 86.956,106.142 C86.976,106.142 86.994,106.142 87.014,106.142 C87.71,102.011 88.979,98.086 90.752,94.44 C90.696,94.44 90.632,94.44 90.577,94.44 C97.694,79.475 113.08,69.238 130.688,69.611 C137.036,69.746 143.017,71.277 148.4,73.844 L148.4,74.189 C153.793,76.766 158.556,80.422 162.446,84.874 L162.446,84.53 C169.306,92.398 173.409,102.699 173.175,113.931 C172.671,137.864 152.787,156.926 128.859,156.414 Z M224.33,201.115 L211.244,213.658 L167.665,168.195 L180.746,155.652 L224.33,201.115 Z M66.354,57.162 C56.267,57.162 46.179,57.162 36.087,57.162 C28.813,57.162 28.813,45.457 36.087,45.457 C46.179,45.457 56.267,45.457 66.354,45.457 C73.633,45.457 73.633,57.162 66.354,57.162 Z M36.087,76.085 C28.813,76.085 28.813,64.38 36.087,64.38 C46.179,64.38 56.267,64.38 66.354,64.38 C73.628,64.38 73.628,76.085 66.354,76.085 C56.267,76.085 46.184,76.085 36.087,76.085 Z M162.455,93.629 L162.455,133.003 C159.013,138.671 154.168,143.373 148.415,146.633 L148.415,80.025 C154.198,83.27 159.027,87.983 162.455,93.629 Z M148.415,173.678 C153.386,172.124 158.078,169.906 162.455,167.23 L162.455,211.631 L0,211.631 L0,0.672 L132.271,0.672 L162.455,29.942 L162.455,59.374 C158.037,56.69 153.335,54.547 148.415,53.029 L148.415,37.007 L125.035,37.007 L125.035,14.715 L14.043,14.715 L14.043,197.585 L148.414,197.585 L148.414,173.678 L148.415,173.678 Z M120.958,146.07 C119.069,146.07 115.21,146.07 110.117,146.07 C105.219,143.12 101.033,139.113 97.892,134.36 C108.852,134.36 117.749,134.36 120.963,134.36 C128.229,134.365 128.229,146.07 120.958,146.07 Z M34.505,134.365 C38.89,134.365 53.88,134.365 70.254,134.365 C71.689,138.448 73.534,142.368 75.802,146.075 C57.374,146.075 39.383,146.075 34.505,146.075 C27.236,146.07 27.236,134.365 34.505,134.365 Z M120.958,125.067 C117.332,125.067 106.399,125.067 93.44,125.067 C92.244,121.371 91.594,117.44 91.594,113.357 C105.353,113.357 117.149,113.357 120.952,113.357 C128.229,113.357 128.229,125.067 120.958,125.067 Z M34.505,113.357 C38.567,113.357 51.727,113.357 66.661,113.357 C66.656,117.323 66.999,121.244 67.717,125.067 C52.351,125.067 38.658,125.067 34.505,125.067 C27.236,125.067 27.236,113.357 34.505,113.357 Z M120.958,106.152 C117.211,106.152 105.75,106.152 92.298,106.152 C93.108,101.97 94.591,98.024 96.655,94.444 C108.177,94.444 117.627,94.444 120.958,94.444 C128.229,94.444 128.229,106.152 120.958,106.152 Z M34.505,94.444 C38.827,94.444 53.469,94.444 69.579,94.444 C68.378,98.214 67.515,102.124 67.048,106.152 C51.951,106.152 38.604,106.152 34.506,106.152 C27.236,106.152 27.236,94.444 34.505,94.444 Z M90.69,176.573 C83.416,176.573 83.416,164.874 90.69,164.874 C91.548,164.874 92.406,164.874 93.264,164.874 C102.034,171.13 112.215,174.989 123.018,176.137 C122.414,176.381 121.739,176.574 120.961,176.574 C110.865,176.573 100.783,176.573 90.69,176.573 Z" id="Shape" fill="#FFFFFF" fill-rule="nonzero"></path>
    </g>
</svg>