<?xml version="1.0" encoding="UTF-8"?>
<svg width="432px" height="241px" viewBox="0 0 432 241" version="1.1" xmlns="http://www.w3.org/2000/svg" xmlns:xlink="http://www.w3.org/1999/xlink">
    <!-- Generator: Sketch 50.2 (55047) - http://www.bohemiancoding.com/sketch -->
    <title>Group 42</title>
    <desc>Created with Sketch.</desc>
    <defs></defs>
    <g id="Page-1" stroke="none" stroke-width="1" fill="none" fill-rule="evenodd">
        <g id="Group-42">
            <path d="M1,1 L1,44 L44,44 L44,1 L1,1 Z" id="Rectangle" stroke="#000000" stroke-width="2" fill="#FFFFFF"></path>
            <text id="0" font-family="Helvetica" font-size="36" font-weight="normal" fill="#000000">
                <tspan x="12.4892578" y="35">0</tspan>
            </text>
            <path d="M44,1 L44,44 L87,44 L87,1 L44,1 Z" id="Rectangle" stroke="#000000" stroke-width="2" fill="#FFFFFF"></path>
            <text id="1" font-family="Helvetica" font-size="36" font-weight="normal" fill="#000000">
                <tspan x="55.4892578" y="35">1</tspan>
            </text>
            <path d="M87,1 L87,44 L130,44 L130,1 L87,1 Z" id="Rectangle" stroke="#000000" stroke-width="2" fill="#FFFFFF"></path>
            <text id="2" font-family="Helvetica" font-size="36" font-weight="normal" fill="#000000">
                <tspan x="98.4892578" y="35">2</tspan>
            </text>
            <path d="M130,1 L130,44 L173,44 L173,1 L130,1 Z" id="Rectangle" stroke="#000000" stroke-width="2" fill="#FFFFFF"></path>
            <text id="3" font-family="Helvetica" font-size="36" font-weight="normal" fill="#000000">
                <tspan x="141.489258" y="35">3</tspan>
            </text>
            <path d="M173,1 L173,44 L216,44 L216,1 L173,1 Z" id="Rectangle" stroke="#000000" stroke-width="2" fill="#FFFFFF"></path>
            <text id="4" font-family="Helvetica" font-size="36" font-weight="normal" fill="#000000">
                <tspan x="184.489258" y="35">4</tspan>
            </text>
            <path d="M216,1 L216,44 L259,44 L259,1 L216,1 Z" id="Rectangle" stroke="#000000" stroke-width="2" fill="#FFFFFF"></path>
            <text id="5" font-family="Helvetica" font-size="36" font-weight="normal" fill="#000000">
                <tspan x="227.489258" y="35">5</tspan>
            </text>
            <path d="M259,1 L259,44 L302,44 L302,1 L259,1 Z" id="Rectangle" stroke="#000000" stroke-width="2" fill="#FFFFFF"></path>
            <text id="6" font-family="Helvetica" font-size="36" font-weight="normal" fill="#000000">
                <tspan x="270.489258" y="35">6</tspan>
            </text>
            <path d="M302,1 L302,44 L345,44 L345,1 L302,1 Z" id="Rectangle" stroke="#000000" stroke-width="2" fill="#FFFFFF"></path>
            <text id="7" font-family="Helvetica" font-size="36" font-weight="normal" fill="#000000">
                <tspan x="313.489258" y="35">7</tspan>
            </text>
            <path d="M345,1 L345,44 L388,44 L388,1 L345,1 Z" id="Rectangle" stroke="#000000" stroke-width="2" fill="#FFFFFF"></path>
            <text id="8" font-family="Helvetica" font-size="36" font-weight="normal" fill="#000000">
                <tspan x="356.489258" y="35">8</tspan>
            </text>
            <path d="M388,1 L388,44 L431,44 L431,1 L388,1 Z" id="Rectangle" stroke="#000000" stroke-width="2" fill="#FFFFFF"></path>
            <text id="9" font-family="Helvetica" font-size="36" font-weight="normal" fill="#000000">
                <tspan x="399.489258" y="35">9</tspan>
            </text>
            <path d="M1,197 L1,240 L44,240 L44,197 L1,197 Z" id="Rectangle" stroke="#000000" stroke-width="2" fill="#FFFFFF"></path>
            <text id="1" font-family="Helvetica" font-size="36" font-weight="normal" fill="#000000">
                <tspan x="12.4892578" y="231">1</tspan>
            </text>
            <path d="M44,197 L44,240 L87,240 L87,197 L44,197 Z" id="Rectangle" stroke="#000000" stroke-width="2" fill="#FFFFFF"></path>
            <text id="2" font-family="Helvetica" font-size="36" font-weight="normal" fill="#000000">
                <tspan x="55.4892578" y="231">2</tspan>
            </text>
            <path d="M87,197 L87,240 L130,240 L130,197 L87,197 Z" id="Rectangle" stroke="#000000" stroke-width="2" fill="#FFFFFF"></path>
            <text id="3" font-family="Helvetica" font-size="36" font-weight="normal" fill="#000000">
                <tspan x="98.4892578" y="231">3</tspan>
            </text>
            <path d="M130,197 L130,240 L173,240 L173,197 L130,197 Z" id="Rectangle" stroke="#000000" stroke-width="2" fill="#FFFFFF"></path>
            <text id="4" font-family="Helvetica" font-size="36" font-weight="normal" fill="#000000">
                <tspan x="141.489258" y="231">4</tspan>
            </text>
            <path d="M173,197 L173,240 L216,240 L216,197 L173,197 Z" id="Rectangle" stroke="#000000" stroke-width="2" fill="#FFFFFF"></path>
            <text id="5" font-family="Helvetica" font-size="36" font-weight="normal" fill="#000000">
                <tspan x="184.489258" y="231">5</tspan>
            </text>
            <path d="M216,197 L216,240 L259,240 L259,197 L216,197 Z" id="Rectangle" stroke="#000000" stroke-width="2" fill="#FFFFFF"></path>
            <text id="6" font-family="Helvetica" font-size="36" font-weight="normal" fill="#000000">
                <tspan x="227.489258" y="231">6</tspan>
            </text>
            <path d="M259,197 L259,240 L302,240 L302,197 L259,197 Z" id="Rectangle" stroke="#000000" stroke-width="2" fill="#FFFFFF"></path>
            <text id="7" font-family="Helvetica" font-size="36" font-weight="normal" fill="#000000">
                <tspan x="270.489258" y="231">7</tspan>
            </text>
            <path d="M302,197 L302,240 L345,240 L345,197 L302,197 Z" id="Rectangle" stroke="#000000" stroke-width="2" fill="#FFFFFF"></path>
            <text id="8" font-family="Helvetica" font-size="36" font-weight="normal" fill="#000000">
                <tspan x="313.489258" y="231">8</tspan>
            </text>
            <path d="M345,197 L345,240 L388,240 L388,197 L345,197 Z" id="Rectangle" stroke="#000000" stroke-width="2" fill="#FFFFFF"></path>
            <text id="9" font-family="Helvetica" font-size="36" font-weight="normal" fill="#000000">
                <tspan x="356.489258" y="231">9</tspan>
            </text>
            <path d="M388,197 L388,240 L431,240 L431,197 L388,197 Z" id="Rectangle" stroke="#000000" stroke-width="2" fill="#FFFFFF"></path>
            <text id="10" font-family="Helvetica" font-size="36" font-weight="normal" fill="#000000">
                <tspan x="389.478516" y="231">10</tspan>
            </text>
            <path d="M1,101 L1,144 L44,144 L44,101 L1,101 Z" id="Rectangle" stroke="#000000" stroke-width="2" fill="#FFFFFF"></path>
            <text id="1" font-family="Helvetica" font-size="36" font-weight="normal" fill="#000000">
                <tspan x="12.4892578" y="135">1</tspan>
            </text>
            <path d="M44,101 L44,144 L87,144 L87,101 L44,101 Z" id="Rectangle" stroke="#000000" stroke-width="2" fill="#FFFFFF"></path>
            <text id="1" font-family="Helvetica" font-size="36" font-weight="normal" fill="#000000">
                <tspan x="55.4892578" y="135">1</tspan>
            </text>
            <path d="M87,101 L87,144 L130,144 L130,101 L87,101 Z" id="Rectangle" stroke="#000000" stroke-width="2" fill="#FFFFFF"></path>
            <text id="1" font-family="Helvetica" font-size="36" font-weight="normal" fill="#000000">
                <tspan x="98.4892578" y="135">1</tspan>
            </text>
            <path d="M130,101 L130,144 L173,144 L173,101 L130,101 Z" id="Rectangle" stroke="#000000" stroke-width="2" fill="#FFFFFF"></path>
            <text id="1" font-family="Helvetica" font-size="36" font-weight="normal" fill="#000000">
                <tspan x="141.489258" y="135">1</tspan>
            </text>
            <path d="M173,101 L173,144 L216,144 L216,101 L173,101 Z" id="Rectangle" stroke="#000000" stroke-width="2" fill="#FFFFFF"></path>
            <text id="1" font-family="Helvetica" font-size="36" font-weight="normal" fill="#000000">
                <tspan x="184.489258" y="135">1</tspan>
            </text>
            <path d="M216,101 L216,144 L259,144 L259,101 L216,101 Z" id="Rectangle" stroke="#000000" stroke-width="2" fill="#FFFFFF"></path>
            <text id="1" font-family="Helvetica" font-size="36" font-weight="normal" fill="#000000">
                <tspan x="227.489258" y="135">1</tspan>
            </text>
            <path d="M259,101 L259,144 L302,144 L302,101 L259,101 Z" id="Rectangle" stroke="#000000" stroke-width="2" fill="#FFFFFF"></path>
            <text id="1" font-family="Helvetica" font-size="36" font-weight="normal" fill="#000000">
                <tspan x="270.489258" y="135">1</tspan>
            </text>
            <path d="M302,101 L302,144 L345,144 L345,101 L302,101 Z" id="Rectangle" stroke="#000000" stroke-width="2" fill="#FFFFFF"></path>
            <text id="1" font-family="Helvetica" font-size="36" font-weight="normal" fill="#000000">
                <tspan x="313.489258" y="135">1</tspan>
            </text>
            <path d="M345,101 L345,144 L388,144 L388,101 L345,101 Z" id="Rectangle" stroke="#000000" stroke-width="2" fill="#FFFFFF"></path>
            <text id="1" font-family="Helvetica" font-size="36" font-weight="normal" fill="#000000">
                <tspan x="356.489258" y="135">1</tspan>
            </text>
            <path d="M388,101 L388,144 L431,144 L431,101 L388,101 Z" id="Rectangle" stroke="#000000" stroke-width="2" fill="#FFFFFF"></path>
            <text id="1" font-family="Helvetica" font-size="36" font-weight="normal" fill="#000000">
                <tspan x="399.489258" y="135">1</tspan>
            </text>
            <text id="+" font-family="Helvetica-Bold, Helvetica" font-size="36" font-weight="bold" fill="#000000">
                <tspan x="11.4882812" y="83">+</tspan>
            </text>
            <text id="+" font-family="Helvetica-Bold, Helvetica" font-size="36" font-weight="bold" fill="#000000">
                <tspan x="55.4882812" y="83">+</tspan>
            </text>
            <text id="+" font-family="Helvetica-Bold, Helvetica" font-size="36" font-weight="bold" fill="#000000">
                <tspan x="96.4882812" y="83">+</tspan>
            </text>
            <text id="+" font-family="Helvetica-Bold, Helvetica" font-size="36" font-weight="bold" fill="#000000">
                <tspan x="140.488281" y="83">+</tspan>
            </text>
            <text id="+" font-family="Helvetica-Bold, Helvetica" font-size="36" font-weight="bold" fill="#000000">
                <tspan x="185.488281" y="83">+</tspan>
            </text>
            <text id="+" font-family="Helvetica-Bold, Helvetica" font-size="36" font-weight="bold" fill="#000000">
                <tspan x="229.488281" y="83">+</tspan>
            </text>
            <text id="+" font-family="Helvetica-Bold, Helvetica" font-size="36" font-weight="bold" fill="#000000">
                <tspan x="270.488281" y="83">+</tspan>
            </text>
            <text id="+" font-family="Helvetica-Bold, Helvetica" font-size="36" font-weight="bold" fill="#000000">
                <tspan x="314.488281" y="83">+</tspan>
            </text>
            <text id="+" font-family="Helvetica-Bold, Helvetica" font-size="36" font-weight="bold" fill="#000000">
                <tspan x="355.488281" y="83">+</tspan>
            </text>
            <text id="+" font-family="Helvetica-Bold, Helvetica" font-size="36" font-weight="bold" fill="#000000">
                <tspan x="399.488281" y="83">+</tspan>
            </text>
            <text id="=" font-family="Helvetica-Bold, Helvetica" font-size="36" font-weight="bold" fill="#000000">
                <tspan x="11.4882812" y="180">=</tspan>
            </text>
            <text id="=" font-family="Helvetica-Bold, Helvetica" font-size="36" font-weight="bold" fill="#000000">
                <tspan x="55.4882812" y="180">=</tspan>
            </text>
            <text id="=" font-family="Helvetica-Bold, Helvetica" font-size="36" font-weight="bold" fill="#000000">
                <tspan x="96.4882812" y="180">=</tspan>
            </text>
            <text id="=" font-family="Helvetica-Bold, Helvetica" font-size="36" font-weight="bold" fill="#000000">
                <tspan x="140.488281" y="180">=</tspan>
            </text>
            <text id="=" font-family="Helvetica-Bold, Helvetica" font-size="36" font-weight="bold" fill="#000000">
                <tspan x="185.488281" y="180">=</tspan>
            </text>
            <text id="=" font-family="Helvetica-Bold, Helvetica" font-size="36" font-weight="bold" fill="#000000">
                <tspan x="229.488281" y="180">=</tspan>
            </text>
            <text id="=" font-family="Helvetica-Bold, Helvetica" font-size="36" font-weight="bold" fill="#000000">
                <tspan x="270.488281" y="180">=</tspan>
            </text>
            <text id="=" font-family="Helvetica-Bold, Helvetica" font-size="36" font-weight="bold" fill="#000000">
                <tspan x="314.488281" y="180">=</tspan>
            </text>
            <text id="=" font-family="Helvetica-Bold, Helvetica" font-size="36" font-weight="bold" fill="#000000">
                <tspan x="355.488281" y="180">=</tspan>
            </text>
            <text id="=" font-family="Helvetica-Bold, Helvetica" font-size="36" font-weight="bold" fill="#000000">
                <tspan x="399.488281" y="180">=</tspan>
            </text>
        </g>
    </g>
</svg>