<?xml version="1.0" encoding="UTF-8"?>
<svg width="278px" height="150px" viewBox="0 0 278 150" version="1.1" xmlns="http://www.w3.org/2000/svg" xmlns:xlink="http://www.w3.org/1999/xlink">
    <!-- Generator: Sketch 50.2 (55047) - http://www.bohemiancoding.com/sketch -->
    <title>Group</title>
    <desc>Created with Sketch.</desc>
    <defs></defs>
    <g id="Page-1" stroke="none" stroke-width="1" fill="none" fill-rule="evenodd">
        <g id="Group">
            <path d="M212.71139,127.08783 C246.58039,93.22083 252.20939,43.94183 225.28339,17.01783 C198.36139,-9.90317 149.08439,-4.27517 115.21739,29.58983 C81.35039,63.45583 91.14739,128.15783 102.64739,139.65983 C111.94039,148.95283 178.84639,160.95283 212.71139,127.08783 Z" id="path5" fill="#F89939" fill-rule="nonzero"></path>
            <path d="M73.74139,78.15083 C54.09339,58.50283 25.49939,55.23183 9.87439,70.85583 C-5.74661,86.47783 -2.48061,115.07583 17.17139,134.72083 C36.82339,154.37483 74.36639,148.68983 81.03439,142.01583 C86.43039,136.62883 93.39539,97.80083 73.74139,78.15083 Z" id="path7" fill="#3499CD" fill-rule="nonzero"></path>
            <path d="M141.53439,118.78683 C138.06339,121.98183 135.01839,124.33983 132.40139,125.85483 C129.78439,127.37483 127.28839,128.13383 124.91339,128.13383 C122.18139,128.13383 119.97739,127.07483 118.30639,124.95583 C116.63239,122.83483 115.79839,119.99083 115.79839,116.41283 C115.79839,111.05183 116.96039,104.61583 119.28439,97.11183 C121.60439,89.60183 124.42939,82.68183 127.74739,76.35083 L137.47639,72.74883 C137.78139,72.64683 138.01339,72.59483 138.16739,72.59483 C138.90539,72.59483 139.51539,73.13883 139.98339,74.22183 C140.45639,75.30983 140.69439,76.77183 140.69439,78.60983 C140.69439,83.81883 139.49539,88.86183 137.09239,93.73883 C134.69039,98.61783 130.93839,103.82483 125.83239,109.36583 C125.62739,112.02183 125.52539,113.84583 125.52539,114.84283 C125.52539,117.06583 125.93339,118.82483 126.75039,120.12783 C127.56839,121.43283 128.65239,122.08083 130.00639,122.08083 C131.38739,122.08083 132.85439,121.58683 134.41239,120.59083 C135.96739,119.59283 138.34239,117.52683 141.53339,114.38383 L141.53339,118.78683 L141.53439,118.78683 Z M126.86639,103.81383 C130.10839,100.20883 132.74139,96.16583 134.75739,91.69283 C136.77339,87.21783 137.78039,83.36883 137.78039,80.14383 C137.78039,79.20383 137.64139,78.43983 137.36239,77.86583 C137.08139,77.29083 136.72139,77.00183 136.28839,77.00183 C135.34739,77.00183 133.97239,79.35383 132.17139,84.05883 C130.37039,88.76283 128.60239,95.34883 126.86639,103.81383 Z" id="path13" fill="#FFFFFF" fill-rule="nonzero"></path>
            <path d="M170.18639,118.78683 C166.94439,121.98183 164.03439,124.33983 161.45439,125.85483 C158.87439,127.37483 156.03039,128.13383 152.91339,128.13383 C149.44039,128.13383 146.63839,127.02283 144.50339,124.80383 C142.37239,122.57883 141.30839,119.65783 141.30839,116.03083 C141.30839,110.61883 143.18339,105.72183 146.94139,101.34283 C150.69139,96.96183 154.85539,94.77283 159.42539,94.77283 C161.80039,94.77283 163.70039,95.38783 165.13239,96.61283 C166.56239,97.83983 167.27739,99.44683 167.27739,101.43883 C167.27739,106.72583 161.66039,111.01283 150.42539,114.30783 C151.44539,119.28483 154.11339,121.77683 158.42939,121.77683 C160.11539,121.77683 161.72239,121.32383 163.25339,120.41983 C164.78839,119.51183 167.09739,117.49783 170.18739,114.38483 L170.18739,118.78683 L170.18639,118.78683 Z M150.11639,111.70283 C156.65139,109.86283 159.92139,106.46883 159.92139,101.51483 C159.92139,99.06383 159.02639,97.83883 157.24139,97.83883 C155.55539,97.83883 153.94839,99.11983 152.41739,101.68883 C150.88139,104.25383 150.11639,107.58983 150.11639,111.70283 Z" id="path15" fill="#FFFFFF" fill-rule="nonzero"></path>
            <path d="M211.09239,118.78683 C207.00639,122.66783 204.08239,125.19883 202.32239,126.37483 C200.56039,127.54883 198.87539,128.13483 197.26539,128.13483 C193.23039,128.13483 191.32939,124.57383 191.55839,117.44883 C189.00539,121.09883 186.64839,123.79283 184.49039,125.53283 C182.33439,127.26883 180.10739,128.13483 177.80639,128.13483 C175.56239,128.13483 173.65439,127.08383 172.08139,124.97683 C170.50839,122.86983 169.72739,120.28583 169.72739,117.21883 C169.72739,113.39083 170.77839,109.73883 172.88339,106.26383 C174.99239,102.79083 177.69239,99.98483 180.98539,97.83983 C184.27839,95.69483 187.19239,94.62083 189.71739,94.62083 C192.91039,94.62083 195.14539,96.08983 196.42239,99.02483 L204.25039,94.69883 L206.39839,94.69883 L203.01739,105.91983 C201.28139,111.56483 200.41039,115.43383 200.41039,117.52683 C200.41039,119.72183 201.18739,120.81983 202.74639,120.81983 C203.73839,120.81983 204.83639,120.29083 206.03739,119.22983 C207.23839,118.16883 208.92039,116.55383 211.09039,114.38383 L211.09039,118.78683 L211.09239,118.78683 Z M183.05539,120.89583 C185.60839,120.89583 188.01439,118.71983 190.27839,114.36683 C192.53839,110.01183 193.66739,105.99383 193.66739,102.31783 C193.66739,100.88983 193.34539,99.77083 192.71039,98.96783 C192.06939,98.16083 191.21439,97.76083 190.14439,97.76083 C187.58939,97.76083 185.16739,99.93083 182.88639,104.27283 C180.60139,108.61483 179.45639,112.61083 179.45639,116.25883 C179.45639,117.63983 179.79639,118.75683 180.47239,119.61283 C181.14839,120.46883 182.00639,120.89583 183.05539,120.89583 Z" id="path17" fill="#FFFFFF" fill-rule="nonzero"></path>
            <path d="M239.70539,118.78683 C233.29539,125.06783 228.35339,128.21083 224.88139,128.21083 C223.32239,128.21083 222.00639,127.55283 220.93639,126.24183 C219.86639,124.92583 219.32739,123.29683 219.32739,121.35483 C219.32739,117.75483 221.25739,112.93083 225.11239,106.87783 C223.22139,107.84883 221.15539,108.52283 218.90739,108.90683 C217.24739,111.97083 214.64139,115.26583 211.09339,118.78583 L210.21439,118.78583 L210.21439,115.34283 C212.20439,113.27483 214.00539,111.05183 215.61439,108.67683 C213.41539,107.70583 212.31939,106.26283 212.31939,104.35083 C212.31939,102.38183 212.98739,100.28283 214.33139,98.04583 C215.67139,95.81383 217.51539,94.69783 219.86639,94.69783 C221.85839,94.69783 222.85239,95.71583 222.85239,97.75983 C222.85239,99.36883 222.27839,101.66583 221.12739,104.65483 C225.36539,104.19383 229.06839,100.95383 232.23639,94.92583 L235.72039,94.77183 L232.15839,104.57683 C230.67839,108.71383 229.72039,111.53183 229.28739,113.02383 C228.85439,114.51583 228.63539,115.83983 228.63539,116.98683 C228.63539,118.06083 228.88539,118.91883 229.38139,119.55283 C229.87939,120.19583 230.55139,120.51183 231.39339,120.51183 C232.31139,120.51183 233.19439,120.19783 234.03639,119.57583 C234.87839,118.94483 236.76839,117.21683 239.70639,114.38283 L239.70639,118.78683 L239.70539,118.78683 Z" id="path19" fill="#FFFFFF" fill-rule="nonzero"></path>
            <path d="M277.31939,118.78683 C271.42139,125.02083 266.36239,128.13483 262.15139,128.13483 C260.44039,128.13483 259.06139,127.53483 258.01439,126.33383 C256.96539,125.13483 256.44239,123.52683 256.44239,121.50983 C256.44239,118.77783 257.56739,114.60183 259.81539,108.98683 C261.01439,105.97283 261.61639,104.05483 261.61639,103.24083 C261.61639,102.42283 261.29439,102.01383 260.65939,102.01383 C260.30239,102.01383 259.82739,102.19383 259.24139,102.54883 C258.70239,102.90583 258.07739,103.40783 257.36239,104.04483 C256.72539,104.63083 256.00839,105.34583 255.21739,106.18583 C254.52639,106.90683 253.78539,107.72283 252.99839,108.63883 L250.85039,111.13083 C249.90739,112.27883 249.31939,113.48983 249.09039,114.76783 C248.70539,116.93783 248.45139,118.93183 248.32239,120.74683 C248.24439,122.09683 248.20739,123.92083 248.20739,126.22383 L239.74239,128.21183 C239.46339,124.76483 239.32039,122.19783 239.32039,120.51483 C239.32039,116.40383 239.79939,112.50883 240.75839,108.83283 C241.71539,105.15283 243.25239,101.01883 245.37339,96.42083 L254.71739,94.62183 C252.75239,99.90883 251.46339,104.06883 250.85039,107.10583 C255.03839,102.43383 258.35839,99.19983 260.81939,97.39683 C263.27639,95.59583 265.46439,94.69983 267.37639,94.69983 C268.67539,94.69983 269.76139,95.18983 270.62639,96.17083 C271.49539,97.15283 271.92739,98.38583 271.92739,99.85983 C271.92739,102.30883 270.82939,106.34383 268.63639,111.96383 C267.12839,115.81783 266.37439,118.31883 266.37439,119.47383 C266.37439,121.01083 267.00139,121.77883 268.25539,121.77883 C270.12239,121.77883 273.14639,119.31383 277.31939,114.38583 L277.31939,118.78683 Z" id="path21" fill="#FFFFFF" fill-rule="nonzero"></path>
            <text id="text25" fill="#FFFFFF" font-family="Helvetica" font-size="23.0795002" font-weight="normal">
                <tspan x="153.33279" y="81.945923">scikit</tspan>
            </text>
        </g>
    </g>
</svg>