<?xml version="1.0" encoding="UTF-8" standalone="no"?>
<svg width="668px" height="365px" viewBox="0 0 668 365" version="1.1" xmlns="http://www.w3.org/2000/svg" xmlns:xlink="http://www.w3.org/1999/xlink">
    <!-- Generator: Sketch 50.2 (55047) - http://www.bohemiancoding.com/sketch -->
    <title>Group 82</title>
    <desc>Created with Sketch.</desc>
    <defs></defs>
    <g id="Page-1" stroke="none" stroke-width="1" fill="none" fill-rule="evenodd">
        <g id="Group-82" transform="translate(-2.000000, -5.000000)">
            <g id="Group-68" transform="translate(258.000000, 239.000000)">
                <path d="M1,44 L1,87 L44,87 L44,44 L1,44 Z" id="Rectangle" stroke="#000000" stroke-width="2" fill="#FFFFFF"></path>
                <text id="3" font-family="Helvetica" font-size="25" font-weight="normal" fill="#000000">
                    <tspan x="16.0480957" y="75">3</tspan>
                </text>
                <path d="M1,87 L1,130 L44,130 L44,87 L1,87 Z" id="Rectangle" stroke="#000000" stroke-width="2" fill="#FFFFFF"></path>
                <text id="4" font-family="Helvetica" font-size="25" font-weight="normal" fill="#000000">
                    <tspan x="16.0480957" y="118">4</tspan>
                </text>
                <g id="Group-62">
                    <path d="M1,1 L1,44 L44,44 L44,1 L1,1 Z" id="Rectangle" stroke="#000000" stroke-width="2" fill="#FFFFFF"></path>
                    <text id="0" font-family="Helvetica" font-size="25" font-weight="normal" fill="#000000">
                        <tspan x="16.0480957" y="32">0</tspan>
                    </text>
                </g>
                <path d="M44,44 L44,87 L87,87 L87,44 L44,44 Z" id="Rectangle" stroke="#000000" stroke-width="2" fill="#FFFFFF"></path>
                <text id="4" font-family="Helvetica" font-size="25" font-weight="normal" fill="#000000">
                    <tspan x="59.0480957" y="75">4</tspan>
                </text>
                <path d="M44,87 L44,130 L87,130 L87,87 L44,87 Z" id="Rectangle" stroke="#000000" stroke-width="2" fill="#FFFFFF"></path>
                <text id="6" font-family="Helvetica" font-size="25" font-weight="normal" fill="#000000">
                    <tspan x="59.0480957" y="118">6</tspan>
                </text>
                <g id="Group-62" transform="translate(43.000000, 0.000000)">
                    <path d="M1,1 L1,44 L44,44 L44,1 L1,1 Z" id="Rectangle" stroke="#000000" stroke-width="2" fill="#FFFFFF"></path>
                    <text id="3" font-family="Helvetica" font-size="25" font-weight="normal" fill="#000000">
                        <tspan x="16.0480957" y="32">3</tspan>
                    </text>
                </g>
            </g>
            <g id="Group-63" transform="translate(61.000000, 0.000000)">
                <g id="Group-67">
                    <path d="M88,48 L88,91 L131,91 L131,48 L88,48 Z" id="Rectangle" stroke="#000000" stroke-width="2" fill="#FFFFFF"></path>
                    <text id="3" font-family="Helvetica" font-size="25" font-weight="normal" fill="#000000">
                        <tspan x="103.048096" y="79">3</tspan>
                    </text>
                    <path d="M131,48 L131,91 L174,91 L174,48 L131,48 Z" id="Rectangle" stroke="#000000" stroke-width="2" fill="#FFFFFF"></path>
                    <text id="4" font-family="Helvetica" font-size="25" font-weight="normal" fill="#000000">
                        <tspan x="146.048096" y="79">4</tspan>
                    </text>
                    <path d="M45,48 L45,91 L88,91 L88,48 L45,48 Z" id="Rectangle" stroke="#000000" stroke-width="2" fill="#FFFFFF"></path>
                    <text id="0" font-family="Helvetica" font-size="25" font-weight="normal" fill="#000000">
                        <tspan x="60.0480957" y="79">0</tspan>
                    </text>
                    <text id="series_starts" font-family="AndaleMono, Andale Mono" font-size="28" font-weight="normal" fill="#0000DD">
                        <tspan x="0.282226562" y="25">series_starts</tspan>
                    </text>
                </g>
                <g id="Group-62" transform="translate(44.000000, 47.000000)"></g>
            </g>
            <text id="np.column_stack((ser" font-family="AndaleMono, Andale Mono" font-size="25" font-weight="normal" fill="#0000DD">
                <tspan x="0" y="173">np.column_stack((series_starts, series_ends))</tspan>
            </text>
            <g id="Group-66" transform="translate(340.000000, 0.000000)">
                <g id="Group-63" transform="translate(27.000000, 47.000000)">
                    <path d="M44,1 L44,44 L87,44 L87,1 L44,1 Z" id="Rectangle" stroke="#000000" stroke-width="2" fill="#FFFFFF"></path>
                    <text id="4" font-family="Helvetica" font-size="25" font-weight="normal" fill="#000000">
                        <tspan x="59.0480957" y="31">4</tspan>
                    </text>
                    <path d="M87,1 L87,44 L130,44 L130,1 L87,1 Z" id="Rectangle" stroke="#000000" stroke-width="2" fill="#FFFFFF"></path>
                    <text id="6" font-family="Helvetica" font-size="25" font-weight="normal" fill="#000000">
                        <tspan x="102.048096" y="31">6</tspan>
                    </text>
                    <g id="Group-62">
                        <path d="M1,1 L1,44 L44,44 L44,1 L1,1 Z" id="Rectangle" stroke="#000000" stroke-width="2" fill="#FFFFFF"></path>
                        <text id="3" font-family="Helvetica" font-size="25" font-weight="normal" fill="#000000">
                            <tspan x="16.0480957" y="31">3</tspan>
                        </text>
                    </g>
                </g>
                <text id="series_ends" font-family="AndaleMono, Andale Mono" font-size="28" font-weight="normal" fill="#0000DD">
                    <tspan x="0.0849609375" y="25">series_ends</tspan>
                </text>
            </g>
            <g id="Line-43" transform="translate(158.000000, 92.000000)">
                <path d="M12.5,0.5 L12.5,46.5" stroke="#000000" stroke-width="4" stroke-linecap="square"></path>
                <polygon id="Arrowhead" fill="#000000" transform="translate(12.500000, 46.500000) rotate(-90.000000) translate(-12.500000, -46.500000) " points="25 59 0 46.5 25 34"></polygon>
            </g>
            <g id="Line-43" transform="translate(289.000000, 178.000000)">
                <path d="M12.5,0.5 L12.5,46.5" stroke="#000000" stroke-width="4" stroke-linecap="square"></path>
                <polygon id="Arrowhead" fill="#000000" transform="translate(12.500000, 46.500000) rotate(-90.000000) translate(-12.500000, -46.500000) " points="25 59 0 46.5 25 34"></polygon>
            </g>
            <g id="Line-43" transform="translate(420.000000, 92.000000)">
                <path d="M12.5,0.5 L12.5,46.5" stroke="#000000" stroke-width="4" stroke-linecap="square"></path>
                <polygon id="Arrowhead" fill="#000000" transform="translate(12.500000, 46.500000) rotate(-90.000000) translate(-12.500000, -46.500000) " points="25 59 0 46.5 25 34"></polygon>
            </g>
        </g>
    </g>
</svg>