<?xml version="1.0" encoding="UTF-8" standalone="no"?>
<svg width="613px" height="423px" viewBox="0 0 613 423" version="1.1" xmlns="http://www.w3.org/2000/svg" xmlns:xlink="http://www.w3.org/1999/xlink">
    <!-- Generator: Sketch 50.2 (55047) - http://www.bohemiancoding.com/sketch -->
    <title>Group 79</title>
    <desc>Created with Sketch.</desc>
    <defs></defs>
    <g id="Page-1" stroke="none" stroke-width="1" fill="none" fill-rule="evenodd">
        <g id="Group-79" transform="translate(-2.000000, 0.000000)">
            <g id="Group-59" transform="translate(203.000000, 0.000000)">
                <g id="Group-58">
                    <path d="M1,1 L1,44 L44,44 L44,1 L1,1 Z" id="Rectangle" stroke="#000000" stroke-width="2" fill="#FFFFFF"></path>
                    <text id="F" font-family="Helvetica" font-size="25" font-weight="normal" fill="#000000">
                        <tspan x="15.364502" y="32">F</tspan>
                    </text>
                    <path d="M44,1 L44,44 L87,44 L87,1 L44,1 Z" id="Rectangle" stroke="#000000" stroke-width="2" fill="#FFFFFF"></path>
                    <text id="F" font-family="Helvetica" font-size="25" font-weight="normal" fill="#000000">
                        <tspan x="58.364502" y="32">F</tspan>
                    </text>
                    <path d="M87,1 L87,44 L130,44 L130,1 L87,1 Z" id="Rectangle" stroke="#000000" stroke-width="2" fill="#FFFFFF"></path>
                    <text id="T" font-family="Helvetica-Bold, Helvetica" font-size="25" font-weight="bold" fill="#000000">
                        <tspan x="101.364502" y="32">T</tspan>
                    </text>
                    <path d="M130,1 L130,44 L173,44 L173,1 L130,1 Z" id="Rectangle" stroke="#000000" stroke-width="2" fill="#FFFFFF"></path>
                    <text id="T" font-family="Helvetica-Bold, Helvetica" font-size="25" font-weight="bold" fill="#000000">
                        <tspan x="144.364502" y="32">T</tspan>
                    </text>
                    <path d="M173,1 L173,44 L216,44 L216,1 L173,1 Z" id="Rectangle" stroke="#000000" stroke-width="2" fill="#FFFFFF"></path>
                    <text id="F" font-family="Helvetica" font-size="25" font-weight="normal" fill="#000000">
                        <tspan x="187.364502" y="32">F</tspan>
                    </text>
                </g>
            </g>
            <g id="Group-60" transform="translate(267.000000, 188.000000)">
                <path d="M1,1 L1,44 L44,44 L44,1 L1,1 Z" id="Rectangle" stroke="#000000" stroke-width="2" fill="#FFFFFF"></path>
                <text id="2" font-family="Helvetica" font-size="25" font-weight="normal" fill="#000000">
                    <tspan x="16.0480957" y="32">2</tspan>
                </text>
                <path d="M44,1 L44,44 L87,44 L87,1 L44,1 Z" id="Rectangle" stroke="#000000" stroke-width="2" fill="#FFFFFF"></path>
                <text id="3" font-family="Helvetica" font-size="25" font-weight="normal" fill="#000000">
                    <tspan x="59.0480957" y="32">3</tspan>
                </text>
            </g>
            <g id="Group-61" transform="translate(267.000000, 378.000000)">
                <g id="Group-60">
                    <path d="M1,1 L1,44 L44,44 L44,1 L1,1 Z" id="Rectangle" stroke="#000000" stroke-width="2" fill="#FFFFFF"></path>
                    <text id="3" font-family="Helvetica" font-size="25" font-weight="normal" fill="#000000">
                        <tspan x="16.0480957" y="32">3</tspan>
                    </text>
                    <path d="M44,1 L44,44 L87,44 L87,1 L44,1 Z" id="Rectangle" stroke="#000000" stroke-width="2" fill="#FFFFFF"></path>
                    <text id="4" font-family="Helvetica" font-size="25" font-weight="normal" fill="#000000">
                        <tspan x="59.0480957" y="32">4</tspan>
                    </text>
                </g>
            </g>
            <text id="np.where(is_end_of_s" font-family="AndaleMono, Andale Mono" font-size="28" font-weight="normal" fill="#0000DD">
                <tspan x="0.149414062" y="117">np.where(is_end_of_series == True)[0]</tspan>
            </text>
            <g id="Line-36" transform="translate(297.000000, 132.000000)">
                <path d="M12.5,0.5 L12.5,35.6283361" stroke="#000000" stroke-width="4" stroke-linecap="square"></path>
                <polygon id="Arrowhead" fill="#000000" transform="translate(12.500000, 35.628336) rotate(-90.000000) translate(-12.500000, -35.628336) " points="25 48.1283361 0 35.6283361 25 23.1283361"></polygon>
            </g>
            <g id="Line-36" transform="translate(297.000000, 234.000000)">
                <path d="M12.5,0.5 L12.5,35.6283361" stroke="#000000" stroke-width="4" stroke-linecap="square"></path>
                <polygon id="Arrowhead" fill="#000000" transform="translate(12.500000, 35.628336) rotate(-90.000000) translate(-12.500000, -35.628336) " points="25 48.1283361 0 35.6283361 25 23.1283361"></polygon>
            </g>
            <g id="Line-36" transform="translate(297.000000, 323.000000)">
                <path d="M12.5,0.5 L12.5,35.6283361" stroke="#000000" stroke-width="4" stroke-linecap="square"></path>
                <polygon id="Arrowhead" fill="#000000" transform="translate(12.500000, 35.628336) rotate(-90.000000) translate(-12.500000, -35.628336) " points="25 48.1283361 0 35.6283361 25 23.1283361"></polygon>
            </g>
            <text id="+1" font-family="AndaleMono, Andale Mono" font-size="36" font-weight="normal" fill="#0000DD">
                <tspan x="289.396484" y="313">+1</tspan>
            </text>
            <g id="Line-36" transform="translate(297.000000, 45.000000)">
                <path d="M12.5,0.5 L12.5,35.6283361" stroke="#000000" stroke-width="4" stroke-linecap="square"></path>
                <polygon id="Arrowhead" fill="#000000" transform="translate(12.500000, 35.628336) rotate(-90.000000) translate(-12.500000, -35.628336) " points="25 48.1283361 0 35.6283361 25 23.1283361"></polygon>
            </g>
        </g>
    </g>
</svg>