<?xml version="1.0" encoding="UTF-8" standalone="no"?>
<svg width="269px" height="109px" viewBox="0 0 269 109" version="1.1" xmlns="http://www.w3.org/2000/svg" xmlns:xlink="http://www.w3.org/1999/xlink">
    <!-- Generator: Sketch 50.2 (55047) - http://www.bohemiancoding.com/sketch -->
    <title>Group 77</title>
    <desc>Created with Sketch.</desc>
    <defs></defs>
    <g id="Page-1" stroke="none" stroke-width="1" fill="none" fill-rule="evenodd">
        <g id="Group-77" transform="translate(-4.000000, -8.000000)">
            <g id="Group-69" transform="translate(13.000000, 72.000000)">
                <path d="M1,1 L1,44 L44,44 L44,1 L1,1 Z" id="Rectangle" stroke="#000000" stroke-width="2" fill="#FFFFFF"></path>
                <text id="123" font-family="Helvetica" font-size="25" font-weight="normal" fill="#000000">
                    <tspan x="1.64428711" y="32">123</tspan>
                </text>
                <path d="M44,1 L44,44 L87,44 L87,1 L44,1 Z" id="Rectangle" stroke="#000000" stroke-width="2" fill="#FFFFFF"></path>
                <text id="123" font-family="Helvetica" font-size="25" font-weight="normal" fill="#000000">
                    <tspan x="44.6442871" y="32">123</tspan>
                </text>
                <path d="M87,1 L87,44 L130,44 L130,1 L87,1 Z" id="Rectangle" stroke="#000000" stroke-width="2" fill="#FFFFFF"></path>
                <text id="124" font-family="Helvetica" font-size="25" font-weight="normal" fill="#000000">
                    <tspan x="87.6442871" y="32">124</tspan>
                </text>
                <path d="M130,1 L130,44 L173,44 L173,1 L130,1 Z" id="Rectangle" stroke="#000000" stroke-width="2" fill="#FFFFFF"></path>
                <text id="245" font-family="Helvetica" font-size="25" font-weight="normal" fill="#000000">
                    <tspan x="130.644287" y="32">245</tspan>
                </text>
                <path d="M173,1 L173,44 L216,44 L216,1 L173,1 Z" id="Rectangle" stroke="#000000" stroke-width="2" fill="#FFFFFF"></path>
                <text id="999" font-family="Helvetica" font-size="25" font-weight="normal" fill="#000000">
                    <tspan x="173.644287" y="30">999</tspan>
                </text>
                <path d="M216,1 L216,44 L259,44 L259,1 L216,1 Z" id="Rectangle" stroke="#000000" stroke-width="2" fill="#FFFFFF"></path>
                <text id="999" font-family="Helvetica" font-size="25" font-weight="normal" fill="#000000">
                    <tspan x="216.644287" y="30">999</tspan>
                </text>
            </g>
            <text id="station_ids" font-family="AndaleMono, Andale Mono" font-size="42" font-weight="normal" fill="#0000DD">
                <tspan x="0.377441406" y="38">station_ids</tspan>
            </text>
        </g>
    </g>
</svg>