<?xml version="1.0" encoding="UTF-8" standalone="no"?>
<svg width="665px" height="498px" viewBox="0 0 665 498" version="1.1" xmlns="http://www.w3.org/2000/svg" xmlns:xlink="http://www.w3.org/1999/xlink">
    <!-- Generator: Sketch 50.2 (55047) - http://www.bohemiancoding.com/sketch -->
    <title>Group 78</title>
    <desc>Created with Sketch.</desc>
    <defs></defs>
    <g id="Page-1" stroke="none" stroke-width="1" fill="none" fill-rule="evenodd">
        <g id="Group-78" transform="translate(0.000000, -8.000000)">
            <g id="Group-59" transform="translate(224.000000, 461.000000)">
                <g id="Group-58">
                    <path d="M1,1 L1,44 L44,44 L44,1 L1,1 Z" id="Rectangle" stroke="#000000" stroke-width="2" fill="#FFFFFF"></path>
                    <text id="F" font-family="Helvetica" font-size="25" font-weight="normal" fill="#000000">
                        <tspan x="15.364502" y="32">F</tspan>
                    </text>
                    <path d="M44,1 L44,44 L87,44 L87,1 L44,1 Z" id="Rectangle" stroke="#000000" stroke-width="2" fill="#FFFFFF"></path>
                    <text id="F" font-family="Helvetica" font-size="25" font-weight="normal" fill="#000000">
                        <tspan x="58.364502" y="32">F</tspan>
                    </text>
                    <path d="M87,1 L87,44 L130,44 L130,1 L87,1 Z" id="Rectangle" stroke="#000000" stroke-width="2" fill="#FFFFFF"></path>
                    <text id="T" font-family="Helvetica-Bold, Helvetica" font-size="25" font-weight="bold" fill="#000000">
                        <tspan x="101.364502" y="32">T</tspan>
                    </text>
                    <path d="M130,1 L130,44 L173,44 L173,1 L130,1 Z" id="Rectangle" stroke="#000000" stroke-width="2" fill="#FFFFFF"></path>
                    <text id="T" font-family="Helvetica-Bold, Helvetica" font-size="25" font-weight="bold" fill="#000000">
                        <tspan x="144.364502" y="32">T</tspan>
                    </text>
                    <path d="M173,1 L173,44 L216,44 L216,1 L173,1 Z" id="Rectangle" stroke="#000000" stroke-width="2" fill="#FFFFFF"></path>
                    <text id="F" font-family="Helvetica" font-size="25" font-weight="normal" fill="#000000">
                        <tspan x="187.364502" y="32">F</tspan>
                    </text>
                </g>
            </g>
            <text id="station_ids" font-family="AndaleMono, Andale Mono" font-size="42" font-weight="normal" fill="#0000DD">
                <tspan x="194.377441" y="38">station_ids</tspan>
            </text>
            <text id="!=" font-family="AndaleMono, Andale Mono" font-size="42" font-weight="normal" fill="#0000DD">
                <tspan x="307.295898" y="407">!=</tspan>
            </text>
            <text id="[:-1]" font-family="AndaleMono, Andale Mono" font-size="42" font-weight="normal" fill="#0000DD">
                <tspan x="67.4897461" y="200">[:-1]</tspan>
            </text>
            <text id="[:1]" font-family="AndaleMono, Andale Mono" font-size="42" font-weight="normal" fill="#0000DD">
                <tspan x="485.091797" y="200">[:1]</tspan>
            </text>
            <g id="Line-31" transform="translate(125.000000, 94.000000)">
                <path d="M78.5,0.5 L18.5,70.5" stroke="#000000" stroke-width="4" stroke-linecap="square"></path>
                <polygon id="Arrowhead" fill="#000000" transform="translate(18.500000, 70.500000) rotate(-49.398705) translate(-18.500000, -70.500000) " points="31 83 6 70.5 31 58"></polygon>
            </g>
            <g id="Line-32" transform="translate(456.000000, 86.000000)">
                <path d="M0.5,0.5 L72.5,71.5" stroke="#000000" stroke-width="4" stroke-linecap="square"></path>
                <polygon id="Arrowhead" fill="#000000" transform="translate(72.500000, 71.500000) rotate(-135.400663) translate(-72.500000, -71.500000) " points="85 84 60 71.5 85 59"></polygon>
            </g>
            <g id="Line-33" transform="translate(526.000000, 208.000000)">
                <path d="M12.5,0.5 L12.5,63.507936" stroke="#000000" stroke-width="4" stroke-linecap="square"></path>
                <polygon id="Arrowhead" fill="#000000" transform="translate(12.500000, 63.507936) rotate(-90.000000) translate(-12.500000, -63.507936) " points="25 76.007936 0 63.507936 25 51.007936"></polygon>
            </g>
            <g id="Line-33" transform="translate(122.000000, 72.000000)">
                <path d="M12.5,136.5 L12.5,199.507936" stroke="#000000" stroke-width="4" stroke-linecap="square"></path>
                <polygon id="Arrowhead" fill="#000000" transform="translate(12.500000, 199.507936) rotate(-90.000000) translate(-12.500000, -199.507936) " points="25 212.007936 0 199.507936 25 187.007936"></polygon>
                <g id="Group-55" transform="translate(81.000000, 0.000000)">
                    <path d="M1,1 L1,44 L44,44 L44,1 L1,1 Z" id="Rectangle" stroke="#000000" stroke-width="2" fill="#FFFFFF"></path>
                    <text id="123" font-family="Helvetica" font-size="25" font-weight="normal" fill="#000000">
                        <tspan x="1.64428711" y="32">123</tspan>
                    </text>
                    <path d="M44,1 L44,44 L87,44 L87,1 L44,1 Z" id="Rectangle" stroke="#000000" stroke-width="2" fill="#FFFFFF"></path>
                    <text id="123" font-family="Helvetica" font-size="25" font-weight="normal" fill="#000000">
                        <tspan x="44.6442871" y="32">123</tspan>
                    </text>
                    <path d="M87,1 L87,44 L130,44 L130,1 L87,1 Z" id="Rectangle" stroke="#000000" stroke-width="2" fill="#FFFFFF"></path>
                    <text id="124" font-family="Helvetica" font-size="25" font-weight="normal" fill="#000000">
                        <tspan x="87.6442871" y="32">124</tspan>
                    </text>
                    <path d="M130,1 L130,44 L173,44 L173,1 L130,1 Z" id="Rectangle" stroke="#000000" stroke-width="2" fill="#FFFFFF"></path>
                    <text id="245" font-family="Helvetica" font-size="25" font-weight="normal" fill="#000000">
                        <tspan x="130.644287" y="32">245</tspan>
                    </text>
                    <path d="M173,1 L173,44 L216,44 L216,1 L173,1 Z" id="Rectangle" stroke="#000000" stroke-width="2" fill="#FFFFFF"></path>
                    <text id="999" font-family="Helvetica" font-size="25" font-weight="normal" fill="#000000">
                        <tspan x="173.644287" y="30">999</tspan>
                    </text>
                    <path d="M216,1 L216,44 L259,44 L259,1 L216,1 Z" id="Rectangle" stroke="#000000" stroke-width="2" fill="#FFFFFF"></path>
                    <text id="999" font-family="Helvetica" font-size="25" font-weight="normal" fill="#000000">
                        <tspan x="216.644287" y="30">999</tspan>
                    </text>
                </g>
            </g>
            <g id="Line-34" transform="translate(320.000000, 418.000000)">
                <path d="M12.5,0.5 L12.5,28.5" stroke="#000000" stroke-width="4" stroke-linecap="square"></path>
                <polygon id="Arrowhead" fill="#000000" transform="translate(12.500000, 28.500000) rotate(-90.000000) translate(-12.500000, -28.500000) " points="25 41 0 28.5 25 16"></polygon>
            </g>
            <g id="Line-35" transform="translate(238.000000, 335.000000)">
                <path d="M0.5,0.5 L55.5,40.5" stroke="#000000" stroke-width="4" stroke-linecap="square"></path>
                <polygon id="Arrowhead" fill="#000000" transform="translate(55.500000, 40.500000) rotate(-143.972627) translate(-55.500000, -40.500000) " points="68 53 43 40.5 68 28"></polygon>
            </g>
            <g id="Line-35" transform="translate(398.500000, 364.000000) scale(-1, 1) translate(-398.500000, -364.000000) translate(362.000000, 335.000000)">
                <path d="M0.5,0.5 L55.5,40.5" stroke="#000000" stroke-width="4" stroke-linecap="square"></path>
                <polygon id="Arrowhead" fill="#000000" transform="translate(55.500000, 40.500000) rotate(-143.972627) translate(-55.500000, -40.500000) " points="68 53 43 40.5 68 28"></polygon>
            </g>
            <g id="Group-57" transform="translate(0.000000, 290.000000)">
                <path d="M1,1 L1,44 L44,44 L44,1 L1,1 Z" id="Rectangle" stroke="#000000" stroke-width="2" fill="#FFFFFF"></path>
                <text id="123" font-family="Helvetica" font-size="25" font-weight="normal" fill="#000000">
                    <tspan x="1.64428711" y="32">123</tspan>
                </text>
                <path d="M44,1 L44,44 L87,44 L87,1 L44,1 Z" id="Rectangle" stroke="#000000" stroke-width="2" fill="#FFFFFF"></path>
                <text id="123" font-family="Helvetica" font-size="25" font-weight="normal" fill="#000000">
                    <tspan x="44.6442871" y="32">123</tspan>
                </text>
                <path d="M87,1 L87,44 L130,44 L130,1 L87,1 Z" id="Rectangle" stroke="#000000" stroke-width="2" fill="#FFFFFF"></path>
                <text id="123" font-family="Helvetica" font-size="25" font-weight="normal" fill="#000000">
                    <tspan x="87.6442871" y="32">123</tspan>
                </text>
                <path d="M130,1 L130,44 L173,44 L173,1 L130,1 Z" id="Rectangle" stroke="#000000" stroke-width="2" fill="#FFFFFF"></path>
                <text id="245" font-family="Helvetica" font-size="25" font-weight="normal" fill="#000000">
                    <tspan x="130.644287" y="32">245</tspan>
                </text>
                <path d="M173,1 L173,44 L216,44 L216,1 L173,1 Z" id="Rectangle" stroke="#000000" stroke-width="2" fill="#FFFFFF"></path>
                <text id="999" font-family="Helvetica" font-size="25" font-weight="normal" fill="#000000">
                    <tspan x="173.644287" y="30">999</tspan>
                </text>
                <path d="M216,1 L216,44 L259,44 L259,1 L216,1 Z" id="Rectangle" stroke="#000000" stroke-width="2" fill="#AEAEAE"></path>
                <text id="999" font-family="Helvetica" font-size="25" font-weight="normal" fill="#000000">
                    <tspan x="216.644287" y="30">999</tspan>
                </text>
                <path d="M255.5,23.5 L221.485297,23.5" id="Line-30" stroke="#000000" stroke-width="3" stroke-linecap="square"></path>
            </g>
            <g id="Group-56" transform="translate(405.000000, 291.000000)">
                <path d="M1,1 L1,44 L44,44 L44,1 L1,1 Z" id="Rectangle" stroke="#000000" stroke-width="2" fill="#AEAEAE"></path>
                <path d="M39.5,23.5 L5.4852973,23.5" id="Line-30" stroke="#000000" stroke-width="3" stroke-linecap="square"></path>
                <text id="123" font-family="Helvetica" font-size="25" font-weight="normal" fill="#000000">
                    <tspan x="1.64428711" y="32">123</tspan>
                </text>
                <path d="M44,1 L44,44 L87,44 L87,1 L44,1 Z" id="Rectangle" stroke="#000000" stroke-width="2" fill="#FFFFFF"></path>
                <text id="123" font-family="Helvetica" font-size="25" font-weight="normal" fill="#000000">
                    <tspan x="44.6442871" y="32">123</tspan>
                </text>
                <path d="M87,1 L87,44 L130,44 L130,1 L87,1 Z" id="Rectangle" stroke="#000000" stroke-width="2" fill="#FFFFFF"></path>
                <text id="123" font-family="Helvetica" font-size="25" font-weight="normal" fill="#000000">
                    <tspan x="87.6442871" y="32">123</tspan>
                </text>
                <path d="M130,1 L130,44 L173,44 L173,1 L130,1 Z" id="Rectangle" stroke="#000000" stroke-width="2" fill="#FFFFFF"></path>
                <text id="245" font-family="Helvetica" font-size="25" font-weight="normal" fill="#000000">
                    <tspan x="130.644287" y="32">245</tspan>
                </text>
                <path d="M173,1 L173,44 L216,44 L216,1 L173,1 Z" id="Rectangle" stroke="#000000" stroke-width="2" fill="#FFFFFF"></path>
                <text id="999" font-family="Helvetica" font-size="25" font-weight="normal" fill="#000000">
                    <tspan x="173.644287" y="30">999</tspan>
                </text>
                <path d="M216,1 L216,44 L259,44 L259,1 L216,1 Z" id="Rectangle" stroke="#000000" stroke-width="2" fill="#FFFFFF"></path>
                <text id="999" font-family="Helvetica" font-size="25" font-weight="normal" fill="#000000">
                    <tspan x="216.644287" y="30">999</tspan>
                </text>
            </g>
        </g>
    </g>
</svg>