<?xml version="1.0" encoding="UTF-8" standalone="no"?>
<svg width="589px" height="291px" viewBox="0 0 589 291" version="1.1" xmlns="http://www.w3.org/2000/svg" xmlns:xlink="http://www.w3.org/1999/xlink">
    <!-- Generator: Sketch 50.2 (55047) - http://www.bohemiancoding.com/sketch -->
    <title>Group 65</title>
    <desc>Created with Sketch.</desc>
    <defs></defs>
    <g id="Page-1" stroke="none" stroke-width="1" fill="none" fill-rule="evenodd">
        <g id="Group-65" transform="translate(-2.000000, -5.000000)">
            <path d="M94,42 L94,85 L137,85 L137,42 L94,42 Z" id="Rectangle" stroke="#000000" stroke-width="2" fill="#FFFFFF"></path>
            <text id="3" font-family="Helvetica" font-size="25" font-weight="normal" fill="#000000">
                <tspan x="109.048096" y="73">3</tspan>
            </text>
            <path d="M137,42 L137,85 L180,85 L180,42 L137,42 Z" id="Rectangle" stroke="#000000" stroke-width="2" fill="#FFFFFF"></path>
            <text id="4" font-family="Helvetica" font-size="25" font-weight="normal" fill="#000000">
                <tspan x="152.048096" y="73">4</tspan>
            </text>
            <text id="station_changes_idx" font-family="AndaleMono, Andale Mono" font-size="24" font-weight="normal" fill="#0000DD">
                <tspan x="0.177734375" y="22">station_changes_idx</tspan>
            </text>
            <g id="Group-63" transform="translate(235.000000, 251.000000)">
                <path d="M44,1 L44,44 L87,44 L87,1 L44,1 Z" id="Rectangle" stroke="#000000" stroke-width="2" fill="#FFFFFF"></path>
                <text id="4" font-family="Helvetica" font-size="25" font-weight="normal" fill="#000000">
                    <tspan x="59.0480957" y="31">4</tspan>
                </text>
                <path d="M87,1 L87,44 L130,44 L130,1 L87,1 Z" id="Rectangle" stroke="#000000" stroke-width="2" fill="#FFFFFF"></path>
                <text id="6" font-family="Helvetica" font-size="25" font-weight="normal" fill="#000000">
                    <tspan x="102.048096" y="31">6</tspan>
                </text>
                <g id="Group-62">
                    <path d="M1,1 L1,44 L44,44 L44,1 L1,1 Z" id="Rectangle" stroke="#000000" stroke-width="2" fill="#FFFFFF"></path>
                    <text id="3" font-family="Helvetica" font-size="25" font-weight="normal" fill="#000000">
                        <tspan x="16.0480957" y="31">3</tspan>
                    </text>
                </g>
            </g>
            <g id="Line-40" transform="translate(138.000000, 87.000000)">
                <path d="M0.5,0.5 L20.5,49.5" stroke="#000000" stroke-width="4" stroke-linecap="square"></path>
                <polygon id="Arrowhead" fill="#000000" transform="translate(20.500000, 49.500000) rotate(-112.203479) translate(-20.500000, -49.500000) " points="33 62 8 49.5 33 37"></polygon>
            </g>
            <g id="Line-42" transform="translate(290.000000, 207.000000)">
                <path d="M12.5,0.5 L12.5,31.5" stroke="#000000" stroke-width="4" stroke-linecap="square"></path>
                <polygon id="Arrowhead" fill="#000000" transform="translate(12.500000, 31.500000) rotate(-90.000000) translate(-12.500000, -31.500000) " points="25 44 0 31.5 25 19"></polygon>
            </g>
            <path d="M446,42 L446,85 L489,85 L489,42 L446,42 Z" id="Rectangle" stroke="#000000" stroke-width="2" fill="#FFFFFF"></path>
            <text id="6" font-family="Helvetica" font-size="25" font-weight="normal" fill="#000000">
                <tspan x="461.048096" y="73">6</tspan>
            </text>
            <text id="[len(station_ids)]" font-family="AndaleMono, Andale Mono" font-size="24" font-weight="normal" fill="#0000DD">
                <tspan x="338.378906" y="22">[len(station_ids)]</tspan>
            </text>
            <g id="Group-64" transform="translate(48.000000, 152.000000)" fill="#0000DD" font-family="AndaleMono, Andale Mono" font-size="22" font-weight="normal">
                <text id="np.concatenate((">
                    <tspan x="0" y="20">np.concatenate((</tspan>
                </text>
                <text id="station_changes_idx,">
                    <tspan x="212" y="20">station_changes_idx,</tspan>
                </text>
                <text id="[len(station_ids)]))">
                    <tspan x="209" y="45">[len(station_ids)]))</tspan>
                </text>
            </g>
            <g id="Line-41" transform="translate(421.000000, 86.000000)">
                <path d="M45.5,0.5 L17,53" stroke="#000000" stroke-width="4" stroke-linecap="square"></path>
                <polygon id="Arrowhead" fill="#000000" transform="translate(17.000000, 53.000000) rotate(-61.504361) translate(-17.000000, -53.000000) " points="29.5 65.5 4.5 53 29.5 40.5"></polygon>
            </g>
        </g>
    </g>
</svg>