<?xml version="1.0" encoding="UTF-8" standalone="no"?>
<svg width="548px" height="302px" viewBox="0 0 548 302" version="1.1" xmlns="http://www.w3.org/2000/svg" xmlns:xlink="http://www.w3.org/1999/xlink">
    <!-- Generator: Sketch 50.2 (55047) - http://www.bohemiancoding.com/sketch -->
    <title>Group 80</title>
    <desc>Created with Sketch.</desc>
    <defs></defs>
    <g id="Page-1" stroke="none" stroke-width="1" fill="none" fill-rule="evenodd">
        <g id="Group-80" transform="translate(-2.000000, -6.000000)">
            <path d="M360,49 L360,92 L403,92 L403,49 L360,49 Z" id="Rectangle" stroke="#000000" stroke-width="2" fill="#FFFFFF"></path>
            <text id="3" font-family="Helvetica" font-size="25" font-weight="normal" fill="#000000">
                <tspan x="375.048096" y="80">3</tspan>
            </text>
            <path d="M403,49 L403,92 L446,92 L446,49 L403,49 Z" id="Rectangle" stroke="#000000" stroke-width="2" fill="#FFFFFF"></path>
            <text id="4" font-family="Helvetica" font-size="25" font-weight="normal" fill="#000000">
                <tspan x="418.048096" y="80">4</tspan>
            </text>
            <text id="station_changes_idx" font-family="AndaleMono, Andale Mono" font-size="24" font-weight="normal" fill="#0000DD">
                <tspan x="266.177734" y="25">station_changes_idx</tspan>
            </text>
            <g id="Group-73" transform="translate(98.000000, 48.000000)">
                <path d="M1,1 L1,44 L44,44 L44,1 L1,1 Z" id="Rectangle" stroke="#000000" stroke-width="2" fill="#FFFFFF"></path>
                <text id="0" font-family="Helvetica" font-size="25" font-weight="normal" fill="#000000">
                    <tspan x="16.0480957" y="32">0</tspan>
                </text>
            </g>
            <g id="Group-63" transform="translate(212.000000, 263.000000)">
                <path d="M44,1 L44,44 L87,44 L87,1 L44,1 Z" id="Rectangle" stroke="#000000" stroke-width="2" fill="#FFFFFF"></path>
                <text id="3" font-family="Helvetica" font-size="25" font-weight="normal" fill="#000000">
                    <tspan x="59.0480957" y="32">3</tspan>
                </text>
                <path d="M87,1 L87,44 L130,44 L130,1 L87,1 Z" id="Rectangle" stroke="#000000" stroke-width="2" fill="#FFFFFF"></path>
                <text id="4" font-family="Helvetica" font-size="25" font-weight="normal" fill="#000000">
                    <tspan x="102.048096" y="32">4</tspan>
                </text>
                <g id="Group-62">
                    <path d="M1,1 L1,44 L44,44 L44,1 L1,1 Z" id="Rectangle" stroke="#000000" stroke-width="2" fill="#FFFFFF"></path>
                    <text id="0" font-family="Helvetica" font-size="25" font-weight="normal" fill="#000000">
                        <tspan x="16.0480957" y="32">0</tspan>
                    </text>
                </g>
            </g>
            <text id="[0]" font-family="AndaleMono, Andale Mono" font-size="32" font-weight="normal" fill="#0000DD">
                <tspan x="92.1953125" y="29">[0]</tspan>
            </text>
            <text id="np.concatenate(([0]," font-family="AndaleMono, Andale Mono" font-size="22" font-weight="normal" fill="#0000DD">
                <tspan x="0.254882812" y="183">np.concatenate(([0], station_changes_idx))</tspan>
            </text>
            <g id="Line-37" transform="translate(121.000000, 93.000000)">
                <path d="M0.5,0.5 L36.5,61.5" stroke="#000000" stroke-width="4" stroke-linecap="square"></path>
                <polygon id="Arrowhead" fill="#000000" transform="translate(36.500000, 61.500000) rotate(-120.547572) translate(-36.500000, -61.500000) " points="49 74 24 61.5 49 49"></polygon>
            </g>
            <g id="Line-38" transform="translate(349.000000, 93.000000)">
                <path d="M53.5,0.5 L17.5,57.5" stroke="#000000" stroke-width="4" stroke-linecap="square"></path>
                <polygon id="Arrowhead" fill="#000000" transform="translate(17.500000, 57.500000) rotate(-57.724356) translate(-17.500000, -57.500000) " points="30 70 5 57.5 30 45"></polygon>
            </g>
            <g id="Line-39" transform="translate(266.000000, 195.000000)">
                <path d="M12.5,0.5 L12.5,56.5" stroke="#000000" stroke-width="4" stroke-linecap="square"></path>
                <polygon id="Arrowhead" fill="#000000" transform="translate(12.500000, 56.500000) rotate(-90.000000) translate(-12.500000, -56.500000) " points="25 69 0 56.5 25 44"></polygon>
            </g>
        </g>
    </g>
</svg>