<?xml version="1.0" encoding="UTF-8" standalone="no"?>
<svg width="629px" height="366px" viewBox="0 0 629 366" version="1.1" xmlns="http://www.w3.org/2000/svg" xmlns:xlink="http://www.w3.org/1999/xlink">
    <!-- Generator: Sketch 50.2 (55047) - http://www.bohemiancoding.com/sketch -->
    <title>Group 83</title>
    <desc>Created with Sketch.</desc>
    <defs></defs>
    <g id="Page-1" stroke="none" stroke-width="1" fill="none" fill-rule="evenodd">
        <g id="Group-83" transform="translate(0.000000, -8.000000)">
            <g id="Group-76" transform="translate(176.000000, 0.000000)">
                <g id="Group-69" transform="translate(13.000000, 72.000000)">
                    <path d="M1,1 L1,44 L44,44 L44,1 L1,1 Z" id="Rectangle" stroke="#000000" stroke-width="2" fill="#FFFFFF"></path>
                    <text id="123" font-family="Helvetica" font-size="25" font-weight="normal" fill="#000000">
                        <tspan x="1.64428711" y="32">123</tspan>
                    </text>
                    <path d="M44,1 L44,44 L87,44 L87,1 L44,1 Z" id="Rectangle" stroke="#000000" stroke-width="2" fill="#FFFFFF"></path>
                    <text id="123" font-family="Helvetica" font-size="25" font-weight="normal" fill="#000000">
                        <tspan x="44.6442871" y="32">123</tspan>
                    </text>
                    <path d="M87,1 L87,44 L130,44 L130,1 L87,1 Z" id="Rectangle" stroke="#000000" stroke-width="2" fill="#FFFFFF"></path>
                    <text id="123" font-family="Helvetica" font-size="25" font-weight="normal" fill="#000000">
                        <tspan x="87.6442871" y="32">123</tspan>
                    </text>
                    <path d="M130,1 L130,44 L173,44 L173,1 L130,1 Z" id="Rectangle" stroke="#000000" stroke-width="2" fill="#FFFFFF"></path>
                    <text id="245" font-family="Helvetica" font-size="25" font-weight="normal" fill="#000000">
                        <tspan x="130.644287" y="32">245</tspan>
                    </text>
                    <path d="M173,1 L173,44 L216,44 L216,1 L173,1 Z" id="Rectangle" stroke="#000000" stroke-width="2" fill="#FFFFFF"></path>
                    <text id="999" font-family="Helvetica" font-size="25" font-weight="normal" fill="#000000">
                        <tspan x="173.644287" y="31">999</tspan>
                    </text>
                    <path d="M216,1 L216,44 L259,44 L259,1 L216,1 Z" id="Rectangle" stroke="#000000" stroke-width="2" fill="#FFFFFF"></path>
                    <text id="999" font-family="Helvetica" font-size="25" font-weight="normal" fill="#000000">
                        <tspan x="216.644287" y="31">999</tspan>
                    </text>
                </g>
                <text id="station_ids" font-family="AndaleMono, Andale Mono" font-size="42" font-weight="normal" fill="#0000DD">
                    <tspan x="0.377441406" y="38">station_ids</tspan>
                </text>
            </g>
            <g id="Group-75" transform="translate(0.000000, 243.000000)">
                <g id="Group-68">
                    <path d="M1,44 L1,87 L44,87 L44,44 L1,44 Z" id="Rectangle" stroke="#000000" stroke-width="2" fill="#FFFFFF"></path>
                    <text id="3" font-family="Helvetica" font-size="25" font-weight="normal" fill="#000000">
                        <tspan x="16.0480957" y="75">3</tspan>
                    </text>
                    <path d="M1,87 L1,130 L44,130 L44,87 L1,87 Z" id="Rectangle" stroke="#000000" stroke-width="2" fill="#FFFFFF"></path>
                    <text id="4" font-family="Helvetica" font-size="25" font-weight="normal" fill="#000000">
                        <tspan x="16.0480957" y="118">4</tspan>
                    </text>
                    <g id="Group-62">
                        <path d="M1,1 L1,44 L44,44 L44,1 L1,1 Z" id="Rectangle" stroke="#000000" stroke-width="2" fill="#FFFFFF"></path>
                        <text id="0" font-family="Helvetica" font-size="25" font-weight="normal" fill="#000000">
                            <tspan x="16.0480957" y="32">0</tspan>
                        </text>
                    </g>
                    <path d="M44,44 L44,87 L87,87 L87,44 L44,44 Z" id="Rectangle" stroke="#000000" stroke-width="2" fill="#FFFFFF"></path>
                    <text id="4" font-family="Helvetica" font-size="25" font-weight="normal" fill="#000000">
                        <tspan x="59.0480957" y="75">4</tspan>
                    </text>
                    <path d="M44,87 L44,130 L87,130 L87,87 L44,87 Z" id="Rectangle" stroke="#000000" stroke-width="2" fill="#FFFFFF"></path>
                    <text id="6" font-family="Helvetica" font-size="25" font-weight="normal" fill="#000000">
                        <tspan x="59.0480957" y="118">6</tspan>
                    </text>
                    <g id="Group-62" transform="translate(43.000000, 0.000000)">
                        <path d="M1,1 L1,44 L44,44 L44,1 L1,1 Z" id="Rectangle" stroke="#000000" stroke-width="2" fill="#FFFFFF"></path>
                        <text id="3" font-family="Helvetica" font-size="25" font-weight="normal" fill="#000000">
                            <tspan x="16.0480957" y="32">3</tspan>
                        </text>
                    </g>
                </g>
                <text id="station_ids[0:3]" font-family="AndaleMono, Andale Mono" font-size="25" font-weight="normal" fill="#0000DD">
                    <tspan x="171" y="28">station_ids[0:3]</tspan>
                </text>
                <text id="station_ids[3:4]" font-family="AndaleMono, Andale Mono" font-size="25" font-weight="normal" fill="#0000DD">
                    <tspan x="171" y="72">station_ids[3:4]</tspan>
                </text>
                <text id="station_ids[4:6]" font-family="AndaleMono, Andale Mono" font-size="25" font-weight="normal" fill="#0000DD">
                    <tspan x="171" y="117">station_ids[4:6]</tspan>
                </text>
                <g id="Group-74" transform="translate(498.000000, 0.000000)">
                    <g id="Group-72">
                        <path d="M1,1 L1,44 L44,44 L44,1 L1,1 Z" id="Rectangle" stroke="#000000" stroke-width="2" fill="#FFFFFF"></path>
                        <text id="123" font-family="Helvetica" font-size="25" font-weight="normal" fill="#000000">
                            <tspan x="1.64428711" y="32">123</tspan>
                        </text>
                        <path d="M44,1 L44,44 L87,44 L87,1 L44,1 Z" id="Rectangle" stroke="#000000" stroke-width="2" fill="#FFFFFF"></path>
                        <text id="123" font-family="Helvetica" font-size="25" font-weight="normal" fill="#000000">
                            <tspan x="44.6442871" y="32">123</tspan>
                        </text>
                        <path d="M87,1 L87,44 L130,44 L130,1 L87,1 Z" id="Rectangle" stroke="#000000" stroke-width="2" fill="#FFFFFF"></path>
                        <text id="124" font-family="Helvetica" font-size="25" font-weight="normal" fill="#000000">
                            <tspan x="87.6442871" y="32">124</tspan>
                        </text>
                    </g>
                    <g id="Group-71" transform="translate(0.000000, 43.000000)">
                        <path d="M1,1 L1,44 L44,44 L44,1 L1,1 Z" id="Rectangle" stroke="#000000" stroke-width="2" fill="#FFFFFF"></path>
                        <text id="245" font-family="Helvetica" font-size="25" font-weight="normal" fill="#000000">
                            <tspan x="1.64428711" y="32">245</tspan>
                        </text>
                    </g>
                    <g id="Group-70" transform="translate(0.000000, 86.000000)">
                        <path d="M1,1 L1,44 L44,44 L44,1 L1,1 Z" id="Rectangle" stroke="#000000" stroke-width="2" fill="#FFFFFF"></path>
                        <text id="999" font-family="Helvetica" font-size="25" font-weight="normal" fill="#000000">
                            <tspan x="1.64428711" y="30">999</tspan>
                        </text>
                        <path d="M44,1 L44,44 L87,44 L87,1 L44,1 Z" id="Rectangle" stroke="#000000" stroke-width="2" fill="#FFFFFF"></path>
                        <text id="999" font-family="Helvetica" font-size="25" font-weight="normal" fill="#000000">
                            <tspan x="44.6442871" y="30">999</tspan>
                        </text>
                    </g>
                </g>
                <g id="Line-44" transform="translate(88.000000, 8.000000)">
                    <path d="M0.5,12.5 L65.5076919,12.5" stroke="#000000" stroke-width="4" stroke-linecap="square"></path>
                    <polygon id="Arrowhead" fill="#000000" transform="translate(65.507692, 12.500000) rotate(180.000000) translate(-65.507692, -12.500000) " points="78.0076919 25 53.0076919 12.5 78.0076919 0"></polygon>
                </g>
                <g id="Line-44" transform="translate(88.000000, 53.000000)">
                    <path d="M0.5,12.5 L65.5076919,12.5" stroke="#000000" stroke-width="4" stroke-linecap="square"></path>
                    <polygon id="Arrowhead" fill="#000000" transform="translate(65.507692, 12.500000) rotate(180.000000) translate(-65.507692, -12.500000) " points="78.0076919 25 53.0076919 12.5 78.0076919 0"></polygon>
                </g>
                <g id="Line-44" transform="translate(88.000000, 98.000000)">
                    <path d="M0.5,12.5 L65.5076919,12.5" stroke="#000000" stroke-width="4" stroke-linecap="square"></path>
                    <polygon id="Arrowhead" fill="#000000" transform="translate(65.507692, 12.500000) rotate(180.000000) translate(-65.507692, -12.500000) " points="78.0076919 25 53.0076919 12.5 78.0076919 0"></polygon>
                </g>
                <g id="Line-44" transform="translate(414.000000, 8.000000)">
                    <path d="M0.5,12.5 L65.5076919,12.5" stroke="#000000" stroke-width="4" stroke-linecap="square"></path>
                    <polygon id="Arrowhead" fill="#000000" transform="translate(65.507692, 12.500000) rotate(180.000000) translate(-65.507692, -12.500000) " points="78.0076919 25 53.0076919 12.5 78.0076919 0"></polygon>
                </g>
                <g id="Line-44" transform="translate(414.000000, 53.000000)">
                    <path d="M0.5,12.5 L65.5076919,12.5" stroke="#000000" stroke-width="4" stroke-linecap="square"></path>
                    <polygon id="Arrowhead" fill="#000000" transform="translate(65.507692, 12.500000) rotate(180.000000) translate(-65.507692, -12.500000) " points="78.0076919 25 53.0076919 12.5 78.0076919 0"></polygon>
                </g>
                <g id="Line-44" transform="translate(414.000000, 98.000000)">
                    <path d="M0.5,12.5 L65.5076919,12.5" stroke="#000000" stroke-width="4" stroke-linecap="square"></path>
                    <polygon id="Arrowhead" fill="#000000" transform="translate(65.507692, 12.500000) rotate(180.000000) translate(-65.507692, -12.500000) " points="78.0076919 25 53.0076919 12.5 78.0076919 0"></polygon>
                </g>
            </g>
        </g>
    </g>
</svg>