<?xml version="1.0" encoding="UTF-8"?>
<svg width="366px" height="353px" viewBox="0 0 366 353" version="1.1" xmlns="http://www.w3.org/2000/svg" xmlns:xlink="http://www.w3.org/1999/xlink">
    <!-- Generator: Sketch 52.2 (67145) - http://www.bohemiancoding.com/sketch -->
    <title>Group 7</title>
    <desc>Created with Sketch.</desc>
    <g id="Page-1" stroke="none" stroke-width="1" fill="none" fill-rule="evenodd">
        <g id="Group-7">
            <g id="Group-3">
                <text id="Unexplained-Stock-Re" font-family="Helvetica-Bold, Helvetica" font-size="54" font-weight="bold" fill="#000000" text-decoration="underline">
                    <tspan x="22.9633789" y="281">Unexplained</tspan>
                    <tspan x="0.458984375" y="346">Stock Returns</tspan>
                </text>
                <rect id="Rectangle" stroke="#000000" stroke-width="5" fill="#FFFFFF" x="18.5" y="2.5" width="330" height="214"></rect>
                <polyline id="Path" stroke="#1F77B4" stroke-width="1.5" stroke-linecap="square" points="31.218182 117.283445 54.630769 131.630533 78.043357 78.96727 101.455944 94.073236 124.868531 140.493655 148.281119 91.009087 171.693706 105.026851 195.106294 114.706124 218.518881 112.644267 241.931469 100.731316 265.344056 68.013655 288.756643 84.207823 312.169231 130.542331 335.581818 107.775994"></polyline>
                <g id="Group" transform="translate(28.000000, 65.000000)" fill="#1F77B4" stroke="#1F77B4">
                    <g id="me6ee64a740-link" transform="translate(0.218182, 49.283445)">
                        <path d="M3,6 C3.795609,6 4.55874,5.683901 5.12132,5.12132 C5.683901,4.55874 6,3.795609 6,3 C6,2.204391 5.683901,1.44126 5.12132,0.87868 C4.55874,0.316099 3.795609,0 3,0 C2.204391,0 1.44126,0.316099 0.87868,0.87868 C0.316099,1.44126 0,2.204391 0,3 C0,3.795609 0.316099,4.55874 0.87868,5.12132 C1.44126,5.683901 2.204391,6 3,6 Z" id="me6ee64a740"></path>
                    </g>
                    <g id="me6ee64a740-link" transform="translate(23.630769, 63.630533)">
                        <path d="M3,6 C3.795609,6 4.55874,5.683901 5.12132,5.12132 C5.683901,4.55874 6,3.795609 6,3 C6,2.204391 5.683901,1.44126 5.12132,0.87868 C4.55874,0.316099 3.795609,0 3,0 C2.204391,0 1.44126,0.316099 0.87868,0.87868 C0.316099,1.44126 0,2.204391 0,3 C0,3.795609 0.316099,4.55874 0.87868,5.12132 C1.44126,5.683901 2.204391,6 3,6 Z" id="me6ee64a740"></path>
                    </g>
                    <g id="me6ee64a740-link" transform="translate(47.043357, 10.967270)">
                        <path d="M3,6 C3.795609,6 4.55874,5.683901 5.12132,5.12132 C5.683901,4.55874 6,3.795609 6,3 C6,2.204391 5.683901,1.44126 5.12132,0.87868 C4.55874,0.316099 3.795609,0 3,0 C2.204391,0 1.44126,0.316099 0.87868,0.87868 C0.316099,1.44126 0,2.204391 0,3 C0,3.795609 0.316099,4.55874 0.87868,5.12132 C1.44126,5.683901 2.204391,6 3,6 Z" id="me6ee64a740"></path>
                    </g>
                    <g id="me6ee64a740-link" transform="translate(70.455944, 26.073236)">
                        <path d="M3,6 C3.795609,6 4.55874,5.683901 5.12132,5.12132 C5.683901,4.55874 6,3.795609 6,3 C6,2.204391 5.683901,1.44126 5.12132,0.87868 C4.55874,0.316099 3.795609,0 3,0 C2.204391,0 1.44126,0.316099 0.87868,0.87868 C0.316099,1.44126 0,2.204391 0,3 C0,3.795609 0.316099,4.55874 0.87868,5.12132 C1.44126,5.683901 2.204391,6 3,6 Z" id="me6ee64a740"></path>
                    </g>
                    <g id="me6ee64a740-link" transform="translate(93.868531, 72.493655)">
                        <path d="M3,6 C3.795609,6 4.55874,5.683901 5.12132,5.12132 C5.683901,4.55874 6,3.795609 6,3 C6,2.204391 5.683901,1.44126 5.12132,0.87868 C4.55874,0.316099 3.795609,0 3,0 C2.204391,0 1.44126,0.316099 0.87868,0.87868 C0.316099,1.44126 0,2.204391 0,3 C0,3.795609 0.316099,4.55874 0.87868,5.12132 C1.44126,5.683901 2.204391,6 3,6 Z" id="me6ee64a740"></path>
                    </g>
                    <g id="me6ee64a740-link" transform="translate(117.281119, 23.009087)">
                        <path d="M3,6 C3.795609,6 4.55874,5.683901 5.12132,5.12132 C5.683901,4.55874 6,3.795609 6,3 C6,2.204391 5.683901,1.44126 5.12132,0.87868 C4.55874,0.316099 3.795609,0 3,0 C2.204391,0 1.44126,0.316099 0.87868,0.87868 C0.316099,1.44126 0,2.204391 0,3 C0,3.795609 0.316099,4.55874 0.87868,5.12132 C1.44126,5.683901 2.204391,6 3,6 Z" id="me6ee64a740"></path>
                    </g>
                    <g id="me6ee64a740-link" transform="translate(140.693706, 37.026851)">
                        <path d="M3,6 C3.795609,6 4.55874,5.683901 5.12132,5.12132 C5.683901,4.55874 6,3.795609 6,3 C6,2.204391 5.683901,1.44126 5.12132,0.87868 C4.55874,0.316099 3.795609,0 3,0 C2.204391,0 1.44126,0.316099 0.87868,0.87868 C0.316099,1.44126 0,2.204391 0,3 C0,3.795609 0.316099,4.55874 0.87868,5.12132 C1.44126,5.683901 2.204391,6 3,6 Z" id="me6ee64a740"></path>
                    </g>
                    <g id="me6ee64a740-link" transform="translate(164.106294, 46.706124)">
                        <path d="M3,6 C3.795609,6 4.55874,5.683901 5.12132,5.12132 C5.683901,4.55874 6,3.795609 6,3 C6,2.204391 5.683901,1.44126 5.12132,0.87868 C4.55874,0.316099 3.795609,0 3,0 C2.204391,0 1.44126,0.316099 0.87868,0.87868 C0.316099,1.44126 0,2.204391 0,3 C0,3.795609 0.316099,4.55874 0.87868,5.12132 C1.44126,5.683901 2.204391,6 3,6 Z" id="me6ee64a740"></path>
                    </g>
                    <g id="me6ee64a740-link" transform="translate(187.518881, 44.644267)">
                        <path d="M3,6 C3.795609,6 4.55874,5.683901 5.12132,5.12132 C5.683901,4.55874 6,3.795609 6,3 C6,2.204391 5.683901,1.44126 5.12132,0.87868 C4.55874,0.316099 3.795609,0 3,0 C2.204391,0 1.44126,0.316099 0.87868,0.87868 C0.316099,1.44126 0,2.204391 0,3 C0,3.795609 0.316099,4.55874 0.87868,5.12132 C1.44126,5.683901 2.204391,6 3,6 Z" id="me6ee64a740"></path>
                    </g>
                    <g id="me6ee64a740-link" transform="translate(210.931469, 32.731316)">
                        <path d="M3,6 C3.795609,6 4.55874,5.683901 5.12132,5.12132 C5.683901,4.55874 6,3.795609 6,3 C6,2.204391 5.683901,1.44126 5.12132,0.87868 C4.55874,0.316099 3.795609,0 3,0 C2.204391,0 1.44126,0.316099 0.87868,0.87868 C0.316099,1.44126 0,2.204391 0,3 C0,3.795609 0.316099,4.55874 0.87868,5.12132 C1.44126,5.683901 2.204391,6 3,6 Z" id="me6ee64a740"></path>
                    </g>
                    <g id="me6ee64a740-link" transform="translate(234.344056, 0.013655)">
                        <path d="M3,6 C3.795609,6 4.55874,5.683901 5.12132,5.12132 C5.683901,4.55874 6,3.795609 6,3 C6,2.204391 5.683901,1.44126 5.12132,0.87868 C4.55874,0.316099 3.795609,0 3,0 C2.204391,0 1.44126,0.316099 0.87868,0.87868 C0.316099,1.44126 0,2.204391 0,3 C0,3.795609 0.316099,4.55874 0.87868,5.12132 C1.44126,5.683901 2.204391,6 3,6 Z" id="me6ee64a740"></path>
                    </g>
                    <g id="me6ee64a740-link" transform="translate(257.756643, 16.207823)">
                        <path d="M3,6 C3.795609,6 4.55874,5.683901 5.12132,5.12132 C5.683901,4.55874 6,3.795609 6,3 C6,2.204391 5.683901,1.44126 5.12132,0.87868 C4.55874,0.316099 3.795609,0 3,0 C2.204391,0 1.44126,0.316099 0.87868,0.87868 C0.316099,1.44126 0,2.204391 0,3 C0,3.795609 0.316099,4.55874 0.87868,5.12132 C1.44126,5.683901 2.204391,6 3,6 Z" id="me6ee64a740"></path>
                    </g>
                    <g id="me6ee64a740-link" transform="translate(281.169231, 62.542331)">
                        <path d="M3,6 C3.795609,6 4.55874,5.683901 5.12132,5.12132 C5.683901,4.55874 6,3.795609 6,3 C6,2.204391 5.683901,1.44126 5.12132,0.87868 C4.55874,0.316099 3.795609,0 3,0 C2.204391,0 1.44126,0.316099 0.87868,0.87868 C0.316099,1.44126 0,2.204391 0,3 C0,3.795609 0.316099,4.55874 0.87868,5.12132 C1.44126,5.683901 2.204391,6 3,6 Z" id="me6ee64a740"></path>
                    </g>
                    <g id="me6ee64a740-link" transform="translate(304.581818, 39.775994)">
                        <path d="M3,6 C3.795609,6 4.55874,5.683901 5.12132,5.12132 C5.683901,4.55874 6,3.795609 6,3 C6,2.204391 5.683901,1.44126 5.12132,0.87868 C4.55874,0.316099 3.795609,0 3,0 C2.204391,0 1.44126,0.316099 0.87868,0.87868 C0.316099,1.44126 0,2.204391 0,3 C0,3.795609 0.316099,4.55874 0.87868,5.12132 C1.44126,5.683901 2.204391,6 3,6 Z" id="me6ee64a740"></path>
                    </g>
                </g>
            </g>
        </g>
    </g>
</svg>