<?xml version="1.0" encoding="UTF-8"?>
<svg width="362px" height="289px" viewBox="0 0 362 289" version="1.1" xmlns="http://www.w3.org/2000/svg" xmlns:xlink="http://www.w3.org/1999/xlink">
    <!-- Generator: Sketch 52.2 (67145) - http://www.bohemiancoding.com/sketch -->
    <title>Group 2</title>
    <desc>Created with Sketch.</desc>
    <g id="Page-1" stroke="none" stroke-width="1" fill="none" fill-rule="evenodd">
        <g id="Group-2" transform="translate(-2.000000, -13.000000)">
            <text id="Stock-Returns" font-family="Helvetica-Bold, Helvetica" font-size="54" font-weight="bold" fill="#000000">
                <tspan x="0.458984375" y="53">Stock Returns</tspan>
            </text>
            <path d="M16,83.56 L350.8,83.56" id="Path" stroke="#000000" stroke-width="0.8" stroke-linecap="square"></path>
            <g id="patch_2" transform="translate(16.000000, 83.000000)" fill="#FFFFFF">
                <polygon id="Path" points="0 218 334.8 218 334.8 0.56 0 0.56"></polygon>
            </g>
            <g id="line2d_13" transform="translate(28.000000, 90.000000)" stroke="#1F77B4">
                <polyline id="Path" stroke-width="1.5" stroke-linecap="square" points="3.218182 137.815793 26.630769 176.944215 50.043357 33.317132 73.455944 74.515221 96.868531 201.116364 120.281119 66.158453 143.693706 104.388717 167.106294 130.786735 190.518881 125.163488 213.931469 92.673621 237.344056 3.443636 260.756643 47.60955 284.169231 173.97639 307.581818 111.886379"></polyline>
                <g id="Group" fill="#1F77B4">
                    <g id="md8eebfe82d-link" transform="translate(0.218182, 134.815793)">
                        <path d="M3,6 C3.795609,6 4.55874,5.683901 5.12132,5.12132 C5.683901,4.55874 6,3.795609 6,3 C6,2.204391 5.683901,1.44126 5.12132,0.87868 C4.55874,0.316099 3.795609,0 3,0 C2.204391,0 1.44126,0.316099 0.87868,0.87868 C0.316099,1.44126 0,2.204391 0,3 C0,3.795609 0.316099,4.55874 0.87868,5.12132 C1.44126,5.683901 2.204391,6 3,6 Z" id="md8eebfe82d"></path>
                    </g>
                    <g id="md8eebfe82d-link" transform="translate(23.630769, 173.944215)">
                        <path d="M3,6 C3.795609,6 4.55874,5.683901 5.12132,5.12132 C5.683901,4.55874 6,3.795609 6,3 C6,2.204391 5.683901,1.44126 5.12132,0.87868 C4.55874,0.316099 3.795609,0 3,0 C2.204391,0 1.44126,0.316099 0.87868,0.87868 C0.316099,1.44126 0,2.204391 0,3 C0,3.795609 0.316099,4.55874 0.87868,5.12132 C1.44126,5.683901 2.204391,6 3,6 Z" id="md8eebfe82d"></path>
                    </g>
                    <g id="md8eebfe82d-link" transform="translate(47.043357, 30.317132)">
                        <path d="M3,6 C3.795609,6 4.55874,5.683901 5.12132,5.12132 C5.683901,4.55874 6,3.795609 6,3 C6,2.204391 5.683901,1.44126 5.12132,0.87868 C4.55874,0.316099 3.795609,0 3,0 C2.204391,0 1.44126,0.316099 0.87868,0.87868 C0.316099,1.44126 0,2.204391 0,3 C0,3.795609 0.316099,4.55874 0.87868,5.12132 C1.44126,5.683901 2.204391,6 3,6 Z" id="md8eebfe82d"></path>
                    </g>
                    <g id="md8eebfe82d-link" transform="translate(70.455944, 71.515221)">
                        <path d="M3,6 C3.795609,6 4.55874,5.683901 5.12132,5.12132 C5.683901,4.55874 6,3.795609 6,3 C6,2.204391 5.683901,1.44126 5.12132,0.87868 C4.55874,0.316099 3.795609,0 3,0 C2.204391,0 1.44126,0.316099 0.87868,0.87868 C0.316099,1.44126 0,2.204391 0,3 C0,3.795609 0.316099,4.55874 0.87868,5.12132 C1.44126,5.683901 2.204391,6 3,6 Z" id="md8eebfe82d"></path>
                    </g>
                    <g id="md8eebfe82d-link" transform="translate(93.868531, 198.116364)">
                        <path d="M3,6 C3.795609,6 4.55874,5.683901 5.12132,5.12132 C5.683901,4.55874 6,3.795609 6,3 C6,2.204391 5.683901,1.44126 5.12132,0.87868 C4.55874,0.316099 3.795609,0 3,0 C2.204391,0 1.44126,0.316099 0.87868,0.87868 C0.316099,1.44126 0,2.204391 0,3 C0,3.795609 0.316099,4.55874 0.87868,5.12132 C1.44126,5.683901 2.204391,6 3,6 Z" id="md8eebfe82d"></path>
                    </g>
                    <g id="md8eebfe82d-link" transform="translate(117.281119, 63.158453)">
                        <path d="M3,6 C3.795609,6 4.55874,5.683901 5.12132,5.12132 C5.683901,4.55874 6,3.795609 6,3 C6,2.204391 5.683901,1.44126 5.12132,0.87868 C4.55874,0.316099 3.795609,0 3,0 C2.204391,0 1.44126,0.316099 0.87868,0.87868 C0.316099,1.44126 0,2.204391 0,3 C0,3.795609 0.316099,4.55874 0.87868,5.12132 C1.44126,5.683901 2.204391,6 3,6 Z" id="md8eebfe82d"></path>
                    </g>
                    <g id="md8eebfe82d-link" transform="translate(140.693706, 101.388717)">
                        <path d="M3,6 C3.795609,6 4.55874,5.683901 5.12132,5.12132 C5.683901,4.55874 6,3.795609 6,3 C6,2.204391 5.683901,1.44126 5.12132,0.87868 C4.55874,0.316099 3.795609,0 3,0 C2.204391,0 1.44126,0.316099 0.87868,0.87868 C0.316099,1.44126 0,2.204391 0,3 C0,3.795609 0.316099,4.55874 0.87868,5.12132 C1.44126,5.683901 2.204391,6 3,6 Z" id="md8eebfe82d"></path>
                    </g>
                    <g id="md8eebfe82d-link" transform="translate(164.106294, 127.786735)">
                        <path d="M3,6 C3.795609,6 4.55874,5.683901 5.12132,5.12132 C5.683901,4.55874 6,3.795609 6,3 C6,2.204391 5.683901,1.44126 5.12132,0.87868 C4.55874,0.316099 3.795609,0 3,0 C2.204391,0 1.44126,0.316099 0.87868,0.87868 C0.316099,1.44126 0,2.204391 0,3 C0,3.795609 0.316099,4.55874 0.87868,5.12132 C1.44126,5.683901 2.204391,6 3,6 Z" id="md8eebfe82d"></path>
                    </g>
                    <g id="md8eebfe82d-link" transform="translate(187.518881, 122.163488)">
                        <path d="M3,6 C3.795609,6 4.55874,5.683901 5.12132,5.12132 C5.683901,4.55874 6,3.795609 6,3 C6,2.204391 5.683901,1.44126 5.12132,0.87868 C4.55874,0.316099 3.795609,0 3,0 C2.204391,0 1.44126,0.316099 0.87868,0.87868 C0.316099,1.44126 0,2.204391 0,3 C0,3.795609 0.316099,4.55874 0.87868,5.12132 C1.44126,5.683901 2.204391,6 3,6 Z" id="md8eebfe82d"></path>
                    </g>
                    <g id="md8eebfe82d-link" transform="translate(210.931469, 89.673621)">
                        <path d="M3,6 C3.795609,6 4.55874,5.683901 5.12132,5.12132 C5.683901,4.55874 6,3.795609 6,3 C6,2.204391 5.683901,1.44126 5.12132,0.87868 C4.55874,0.316099 3.795609,0 3,0 C2.204391,0 1.44126,0.316099 0.87868,0.87868 C0.316099,1.44126 0,2.204391 0,3 C0,3.795609 0.316099,4.55874 0.87868,5.12132 C1.44126,5.683901 2.204391,6 3,6 Z" id="md8eebfe82d"></path>
                    </g>
                    <g id="md8eebfe82d-link" transform="translate(234.344056, 0.443636)">
                        <path d="M3,6 C3.795609,6 4.55874,5.683901 5.12132,5.12132 C5.683901,4.55874 6,3.795609 6,3 C6,2.204391 5.683901,1.44126 5.12132,0.87868 C4.55874,0.316099 3.795609,0 3,0 C2.204391,0 1.44126,0.316099 0.87868,0.87868 C0.316099,1.44126 0,2.204391 0,3 C0,3.795609 0.316099,4.55874 0.87868,5.12132 C1.44126,5.683901 2.204391,6 3,6 Z" id="md8eebfe82d"></path>
                    </g>
                    <g id="md8eebfe82d-link" transform="translate(257.756643, 44.609550)">
                        <path d="M3,6 C3.795609,6 4.55874,5.683901 5.12132,5.12132 C5.683901,4.55874 6,3.795609 6,3 C6,2.204391 5.683901,1.44126 5.12132,0.87868 C4.55874,0.316099 3.795609,0 3,0 C2.204391,0 1.44126,0.316099 0.87868,0.87868 C0.316099,1.44126 0,2.204391 0,3 C0,3.795609 0.316099,4.55874 0.87868,5.12132 C1.44126,5.683901 2.204391,6 3,6 Z" id="md8eebfe82d"></path>
                    </g>
                    <g id="md8eebfe82d-link" transform="translate(281.169231, 170.976390)">
                        <path d="M3,6 C3.795609,6 4.55874,5.683901 5.12132,5.12132 C5.683901,4.55874 6,3.795609 6,3 C6,2.204391 5.683901,1.44126 5.12132,0.87868 C4.55874,0.316099 3.795609,0 3,0 C2.204391,0 1.44126,0.316099 0.87868,0.87868 C0.316099,1.44126 0,2.204391 0,3 C0,3.795609 0.316099,4.55874 0.87868,5.12132 C1.44126,5.683901 2.204391,6 3,6 Z" id="md8eebfe82d"></path>
                    </g>
                    <g id="md8eebfe82d-link" transform="translate(304.581818, 108.886379)">
                        <path d="M3,6 C3.795609,6 4.55874,5.683901 5.12132,5.12132 C5.683901,4.55874 6,3.795609 6,3 C6,2.204391 5.683901,1.44126 5.12132,0.87868 C4.55874,0.316099 3.795609,0 3,0 C2.204391,0 1.44126,0.316099 0.87868,0.87868 C0.316099,1.44126 0,2.204391 0,3 C0,3.795609 0.316099,4.55874 0.87868,5.12132 C1.44126,5.683901 2.204391,6 3,6 Z" id="md8eebfe82d"></path>
                    </g>
                </g>
            </g>
            <g id="patch_5" transform="translate(16.000000, 300.000000)" stroke="#000000" stroke-linecap="square" stroke-width="0.8">
                <path d="M0,1 L334.8,1" id="Path"></path>
            </g>
            <g id="patch_3" transform="translate(15.000000, 83.000000)" stroke="#000000" stroke-linecap="square" stroke-width="0.8">
                <path d="M1,218 L1,0.56" id="Path"></path>
            </g>
            <g id="patch_4" transform="translate(350.000000, 83.000000)" stroke="#000000" stroke-linecap="square" stroke-width="0.8">
                <path d="M0.8,218 L0.8,0.56" id="Path"></path>
            </g>
        </g>
    </g>
</svg>