<?xml version="1.0" encoding="UTF-8"?>
<svg width="934px" height="874px" viewBox="0 0 934 874" version="1.1" xmlns="http://www.w3.org/2000/svg" xmlns:xlink="http://www.w3.org/1999/xlink">
    <!-- Generator: Sketch 52.2 (67145) - http://www.bohemiancoding.com/sketch -->
    <title>Group 8</title>
    <desc>Created with Sketch.</desc>
    <g id="Page-1" stroke="none" stroke-width="1" fill="none" fill-rule="evenodd">
        <g id="Group-8" transform="translate(-2.000000, -9.000000)">
            <path d="M701.4,356.62908 L524.5,530" id="Line-2" stroke="#000000" stroke-width="7" stroke-linecap="square"></path>
            <path d="M182.5,326.5 L412.868531,530" id="Line-3" stroke="#000000" stroke-width="7" stroke-linecap="square"></path>
            <g id="Group-2" transform="translate(0.000000, 28.000000)">
                <text id="Stock-Returns" font-family="Helvetica-Bold, Helvetica" font-size="54" font-weight="bold" fill="#000000">
                    <tspan x="0.458984375" y="53">Stock Returns</tspan>
                </text>
                <path d="M16,83.56 L350.8,83.56" id="Path" stroke="#000000" stroke-width="0.8" stroke-linecap="square"></path>
                <g id="patch_2" transform="translate(16.000000, 83.000000)" fill="#FFFFFF">
                    <polygon id="Path" points="0 218 334.8 218 334.8 0.56 0 0.56"></polygon>
                </g>
                <g id="line2d_13" transform="translate(28.000000, 90.000000)" stroke="#1F77B4">
                    <polyline id="Path" stroke-width="1.5" stroke-linecap="square" points="3.218182 137.815793 26.630769 176.944215 50.043357 33.317132 73.455944 74.515221 96.868531 201.116364 120.281119 66.158453 143.693706 104.388717 167.106294 130.786735 190.518881 125.163488 213.931469 92.673621 237.344056 3.443636 260.756643 47.60955 284.169231 173.97639 307.581818 111.886379"></polyline>
                    <g id="Group" fill="#1F77B4">
                        <g id="md8eebfe82d-link" transform="translate(0.218182, 134.815793)">
                            <path d="M3,6 C3.795609,6 4.55874,5.683901 5.12132,5.12132 C5.683901,4.55874 6,3.795609 6,3 C6,2.204391 5.683901,1.44126 5.12132,0.87868 C4.55874,0.316099 3.795609,0 3,0 C2.204391,0 1.44126,0.316099 0.87868,0.87868 C0.316099,1.44126 0,2.204391 0,3 C0,3.795609 0.316099,4.55874 0.87868,5.12132 C1.44126,5.683901 2.204391,6 3,6 Z" id="md8eebfe82d"></path>
                        </g>
                        <g id="md8eebfe82d-link" transform="translate(23.630769, 173.944215)">
                            <path d="M3,6 C3.795609,6 4.55874,5.683901 5.12132,5.12132 C5.683901,4.55874 6,3.795609 6,3 C6,2.204391 5.683901,1.44126 5.12132,0.87868 C4.55874,0.316099 3.795609,0 3,0 C2.204391,0 1.44126,0.316099 0.87868,0.87868 C0.316099,1.44126 0,2.204391 0,3 C0,3.795609 0.316099,4.55874 0.87868,5.12132 C1.44126,5.683901 2.204391,6 3,6 Z" id="md8eebfe82d"></path>
                        </g>
                        <g id="md8eebfe82d-link" transform="translate(47.043357, 30.317132)">
                            <path d="M3,6 C3.795609,6 4.55874,5.683901 5.12132,5.12132 C5.683901,4.55874 6,3.795609 6,3 C6,2.204391 5.683901,1.44126 5.12132,0.87868 C4.55874,0.316099 3.795609,0 3,0 C2.204391,0 1.44126,0.316099 0.87868,0.87868 C0.316099,1.44126 0,2.204391 0,3 C0,3.795609 0.316099,4.55874 0.87868,5.12132 C1.44126,5.683901 2.204391,6 3,6 Z" id="md8eebfe82d"></path>
                        </g>
                        <g id="md8eebfe82d-link" transform="translate(70.455944, 71.515221)">
                            <path d="M3,6 C3.795609,6 4.55874,5.683901 5.12132,5.12132 C5.683901,4.55874 6,3.795609 6,3 C6,2.204391 5.683901,1.44126 5.12132,0.87868 C4.55874,0.316099 3.795609,0 3,0 C2.204391,0 1.44126,0.316099 0.87868,0.87868 C0.316099,1.44126 0,2.204391 0,3 C0,3.795609 0.316099,4.55874 0.87868,5.12132 C1.44126,5.683901 2.204391,6 3,6 Z" id="md8eebfe82d"></path>
                        </g>
                        <g id="md8eebfe82d-link" transform="translate(93.868531, 198.116364)">
                            <path d="M3,6 C3.795609,6 4.55874,5.683901 5.12132,5.12132 C5.683901,4.55874 6,3.795609 6,3 C6,2.204391 5.683901,1.44126 5.12132,0.87868 C4.55874,0.316099 3.795609,0 3,0 C2.204391,0 1.44126,0.316099 0.87868,0.87868 C0.316099,1.44126 0,2.204391 0,3 C0,3.795609 0.316099,4.55874 0.87868,5.12132 C1.44126,5.683901 2.204391,6 3,6 Z" id="md8eebfe82d"></path>
                        </g>
                        <g id="md8eebfe82d-link" transform="translate(117.281119, 63.158453)">
                            <path d="M3,6 C3.795609,6 4.55874,5.683901 5.12132,5.12132 C5.683901,4.55874 6,3.795609 6,3 C6,2.204391 5.683901,1.44126 5.12132,0.87868 C4.55874,0.316099 3.795609,0 3,0 C2.204391,0 1.44126,0.316099 0.87868,0.87868 C0.316099,1.44126 0,2.204391 0,3 C0,3.795609 0.316099,4.55874 0.87868,5.12132 C1.44126,5.683901 2.204391,6 3,6 Z" id="md8eebfe82d"></path>
                        </g>
                        <g id="md8eebfe82d-link" transform="translate(140.693706, 101.388717)">
                            <path d="M3,6 C3.795609,6 4.55874,5.683901 5.12132,5.12132 C5.683901,4.55874 6,3.795609 6,3 C6,2.204391 5.683901,1.44126 5.12132,0.87868 C4.55874,0.316099 3.795609,0 3,0 C2.204391,0 1.44126,0.316099 0.87868,0.87868 C0.316099,1.44126 0,2.204391 0,3 C0,3.795609 0.316099,4.55874 0.87868,5.12132 C1.44126,5.683901 2.204391,6 3,6 Z" id="md8eebfe82d"></path>
                        </g>
                        <g id="md8eebfe82d-link" transform="translate(164.106294, 127.786735)">
                            <path d="M3,6 C3.795609,6 4.55874,5.683901 5.12132,5.12132 C5.683901,4.55874 6,3.795609 6,3 C6,2.204391 5.683901,1.44126 5.12132,0.87868 C4.55874,0.316099 3.795609,0 3,0 C2.204391,0 1.44126,0.316099 0.87868,0.87868 C0.316099,1.44126 0,2.204391 0,3 C0,3.795609 0.316099,4.55874 0.87868,5.12132 C1.44126,5.683901 2.204391,6 3,6 Z" id="md8eebfe82d"></path>
                        </g>
                        <g id="md8eebfe82d-link" transform="translate(187.518881, 122.163488)">
                            <path d="M3,6 C3.795609,6 4.55874,5.683901 5.12132,5.12132 C5.683901,4.55874 6,3.795609 6,3 C6,2.204391 5.683901,1.44126 5.12132,0.87868 C4.55874,0.316099 3.795609,0 3,0 C2.204391,0 1.44126,0.316099 0.87868,0.87868 C0.316099,1.44126 0,2.204391 0,3 C0,3.795609 0.316099,4.55874 0.87868,5.12132 C1.44126,5.683901 2.204391,6 3,6 Z" id="md8eebfe82d"></path>
                        </g>
                        <g id="md8eebfe82d-link" transform="translate(210.931469, 89.673621)">
                            <path d="M3,6 C3.795609,6 4.55874,5.683901 5.12132,5.12132 C5.683901,4.55874 6,3.795609 6,3 C6,2.204391 5.683901,1.44126 5.12132,0.87868 C4.55874,0.316099 3.795609,0 3,0 C2.204391,0 1.44126,0.316099 0.87868,0.87868 C0.316099,1.44126 0,2.204391 0,3 C0,3.795609 0.316099,4.55874 0.87868,5.12132 C1.44126,5.683901 2.204391,6 3,6 Z" id="md8eebfe82d"></path>
                        </g>
                        <g id="md8eebfe82d-link" transform="translate(234.344056, 0.443636)">
                            <path d="M3,6 C3.795609,6 4.55874,5.683901 5.12132,5.12132 C5.683901,4.55874 6,3.795609 6,3 C6,2.204391 5.683901,1.44126 5.12132,0.87868 C4.55874,0.316099 3.795609,0 3,0 C2.204391,0 1.44126,0.316099 0.87868,0.87868 C0.316099,1.44126 0,2.204391 0,3 C0,3.795609 0.316099,4.55874 0.87868,5.12132 C1.44126,5.683901 2.204391,6 3,6 Z" id="md8eebfe82d"></path>
                        </g>
                        <g id="md8eebfe82d-link" transform="translate(257.756643, 44.609550)">
                            <path d="M3,6 C3.795609,6 4.55874,5.683901 5.12132,5.12132 C5.683901,4.55874 6,3.795609 6,3 C6,2.204391 5.683901,1.44126 5.12132,0.87868 C4.55874,0.316099 3.795609,0 3,0 C2.204391,0 1.44126,0.316099 0.87868,0.87868 C0.316099,1.44126 0,2.204391 0,3 C0,3.795609 0.316099,4.55874 0.87868,5.12132 C1.44126,5.683901 2.204391,6 3,6 Z" id="md8eebfe82d"></path>
                        </g>
                        <g id="md8eebfe82d-link" transform="translate(281.169231, 170.976390)">
                            <path d="M3,6 C3.795609,6 4.55874,5.683901 5.12132,5.12132 C5.683901,4.55874 6,3.795609 6,3 C6,2.204391 5.683901,1.44126 5.12132,0.87868 C4.55874,0.316099 3.795609,0 3,0 C2.204391,0 1.44126,0.316099 0.87868,0.87868 C0.316099,1.44126 0,2.204391 0,3 C0,3.795609 0.316099,4.55874 0.87868,5.12132 C1.44126,5.683901 2.204391,6 3,6 Z" id="md8eebfe82d"></path>
                        </g>
                        <g id="md8eebfe82d-link" transform="translate(304.581818, 108.886379)">
                            <path d="M3,6 C3.795609,6 4.55874,5.683901 5.12132,5.12132 C5.683901,4.55874 6,3.795609 6,3 C6,2.204391 5.683901,1.44126 5.12132,0.87868 C4.55874,0.316099 3.795609,0 3,0 C2.204391,0 1.44126,0.316099 0.87868,0.87868 C0.316099,1.44126 0,2.204391 0,3 C0,3.795609 0.316099,4.55874 0.87868,5.12132 C1.44126,5.683901 2.204391,6 3,6 Z" id="md8eebfe82d"></path>
                        </g>
                    </g>
                </g>
                <g id="patch_5" transform="translate(16.000000, 300.000000)" stroke="#000000" stroke-linecap="square" stroke-width="0.8">
                    <path d="M0,1 L334.8,1" id="Path"></path>
                </g>
                <g id="patch_3" transform="translate(15.000000, 83.000000)" stroke="#000000" stroke-linecap="square" stroke-width="0.8">
                    <path d="M1,218 L1,0.56" id="Path"></path>
                </g>
                <g id="patch_4" transform="translate(350.000000, 83.000000)" stroke="#000000" stroke-linecap="square" stroke-width="0.8">
                    <path d="M0.8,218 L0.8,0.56" id="Path"></path>
                </g>
            </g>
            <g id="Group-6" transform="translate(458.000000, 0.000000)">
                <text id="Correlations-Between" font-family="Helvetica-Bold, Helvetica" font-size="40" font-weight="bold" fill="#000000">
                    <tspan x="33.3945312" y="39">Correlations Between</tspan>
                    <tspan x="131.177734" y="87">Each Stock</tspan>
                </text>
                <g id="Group-4" transform="translate(0.000000, 124.000000)">
                    <g id="Group" transform="translate(254.000000, 0.000000)">
                        <polygon id="Path" fill="#FFFFFF" points="0.418397626 91.2106825 140.497923 91.2106825 140.497923 0.234302671 0.418397626 0.234302671"></polygon>
                        <polyline id="Path" stroke="#1F77B4" stroke-width="1.5" stroke-linecap="square" points="6.78564885 12.2154982 9.38452696 46.6983427 11.9834046 37.4618226 19.780039 31.3643513 22.3789171 35.8501964 24.9777948 36.9468668 27.5766729 59.8151928 30.175551 32.2682642 37.9721849 31.6180848 40.571063 34.0900708 43.1699411 43.0767134 45.7688192 52.1882346 48.3676969 41.9885461 56.1643313 41.7618821 58.763209 30.8356143 61.3620871 39.8973638 63.9609652 43.3272896 66.5598433 38.4188014 74.3564772 34.6184154 76.9553553 35.2757683 79.5542334 39.0607911 82.1531115 38.2530732 84.7519892 40.4681385 95.1475012 47.8544381 97.7463793 41.2842209 100.345257 43.0720541 102.944136 50.4463474 110.740769 29.7830944 113.339648 43.0408927 115.938526 45.1491192 118.537403 45.8249506 121.136281 34.5579695 128.932916 45.2142064 131.531794 40.4239724 134.130672 50.7163406"></polyline>
                        <polyline id="Path" stroke="#FF7F0E" stroke-width="1.5" stroke-linecap="square" points="6.78564885 62.9885639 9.38452696 55.7001396 11.9834046 53.5143367 19.780039 43.2807035 22.3789171 34.7111976 24.9777948 38.0374629 27.5766729 17.8744675 30.175551 32.5008197 37.9721849 36.9402473 40.571063 46.8000824 43.1699411 30.0919911 45.7688192 41.2623735 48.3676969 41.2629944 56.1643313 41.2636165 58.763209 80.4519612 61.3620871 42.619206 63.9609652 45.257321 66.5598433 48.6078831 74.3564772 4.36959251 76.9553553 17.2078935 79.5542334 36.383181 82.1531115 27.3305266 84.7519892 40.6519322 95.1475012 25.2500273 97.7463793 47.5827893 100.345257 11.4362569 102.944136 50.1245322 110.740769 87.0753927 113.339648 41.2654909 115.938526 59.0775239 118.537403 22.2768749 121.136281 30.2000766 128.932916 67.241136 131.531794 40.6519322 134.130672 52.0331292"></polyline>
                        <path d="M0.418397626,91.2106825 L0.418397626,0.234302671" id="Path" stroke="#000000" stroke-width="0.8" stroke-linecap="square"></path>
                        <path d="M140.497923,91.2106825 L140.497923,0.234302671" id="Path" stroke="#000000" stroke-width="0.8" stroke-linecap="square"></path>
                        <path d="M0.418397626,91.2106825 L140.497923,91.2106825" id="Path" stroke="#000000" stroke-width="0.8" stroke-linecap="square"></path>
                        <path d="M0.418397626,0.234302671 L140.497923,0.234302671" id="Path" stroke="#000000" stroke-width="0.8" stroke-linecap="square"></path>
                    </g>
                    <g id="Group" transform="translate(337.000000, 46.000000)">
                        <polygon id="Path" fill="#FFFFFF" points="0.418397626 91.2106825 140.497923 91.2106825 140.497923 0.234302671 0.418397626 0.234302671"></polygon>
                        <polyline id="Path" stroke="#1F77B4" stroke-width="1.5" stroke-linecap="square" points="6.78564885 12.2154982 9.38452696 46.6983427 11.9834046 37.4618226 19.780039 31.3643513 22.3789171 35.8501964 24.9777948 36.9468668 27.5766729 59.8151928 30.175551 32.2682642 37.9721849 31.6180848 40.571063 34.0900708 43.1699411 43.0767134 45.7688192 52.1882346 48.3676969 41.9885461 56.1643313 41.7618821 58.763209 30.8356143 61.3620871 39.8973638 63.9609652 43.3272896 66.5598433 38.4188014 74.3564772 34.6184154 76.9553553 35.2757683 79.5542334 39.0607911 82.1531115 38.2530732 84.7519892 40.4681385 95.1475012 47.8544381 97.7463793 41.2842209 100.345257 43.0720541 102.944136 50.4463474 110.740769 29.7830944 113.339648 43.0408927 115.938526 45.1491192 118.537403 45.8249506 121.136281 34.5579695 128.932916 45.2142064 131.531794 40.4239724 134.130672 50.7163406"></polyline>
                        <polyline id="Path" stroke="#FF7F0E" stroke-width="1.5" stroke-linecap="square" points="6.78564885 62.9885639 9.38452696 55.7001396 11.9834046 53.5143367 19.780039 43.2807035 22.3789171 34.7111976 24.9777948 38.0374629 27.5766729 17.8744675 30.175551 32.5008197 37.9721849 36.9402473 40.571063 46.8000824 43.1699411 30.0919911 45.7688192 41.2623735 48.3676969 41.2629944 56.1643313 41.2636165 58.763209 80.4519612 61.3620871 42.619206 63.9609652 45.257321 66.5598433 48.6078831 74.3564772 4.36959251 76.9553553 17.2078935 79.5542334 36.383181 82.1531115 27.3305266 84.7519892 40.6519322 95.1475012 25.2500273 97.7463793 47.5827893 100.345257 11.4362569 102.944136 50.1245322 110.740769 87.0753927 113.339648 41.2654909 115.938526 59.0775239 118.537403 22.2768749 121.136281 30.2000766 128.932916 67.241136 131.531794 40.6519322 134.130672 52.0331292"></polyline>
                        <path d="M0.418397626,91.2106825 L0.418397626,0.234302671" id="Path" stroke="#000000" stroke-width="0.8" stroke-linecap="square"></path>
                        <path d="M140.497923,91.2106825 L140.497923,0.234302671" id="Path" stroke="#000000" stroke-width="0.8" stroke-linecap="square"></path>
                        <path d="M0.418397626,91.2106825 L140.497923,91.2106825" id="Path" stroke="#000000" stroke-width="0.8" stroke-linecap="square"></path>
                        <path d="M0.418397626,0.234302671 L140.497923,0.234302671" id="Path" stroke="#000000" stroke-width="0.8" stroke-linecap="square"></path>
                    </g>
                    <g id="Group" transform="translate(267.000000, 122.000000)">
                        <polygon id="Path" fill="#FFFFFF" points="0.418397626 91.2106825 140.497923 91.2106825 140.497923 0.234302671 0.418397626 0.234302671"></polygon>
                        <polyline id="Path" stroke="#1F77B4" stroke-width="1.5" stroke-linecap="square" points="6.78564885 12.2154982 9.38452696 46.6983427 11.9834046 37.4618226 19.780039 31.3643513 22.3789171 35.8501964 24.9777948 36.9468668 27.5766729 59.8151928 30.175551 32.2682642 37.9721849 31.6180848 40.571063 34.0900708 43.1699411 43.0767134 45.7688192 52.1882346 48.3676969 41.9885461 56.1643313 41.7618821 58.763209 30.8356143 61.3620871 39.8973638 63.9609652 43.3272896 66.5598433 38.4188014 74.3564772 34.6184154 76.9553553 35.2757683 79.5542334 39.0607911 82.1531115 38.2530732 84.7519892 40.4681385 95.1475012 47.8544381 97.7463793 41.2842209 100.345257 43.0720541 102.944136 50.4463474 110.740769 29.7830944 113.339648 43.0408927 115.938526 45.1491192 118.537403 45.8249506 121.136281 34.5579695 128.932916 45.2142064 131.531794 40.4239724 134.130672 50.7163406"></polyline>
                        <polyline id="Path" stroke="#FF7F0E" stroke-width="1.5" stroke-linecap="square" points="6.78564885 62.9885639 9.38452696 55.7001396 11.9834046 53.5143367 19.780039 43.2807035 22.3789171 34.7111976 24.9777948 38.0374629 27.5766729 17.8744675 30.175551 32.5008197 37.9721849 36.9402473 40.571063 46.8000824 43.1699411 30.0919911 45.7688192 41.2623735 48.3676969 41.2629944 56.1643313 41.2636165 58.763209 80.4519612 61.3620871 42.619206 63.9609652 45.257321 66.5598433 48.6078831 74.3564772 4.36959251 76.9553553 17.2078935 79.5542334 36.383181 82.1531115 27.3305266 84.7519892 40.6519322 95.1475012 25.2500273 97.7463793 47.5827893 100.345257 11.4362569 102.944136 50.1245322 110.740769 87.0753927 113.339648 41.2654909 115.938526 59.0775239 118.537403 22.2768749 121.136281 30.2000766 128.932916 67.241136 131.531794 40.6519322 134.130672 52.0331292"></polyline>
                        <path d="M0.418397626,91.2106825 L0.418397626,0.234302671" id="Path" stroke="#000000" stroke-width="0.8" stroke-linecap="square"></path>
                        <path d="M140.497923,91.2106825 L140.497923,0.234302671" id="Path" stroke="#000000" stroke-width="0.8" stroke-linecap="square"></path>
                        <path d="M0.418397626,91.2106825 L140.497923,91.2106825" id="Path" stroke="#000000" stroke-width="0.8" stroke-linecap="square"></path>
                        <path d="M0.418397626,0.234302671 L140.497923,0.234302671" id="Path" stroke="#000000" stroke-width="0.8" stroke-linecap="square"></path>
                    </g>
                    <g id="Group" transform="translate(210.000000, 80.000000)">
                        <polygon id="Path" fill="#FFFFFF" points="0.418397626 91.2106825 140.497923 91.2106825 140.497923 0.234302671 0.418397626 0.234302671"></polygon>
                        <polyline id="Path" stroke="#1F77B4" stroke-width="1.5" stroke-linecap="square" points="6.78564885 12.2154982 9.38452696 46.6983427 11.9834046 37.4618226 19.780039 31.3643513 22.3789171 35.8501964 24.9777948 36.9468668 27.5766729 59.8151928 30.175551 32.2682642 37.9721849 31.6180848 40.571063 34.0900708 43.1699411 43.0767134 45.7688192 52.1882346 48.3676969 41.9885461 56.1643313 41.7618821 58.763209 30.8356143 61.3620871 39.8973638 63.9609652 43.3272896 66.5598433 38.4188014 74.3564772 34.6184154 76.9553553 35.2757683 79.5542334 39.0607911 82.1531115 38.2530732 84.7519892 40.4681385 95.1475012 47.8544381 97.7463793 41.2842209 100.345257 43.0720541 102.944136 50.4463474 110.740769 29.7830944 113.339648 43.0408927 115.938526 45.1491192 118.537403 45.8249506 121.136281 34.5579695 128.932916 45.2142064 131.531794 40.4239724 134.130672 50.7163406"></polyline>
                        <polyline id="Path" stroke="#FF7F0E" stroke-width="1.5" stroke-linecap="square" points="6.78564885 62.9885639 9.38452696 55.7001396 11.9834046 53.5143367 19.780039 43.2807035 22.3789171 34.7111976 24.9777948 38.0374629 27.5766729 17.8744675 30.175551 32.5008197 37.9721849 36.9402473 40.571063 46.8000824 43.1699411 30.0919911 45.7688192 41.2623735 48.3676969 41.2629944 56.1643313 41.2636165 58.763209 80.4519612 61.3620871 42.619206 63.9609652 45.257321 66.5598433 48.6078831 74.3564772 4.36959251 76.9553553 17.2078935 79.5542334 36.383181 82.1531115 27.3305266 84.7519892 40.6519322 95.1475012 25.2500273 97.7463793 47.5827893 100.345257 11.4362569 102.944136 50.1245322 110.740769 87.0753927 113.339648 41.2654909 115.938526 59.0775239 118.537403 22.2768749 121.136281 30.2000766 128.932916 67.241136 131.531794 40.6519322 134.130672 52.0331292"></polyline>
                        <path d="M0.418397626,91.2106825 L0.418397626,0.234302671" id="Path" stroke="#000000" stroke-width="0.8" stroke-linecap="square"></path>
                        <path d="M140.497923,91.2106825 L140.497923,0.234302671" id="Path" stroke="#000000" stroke-width="0.8" stroke-linecap="square"></path>
                        <path d="M0.418397626,91.2106825 L140.497923,91.2106825" id="Path" stroke="#000000" stroke-width="0.8" stroke-linecap="square"></path>
                        <path d="M0.418397626,0.234302671 L140.497923,0.234302671" id="Path" stroke="#000000" stroke-width="0.8" stroke-linecap="square"></path>
                    </g>
                    <g id="Group-5" transform="translate(26.000000, 67.000000)">
                        <g id="patch_2" transform="translate(1.000000, 0.000000)" fill="#FFFFFF">
                            <polygon id="Path" points="0 92 139.916418 92 139.916418 0.236330275 0 0.236330275"></polygon>
                        </g>
                        <g id="line2d_16" stroke-linecap="square" transform="translate(7.000000, 4.000000)" stroke="#1F77B4" stroke-width="1.5">
                            <polyline id="Path" points="0.0915649049 37.8248539 2.7526677 33.2238379 5.41377049 44.4930136 8.07487329 46.1219923 16.0581817 30.1241015 18.7192845 49.6593306 21.3803877 83.6270079 24.0414905 30.0802084 26.7025933 51.9680381 34.6859016 45.7187294 37.3470044 16.0393868 40.0081072 32.7074325 42.66921 54.3005337 45.3303128 39.5568465 53.3136216 57.8720849 55.9747244 68.753924 58.6358272 22.5060829 61.29693 51.9775605 63.9580328 31.1930822 71.9413412 33.6231696 74.602444 35.1598082 77.2635468 0.29989604 79.92465 28.9710137 82.5857528 4.86485705 93.2301639 43.0157267 95.8912667 13.0144324 98.5523695 37.5615371 101.213472 36.6532404 109.196781 20.6598477 111.857884 33.3951548 114.518987 28.0260745 117.180089 8.27698263 119.841192 43.8994004 127.824501 1.78320519"></polyline>
                        </g>
                        <g id="line2d_17" stroke-linecap="square" transform="translate(7.000000, 4.000000)" stroke="#FF7F0E" stroke-width="1.5">
                            <polyline id="Path" points="0.0915649049 44.4238758 2.7526677 29.7748924 5.41377049 39.6473644 8.07487329 43.5346191 16.0581817 31.6025051 18.7192845 45.1899525 21.3803877 73.6382026 24.0414905 45.9321222 26.7025933 42.2104719 34.6859016 38.8636536 37.3470044 22.7825195 40.0081072 36.0870049 42.66921 60.4885121 45.3303128 42.604826 53.3136216 43.1374505 55.9747244 57.2734675 58.6358272 33.3730714 61.29693 46.9055237 63.9580328 18.5280993 71.9413412 56.8926872 74.602444 38.3072574 77.2635468 0.187594651 79.92465 26.529367 82.5857528 21.4520093 93.2301639 53.0550527 95.8912667 29.1711818 98.5523695 32.43793 101.213472 32.1874819 109.196781 23.9270192 111.857884 39.1297564 114.518987 33.4796081 117.180089 38.60845 119.841192 44.8096357 127.824501 18.8035708"></polyline>
                        </g>
                        <g id="patch_3" stroke-linecap="square" stroke="#000000" stroke-width="0.8">
                            <path d="M0.5,92 L0.5,0.236330275" id="Path"></path>
                        </g>
                        <g id="patch_4" stroke-linecap="square" transform="translate(140.000000, 0.000000)" stroke="#000000" stroke-width="0.8">
                            <path d="M0.4,92 L0.4,0.236330275" id="Path"></path>
                        </g>
                        <g id="patch_5" stroke-linecap="square" transform="translate(1.000000, 91.000000)" stroke="#000000" stroke-width="0.8">
                            <path d="M0,0.5 L139.916418,0.5" id="Path"></path>
                        </g>
                        <g id="patch_6" stroke-linecap="square" transform="translate(1.000000, 0.000000)" stroke="#000000" stroke-width="0.8">
                            <path d="M0,0.28 L139.916418,0.28" id="Path"></path>
                        </g>
                    </g>
                    <g id="Group-5" transform="translate(150.000000, 21.000000)">
                        <g id="patch_2" transform="translate(1.000000, 0.000000)" fill="#FFFFFF">
                            <polygon id="Path" points="0 92 139.916418 92 139.916418 0.236330275 0 0.236330275"></polygon>
                        </g>
                        <g id="line2d_16" stroke-linecap="square" transform="translate(7.000000, 4.000000)" stroke="#1F77B4" stroke-width="1.5">
                            <polyline id="Path" points="0.0915649049 37.8248539 2.7526677 33.2238379 5.41377049 44.4930136 8.07487329 46.1219923 16.0581817 30.1241015 18.7192845 49.6593306 21.3803877 83.6270079 24.0414905 30.0802084 26.7025933 51.9680381 34.6859016 45.7187294 37.3470044 16.0393868 40.0081072 32.7074325 42.66921 54.3005337 45.3303128 39.5568465 53.3136216 57.8720849 55.9747244 68.753924 58.6358272 22.5060829 61.29693 51.9775605 63.9580328 31.1930822 71.9413412 33.6231696 74.602444 35.1598082 77.2635468 0.29989604 79.92465 28.9710137 82.5857528 4.86485705 93.2301639 43.0157267 95.8912667 13.0144324 98.5523695 37.5615371 101.213472 36.6532404 109.196781 20.6598477 111.857884 33.3951548 114.518987 28.0260745 117.180089 8.27698263 119.841192 43.8994004 127.824501 1.78320519"></polyline>
                        </g>
                        <g id="line2d_17" stroke-linecap="square" transform="translate(7.000000, 4.000000)" stroke="#FF7F0E" stroke-width="1.5">
                            <polyline id="Path" points="0.0915649049 44.4238758 2.7526677 29.7748924 5.41377049 39.6473644 8.07487329 43.5346191 16.0581817 31.6025051 18.7192845 45.1899525 21.3803877 73.6382026 24.0414905 45.9321222 26.7025933 42.2104719 34.6859016 38.8636536 37.3470044 22.7825195 40.0081072 36.0870049 42.66921 60.4885121 45.3303128 42.604826 53.3136216 43.1374505 55.9747244 57.2734675 58.6358272 33.3730714 61.29693 46.9055237 63.9580328 18.5280993 71.9413412 56.8926872 74.602444 38.3072574 77.2635468 0.187594651 79.92465 26.529367 82.5857528 21.4520093 93.2301639 53.0550527 95.8912667 29.1711818 98.5523695 32.43793 101.213472 32.1874819 109.196781 23.9270192 111.857884 39.1297564 114.518987 33.4796081 117.180089 38.60845 119.841192 44.8096357 127.824501 18.8035708"></polyline>
                        </g>
                        <g id="patch_3" stroke-linecap="square" stroke="#000000" stroke-width="0.8">
                            <path d="M0.5,92 L0.5,0.236330275" id="Path"></path>
                        </g>
                        <g id="patch_4" stroke-linecap="square" transform="translate(140.000000, 0.000000)" stroke="#000000" stroke-width="0.8">
                            <path d="M0.4,92 L0.4,0.236330275" id="Path"></path>
                        </g>
                        <g id="patch_5" stroke-linecap="square" transform="translate(1.000000, 91.000000)" stroke="#000000" stroke-width="0.8">
                            <path d="M0,0.5 L139.916418,0.5" id="Path"></path>
                        </g>
                        <g id="patch_6" stroke-linecap="square" transform="translate(1.000000, 0.000000)" stroke="#000000" stroke-width="0.8">
                            <path d="M0,0.28 L139.916418,0.28" id="Path"></path>
                        </g>
                    </g>
                    <g id="Group-5" transform="translate(324.000000, 94.000000)">
                        <g id="patch_2" transform="translate(1.000000, 0.000000)" fill="#FFFFFF">
                            <polygon id="Path" points="0 92 139.916418 92 139.916418 0.236330275 0 0.236330275"></polygon>
                        </g>
                        <g id="line2d_16" stroke-linecap="square" transform="translate(7.000000, 4.000000)" stroke="#1F77B4" stroke-width="1.5">
                            <polyline id="Path" points="0.0915649049 37.8248539 2.7526677 33.2238379 5.41377049 44.4930136 8.07487329 46.1219923 16.0581817 30.1241015 18.7192845 49.6593306 21.3803877 83.6270079 24.0414905 30.0802084 26.7025933 51.9680381 34.6859016 45.7187294 37.3470044 16.0393868 40.0081072 32.7074325 42.66921 54.3005337 45.3303128 39.5568465 53.3136216 57.8720849 55.9747244 68.753924 58.6358272 22.5060829 61.29693 51.9775605 63.9580328 31.1930822 71.9413412 33.6231696 74.602444 35.1598082 77.2635468 0.29989604 79.92465 28.9710137 82.5857528 4.86485705 93.2301639 43.0157267 95.8912667 13.0144324 98.5523695 37.5615371 101.213472 36.6532404 109.196781 20.6598477 111.857884 33.3951548 114.518987 28.0260745 117.180089 8.27698263 119.841192 43.8994004 127.824501 1.78320519"></polyline>
                        </g>
                        <g id="line2d_17" stroke-linecap="square" transform="translate(7.000000, 4.000000)" stroke="#FF7F0E" stroke-width="1.5">
                            <polyline id="Path" points="0.0915649049 44.4238758 2.7526677 29.7748924 5.41377049 39.6473644 8.07487329 43.5346191 16.0581817 31.6025051 18.7192845 45.1899525 21.3803877 73.6382026 24.0414905 45.9321222 26.7025933 42.2104719 34.6859016 38.8636536 37.3470044 22.7825195 40.0081072 36.0870049 42.66921 60.4885121 45.3303128 42.604826 53.3136216 43.1374505 55.9747244 57.2734675 58.6358272 33.3730714 61.29693 46.9055237 63.9580328 18.5280993 71.9413412 56.8926872 74.602444 38.3072574 77.2635468 0.187594651 79.92465 26.529367 82.5857528 21.4520093 93.2301639 53.0550527 95.8912667 29.1711818 98.5523695 32.43793 101.213472 32.1874819 109.196781 23.9270192 111.857884 39.1297564 114.518987 33.4796081 117.180089 38.60845 119.841192 44.8096357 127.824501 18.8035708"></polyline>
                        </g>
                        <g id="patch_3" stroke-linecap="square" stroke="#000000" stroke-width="0.8">
                            <path d="M0.5,92 L0.5,0.236330275" id="Path"></path>
                        </g>
                        <g id="patch_4" stroke-linecap="square" transform="translate(140.000000, 0.000000)" stroke="#000000" stroke-width="0.8">
                            <path d="M0.4,92 L0.4,0.236330275" id="Path"></path>
                        </g>
                        <g id="patch_5" stroke-linecap="square" transform="translate(1.000000, 91.000000)" stroke="#000000" stroke-width="0.8">
                            <path d="M0,0.5 L139.916418,0.5" id="Path"></path>
                        </g>
                        <g id="patch_6" stroke-linecap="square" transform="translate(1.000000, 0.000000)" stroke="#000000" stroke-width="0.8">
                            <path d="M0,0.28 L139.916418,0.28" id="Path"></path>
                        </g>
                    </g>
                    <g id="Group" transform="translate(0.000000, 9.000000)">
                        <polygon id="Path" fill="#FFFFFF" points="0.418397626 91.2106825 140.497923 91.2106825 140.497923 0.234302671 0.418397626 0.234302671"></polygon>
                        <polyline id="Path" stroke="#1F77B4" stroke-width="1.5" stroke-linecap="square" points="6.78564885 12.2154982 9.38452696 46.6983427 11.9834046 37.4618226 19.780039 31.3643513 22.3789171 35.8501964 24.9777948 36.9468668 27.5766729 59.8151928 30.175551 32.2682642 37.9721849 31.6180848 40.571063 34.0900708 43.1699411 43.0767134 45.7688192 52.1882346 48.3676969 41.9885461 56.1643313 41.7618821 58.763209 30.8356143 61.3620871 39.8973638 63.9609652 43.3272896 66.5598433 38.4188014 74.3564772 34.6184154 76.9553553 35.2757683 79.5542334 39.0607911 82.1531115 38.2530732 84.7519892 40.4681385 95.1475012 47.8544381 97.7463793 41.2842209 100.345257 43.0720541 102.944136 50.4463474 110.740769 29.7830944 113.339648 43.0408927 115.938526 45.1491192 118.537403 45.8249506 121.136281 34.5579695 128.932916 45.2142064 131.531794 40.4239724 134.130672 50.7163406"></polyline>
                        <polyline id="Path" stroke="#FF7F0E" stroke-width="1.5" stroke-linecap="square" points="6.78564885 62.9885639 9.38452696 55.7001396 11.9834046 53.5143367 19.780039 43.2807035 22.3789171 34.7111976 24.9777948 38.0374629 27.5766729 17.8744675 30.175551 32.5008197 37.9721849 36.9402473 40.571063 46.8000824 43.1699411 30.0919911 45.7688192 41.2623735 48.3676969 41.2629944 56.1643313 41.2636165 58.763209 80.4519612 61.3620871 42.619206 63.9609652 45.257321 66.5598433 48.6078831 74.3564772 4.36959251 76.9553553 17.2078935 79.5542334 36.383181 82.1531115 27.3305266 84.7519892 40.6519322 95.1475012 25.2500273 97.7463793 47.5827893 100.345257 11.4362569 102.944136 50.1245322 110.740769 87.0753927 113.339648 41.2654909 115.938526 59.0775239 118.537403 22.2768749 121.136281 30.2000766 128.932916 67.241136 131.531794 40.6519322 134.130672 52.0331292"></polyline>
                        <path d="M0.418397626,91.2106825 L0.418397626,0.234302671" id="Path" stroke="#000000" stroke-width="0.8" stroke-linecap="square"></path>
                        <path d="M140.497923,91.2106825 L140.497923,0.234302671" id="Path" stroke="#000000" stroke-width="0.8" stroke-linecap="square"></path>
                        <path d="M0.418397626,91.2106825 L140.497923,91.2106825" id="Path" stroke="#000000" stroke-width="0.8" stroke-linecap="square"></path>
                        <path d="M0.418397626,0.234302671 L140.497923,0.234302671" id="Path" stroke="#000000" stroke-width="0.8" stroke-linecap="square"></path>
                    </g>
                    <g id="Group" transform="translate(69.000000, 102.000000)">
                        <polygon id="Path" fill="#FFFFFF" points="0.418397626 91.2106825 140.497923 91.2106825 140.497923 0.234302671 0.418397626 0.234302671"></polygon>
                        <polyline id="Path" stroke="#1F77B4" stroke-width="1.5" stroke-linecap="square" points="6.78564885 12.2154982 9.38452696 46.6983427 11.9834046 37.4618226 19.780039 31.3643513 22.3789171 35.8501964 24.9777948 36.9468668 27.5766729 59.8151928 30.175551 32.2682642 37.9721849 31.6180848 40.571063 34.0900708 43.1699411 43.0767134 45.7688192 52.1882346 48.3676969 41.9885461 56.1643313 41.7618821 58.763209 30.8356143 61.3620871 39.8973638 63.9609652 43.3272896 66.5598433 38.4188014 74.3564772 34.6184154 76.9553553 35.2757683 79.5542334 39.0607911 82.1531115 38.2530732 84.7519892 40.4681385 95.1475012 47.8544381 97.7463793 41.2842209 100.345257 43.0720541 102.944136 50.4463474 110.740769 29.7830944 113.339648 43.0408927 115.938526 45.1491192 118.537403 45.8249506 121.136281 34.5579695 128.932916 45.2142064 131.531794 40.4239724 134.130672 50.7163406"></polyline>
                        <polyline id="Path" stroke="#FF7F0E" stroke-width="1.5" stroke-linecap="square" points="6.78564885 62.9885639 9.38452696 55.7001396 11.9834046 53.5143367 19.780039 43.2807035 22.3789171 34.7111976 24.9777948 38.0374629 27.5766729 17.8744675 30.175551 32.5008197 37.9721849 36.9402473 40.571063 46.8000824 43.1699411 30.0919911 45.7688192 41.2623735 48.3676969 41.2629944 56.1643313 41.2636165 58.763209 80.4519612 61.3620871 42.619206 63.9609652 45.257321 66.5598433 48.6078831 74.3564772 4.36959251 76.9553553 17.2078935 79.5542334 36.383181 82.1531115 27.3305266 84.7519892 40.6519322 95.1475012 25.2500273 97.7463793 47.5827893 100.345257 11.4362569 102.944136 50.1245322 110.740769 87.0753927 113.339648 41.2654909 115.938526 59.0775239 118.537403 22.2768749 121.136281 30.2000766 128.932916 67.241136 131.531794 40.6519322 134.130672 52.0331292"></polyline>
                        <path d="M0.418397626,91.2106825 L0.418397626,0.234302671" id="Path" stroke="#000000" stroke-width="0.8" stroke-linecap="square"></path>
                        <path d="M140.497923,91.2106825 L140.497923,0.234302671" id="Path" stroke="#000000" stroke-width="0.8" stroke-linecap="square"></path>
                        <path d="M0.418397626,91.2106825 L140.497923,91.2106825" id="Path" stroke="#000000" stroke-width="0.8" stroke-linecap="square"></path>
                        <path d="M0.418397626,0.234302671 L140.497923,0.234302671" id="Path" stroke="#000000" stroke-width="0.8" stroke-linecap="square"></path>
                    </g>
                    <g id="Group-5" transform="translate(167.000000, 141.000000)">
                        <g id="patch_2" transform="translate(1.000000, 0.000000)" fill="#FFFFFF">
                            <polygon id="Path" points="0 92 139.916418 92 139.916418 0.236330275 0 0.236330275"></polygon>
                        </g>
                        <g id="line2d_16" stroke-linecap="square" transform="translate(7.000000, 4.000000)" stroke="#1F77B4" stroke-width="1.5">
                            <polyline id="Path" points="0.0915649049 37.8248539 2.7526677 33.2238379 5.41377049 44.4930136 8.07487329 46.1219923 16.0581817 30.1241015 18.7192845 49.6593306 21.3803877 83.6270079 24.0414905 30.0802084 26.7025933 51.9680381 34.6859016 45.7187294 37.3470044 16.0393868 40.0081072 32.7074325 42.66921 54.3005337 45.3303128 39.5568465 53.3136216 57.8720849 55.9747244 68.753924 58.6358272 22.5060829 61.29693 51.9775605 63.9580328 31.1930822 71.9413412 33.6231696 74.602444 35.1598082 77.2635468 0.29989604 79.92465 28.9710137 82.5857528 4.86485705 93.2301639 43.0157267 95.8912667 13.0144324 98.5523695 37.5615371 101.213472 36.6532404 109.196781 20.6598477 111.857884 33.3951548 114.518987 28.0260745 117.180089 8.27698263 119.841192 43.8994004 127.824501 1.78320519"></polyline>
                        </g>
                        <g id="line2d_17" stroke-linecap="square" transform="translate(7.000000, 4.000000)" stroke="#FF7F0E" stroke-width="1.5">
                            <polyline id="Path" points="0.0915649049 44.4238758 2.7526677 29.7748924 5.41377049 39.6473644 8.07487329 43.5346191 16.0581817 31.6025051 18.7192845 45.1899525 21.3803877 73.6382026 24.0414905 45.9321222 26.7025933 42.2104719 34.6859016 38.8636536 37.3470044 22.7825195 40.0081072 36.0870049 42.66921 60.4885121 45.3303128 42.604826 53.3136216 43.1374505 55.9747244 57.2734675 58.6358272 33.3730714 61.29693 46.9055237 63.9580328 18.5280993 71.9413412 56.8926872 74.602444 38.3072574 77.2635468 0.187594651 79.92465 26.529367 82.5857528 21.4520093 93.2301639 53.0550527 95.8912667 29.1711818 98.5523695 32.43793 101.213472 32.1874819 109.196781 23.9270192 111.857884 39.1297564 114.518987 33.4796081 117.180089 38.60845 119.841192 44.8096357 127.824501 18.8035708"></polyline>
                        </g>
                        <g id="patch_3" stroke-linecap="square" stroke="#000000" stroke-width="0.8">
                            <path d="M0.5,92 L0.5,0.236330275" id="Path"></path>
                        </g>
                        <g id="patch_4" stroke-linecap="square" transform="translate(140.000000, 0.000000)" stroke="#000000" stroke-width="0.8">
                            <path d="M0.4,92 L0.4,0.236330275" id="Path"></path>
                        </g>
                        <g id="patch_5" stroke-linecap="square" transform="translate(1.000000, 91.000000)" stroke="#000000" stroke-width="0.8">
                            <path d="M0,0.5 L139.916418,0.5" id="Path"></path>
                        </g>
                        <g id="patch_6" stroke-linecap="square" transform="translate(1.000000, 0.000000)" stroke="#000000" stroke-width="0.8">
                            <path d="M0,0.28 L139.916418,0.28" id="Path"></path>
                        </g>
                    </g>
                </g>
            </g>
            <g id="Group-7" transform="translate(285.000000, 530.000000)">
                <g id="Group-3">
                    <text id="Unexplained-Stock-Re" font-family="Helvetica-Bold, Helvetica" font-size="54" font-weight="bold" fill="#000000" text-decoration="underline">
                        <tspan x="22.9633789" y="281">Unexplained</tspan>
                        <tspan x="0.458984375" y="346">Stock Returns</tspan>
                    </text>
                    <rect id="Rectangle" stroke="#000000" stroke-width="5" fill="#FFFFFF" x="18.5" y="2.5" width="330" height="214"></rect>
                    <polyline id="Path" stroke="#1F77B4" stroke-width="1.5" stroke-linecap="square" points="31.218182 117.283445 54.630769 131.630533 78.043357 78.96727 101.455944 94.073236 124.868531 140.493655 148.281119 91.009087 171.693706 105.026851 195.106294 114.706124 218.518881 112.644267 241.931469 100.731316 265.344056 68.013655 288.756643 84.207823 312.169231 130.542331 335.581818 107.775994"></polyline>
                    <g id="Group" transform="translate(28.000000, 65.000000)" fill="#1F77B4" stroke="#1F77B4">
                        <g id="me6ee64a740-link" transform="translate(0.218182, 49.283445)">
                            <path d="M3,6 C3.795609,6 4.55874,5.683901 5.12132,5.12132 C5.683901,4.55874 6,3.795609 6,3 C6,2.204391 5.683901,1.44126 5.12132,0.87868 C4.55874,0.316099 3.795609,0 3,0 C2.204391,0 1.44126,0.316099 0.87868,0.87868 C0.316099,1.44126 0,2.204391 0,3 C0,3.795609 0.316099,4.55874 0.87868,5.12132 C1.44126,5.683901 2.204391,6 3,6 Z" id="me6ee64a740"></path>
                        </g>
                        <g id="me6ee64a740-link" transform="translate(23.630769, 63.630533)">
                            <path d="M3,6 C3.795609,6 4.55874,5.683901 5.12132,5.12132 C5.683901,4.55874 6,3.795609 6,3 C6,2.204391 5.683901,1.44126 5.12132,0.87868 C4.55874,0.316099 3.795609,0 3,0 C2.204391,0 1.44126,0.316099 0.87868,0.87868 C0.316099,1.44126 0,2.204391 0,3 C0,3.795609 0.316099,4.55874 0.87868,5.12132 C1.44126,5.683901 2.204391,6 3,6 Z" id="me6ee64a740"></path>
                        </g>
                        <g id="me6ee64a740-link" transform="translate(47.043357, 10.967270)">
                            <path d="M3,6 C3.795609,6 4.55874,5.683901 5.12132,5.12132 C5.683901,4.55874 6,3.795609 6,3 C6,2.204391 5.683901,1.44126 5.12132,0.87868 C4.55874,0.316099 3.795609,0 3,0 C2.204391,0 1.44126,0.316099 0.87868,0.87868 C0.316099,1.44126 0,2.204391 0,3 C0,3.795609 0.316099,4.55874 0.87868,5.12132 C1.44126,5.683901 2.204391,6 3,6 Z" id="me6ee64a740"></path>
                        </g>
                        <g id="me6ee64a740-link" transform="translate(70.455944, 26.073236)">
                            <path d="M3,6 C3.795609,6 4.55874,5.683901 5.12132,5.12132 C5.683901,4.55874 6,3.795609 6,3 C6,2.204391 5.683901,1.44126 5.12132,0.87868 C4.55874,0.316099 3.795609,0 3,0 C2.204391,0 1.44126,0.316099 0.87868,0.87868 C0.316099,1.44126 0,2.204391 0,3 C0,3.795609 0.316099,4.55874 0.87868,5.12132 C1.44126,5.683901 2.204391,6 3,6 Z" id="me6ee64a740"></path>
                        </g>
                        <g id="me6ee64a740-link" transform="translate(93.868531, 72.493655)">
                            <path d="M3,6 C3.795609,6 4.55874,5.683901 5.12132,5.12132 C5.683901,4.55874 6,3.795609 6,3 C6,2.204391 5.683901,1.44126 5.12132,0.87868 C4.55874,0.316099 3.795609,0 3,0 C2.204391,0 1.44126,0.316099 0.87868,0.87868 C0.316099,1.44126 0,2.204391 0,3 C0,3.795609 0.316099,4.55874 0.87868,5.12132 C1.44126,5.683901 2.204391,6 3,6 Z" id="me6ee64a740"></path>
                        </g>
                        <g id="me6ee64a740-link" transform="translate(117.281119, 23.009087)">
                            <path d="M3,6 C3.795609,6 4.55874,5.683901 5.12132,5.12132 C5.683901,4.55874 6,3.795609 6,3 C6,2.204391 5.683901,1.44126 5.12132,0.87868 C4.55874,0.316099 3.795609,0 3,0 C2.204391,0 1.44126,0.316099 0.87868,0.87868 C0.316099,1.44126 0,2.204391 0,3 C0,3.795609 0.316099,4.55874 0.87868,5.12132 C1.44126,5.683901 2.204391,6 3,6 Z" id="me6ee64a740"></path>
                        </g>
                        <g id="me6ee64a740-link" transform="translate(140.693706, 37.026851)">
                            <path d="M3,6 C3.795609,6 4.55874,5.683901 5.12132,5.12132 C5.683901,4.55874 6,3.795609 6,3 C6,2.204391 5.683901,1.44126 5.12132,0.87868 C4.55874,0.316099 3.795609,0 3,0 C2.204391,0 1.44126,0.316099 0.87868,0.87868 C0.316099,1.44126 0,2.204391 0,3 C0,3.795609 0.316099,4.55874 0.87868,5.12132 C1.44126,5.683901 2.204391,6 3,6 Z" id="me6ee64a740"></path>
                        </g>
                        <g id="me6ee64a740-link" transform="translate(164.106294, 46.706124)">
                            <path d="M3,6 C3.795609,6 4.55874,5.683901 5.12132,5.12132 C5.683901,4.55874 6,3.795609 6,3 C6,2.204391 5.683901,1.44126 5.12132,0.87868 C4.55874,0.316099 3.795609,0 3,0 C2.204391,0 1.44126,0.316099 0.87868,0.87868 C0.316099,1.44126 0,2.204391 0,3 C0,3.795609 0.316099,4.55874 0.87868,5.12132 C1.44126,5.683901 2.204391,6 3,6 Z" id="me6ee64a740"></path>
                        </g>
                        <g id="me6ee64a740-link" transform="translate(187.518881, 44.644267)">
                            <path d="M3,6 C3.795609,6 4.55874,5.683901 5.12132,5.12132 C5.683901,4.55874 6,3.795609 6,3 C6,2.204391 5.683901,1.44126 5.12132,0.87868 C4.55874,0.316099 3.795609,0 3,0 C2.204391,0 1.44126,0.316099 0.87868,0.87868 C0.316099,1.44126 0,2.204391 0,3 C0,3.795609 0.316099,4.55874 0.87868,5.12132 C1.44126,5.683901 2.204391,6 3,6 Z" id="me6ee64a740"></path>
                        </g>
                        <g id="me6ee64a740-link" transform="translate(210.931469, 32.731316)">
                            <path d="M3,6 C3.795609,6 4.55874,5.683901 5.12132,5.12132 C5.683901,4.55874 6,3.795609 6,3 C6,2.204391 5.683901,1.44126 5.12132,0.87868 C4.55874,0.316099 3.795609,0 3,0 C2.204391,0 1.44126,0.316099 0.87868,0.87868 C0.316099,1.44126 0,2.204391 0,3 C0,3.795609 0.316099,4.55874 0.87868,5.12132 C1.44126,5.683901 2.204391,6 3,6 Z" id="me6ee64a740"></path>
                        </g>
                        <g id="me6ee64a740-link" transform="translate(234.344056, 0.013655)">
                            <path d="M3,6 C3.795609,6 4.55874,5.683901 5.12132,5.12132 C5.683901,4.55874 6,3.795609 6,3 C6,2.204391 5.683901,1.44126 5.12132,0.87868 C4.55874,0.316099 3.795609,0 3,0 C2.204391,0 1.44126,0.316099 0.87868,0.87868 C0.316099,1.44126 0,2.204391 0,3 C0,3.795609 0.316099,4.55874 0.87868,5.12132 C1.44126,5.683901 2.204391,6 3,6 Z" id="me6ee64a740"></path>
                        </g>
                        <g id="me6ee64a740-link" transform="translate(257.756643, 16.207823)">
                            <path d="M3,6 C3.795609,6 4.55874,5.683901 5.12132,5.12132 C5.683901,4.55874 6,3.795609 6,3 C6,2.204391 5.683901,1.44126 5.12132,0.87868 C4.55874,0.316099 3.795609,0 3,0 C2.204391,0 1.44126,0.316099 0.87868,0.87868 C0.316099,1.44126 0,2.204391 0,3 C0,3.795609 0.316099,4.55874 0.87868,5.12132 C1.44126,5.683901 2.204391,6 3,6 Z" id="me6ee64a740"></path>
                        </g>
                        <g id="me6ee64a740-link" transform="translate(281.169231, 62.542331)">
                            <path d="M3,6 C3.795609,6 4.55874,5.683901 5.12132,5.12132 C5.683901,4.55874 6,3.795609 6,3 C6,2.204391 5.683901,1.44126 5.12132,0.87868 C4.55874,0.316099 3.795609,0 3,0 C2.204391,0 1.44126,0.316099 0.87868,0.87868 C0.316099,1.44126 0,2.204391 0,3 C0,3.795609 0.316099,4.55874 0.87868,5.12132 C1.44126,5.683901 2.204391,6 3,6 Z" id="me6ee64a740"></path>
                        </g>
                        <g id="me6ee64a740-link" transform="translate(304.581818, 39.775994)">
                            <path d="M3,6 C3.795609,6 4.55874,5.683901 5.12132,5.12132 C5.683901,4.55874 6,3.795609 6,3 C6,2.204391 5.683901,1.44126 5.12132,0.87868 C4.55874,0.316099 3.795609,0 3,0 C2.204391,0 1.44126,0.316099 0.87868,0.87868 C0.316099,1.44126 0,2.204391 0,3 C0,3.795609 0.316099,4.55874 0.87868,5.12132 C1.44126,5.683901 2.204391,6 3,6 Z" id="me6ee64a740"></path>
                        </g>
                    </g>
                </g>
            </g>
            <path d="M415.868531,530 L410.868531,502.5" id="Line-4" stroke="#000000" stroke-width="7" stroke-linecap="square"></path>
            <path d="M410.868531,531 L379.5,524.5" id="Line-4" stroke="#000000" stroke-width="7" stroke-linecap="square"></path>
            <path d="M521.931469,529 L524.931469,504.5" id="Line-5" stroke="#000000" stroke-width="7" stroke-linecap="square"></path>
            <path d="M524.931469,530 L555.5,524.5" id="Line-6" stroke="#000000" stroke-width="7" stroke-linecap="square"></path>
        </g>
    </g>
</svg>