<?xml version="1.0" encoding="UTF-8" standalone="no"?>
<svg width="748px" height="508px" viewBox="0 0 748 508" version="1.1" xmlns="http://www.w3.org/2000/svg" xmlns:xlink="http://www.w3.org/1999/xlink">
    <!-- Generator: Sketch 50.2 (55047) - http://www.bohemiancoding.com/sketch -->
    <title>Group 52</title>
    <desc>Created with Sketch.</desc>
    <defs></defs>
    <g id="Page-1" stroke="none" stroke-width="1" fill="none" fill-rule="evenodd">
        <g id="Group-52" transform="translate(-139.000000, -8.000000)">
            <g id="Group-46" transform="translate(263.000000, 471.000000)">
                <path d="M1,1 L1,44 L44,44 L44,1 L1,1 Z" id="Rectangle" stroke="#000000" stroke-width="2" fill="#FFFFFF"></path>
                <text id="20" font-family="Helvetica" font-size="25" font-weight="normal" fill="#000000">
                    <tspan x="8.59619141" y="32">20</tspan>
                </text>
                <path d="M44,1 L44,44 L87,44 L87,1 L44,1 Z" id="Rectangle" stroke="#000000" stroke-width="2" fill="#FFFFFF"></path>
                <text id="5" font-family="Helvetica" font-size="25" font-weight="normal" fill="#000000">
                    <tspan x="58.5480957" y="32">5</tspan>
                </text>
                <path d="M87,1 L87,44 L130,44 L130,1 L87,1 Z" id="Rectangle" stroke="#000000" stroke-width="2" fill="#FFFFFF"></path>
                <text id="3" font-family="Helvetica" font-size="25" font-weight="normal" fill="#000000">
                    <tspan x="101.548096" y="32">3</tspan>
                </text>
                <path d="M130,1 L130,44 L173,44 L173,1 L130,1 Z" id="Rectangle" stroke="#000000" stroke-width="2" fill="#FFFFFF"></path>
                <text id="8" font-family="Helvetica" font-size="25" font-weight="normal" fill="#000000">
                    <tspan x="144.548096" y="32">8</tspan>
                </text>
                <path d="M173,1 L173,44 L216,44 L216,1 L173,1 Z" id="Rectangle" stroke="#000000" stroke-width="2" fill="#FFFFFF"></path>
                <path d="M216,1 L216,44 L259,44 L259,1 L216,1 Z" id="Rectangle" stroke="#000000" stroke-width="2" fill="#FFFFFF"></path>
                <path d="M259,1 L259,44 L302,44 L302,1 L259,1 Z" id="Rectangle" stroke="#000000" stroke-width="2" fill="#FFFFFF"></path>
                <text id="6" font-family="Helvetica" font-size="25" font-weight="normal" fill="#000000">
                    <tspan x="273.548096" y="32">6</tspan>
                </text>
                <path d="M302,1 L302,44 L345,44 L345,1 L302,1 Z" id="Rectangle" stroke="#000000" stroke-width="2" fill="#FFFFFF"></path>
                <path d="M345,1 L345,44 L388,44 L388,1 L345,1 Z" id="Rectangle" stroke="#000000" stroke-width="2" fill="#FFFFFF"></path>
                <text id="25" font-family="Helvetica" font-size="25" font-weight="normal" fill="#000000">
                    <tspan x="352.596191" y="32">25</tspan>
                </text>
                <path d="M388,1 L388,44 L431,44 L431,1 L388,1 Z" id="Rectangle" stroke="#000000" stroke-width="2" fill="#FFFFFF"></path>
                <text id="8" font-family="Helvetica-Bold, Helvetica" font-size="37" font-weight="bold" fill="#FF0000">
                    <tspan x="185.211182" y="35">8</tspan>
                </text>
                <text id="8" font-family="Helvetica-Bold, Helvetica" font-size="37" font-weight="bold" fill="#FF0000">
                    <tspan x="228.211182" y="35">8</tspan>
                </text>
                <text id="5" font-family="Helvetica" font-size="25" font-weight="normal" fill="#000000">
                    <tspan x="402.548096" y="32">5</tspan>
                </text>
                <text id="6" font-family="Helvetica-Bold, Helvetica" font-size="37" font-weight="bold" fill="#FF0000">
                    <tspan x="313.211182" y="35">6</tspan>
                </text>
            </g>
            <text id="arr[indices_to_use]" font-family="AndaleMono, Andale Mono" font-size="36" font-weight="normal" fill="#0000DD">
                <tspan x="274.266602" y="398">arr[indices_to_use]</tspan>
            </text>
            <g id="Group-48" transform="translate(263.000000, 260.000000)">
                <path d="M1,4 L1,47 L44,47 L44,4 L1,4 Z" id="Rectangle" stroke="#000000" stroke-width="2" fill="#FFFFFF"></path>
                <text id="0" font-family="Helvetica" font-size="36" font-weight="normal" fill="#000000">
                    <tspan x="12.4892578" y="38">0</tspan>
                </text>
                <path d="M44,4 L44,47 L87,47 L87,4 L44,4 Z" id="Rectangle" stroke="#000000" stroke-width="2" fill="#FFFFFF"></path>
                <text id="1" font-family="Helvetica" font-size="36" font-weight="normal" fill="#000000">
                    <tspan x="55.4892578" y="38">1</tspan>
                </text>
                <path d="M87,4 L87,47 L130,47 L130,4 L87,4 Z" id="Rectangle" stroke="#000000" stroke-width="2" fill="#FFFFFF"></path>
                <text id="2" font-family="Helvetica" font-size="36" font-weight="normal" fill="#000000">
                    <tspan x="98.4892578" y="38">2</tspan>
                </text>
                <path d="M130,4 L130,47 L173,47 L173,4 L130,4 Z" id="Rectangle" stroke="#000000" stroke-width="2" fill="#FFFFFF"></path>
                <text id="3" font-family="Helvetica" font-size="36" font-weight="normal" fill="#000000">
                    <tspan x="141.489258" y="38">3</tspan>
                </text>
                <path d="M173,4 L173,47 L216,47 L216,4 L173,4 Z" id="Rectangle" stroke="#000000" stroke-width="2" fill="#FFFFFF"></path>
                <text id="3" font-family="Helvetica-Bold, Helvetica" font-size="42" font-weight="bold" fill="#FF0000">
                    <tspan x="182.820801" y="40">3</tspan>
                </text>
                <path d="M216,4 L216,47 L259,47 L259,4 L216,4 Z" id="Rectangle" stroke="#000000" stroke-width="2" fill="#FFFFFF"></path>
                <text id="3" font-family="Helvetica-Bold, Helvetica" font-size="42" font-weight="bold" fill="#FF0000">
                    <tspan x="225.820801" y="40">3</tspan>
                </text>
                <path d="M259,4 L259,47 L302,47 L302,4 L259,4 Z" id="Rectangle" stroke="#000000" stroke-width="2" fill="#FFFFFF"></path>
                <text id="6" font-family="Helvetica" font-size="36" font-weight="normal" fill="#000000">
                    <tspan x="270.489258" y="38">6</tspan>
                </text>
                <path d="M302,4 L302,47 L345,47 L345,4 L302,4 Z" id="Rectangle" stroke="#000000" stroke-width="2" fill="#FFFFFF"></path>
                <text id="6" font-family="Helvetica-Bold, Helvetica" font-size="42" font-weight="bold" fill="#FF0000">
                    <tspan x="311.820801" y="40">6</tspan>
                </text>
                <path d="M345,4 L345,47 L388,47 L388,4 L345,4 Z" id="Rectangle" stroke="#000000" stroke-width="2" fill="#FFFFFF"></path>
                <text id="8" font-family="Helvetica" font-size="36" font-weight="normal" fill="#000000">
                    <tspan x="356.489258" y="38">8</tspan>
                </text>
                <path d="M388,4 L388,47 L431,47 L431,4 L388,4 Z" id="Rectangle" stroke="#000000" stroke-width="2" fill="#FFFFFF"></path>
                <text id="9" font-family="Helvetica" font-size="36" font-weight="normal" fill="#000000">
                    <tspan x="399.489258" y="38">9</tspan>
                </text>
            </g>
            <text id="np.maximum.accumulat" font-family="AndaleMono, Andale Mono" font-size="30" font-weight="normal" fill="#0000DD">
                <tspan x="64.9326172" y="198">    np.maximum.accumulate(indices_to_use, ...)</tspan>
            </text>
            <g id="Line-28" transform="translate(467.000000, 316.000000)">
                <path d="M12.5,0.5 L12.5,37" stroke="#000000" stroke-width="4" stroke-linecap="square"></path>
                <polygon id="Arrowhead" fill="#000000" transform="translate(12.500000, 37.000000) rotate(-90.000000) translate(-12.500000, -37.000000) " points="25 49.5 0 37 25 24.5"></polygon>
            </g>
            <g id="Line-28" transform="translate(467.000000, 209.000000)">
                <path d="M12.5,0.5 L12.5,37" stroke="#000000" stroke-width="4" stroke-linecap="square"></path>
                <polygon id="Arrowhead" fill="#000000" transform="translate(12.500000, 37.000000) rotate(-90.000000) translate(-12.500000, -37.000000) " points="25 49.5 0 37 25 24.5"></polygon>
            </g>
            <g id="Line-28" transform="translate(467.000000, 122.000000)">
                <path d="M12.5,0.5 L12.5,37" stroke="#000000" stroke-width="4" stroke-linecap="square"></path>
                <polygon id="Arrowhead" fill="#000000" transform="translate(12.500000, 37.000000) rotate(-90.000000) translate(-12.500000, -37.000000) " points="25 49.5 0 37 25 24.5"></polygon>
            </g>
            <g id="Line-28" transform="translate(467.000000, 412.000000)">
                <path d="M12.5,0.5 L12.5,37" stroke="#000000" stroke-width="4" stroke-linecap="square"></path>
                <polygon id="Arrowhead" fill="#000000" transform="translate(12.500000, 37.000000) rotate(-90.000000) translate(-12.500000, -37.000000) " points="25 49.5 0 37 25 24.5"></polygon>
            </g>
            <g id="Group-47" transform="translate(263.000000, 62.000000)">
                <path d="M1,4 L1,47 L44,47 L44,4 L1,4 Z" id="Rectangle" stroke="#000000" stroke-width="2" fill="#FFFFFF"></path>
                <text id="0" font-family="Helvetica" font-size="36" font-weight="normal" fill="#000000">
                    <tspan x="12.4892578" y="38">0</tspan>
                </text>
                <path d="M44,4 L44,47 L87,47 L87,4 L44,4 Z" id="Rectangle" stroke="#000000" stroke-width="2" fill="#FFFFFF"></path>
                <text id="1" font-family="Helvetica" font-size="36" font-weight="normal" fill="#000000">
                    <tspan x="55.4892578" y="38">1</tspan>
                </text>
                <path d="M87,4 L87,47 L130,47 L130,4 L87,4 Z" id="Rectangle" stroke="#000000" stroke-width="2" fill="#FFFFFF"></path>
                <text id="2" font-family="Helvetica" font-size="36" font-weight="normal" fill="#000000">
                    <tspan x="98.4892578" y="38">2</tspan>
                </text>
                <path d="M130,4 L130,47 L173,47 L173,4 L130,4 Z" id="Rectangle" stroke="#000000" stroke-width="2" fill="#FFFFFF"></path>
                <text id="3" font-family="Helvetica" font-size="36" font-weight="normal" fill="#000000">
                    <tspan x="141.489258" y="38">3</tspan>
                </text>
                <path d="M173,4 L173,47 L216,47 L216,4 L173,4 Z" id="Rectangle" stroke="#000000" stroke-width="2" fill="#FFFFFF"></path>
                <text id="0" font-family="Helvetica-Bold, Helvetica" font-size="42" font-weight="bold" fill="#FF0000">
                    <tspan x="182.820801" y="40">0</tspan>
                </text>
                <path d="M216,4 L216,47 L259,47 L259,4 L216,4 Z" id="Rectangle" stroke="#000000" stroke-width="2" fill="#FFFFFF"></path>
                <text id="0" font-family="Helvetica-Bold, Helvetica" font-size="42" font-weight="bold" fill="#FF0000">
                    <tspan x="225.820801" y="40">0</tspan>
                </text>
                <path d="M259,4 L259,47 L302,47 L302,4 L259,4 Z" id="Rectangle" stroke="#000000" stroke-width="2" fill="#FFFFFF"></path>
                <text id="6" font-family="Helvetica" font-size="36" font-weight="normal" fill="#000000">
                    <tspan x="270.489258" y="38">6</tspan>
                </text>
                <path d="M302,4 L302,47 L345,47 L345,4 L302,4 Z" id="Rectangle" stroke="#000000" stroke-width="2" fill="#FFFFFF"></path>
                <text id="0" font-family="Helvetica-Bold, Helvetica" font-size="42" font-weight="bold" fill="#FF0000">
                    <tspan x="312.820801" y="40">0</tspan>
                </text>
                <path d="M345,4 L345,47 L388,47 L388,4 L345,4 Z" id="Rectangle" stroke="#000000" stroke-width="2" fill="#FFFFFF"></path>
                <text id="8" font-family="Helvetica" font-size="36" font-weight="normal" fill="#000000">
                    <tspan x="356.489258" y="38">8</tspan>
                </text>
                <path d="M388,4 L388,47 L431,47 L431,4 L388,4 Z" id="Rectangle" stroke="#000000" stroke-width="2" fill="#FFFFFF"></path>
                <text id="9" font-family="Helvetica" font-size="36" font-weight="normal" fill="#000000">
                    <tspan x="399.489258" y="38">9</tspan>
                </text>
            </g>
            <text id="indices_to_use" font-family="AndaleMono, Andale Mono" font-size="42" font-weight="normal" fill="#0000DD">
                <tspan x="303.071289" y="38">indices_to_use</tspan>
            </text>
        </g>
    </g>
</svg>