<?xml version="1.0" ?><svg id="Layer_1" style="enable-background:new 0 0 128 128;" version="1.1" viewBox="0 0 128 128" xml:space="preserve" xmlns="http://www.w3.org/2000/svg" xmlns:xlink="http://www.w3.org/1999/xlink"><path d="M12.0024414,118c0.9702148,0,1.8217773-0.7070313,1.9741211-1.6953125  c0.168457-1.0917969-0.5800781-2.1132813-1.6713867-2.28125l-4.9026489-0.7566528L59.8338623,78.312561  C60.913269,79.3554688,62.380249,80,64,80s3.0866699-0.6444702,4.1660767-1.687439l52.4313965,34.9542236l-4.9026489,0.7566528  c-1.0913086,0.1679688-1.8398438,1.1894531-1.6713867,2.28125C114.1757813,117.2929688,115.0273438,118,115.9975586,118  c0.1010742,0,0.2041016-0.0078125,0.3076172-0.0234375l10-1.5429688c0.6352539-0.0976563,1.1845703-0.4951172,1.4765625-1.0683594  c0.2919922-0.5722656,0.2910156-1.2509766-0.0029297-1.8222656l-4.347168-8.4570313  c-0.5048828-0.984375-1.7114258-1.3691406-2.6933594-0.8642578s-1.3691406,1.7099609-0.8642578,2.6923828l2.7219238,5.2953491  c-0.0159912-0.012085-0.024353-0.0301514-0.0412598-0.0414429L69.3530273,76.7001953C69.7635498,75.8879395,70,74.9725342,70,74  c0-2.9729614-2.163208-5.4332275-5-5.9100342V16.6473999l3.4199219,4.4082642  c0.6772461,0.8740234,1.9331055,1.0332031,2.8056641,0.3544922c0.8730469-0.6767578,1.0317383-1.9335938,0.3544922-2.8056641  l-6.0737305-7.8300781C65.1230469,10.2792969,64.5415039,10,63.9042969,10  c-0.6259766,0.0068359-1.2124023,0.3066406-1.5849609,0.8095703l-5.9262695,8  c-0.6577148,0.8876953-0.4711914,2.1396484,0.4165039,2.7978516C57.1674805,21.8720703,57.5844727,22,57.9985352,22  c0.6118164,0,1.2163086-0.2802734,1.6083984-0.8095703L63,16.6102905v51.4796753C60.163208,68.5667725,58,71.0270386,58,74  c0,0.9725342,0.2364502,1.8879395,0.6469727,2.7001953L5.4453125,112.1679688  c-0.0169067,0.0112915-0.0252686,0.0293579-0.0412598,0.0414429l2.7219238-5.2953491  c0.5048828-0.9824219,0.1176758-2.1875-0.8642578-2.6923828c-0.9838867-0.5048828-2.1884766-0.1201172-2.6933594,0.8642578  l-4.347168,8.4570313c-0.2939453,0.5712891-0.2949219,1.25-0.0029297,1.8222656  c0.2919922,0.5732422,0.8413086,0.9707031,1.4765625,1.0683594l10,1.5429688C11.7983398,117.9921875,11.9008789,118,12.0024414,118z  "/></svg>