<?xml version="1.0" encoding="UTF-8" standalone="no"?>
<svg width="1049px" height="335px" viewBox="0 0 1049 335" version="1.1" xmlns="http://www.w3.org/2000/svg" xmlns:xlink="http://www.w3.org/1999/xlink">
    <!-- Generator: Sketch 50.2 (55047) - http://www.bohemiancoding.com/sketch -->
    <title>Group 52</title>
    <desc>Created with Sketch.</desc>
    <defs></defs>
    <g id="Page-1" stroke="none" stroke-width="1" fill="none" fill-rule="evenodd">
        <g id="Group-52" transform="translate(0.000000, -8.000000)">
            <g id="Line-27" transform="translate(240.000000, 109.000000)">
                <path d="M0.5,0.5 L38.5,84.5" stroke="#000000" stroke-width="4" stroke-linecap="square"></path>
                <polygon id="Arrowhead" fill="#000000" transform="translate(38.500000, 84.500000) rotate(-114.341090) translate(-38.500000, -84.500000) " points="51 97 26 84.5 51 72"></polygon>
            </g>
            <g id="Line-29" transform="translate(778.000000, 108.000000)">
                <path d="M57.5,0.5 L17.5,80.5" stroke="#000000" stroke-width="4" stroke-linecap="square"></path>
                <polygon id="Arrowhead" fill="#000000" transform="translate(17.500000, 80.500000) rotate(-63.434949) translate(-17.500000, -80.500000) " points="30 93 5 80.5 30 68"></polygon>
            </g>
            <g id="Group-53" transform="translate(86.000000, 0.000000)">
                <text id="mask" font-family="AndaleMono, Andale Mono" font-size="42" font-weight="normal" fill="#0000DD">
                    <tspan x="80.0917969" y="38">mask</tspan>
                </text>
                <path d="M1,66 L1,109 L44,109 L44,66 L1,66 Z" id="Rectangle" stroke="#000000" stroke-width="2" fill="#FFFFFF"></path>
                <text id="1" font-family="Helvetica" font-size="36" font-weight="normal" fill="#000000">
                    <tspan x="12.4892578" y="100">1</tspan>
                </text>
                <path d="M44,66 L44,109 L87,109 L87,66 L44,66 Z" id="Rectangle" stroke="#000000" stroke-width="2" fill="#FFFFFF"></path>
                <text id="1" font-family="Helvetica" font-size="36" font-weight="normal" fill="#000000">
                    <tspan x="55.4892578" y="100">1</tspan>
                </text>
                <path d="M87,66 L87,109 L130,109 L130,66 L87,66 Z" id="Rectangle" stroke="#000000" stroke-width="2" fill="#FFFFFF"></path>
                <text id="0" font-family="Helvetica-Bold, Helvetica" font-size="40" font-weight="bold" fill="#FF0000">
                    <tspan x="98.3769531" y="101">0</tspan>
                </text>
                <path d="M130,66 L130,109 L173,109 L173,66 L130,66 Z" id="Rectangle" stroke="#000000" stroke-width="2" fill="#FFFFFF"></path>
                <text id="0" font-family="Helvetica-Bold, Helvetica" font-size="40" font-weight="bold" fill="#FF0000">
                    <tspan x="141.376953" y="101">0</tspan>
                </text>
                <path d="M173,66 L173,109 L216,109 L216,66 L173,66 Z" id="Rectangle" stroke="#000000" stroke-width="2" fill="#FFFFFF"></path>
                <text id="1" font-family="Helvetica" font-size="36" font-weight="normal" fill="#000000">
                    <tspan x="184.489258" y="100">1</tspan>
                </text>
                <path d="M216,66 L216,109 L259,109 L259,66 L216,66 Z" id="Rectangle" stroke="#000000" stroke-width="2" fill="#FFFFFF"></path>
                <text id="0" font-family="Helvetica-Bold, Helvetica" font-size="40" font-weight="bold" fill="#FF0000">
                    <tspan x="227.376953" y="101">0</tspan>
                </text>
                <path d="M259,66 L259,109 L302,109 L302,66 L259,66 Z" id="Rectangle" stroke="#000000" stroke-width="2" fill="#FFFFFF"></path>
                <text id="1" font-family="Helvetica" font-size="36" font-weight="normal" fill="#000000">
                    <tspan x="270.489258" y="100">1</tspan>
                </text>
                <path d="M302,66 L302,109 L345,109 L345,66 L302,66 Z" id="Rectangle" stroke="#000000" stroke-width="2" fill="#FFFFFF"></path>
                <text id="1" font-family="Helvetica" font-size="36" font-weight="normal" fill="#000000">
                    <tspan x="313.489258" y="100">1</tspan>
                </text>
            </g>
            <text id="np.where(mask,-indic" font-family="AndaleMono, Andale Mono" font-size="36" font-weight="normal" fill="#0000DD">
                <tspan x="249.654297" y="230">np.where(mask, indices, 0)</tspan>
            </text>
            <g id="Group-47" transform="translate(314.000000, 295.000000)">
                <path d="M1,4 L1,47 L44,47 L44,4 L1,4 Z" id="Rectangle" stroke="#000000" stroke-width="2" fill="#FFFFFF"></path>
                <text id="0" font-family="Helvetica" font-size="36" font-weight="normal" fill="#000000">
                    <tspan x="12.4892578" y="38">0</tspan>
                </text>
                <path d="M44,4 L44,47 L87,47 L87,4 L44,4 Z" id="Rectangle" stroke="#000000" stroke-width="2" fill="#FFFFFF"></path>
                <text id="1" font-family="Helvetica" font-size="36" font-weight="normal" fill="#000000">
                    <tspan x="55.4892578" y="38">1</tspan>
                </text>
                <path d="M87,4 L87,47 L130,47 L130,4 L87,4 Z" id="Rectangle" stroke="#000000" stroke-width="2" fill="#FFFFFF"></path>
                <text id="2" font-family="Helvetica" font-size="36" font-weight="normal" fill="#000000">
                    <tspan x="98.4892578" y="38">2</tspan>
                </text>
                <path d="M130,4 L130,47 L173,47 L173,4 L130,4 Z" id="Rectangle" stroke="#000000" stroke-width="2" fill="#FFFFFF"></path>
                <text id="3" font-family="Helvetica" font-size="36" font-weight="normal" fill="#000000">
                    <tspan x="141.489258" y="38">3</tspan>
                </text>
                <path d="M173,4 L173,47 L216,47 L216,4 L173,4 Z" id="Rectangle" stroke="#000000" stroke-width="2" fill="#FFFFFF"></path>
                <text id="0" font-family="Helvetica-Bold, Helvetica" font-size="42" font-weight="bold" fill="#FF0000">
                    <tspan x="182.820801" y="40">0</tspan>
                </text>
                <path d="M216,4 L216,47 L259,47 L259,4 L216,4 Z" id="Rectangle" stroke="#000000" stroke-width="2" fill="#FFFFFF"></path>
                <text id="0" font-family="Helvetica-Bold, Helvetica" font-size="42" font-weight="bold" fill="#FF0000">
                    <tspan x="225.820801" y="40">0</tspan>
                </text>
                <path d="M259,4 L259,47 L302,47 L302,4 L259,4 Z" id="Rectangle" stroke="#000000" stroke-width="2" fill="#FFFFFF"></path>
                <text id="6" font-family="Helvetica" font-size="36" font-weight="normal" fill="#000000">
                    <tspan x="270.489258" y="38">6</tspan>
                </text>
                <path d="M302,4 L302,47 L345,47 L345,4 L302,4 Z" id="Rectangle" stroke="#000000" stroke-width="2" fill="#FFFFFF"></path>
                <text id="0" font-family="Helvetica-Bold, Helvetica" font-size="42" font-weight="bold" fill="#FF0000">
                    <tspan x="312.820801" y="40">0</tspan>
                </text>
                <path d="M345,4 L345,47 L388,47 L388,4 L345,4 Z" id="Rectangle" stroke="#000000" stroke-width="2" fill="#FFFFFF"></path>
                <text id="8" font-family="Helvetica" font-size="36" font-weight="normal" fill="#000000">
                    <tspan x="356.489258" y="38">8</tspan>
                </text>
                <path d="M388,4 L388,47 L431,47 L431,4 L388,4 Z" id="Rectangle" stroke="#000000" stroke-width="2" fill="#FFFFFF"></path>
                <text id="9" font-family="Helvetica" font-size="36" font-weight="normal" fill="#000000">
                    <tspan x="399.489258" y="38">9</tspan>
                </text>
            </g>
            <g id="Line-28" transform="translate(518.000000, 241.000000)">
                <path d="M12.5,0.5 L12.5,37" stroke="#000000" stroke-width="4" stroke-linecap="square"></path>
                <polygon id="Arrowhead" fill="#000000" transform="translate(12.500000, 37.000000) rotate(-90.000000) translate(-12.500000, -37.000000) " points="25 49.5 0 37 25 24.5"></polygon>
            </g>
            <g id="Group-44" transform="translate(0.000000, 62.000000)">
                <path d="M1,4 L1,47 L44,47 L44,4 L1,4 Z" id="Rectangle" stroke="#000000" stroke-width="2" fill="#FFFFFF"></path>
                <text id="1" font-family="Helvetica" font-size="36" font-weight="normal" fill="#000000">
                    <tspan x="12.4892578" y="38">1</tspan>
                </text>
                <path d="M44,4 L44,47 L87,47 L87,4 L44,4 Z" id="Rectangle" stroke="#000000" stroke-width="2" fill="#FFFFFF"></path>
                <text id="1" font-family="Helvetica" font-size="36" font-weight="normal" fill="#000000">
                    <tspan x="55.4892578" y="38">1</tspan>
                </text>
            </g>
            <g id="Group-51" transform="translate(617.000000, 0.000000)">
                <text id="indices" font-family="AndaleMono, Andale Mono" font-size="42" font-weight="normal" fill="#0000DD">
                    <tspan x="128.285645" y="38">indices</tspan>
                </text>
                <g id="Group-45" transform="translate(0.000000, 64.000000)">
                    <path d="M1,1 L1,44 L44,44 L44,1 L1,1 Z" id="Rectangle" stroke="#000000" stroke-width="2" fill="#FFFFFF"></path>
                    <text id="0" font-family="Helvetica" font-size="36" font-weight="normal" fill="#000000">
                        <tspan x="12.4892578" y="35">0</tspan>
                    </text>
                    <path d="M44,1 L44,44 L87,44 L87,1 L44,1 Z" id="Rectangle" stroke="#000000" stroke-width="2" fill="#FFFFFF"></path>
                    <text id="1" font-family="Helvetica" font-size="36" font-weight="normal" fill="#000000">
                        <tspan x="55.4892578" y="35">1</tspan>
                    </text>
                    <path d="M87,1 L87,44 L130,44 L130,1 L87,1 Z" id="Rectangle" stroke="#000000" stroke-width="2" fill="#FFFFFF"></path>
                    <text id="2" font-family="Helvetica" font-size="36" font-weight="normal" fill="#000000">
                        <tspan x="98.4892578" y="35">2</tspan>
                    </text>
                    <path d="M130,1 L130,44 L173,44 L173,1 L130,1 Z" id="Rectangle" stroke="#000000" stroke-width="2" fill="#FFFFFF"></path>
                    <text id="3" font-family="Helvetica" font-size="36" font-weight="normal" fill="#000000">
                        <tspan x="141.489258" y="35">3</tspan>
                    </text>
                    <path d="M173,1 L173,44 L216,44 L216,1 L173,1 Z" id="Rectangle" stroke="#000000" stroke-width="2" fill="#FFFFFF"></path>
                    <text id="4" font-family="Helvetica" font-size="36" font-weight="normal" fill="#000000">
                        <tspan x="184.489258" y="35">4</tspan>
                    </text>
                    <path d="M216,1 L216,44 L259,44 L259,1 L216,1 Z" id="Rectangle" stroke="#000000" stroke-width="2" fill="#FFFFFF"></path>
                    <text id="5" font-family="Helvetica" font-size="36" font-weight="normal" fill="#000000">
                        <tspan x="227.489258" y="35">5</tspan>
                    </text>
                    <path d="M259,1 L259,44 L302,44 L302,1 L259,1 Z" id="Rectangle" stroke="#000000" stroke-width="2" fill="#FFFFFF"></path>
                    <text id="6" font-family="Helvetica" font-size="36" font-weight="normal" fill="#000000">
                        <tspan x="270.489258" y="35">6</tspan>
                    </text>
                    <path d="M302,1 L302,44 L345,44 L345,1 L302,1 Z" id="Rectangle" stroke="#000000" stroke-width="2" fill="#FFFFFF"></path>
                    <text id="7" font-family="Helvetica" font-size="36" font-weight="normal" fill="#000000">
                        <tspan x="313.489258" y="35">7</tspan>
                    </text>
                    <path d="M345,1 L345,44 L388,44 L388,1 L345,1 Z" id="Rectangle" stroke="#000000" stroke-width="2" fill="#FFFFFF"></path>
                    <text id="8" font-family="Helvetica" font-size="36" font-weight="normal" fill="#000000">
                        <tspan x="356.489258" y="35">8</tspan>
                    </text>
                    <path d="M388,1 L388,44 L431,44 L431,1 L388,1 Z" id="Rectangle" stroke="#000000" stroke-width="2" fill="#FFFFFF"></path>
                    <text id="9" font-family="Helvetica" font-size="36" font-weight="normal" fill="#000000">
                        <tspan x="399.489258" y="35">9</tspan>
                    </text>
                </g>
            </g>
        </g>
    </g>
</svg>