<?xml version="1.0" encoding="UTF-8" standalone="no"?>
<svg width="432px" height="313px" viewBox="0 0 432 313" version="1.1" xmlns="http://www.w3.org/2000/svg" xmlns:xlink="http://www.w3.org/1999/xlink">
    <!-- Generator: Sketch 50.2 (55047) - http://www.bohemiancoding.com/sketch -->
    <title>Group 54</title>
    <desc>Created with Sketch.</desc>
    <defs></defs>
    <g id="Page-1" stroke="none" stroke-width="1" fill="none" fill-rule="evenodd">
        <g id="Group-54" transform="translate(-107.000000, -16.000000)">
            <text id="np.arange(len(arr))" font-family="AndaleMono, Andale Mono" font-size="36" font-weight="normal" fill="#0000DD">
                <tspan x="117.266602" y="212">np.arange(len(arr))</tspan>
            </text>
            <g id="Group-45" transform="translate(107.000000, 284.000000)">
                <path d="M1,1 L1,44 L44,44 L44,1 L1,1 Z" id="Rectangle" stroke="#000000" stroke-width="2" fill="#FFFFFF"></path>
                <text id="0" font-family="Helvetica" font-size="36" font-weight="normal" fill="#000000">
                    <tspan x="12.4892578" y="35">0</tspan>
                </text>
                <path d="M44,1 L44,44 L87,44 L87,1 L44,1 Z" id="Rectangle" stroke="#000000" stroke-width="2" fill="#FFFFFF"></path>
                <text id="1" font-family="Helvetica" font-size="36" font-weight="normal" fill="#000000">
                    <tspan x="55.4892578" y="35">1</tspan>
                </text>
                <path d="M87,1 L87,44 L130,44 L130,1 L87,1 Z" id="Rectangle" stroke="#000000" stroke-width="2" fill="#FFFFFF"></path>
                <text id="2" font-family="Helvetica" font-size="36" font-weight="normal" fill="#000000">
                    <tspan x="98.4892578" y="35">2</tspan>
                </text>
                <path d="M130,1 L130,44 L173,44 L173,1 L130,1 Z" id="Rectangle" stroke="#000000" stroke-width="2" fill="#FFFFFF"></path>
                <text id="3" font-family="Helvetica" font-size="36" font-weight="normal" fill="#000000">
                    <tspan x="141.489258" y="35">3</tspan>
                </text>
                <path d="M173,1 L173,44 L216,44 L216,1 L173,1 Z" id="Rectangle" stroke="#000000" stroke-width="2" fill="#FFFFFF"></path>
                <text id="4" font-family="Helvetica" font-size="36" font-weight="normal" fill="#000000">
                    <tspan x="184.489258" y="35">4</tspan>
                </text>
                <path d="M216,1 L216,44 L259,44 L259,1 L216,1 Z" id="Rectangle" stroke="#000000" stroke-width="2" fill="#FFFFFF"></path>
                <text id="5" font-family="Helvetica" font-size="36" font-weight="normal" fill="#000000">
                    <tspan x="227.489258" y="35">5</tspan>
                </text>
                <path d="M259,1 L259,44 L302,44 L302,1 L259,1 Z" id="Rectangle" stroke="#000000" stroke-width="2" fill="#FFFFFF"></path>
                <text id="6" font-family="Helvetica" font-size="36" font-weight="normal" fill="#000000">
                    <tspan x="270.489258" y="35">6</tspan>
                </text>
                <path d="M302,1 L302,44 L345,44 L345,1 L302,1 Z" id="Rectangle" stroke="#000000" stroke-width="2" fill="#FFFFFF"></path>
                <text id="7" font-family="Helvetica" font-size="36" font-weight="normal" fill="#000000">
                    <tspan x="313.489258" y="35">7</tspan>
                </text>
                <path d="M345,1 L345,44 L388,44 L388,1 L345,1 Z" id="Rectangle" stroke="#000000" stroke-width="2" fill="#FFFFFF"></path>
                <text id="8" font-family="Helvetica" font-size="36" font-weight="normal" fill="#000000">
                    <tspan x="356.489258" y="35">8</tspan>
                </text>
                <path d="M388,1 L388,44 L431,44 L431,1 L388,1 Z" id="Rectangle" stroke="#000000" stroke-width="2" fill="#FFFFFF"></path>
                <text id="9" font-family="Helvetica" font-size="36" font-weight="normal" fill="#000000">
                    <tspan x="399.489258" y="35">9</tspan>
                </text>
            </g>
            <g id="Group-50" transform="translate(107.000000, 73.000000)">
                <path d="M1,1 L1,44 L44,44 L44,1 L1,1 Z" id="Rectangle" stroke="#000000" stroke-width="2" fill="#FFFFFF"></path>
                <text id="20" font-family="Helvetica" font-size="25" font-weight="normal" fill="#000000">
                    <tspan x="8.59619141" y="32">20</tspan>
                </text>
                <path d="M44,1 L44,44 L87,44 L87,1 L44,1 Z" id="Rectangle" stroke="#000000" stroke-width="2" fill="#FFFFFF"></path>
                <text id="5" font-family="Helvetica" font-size="25" font-weight="normal" fill="#000000">
                    <tspan x="58.5480957" y="32">5</tspan>
                </text>
                <path d="M87,1 L87,44 L130,44 L130,1 L87,1 Z" id="Rectangle" stroke="#000000" stroke-width="2" fill="#FFFFFF"></path>
                <text id="3" font-family="Helvetica" font-size="25" font-weight="normal" fill="#000000">
                    <tspan x="101.548096" y="32">3</tspan>
                </text>
                <path d="M130,1 L130,44 L173,44 L173,1 L130,1 Z" id="Rectangle" stroke="#000000" stroke-width="2" fill="#FFFFFF"></path>
                <text id="8" font-family="Helvetica" font-size="25" font-weight="normal" fill="#000000">
                    <tspan x="144.548096" y="32">8</tspan>
                </text>
                <path d="M173,1 L173,44 L216,44 L216,1 L173,1 Z" id="Rectangle" stroke="#000000" stroke-width="2" fill="#FFFFFF"></path>
                <text id="nan" font-family="Helvetica-Bold, Helvetica" font-size="24" font-weight="bold" fill="#FF0000">
                    <tspan x="173.166016" y="30">nan</tspan>
                </text>
                <path d="M216,1 L216,44 L259,44 L259,1 L216,1 Z" id="Rectangle" stroke="#000000" stroke-width="2" fill="#FFFFFF"></path>
                <text id="nan" font-family="Helvetica-Bold, Helvetica" font-size="24" font-weight="bold" fill="#FF0000">
                    <tspan x="216.166016" y="30">nan</tspan>
                </text>
                <path d="M259,1 L259,44 L302,44 L302,1 L259,1 Z" id="Rectangle" stroke="#000000" stroke-width="2" fill="#FFFFFF"></path>
                <text id="6" font-family="Helvetica" font-size="25" font-weight="normal" fill="#000000">
                    <tspan x="273.548096" y="32">6</tspan>
                </text>
                <path d="M302,1 L302,44 L345,44 L345,1 L302,1 Z" id="Rectangle" stroke="#000000" stroke-width="2" fill="#FFFFFF"></path>
                <text id="nan" font-family="Helvetica-Bold, Helvetica" font-size="24" font-weight="bold" fill="#FF0000">
                    <tspan x="302.166016" y="30">nan</tspan>
                </text>
                <path d="M345,1 L345,44 L388,44 L388,1 L345,1 Z" id="Rectangle" stroke="#000000" stroke-width="2" fill="#FFFFFF"></path>
                <text id="25" font-family="Helvetica" font-size="25" font-weight="normal" fill="#000000">
                    <tspan x="352.596191" y="32">25</tspan>
                </text>
                <path d="M388,1 L388,44 L431,44 L431,1 L388,1 Z" id="Rectangle" stroke="#000000" stroke-width="2" fill="#FFFFFF"></path>
                <text id="5" font-family="Helvetica" font-size="25" font-weight="normal" fill="#000000">
                    <tspan x="402.548096" y="32">5</tspan>
                </text>
            </g>
            <text id="arr" font-family="AndaleMono, Andale Mono" font-size="42" font-weight="normal" fill="#0000DD">
                <tspan x="285.193848" y="38">arr</tspan>
            </text>
            <g id="Line-28" transform="translate(310.000000, 227.000000)">
                <path d="M12.5,0.5 L12.5,37" stroke="#000000" stroke-width="4" stroke-linecap="square"></path>
                <polygon id="Arrowhead" fill="#000000" transform="translate(12.500000, 37.000000) rotate(-90.000000) translate(-12.500000, -37.000000) " points="25 49.5 0 37 25 24.5"></polygon>
            </g>
            <g id="Line-28" transform="translate(310.000000, 131.000000)">
                <path d="M12.5,0.5 L12.5,37" stroke="#000000" stroke-width="4" stroke-linecap="square"></path>
                <polygon id="Arrowhead" fill="#000000" transform="translate(12.500000, 37.000000) rotate(-90.000000) translate(-12.500000, -37.000000) " points="25 49.5 0 37 25 24.5"></polygon>
            </g>
        </g>
    </g>
</svg>