<?xml version="1.0" encoding="UTF-8"?>
<svg width="943px" height="812px" viewBox="0 0 943 812" version="1.1" xmlns="http://www.w3.org/2000/svg" xmlns:xlink="http://www.w3.org/1999/xlink">
    <!-- Generator: Sketch 45.2 (43514) - http://www.bohemiancoding.com/sketch -->
    <title>Group</title>
    <desc>Created with Sketch.</desc>
    <defs></defs>
    <g id="Page-1" stroke="none" stroke-width="1" fill="none" fill-rule="evenodd">
        <g id="Group" fill-rule="nonzero">
            <g id="thermometer" transform="translate(157.000000, 405.000000)">
                <path d="M124.935085,249.409166 L124.935085,43.0305513 C124.935085,19.2662315 105.670736,0.00188165167 81.9064157,0.00188165167 L81.9064157,0.00188165167 C58.1420959,0.00188165167 38.8777461,19.2662315 38.8777461,43.0305513 L38.8777461,249.409166 C14.8321193,264.298676 -0.937062533,291.281561 0.0940825837,321.874394 C1.51567042,364.045972 35.3458859,398.572398 77.4826526,400.788984 C124.70082,403.272764 163.76579,365.721583 163.76579,319.045331 C163.766731,289.623826 148.236519,263.838612 124.935085,249.409166 Z" id="Shape" fill="#76CDCE"></path>
                <path d="M101.414439,47.0431735 L101.414439,262.509225 L112.551936,269.406419 C129.893237,280.145005 140.246085,298.700913 140.246085,319.045331 C140.246085,334.62917 134.177758,349.280651 123.159747,360.298662 C112.141736,371.316674 97.4930773,377.385 81.9111198,377.385 C81.910179,377.385 81.9092382,377.385 81.9082973,377.385 C80.8508091,377.385 79.7782677,377.356776 78.7198386,377.301267 C48.823216,375.728206 24.6120039,351.03435 23.6024978,321.082219 C22.89876,300.208116 33.4971631,280.407496 51.2618365,269.406419 L62.3993328,262.509225 L62.3993328,47.0431735 L101.414439,47.0431735 Z" id="Shape" fill="#F4581B"></path>
                <path d="M163.770494,319.04345 C163.770494,325.572781 163.008425,331.913947 161.559554,338.00109 L38.8758644,215.317401 L38.8758644,43.0333738 C38.8758644,31.1507435 43.6928927,20.3876959 51.4829306,12.6070662 C59.2729685,4.81702828 70.0266079,0 81.9092382,0 C105.674499,0 124.933204,19.2681131 124.933204,43.0333738 L124.933204,249.412929 C148.23746,263.835789 163.770494,289.623826 163.770494,319.04345 Z" id="Shape" fill="#96E0DE"></path>
                <path d="M62.398392,47.0422327 L62.398392,238.838988 L140.191517,316.632113 C139.406868,297.240752 129.204553,279.71787 112.551936,269.406419 L101.414439,262.509225 L101.414439,47.0422327 L62.398392,47.0422327 Z" id="Shape" fill="#ED6440"></path>
            </g>
            <g id="snowflake" transform="translate(574.000000, 0.000000)" fill="#008DB3">
                <path d="M368.296648,162.062742 L315.741778,162.062742 L345.421657,110.660033 L333.214019,103.611743 L299.464927,162.062742 L217.935007,162.062742 C216.418215,154.695869 212.572668,148.169153 207.20469,143.288917 L247.913734,72.7740643 L315.40346,72.7740643 L315.40346,58.6774843 L256.05122,58.6774843 L282.331944,13.1558683 L270.124305,6.10757824 L243.843581,51.6291943 L214.164642,0.219906649 L201.957003,7.26819667 L235.705156,65.7267141 L195.073173,136.108119 C191.519895,134.885476 187.713819,134.212599 183.7508,134.212599 C180.038701,134.212599 176.462868,134.800896 173.104123,135.878815 L132.59995,65.7220152 L166.344343,7.2738353 L154.136705,0.225545281 L124.461524,51.6244954 L98.18268,6.10757824 L85.9750417,13.1558683 L112.253886,58.6737252 L52.8913081,58.6718457 L52.8903683,72.7684257 L120.392312,72.771245 L160.8354,142.82279 C155.18925,147.750014 151.132254,154.455288 149.565654,162.063682 L68.8373594,162.063682 L35.0910866,103.612683 L22.8834483,110.660973 L52.5614481,162.063682 L0,162.063682 L0,176.160262 L52.5567492,176.160262 L22.8759301,227.564851 L35.0835684,234.613141 L68.8336003,176.160262 L149.565654,176.160262 C151.132254,183.768656 155.18831,190.473929 160.83446,195.402094 L120.392312,265.450819 L52.8950672,265.450819 L52.8950672,279.547399 L112.255766,279.547399 L85.9759814,325.067136 L98.1836197,332.115426 L124.459645,286.602268 L154.134825,338.004037 L166.342464,330.955747 L132.59807,272.504748 L173.104123,202.344189 C176.462868,203.423048 180.038701,204.011345 183.75174,204.011345 C187.714759,204.011345 191.521775,203.338468 195.075053,202.115825 L235.704216,272.492531 L201.954184,330.950108 L214.161822,337.998398 L243.842642,286.590051 L270.124305,332.114486 L282.331944,325.066196 L256.054979,279.550219 L315.406279,279.552098 L315.407219,265.455518 L247.916553,265.452699 L207.20563,194.934087 C212.573608,190.053851 216.419155,183.526195 217.935947,176.159322 L299.460228,176.159322 L333.208381,234.612201 L345.416019,227.563911 L315.737079,176.159322 L368.296648,176.159322 L368.296648,162.062742 Z M162.947068,169.111972 C162.947068,157.641115 172.279943,148.309179 183.7508,148.309179 C195.221657,148.309179 204.553593,157.641115 204.553593,169.111972 C204.553593,180.582829 195.221657,189.915705 183.7508,189.915705 C172.279943,189.915705 162.947068,180.582829 162.947068,169.111972 Z" id="Shape"></path>
            </g>
            <g id="raindrop" transform="translate(628.000000, 399.000000)">
                <path d="M251.428389,360.789275 C248.498546,364.388797 245.353449,367.856774 242.005056,371.205167 C214.332985,398.877238 178.062721,412.725232 141.792457,412.725232 C105.522193,412.725232 69.2519287,398.877238 41.5678992,371.205167 C14.2306674,343.867935 0.0597927204,307.585712 0.0597927204,270.944733 C0.0597927204,245.461076 6.92399702,219.79804 20.9872449,196.873511 L46.2915241,155.640451 L141.792457,0 L179.665166,61.7300045 L208.700511,109.038005 L262.585711,196.873511 C294.395438,248.725758 289.362087,314.545585 251.428389,360.789275 Z" id="Shape" fill="#76CDCE"></path>
                <path d="M251.428389,360.789275 L46.2915241,155.640451 L141.792457,0 L179.665166,61.7300045 L208.700511,109.038005 L262.585711,196.873511 C294.395438,248.725758 289.362087,314.545585 251.428389,360.789275 Z" id="Shape" fill="#96E0DE"></path>
            </g>
            <g id="cloud" transform="translate(0.000000, 4.000000)" fill="#1EA6C6">
                <path d="M82.3686496,122.653696 C82.356791,121.961943 82.3422971,121.271508 82.3422971,120.578437 C82.3422971,54.4929893 135.915585,0.919701781 202.001033,0.919701781 C258.951392,0.919701781 306.604593,40.706686 318.692479,94.0006372 C329.964755,87.6905343 342.948625,84.0776084 356.784998,84.0776084 C399.958277,84.0776084 434.957014,119.076346 434.957014,162.249624 C434.957014,164.013923 434.877957,165.759776 434.762006,167.495087 C466.813217,179.393235 489.655553,210.244091 489.655553,246.435278 C489.655553,292.92897 451.964909,330.620932 405.469899,330.620932 L105.232067,330.620932 C47.1142931,330.619614 0,283.505321 0,225.387547 C0,175.121497 35.2451331,133.094551 82.3686496,122.653696 Z" id="Shape"></path>
            </g>
        </g>
    </g>
</svg>